<svg width="181" height="57" viewBox="0 0 181 57" fill="none" xmlns="http://www.w3.org/2000/svg">
<g clip-path="url(#clip0_804_352)">
<path d="M72.1989 10.0371V19.3722C72.1989 20.4414 72.4543 21.2552 72.9492 21.8137C73.444 22.3722 74.1783 22.6594 75.1361 22.6594C76.0938 22.6594 76.8121 22.3722 77.3229 21.8137C77.8178 21.2552 78.0732 20.4414 78.0732 19.3722V10.0371H82.1596V19.3722C82.1596 20.9041 81.8563 22.1807 81.2338 23.2339C80.6112 24.2712 79.7652 25.069 78.6957 25.5956C77.6262 26.1222 76.4131 26.3775 75.0562 26.3775C73.6994 26.3775 72.5022 26.1222 71.4806 25.5956C70.443 25.085 69.629 24.2871 69.0383 23.2339C68.4477 22.1807 68.1604 20.8882 68.1604 19.3722V10.0371H72.2149H72.1989Z" fill="white"/>
<path d="M97.0049 10.0371V13.1488H92.4236V26.202H88.3212V13.1488H83.7878V10.0371H97.0208H97.0049Z" fill="white"/>
<path d="M102.799 13.1488V16.5318H108.498V19.4839H102.799V23.0743H109.216V26.202H98.7129V10.0371H109.216V13.1488H102.799Z" fill="white"/>
<path d="M124.588 11.5053C125.993 12.5904 126.903 14.0584 127.318 15.8936H122.992C122.673 15.1436 122.178 14.5531 121.523 14.1382C120.869 13.7074 120.071 13.4999 119.177 13.4999C117.98 13.4999 117.022 13.9148 116.288 14.7606C115.553 15.6063 115.186 16.7233 115.186 18.1276C115.186 19.5319 115.553 20.6489 116.288 21.4787C117.022 22.3084 117.98 22.7233 119.177 22.7233C120.087 22.7233 120.869 22.5159 121.523 22.085C122.178 21.6542 122.673 21.0797 122.992 20.3457H127.318C126.903 22.1808 125.993 23.6329 124.588 24.718C123.183 25.8031 121.396 26.3616 119.257 26.3616C117.612 26.3616 116.176 26.0106 114.931 25.3244C113.686 24.6382 112.728 23.6648 112.057 22.4042C111.387 21.1595 111.036 19.7233 111.036 18.1276C111.036 16.5319 111.371 15.0957 112.057 13.851C112.744 12.6063 113.686 11.6329 114.931 10.9308C116.176 10.2446 117.612 9.89355 119.257 9.89355C121.412 9.89355 123.183 10.4361 124.588 11.5212V11.5053Z" fill="white"/>
<path d="M71.6403 30.7979L74.0347 44.1542L81.3616 30.7979H84.3146L75.2639 46.9468H71.784L68.6873 30.7979H71.6403Z" fill="white"/>
<path d="M88.6883 32.9042L87.8103 37.8032H93.9878L93.6047 39.8138H87.4272L86.5173 44.8244H93.4132L93.0301 46.9468H83.3887L86.3418 30.7979H95.9832L95.6001 32.9042H88.6723H88.6883Z" fill="white"/>
<path d="M109.328 46.9469H106.598L100.612 35.0267L98.4094 46.9469H95.6958L98.6489 30.814H101.378L107.364 42.7821L109.567 30.814H112.297L109.344 46.9469H109.328Z" fill="white"/>
<path d="M126.408 30.7979L126.025 32.9042H121.316L118.746 46.9468H116L118.57 32.9042H113.893L114.276 30.7979H126.408Z" fill="white"/>
<path d="M131.069 30.7979L129.329 40.3883C129.233 40.867 129.186 41.2979 129.186 41.6968C129.186 42.6861 129.457 43.4202 130 43.9149C130.542 44.4096 131.309 44.6489 132.298 44.6489C133.479 44.6489 134.453 44.2979 135.251 43.5957C136.049 42.8936 136.576 41.8244 136.832 40.3883L138.603 30.7979H141.333L139.593 40.3883C139.178 42.6064 138.268 44.2659 136.864 45.4149C135.459 46.5638 133.767 47.1223 131.819 47.1223C130.159 47.1223 128.85 46.7074 127.893 45.8776C126.935 45.0479 126.44 43.8191 126.44 42.1915C126.44 41.601 126.488 40.9947 126.616 40.4042L128.387 30.8138H131.117L131.069 30.7979Z" fill="white"/>
<path d="M154.199 31.8349C155.045 32.5371 155.46 33.4785 155.46 34.6594C155.46 35.0424 155.428 35.3934 155.364 35.7126C155.141 36.9732 154.582 38.0105 153.688 38.8243C152.794 39.6381 151.629 40.1488 150.176 40.3722L153.401 46.9307H150.352L147.351 40.4839H145.419L144.222 46.9307H141.509L144.462 30.7817H150.4C152.092 30.7817 153.353 31.1328 154.199 31.819V31.8349ZM152.65 35.186C152.65 33.7498 151.693 33.0317 149.777 33.0317H146.792L145.739 38.6328H148.724C150.958 38.6328 152.235 37.7073 152.571 35.8402C152.619 35.6168 152.65 35.3934 152.65 35.17V35.186Z" fill="white"/>
<path d="M161.079 32.9042L160.201 37.8032H166.378L165.995 39.8138H159.818L158.908 44.8244H165.804L165.42 46.9468H155.779L158.732 30.7979H168.374L167.99 32.9042H161.063H161.079Z" fill="white"/>
<path d="M178.973 45.0795C178.478 45.6859 177.807 46.1806 176.961 46.5476C176.131 46.9146 175.158 47.1061 174.04 47.1061C172.843 47.1061 171.822 46.8987 170.96 46.4997C170.098 46.1008 169.443 45.5423 169.012 44.8402C168.581 44.138 168.358 43.3402 168.374 42.4625H171.263C171.231 43.1646 171.454 43.771 171.917 44.2657C172.38 44.7763 173.114 45.0157 174.072 45.0157C174.982 45.0157 175.7 44.7604 176.227 44.2338C176.754 43.7232 177.009 43.0689 177.009 42.3189C177.009 41.8083 176.866 41.3774 176.578 41.0263C176.291 40.6912 175.924 40.404 175.493 40.1806C175.062 39.9572 174.455 39.7178 173.721 39.4306C172.827 39.0955 172.109 38.7923 171.566 38.5051C171.023 38.2178 170.545 37.8189 170.177 37.3083C169.794 36.7976 169.603 36.1274 169.603 35.3136C169.603 34.9625 169.635 34.6115 169.698 34.2604C169.906 33.1434 170.545 32.2498 171.598 31.5795C172.652 30.9093 173.945 30.5742 175.477 30.5742C177.281 30.5742 178.638 30.9732 179.547 31.771C180.457 32.5689 180.936 33.6061 181 34.8668H178.063C178.063 34.2604 177.855 33.7338 177.424 33.3029C176.993 32.8721 176.339 32.6487 175.445 32.6487C174.615 32.6487 173.945 32.8561 173.418 33.271C172.891 33.6859 172.636 34.2923 172.636 35.0742C172.636 35.5529 172.779 35.9359 173.051 36.271C173.322 36.5902 173.673 36.8455 174.088 37.0529C174.503 37.2604 175.078 37.4838 175.812 37.7551C176.706 38.0742 177.424 38.3774 177.999 38.6806C178.558 38.9838 179.053 39.3987 179.436 39.9253C179.835 40.4519 180.026 41.138 180.026 41.9838C180.026 42.3668 179.994 42.7338 179.931 43.0849C179.803 43.787 179.484 44.4412 178.989 45.0476L178.973 45.0795Z" fill="white"/>
<path d="M18.1335 12.1915H33.8727V5.61702C33.8727 2.52128 31.4942 0 28.589 0H5.28362C2.37843 0 0 2.52128 0 5.61702V25.9468C0 36.9096 5.57095 43.3883 13.7917 44.6808C13.7917 44.6808 13.8236 44.6808 13.8396 44.6808C14.1269 44.7287 14.4142 44.7606 14.7175 44.7925C14.7814 44.7925 14.8452 44.7926 14.9091 44.8085C15.1645 44.8404 15.4358 44.8564 15.6912 44.8723C15.7711 44.8723 15.8509 44.8723 15.9307 44.8723C16.2659 44.8723 16.6011 44.9043 16.9363 44.9043C17.2715 44.9043 17.6068 44.9043 17.942 44.8723C18.0218 44.8723 18.1016 44.8723 18.1814 44.8723C18.4528 44.8723 18.7082 44.8404 18.9636 44.8085C19.0274 44.8085 19.0913 44.8085 19.1551 44.7925C19.4584 44.7606 19.7457 44.7287 20.0331 44.6808C20.0331 44.6808 20.065 44.6808 20.081 44.6808C21.0068 44.5372 21.9007 44.3138 22.7627 44.0266L12.5147 20.7766C10.7269 16.7394 13.6959 12.1915 18.1176 12.1915H18.1335Z" fill="white"/>
<path d="M46.8343 12.1914H33.8727V25.9467C33.8727 35.6648 29.483 41.8403 22.7627 44.0265L23.8801 46.5797L26.8651 53.3616C29.0041 58.2286 35.9318 58.2286 38.0708 53.3616L52.4212 20.7925C54.209 16.7552 51.24 12.2074 46.8183 12.2074L46.8343 12.1914Z" fill="white"/>
</g>
<defs>
<clipPath id="clip0_804_352">
<rect width="181" height="57" fill="white"/>
</clipPath>
</defs>
</svg>
