<?xml version="1.0" encoding="UTF-8"?>
<svg id="Capa_2" data-name="Capa 2" xmlns="http://www.w3.org/2000/svg" viewBox="0 0 217.69 58.42">
  <defs>
    <style>
      .cls-1 {
        fill: #fff;
      }
    </style>
  </defs>
  <g id="Espalda">
    <g>
      <path class="cls-1" d="M22.24,57.67c.35.06,1.26.27,1.17-.31C3.61,52.67-3.12,27.62,10.22,12.51,21.59-.35,42.83,1.64,51.31,16.62c8.72,15.41-.52,35.06-17.98,37.65,11.33-14.42,10.1-37.68-4.23-49.6-12.52,11.5-15.08,31.33-6.21,45.84,7.14-6.82,10.16-15.81,7.75-25.54-.24-.99-.53-2.65-1.41-3.21v6.67c0,1.42-1.22,5.63-1.79,7.11-.78,2-2.01,3.54-3,5.39-.5-.05-.54-.5-.67-.87-2.37-6.69-.83-17.03,2.32-23.32.3-.59,2.51-4.22,2.79-4.4.83-.54,2.28,2.14,2.68,2.81,7.64,12.73,5.18,29.43-5.39,39.69,1.77,2.95,2.4,3.79,5.96,3.54,25.21-1.75,35.28-34.89,16.27-51.17C26.58-11.47-6.09,8.91.98,36.82c2.35,9.28,11.6,19.24,21.26,20.85Z"/>
      <g>
        <path class="cls-1" d="M118.81,39.47h12.84v-12.32h-9.07c-.83,0-1.66,1.47-1.4,2.4.6,2.22,3.92,1.12,5.68,1.36v4.79h-6.33c-.34,0-2.09-1.28-2.38-1.72-1.31-1.97-1.15-7.51.01-9.55,2.11-3.68,9.13-1.21,12.23-2.15.56-.17.88-.81,1.13-1.29.16-1.45-1.1-2.26-2.42-2.41-3.44-.4-10.94-.13-13.7,2.06-3.82,3.03-4.08,11.67-1.48,15.52.81,1.2,3.48,3.31,4.91,3.31Z"/>
        <path class="cls-1" d="M204.19,27.34c-2.5-.6-2.26-4.23.22-4.62,3.26-.51,8.93.7,11.8-.18,2.34-.71,1.91-3.61-1.21-3.95-2.76-.31-10.65-.24-13.19.5-3.78,1.11-4.83,5.3-3.57,8.73,2.19,5.97,13.09,1.94,14.37,4.11.37.62.24,2.59-.15,3.2-.87,1.37-11.13-.02-13.4.72-1.93.63-1.64,3.34.52,3.63,2.6.35,10.33.28,13.02-.02,1.05-.12,2.73-.74,3.48-1.49,1.75-1.75,1.97-5.86.87-8-2.17-4.21-9-1.75-12.76-2.65Z"/>
        <path class="cls-1" d="M177.44,18.35c-8.78.91-10.94,10.25-7.51,17.25,3.11,6.35,16.11,6.1,18.71-.92,3.29-8.88-.97-17.38-11.19-16.33ZM184.26,32.36c-1.43,5.46-9.07,5.33-10.36.29-.92-3.58-.74-9.77,3.87-10.55,6.41-1.08,7.79,5.33,6.5,10.26Z"/>
        <path class="cls-1" d="M155.06,18.75c-1.99-.57-6.66-.56-9.62-.32h-1.72c-1.15,0-2.08.89-2.15,2.02,0,.01,0,.03,0,.04,0,.01,0,.03,0,.04,0,.02,0,.04,0,.06,0,.24.04.47.11.68,0,.02.01.03.02.05.02.06.05.12.07.18.03.06.06.12.09.18.37.64,1.07,1.07,1.86,1.07h1.32c3.23.13,8.45-.33,9.62.68,1.2,1.03.81,3.39-.76,3.91-.04.01-.08.03-.14.04h-12.2v12.09h4.45v-7.87h5.48l4.28,7.87h4.96l-5.13-8.39c5.46-1.41,4.9-10.78-.55-12.33Z"/>
        <path class="cls-1" d="M89.77,20.4l-9.12,19.08h5.13l7.87-16.09,7.35,15.75,4.97.33-8.61-18.59c-1.45-2.63-5.79-2.67-7.59-.48Z"/>
        <path class="cls-1" d="M92.87,31.65c-2.81.43-2.55,5.43,1.22,4.32,2.43-.71,1.11-4.68-1.22-4.32Z"/>
      </g>
    </g>
  </g>
</svg>