<?xml version="1.0" encoding="UTF-8"?>
<svg id="Capa_2" data-name="Capa 2" xmlns="http://www.w3.org/2000/svg" viewBox="0 0 278.43 37.66">
  <defs>
    <style>
      .cls-1 {
        fill: #fafdff;
      }
    </style>
  </defs>
  <g id="Espalda">
    <g>
      <path class="cls-1" d="M29.51,31.31h-7.04l-2.08-6.31-11.54.07c-.65.39-1.5,5.4-2.15,6.24H0c2.22-7.22,4.99-14.29,7.9-21.25.88-2.11,2.79-5.32,3.34-7.33.35-1.27-.29-1.62-.57-2.73h6.02c5.13,10.03,9.29,20.62,12.82,31.31ZM10.44,19.74h8.17l-3.97-10.67-1,1.32-3.2,9.35Z"/>
      <path class="cls-1" d="M134.15.68v28.93c0,.24-1.46.66-1.77.73-9.5,2.23-18.12-.55-17.05-11.82.64-6.71,6.6-10.69,12.91-7.86V1.59l5.9-.91ZM122.65,24.88c1.02,1.05,4.97,1.9,5.72.77.26-.39.24-8.51.12-9.44-.22-1.61-3.11-1.67-4.39-1.41-3.67.75-3.64,7.82-1.44,10.08Z"/>
      <path class="cls-1" d="M212.91.68v29.27c-6.75,1.47-15.96,2.47-18.27-5.9-2.12-7.71,2.14-15.89,11.02-13.96.33.07,1.58.84,1.58.24V1.59l5.67-.91ZM207.24,25.87v-10.32c-5.84-3.17-8.6,2.58-6.69,7.6,1.15,3.03,3.78,3.31,6.69,2.73Z"/>
      <path class="cls-1" d="M38.59,30.18v7.15s-.32.34-.34.34h-5.22s-.34-.32-.34-.34V10.89c3.01-.69,6.31-1.36,9.42-1.13,14.68,1.09,11.48,25.9-3.52,20.42ZM38.7,14.75c-.07.12-.34.28-.34.34v9.98c0,.82,3.72,1.02,4.59.73,3.35-1.11,3.32-7.34,1.41-9.69-.22-.27-1.84-1.37-2.03-1.37h-3.63Z"/>
      <path class="cls-1" d="M155.49,22.24c.74,5.19,7.48,3.58,11.12,2.95l.65,4.41c-.22.9-6.73,1.54-7.81,1.5-15.63-.57-11.95-25.15,2.84-20.99,3.29.92,6.13,4.75,6.13,8.16v3.63s-.32.34-.34.34h-12.6ZM162.75,18.38c.12-5.35-7.2-5.16-7.49,0h7.49Z"/>
      <path class="cls-1" d="M89.43,22.24h-12.94c1.01,5.19,7.41,3.59,11.1,2.97.17.14.74,4.15.68,4.37-.21.69-3.26,1.16-3.98,1.26-8.64,1.19-14.43-2.71-13.71-11.89.38-4.86,3.98-8.91,8.96-9.19,7.71-.43,10.71,5.61,9.88,12.49ZM83.99,18.38c-.13-5.28-7.38-5.24-7.49,0h7.49Z"/>
      <path class="cls-1" d="M225.58,9.82c15.4-1.78,15.27,22.25.87,21.23-12.23-.86-12.08-19.93-.87-21.23ZM226.02,14.8c-4.07.83-4.22,11.67,1.5,11.28,5.1-.35,4.78-10.67.7-11.31-.57-.09-1.64-.08-2.2.04Z"/>
      <path class="cls-1" d="M278.26,29.93c-4.57.95-14.53,2.65-16.82-2.77-2.46-5.82,2.48-9.43,7.88-9.48.74,0,2.76.54,3.16.45.89-.19-.18-2.47-.89-2.93-2.46-1.6-7.44.36-8.03-.02l-.68-4.49c5.41-1.59,14.66-2.25,15.41,5.31.44,4.39-.3,9.47-.02,13.93ZM272.84,22.01c-1.98-.37-6.24-.84-6.15,2.16s4.19,2.26,6.15,2.15v-4.31Z"/>
      <path class="cls-1" d="M99.65,14.98v15.32s-.32.34-.34.34h-5.22s-.34-.32-.34-.34V10.89c5.43-1.32,14.85-3.01,17.04,3.96.09.3.44,1.64.44,1.83v13.61s-.32.34-.34.34h-5.22s-.34-.32-.34-.34v-12.48c0-.1-.53-1.67-.63-1.86-.86-1.62-3.55-.98-5.04-.97Z"/>
      <path class="cls-1" d="M184.31,30.4v-12.37c0-.28-.45-1.54-.63-1.86-1.06-1.92-3.48-1.34-5.27-1.2v15.43h-5.67V10.89c5.41-1.27,14.92-3.02,16.91,4.08.2.71.57,2.42.57,3.06v12.03s-.32.34-.34.34h-5.56Z"/>
      <path class="cls-1" d="M255.36.68v22.58c0,.07.33,1.27.4,1.42.55,1.2,2.61,1.23,2.76,1.44.14.19-.56,4.43-.88,4.64-.65.43-3.79-.29-4.6-.64-2.02-.86-3.24-2.61-3.36-4.81V1.92s.15-.34.15-.34l5.53-.9Z"/>
      <path class="cls-1" d="M55.61,11.69c.19-.67,3.91-1.52,4.71-1.64,2.84-.45,5.65-.33,8.43.42.28.32-.54,4.62-.87,4.88-.89-.02-1.7-.33-2.61-.37-.58-.03-3.76-.14-3.76.35v15.09h-5.56s-.34-.32-.34-.34V11.69Z"/>
      <rect class="cls-1" x="139.37" y="10.21" width="5.67" height="20.19"/>
      <path class="cls-1" d="M241.46,23.88c6.55-1.1,5.56,9.13-.57,6.82-3.37-1.27-2.74-6.26.57-6.82Z"/>
      <path class="cls-1" d="M141.12,1.19c5.8-1.2,6.16,7.06.85,6.77-4.16-.23-4.26-6.07-.85-6.77Z"/>
    </g>
  </g>
</svg>