<?xml version="1.0" encoding="UTF-8"?>
<svg id="Capa_2" data-name="Capa 2" xmlns="http://www.w3.org/2000/svg" viewBox="0 0 161.99 42.47">
  <defs>
    <style>
      .cls-1 {
        fill: #f6f6f6;
      }
    </style>
  </defs>
  <g id="Espalda">
    <g>
      <path fill="#FFFFFF" d="M98.95,13.89c-5.08-4.36-12.52-4.33-17.55.1-1,.89-2.77,2.97-3.09,4.24v.08s0-.05,0-.08c-.42.56-.66,1.3-.79,1.98-.01.07.01.17,0,.24-.2.1-.24.43-.28.63-1.76,8.57,4.7,16.3,13.4,16.16l1.23-.16c2.78-.17,5.55-1.69,7.53-3.56.72-.68,1.35-1.35,1.9-2.18.43-.64.89-1.34,1.03-2.1h-5.75s-.08-.06-.14-.06c-.31.02-1.02.8-1.33,1.04-.5.38-1.06.66-1.58,1h0s0,0,0,0c-4.07,1.44-8.27.3-10.36-3.62-.12-.23-.31-.63-.34-.89.02-.03.05-.05.08-.08l20.29-.08c1.16-4.52-.76-9.65-4.25-12.66ZM97.65,21.32c-4.79.03-9.59-.04-14.39,0-.13,0-.37.2-.44-.2-.05-.31.59-1.43.79-1.74,3.1-4.55,9.96-4.54,13.14-.07.39.56.95,1.31.89,2Z"/>
      <path fill="#FFFFFF" d="M126.07,12.53h-.04s.03,0,.04,0Z"/>
      <path fill="#FFFFFF" d="M132.76,24.05c-.09-1.97-.37-3.38-1.11-5.19-.02-.05-.05-.09-.07-.14.03.06.06.11.07.14-3.9-9.48-17.36-11.01-23.15-2.48-.75,1.1-1.33,2.32-1.74,3.59-.32.97-.58,1.93-.64,2.97-.27,4.53.24,9.31-.03,13.86,0,.1.07.43.15.43h5.07s.14-.12.16-.16c0,0,.04-13.93.04-13.94.01-3.92,4.1-7.11,7.8-7.14,4.12-.03,7.69,3.24,8.05,7.33v13.55c0,.19.09.32.28.35h4.68c.23.01.35-.17.42-.37-.11-4.23.2-8.59.02-12.81Z"/>
      <path fill="#FFFFFF" d="M161.99,19.7c-.04-4.59-.07-9.18-.11-13.77,0-.09,0-.19,0-.28,0-.07,0-.15-.04-.21-.07-.1-.21-.11-.34-.11-1.48.01-2.96.02-4.45.04-.14,0-.3,0-.4.11-.1.1-.1.26-.1.4,0,2.42,0,4.83,0,7.25-1.77-.9-3.25-1.66-5.21-2-1.95-.34-3.91-.45-5.85.02-2.58.63-4.99,1.99-6.76,3.98-3.49,3.91-4.31,9.98-1.99,14.68,2.33,4.7,7.65,7.72,12.88,7.32,4.02-.31,7.74-2.66,9.98-5.98,2.39-3.52,2.43-7.35,2.4-11.43ZM153.86,29.37c-1.24,1.26-2.87,2.13-4.64,2.29-3.11.28-6.27-1.47-7.55-4.34-2.39-5.38,1.85-11.81,7.88-11.06,3.66.46,6.59,3.63,6.7,7.32.06,2.14-.9,4.28-2.38,5.79Z"/>
      <path fill="#FFFFFF" d="M68.65,13.07c-1.57-1.09-3.36-1.86-5.24-2.23-2.89-.58-5.73-.03-8.36,1.26-.44.21-.87.45-1.28.7-.14.08-.23.4-.58.29v-7.41c0-.16-.26-.34-.43-.36-1.38-.19-3.18.15-4.61,0-.25-.01-.35.25-.43.44v18.61c.19,1.35.32,2.6.77,3.91.31.92.81,1.94,1.37,2.71.9,2,3.67,4.08,5.63,4.99,5.72,2.66,12.55.98,16.25-4.12,3.88-5.35,3.46-12.45-1.19-17.19-.58-.59-1.22-1.12-1.89-1.6ZM49.86,30.94v-.04s0,.03,0,.04ZM68.56,13.08s0,0,0,0h0ZM68.78,26.25c-1.52,5.1-8.05,7.5-12.34,4.18,0,0,0,0,0,0-3.3-2.56-4.34-7.06-2.09-10.68,2.96-4.77,9.88-4.96,13.17-.43.46.63.78,1.46,1.12,2.01h0c.6.94.46,3.86.14,4.93Z"/>
      <path fill="#FFFFFF" d="M35.04,25.52c-1.46-1.96-3.58-3.36-5.48-4.82l-15.29,9.49,13.78-11.32h0c.23-.31.69-.62.89-.83,1.05-1.12,1.9-2.46,2.38-3.92,1.18-3.61.51-7.46-1.95-10.37-1.26-1.49-3.86-3.25-5.82-3.42-.18-.02-.37.01-.55,0l-.3-.21C15.29-.12,7.85.09.44.01.13.01,0,.33,0,.61v40.54c.06.63.53,1.18,1.15,1.32h26.24c.77-.1,1.51-.28,2.26-.48.21-.06.63.03.63-.32.05-.01.11.01.16,0,2.15-.55,4.22-2.62,5.31-4.51,2.18-3.79,1.89-8.16-.71-11.64ZM33.86,24.32c.42.41.8.81,1.1,1.2-.35-.41-.72-.81-1.1-1.2Z"/>
    </g>
  </g>
</svg>