<?xml version="1.0" encoding="UTF-8"?>
<svg id="Capa_2" data-name="Capa 2" xmlns="http://www.w3.org/2000/svg" viewBox="0 0 679.97 229.22">
  <defs>
    <style>
      .cls-1 {
        background-color: #FFFFFF;
      }
    </style>
  </defs>
  <g id="Capa_1-2" data-name="Capa 1">
    <g>
      <polygon fill="#FFFFFF" points="0 225.02 36.14 229.22 36.14 0 0 7.1 0 225.02"/>
      <polygon fill="#FFFFFF" points="36.15 229.22 72.29 225.02 72.29 7.1 36.15 0 36.15 229.22"/>
      <path fill="#FFFFFF" d="M133.92,94.27c18.07-31.96,5.81-56.82-6.45-68.12-6.45-5.81-17.1-11.62-24.2-12.91l-24.2-4.84v215.98l38.72-4.84c.65-.32,12.26-1.29,19.36-5.49,20.33-11.62,28.72-36.8,27.75-62.63-.97-34.87-30.98-57.14-30.98-57.14Z"/>
      <path fill="#FFFFFF" d="M301.45,111.7v-.65c6.13-4.84,9.36-11.62,9.36-20.34,0-18.4-13.55-29.7-34.53-29.7h-40.98v94.27c0,5.49,4.52,10.01,10,10.01h33.88c10.65,0,19.04-2.91,25.49-8.39,6.45-5.49,9.68-12.91,9.68-22.28,0-10.33-4.19-17.76-12.91-22.92ZM262.4,85.23l13.55-.32c5.16,0,9.36,4.52,8.71,9.69-.65,4.2-4.2,6.78-8.39,6.78h-13.55c-.32,0-.32-.32-.32-.32v-15.82ZM287.89,134.63c-.97,4.2-4.19,6.78-9.04,6.78h-16.13c-.32,0-.32-.32-.32-.32v-16.79c0-.32.32-.32.32-.32h15.81c5.81,0,10.33,5.17,9.36,10.65Z"/>
      <path fill="#FFFFFF" d="M339.84,61.02c-7.1,0-13.23,5.81-13.23,13.24v77.81c0,7.1,5.81,12.91,12.91,12.91s13.55-6.13,13.55-13.56v-77.16c0-7.1-5.81-13.24-13.23-13.24Z"/>
      <path fill="#FFFFFF" d="M424.07,139.47h-26.14l-.32-68.44c0-5.49-4.52-10.01-10-10.01h-6.78c-5.49,0-10,4.52-10,10.01v94.27h53.25c5.16,0,9.36-4.2,9.36-9.36v-7.1c0-5.17-4.19-9.36-9.36-9.36Z"/>
      <path fill="#FFFFFF" d="M487.32,61.02h-42.27v94.27c0,5.49,4.52,10.01,10.01,10.01h32.27c14.52,0,26.46-4.84,36.14-14.85,9.68-10.01,14.52-22.28,14.52-37.13s-4.84-27.12-14.52-37.13c-9.68-10.01-21.62-15.17-36.14-15.17ZM505.07,132.37c-4.52,4.84-10.32,7.1-17.75,7.1h-14.84c-.32,0-.32-.32-.32-.32v-51.98c0-.32.32-.32.32-.32h14.84c7.42,0,13.23,2.58,17.75,7.43,4.52,4.84,6.78,11.3,6.78,19.05s-2.26,14.21-6.78,19.05Z"/>
      <path fill="#FFFFFF" d="M564.44,61.02c-7.1,0-12.91,5.81-12.59,12.91v79.1c0,6.78,5.49,12.27,12.26,12.27,7.75,0,14.2-6.46,14.2-14.21v-76.19c0-7.75-6.13-13.88-13.88-13.88Z"/>
      <path fill="#FFFFFF" d="M669.96,61.02h-6.45c-5.49,0-10,4.52-10.32,10.01v41.32c0,.32-.65.65-.65.32l-33.24-47.46c-1.94-2.58-4.84-4.2-8.07-4.2h-5.48c-5.49,0-10,4.52-10,10.01v84.59c0,5.49,4.52,10.01,10,10.01h6.77c5.49,0,10.01-4.52,10.01-10.01v-41.65c0-.32.64-.65.64-.32l33.24,47.46c1.94,2.58,4.84,4.2,8.07,4.2h5.48c5.49,0,10.01-4.52,10.01-10.01v-84.26c0-5.49-4.52-10.01-10.01-10.01Z"/>
    </g>
  </g>
</svg>