<?xml version="1.0" encoding="UTF-8"?>
<svg id="Capa_2" data-name="Capa 2" xmlns="http://www.w3.org/2000/svg" viewBox="0 0 191.18 64.26">
  <defs>
    <style>
      .cls-1 {
        fill: #f9f9fa;
      }

      .cls-2 {
        fill: #fcfcfc;
      }
    </style>
  </defs>
  <g id="Espalda">
    <g>
      <path class="cls-1" d="M125.24,16.96h14.05c3.09,0,7.45,3.22,9.3,5.59,5.62,7.21,3.06,19.61-5.75,23.01-2.79,1.08-12.32,1.31-15.38.83-.76-.12-2.22-1.14-2.22-1.84v-27.59ZM133.03,24.41v14.39c0,1.06,5.78.34,6.77,0,4.9-1.72,5.78-9.26,2.2-12.69-.41-.4-2.62-1.7-3.04-1.7h-5.92Z"/>
      <path class="cls-1" d="M79.71,16.96c7.54.89,10.72,8.69,5.58,14.38,6.5,4.44,3.47,14.24-4.23,15.07-2.45.27-10.21.35-12.51-.02-1.05-.17-2.22-1.55-2.22-2.52v-26.4s.47-.51.51-.51c3.88,0,9.19-.43,12.86,0ZM74.35,23.78c-.88.29-.74,4.2-.24,4.54.7.49,5.05.36,5.74-.73,2.14-3.37-3.06-4.61-5.5-3.81ZM74.13,39.64h5.59c.33,0,1.54-1.54,1.55-2.19,0-.69-1.08-2.55-1.55-2.55h-5.59v4.74Z"/>
      <path class="cls-2" d="M183.8,31.18v-11.68c0-2.89,6.21-3.66,7.38-.95l-.1,26.84c-.65,1.37-4.83,1.36-5.91.49-3.35-4.5-6.29-9.41-9.83-13.69v12.36c0,2.05-6.63,3.24-7.38-.07.42-7.91-.8-16.87-.09-24.65.12-1.34.24-1.93,1.57-2.49,2.6-1.09,4.05-.26,5.69,1.69,3.02,3.59,5.32,8.67,8.66,12.16Z"/>
      <path class="cls-1" d="M112.38,38.96h7.62c.1,0,1.52.84,1.68,1.03.66.78.73,3.87.45,4.83-.09.31-1.35,1.59-1.45,1.59h-16.08v-27.59c0-1.86,5.48-2.74,6.97-.87.24.3.82,1.61.82,1.89v19.13Z"/>
      <path class="cls-1" d="M95.03,17.03c2.04-.4,4.25,1.04,4.5,3.14.85,7.17-.63,15.99-.03,23.34-.6,3.93-6.91,4.08-7.43-.31-.84-7.06.63-15.77.03-23,.22-1.45,1.48-2.88,2.94-3.17Z"/>
      <path class="cls-1" d="M158.34,17.02c2.86-.41,4.26,1.55,4.49,4.15.62,6.99-.47,14.9-.04,21.99-.66,4.27-6.95,4.47-7.43.37-.86-7.28.64-16.22.03-23.68.21-1.31,1.63-2.64,2.95-2.83Z"/>
      <path class="cls-2" d="M20.63,63.32c-6.97,1.35-13.65,1.15-20.63.01V1.73C3.74,1.59,7.62-.22,11.35.02c1.35.09,7.34,1.24,8.45,1.7.32.13.7.11.8.55l.03,61.04Z"/>
      <path class="cls-2" d="M22.34,2.4c.26-.26,5.98.88,6.84,1.12,10.75,2.97,13.98,13.64,8.71,23.07,8.31,6.2,10.87,17.03,6.96,26.59-4.18,10.19-13.23,8.65-22.5,9.82V2.4Z"/>
    </g>
  </g>
</svg>