<?xml version="1.0" encoding="UTF-8"?>
<svg id="Capa_2" data-name="Capa 2" xmlns="http://www.w3.org/2000/svg" viewBox="0 0 187.07 54.54">
  <defs>
    <style>
      .cls-1 {
        fill: #fff;
      }
    </style>
  </defs>
  <g id="Espalda">
    <g>
      <path class="cls-1" d="M129.08,14.53c-.02,1.28.02,2.57,0,3.85-.03,3.21-.18,6.53-.19,9.73,0,3.79-.44,9.52,4.59,10.13,3.75.46,6.43-.99,7.61-4.61.16-.49.64-2.21.64-2.61V14.53h6.16v28.73h-6.16l.34-2.22c-5.23,5.3-16,3.66-18.6-3.54-.2-.54-.72-2.56-.72-3.04V14.53h6.33Z"/>
      <path class="cls-1" d="M85.46,43.26h-6.16v-18.89c0-.29-.49-1.73-.65-2.08-1.09-2.44-3.64-3.01-6.1-2.79-4.61.42-5.84,5.07-6.07,8.98-.29,4.83.21,9.93,0,14.79h-6.16V14.53h6.16l-.26,2.22c5.37-5.24,15.78-3.78,18.59,3.48.16.41.65,1.92.65,2.25v20.78Z"/>
      <path class="cls-1" d="M26.43,37.47c.29.5-2.07,2.74-2.54,3.15-3.92,3.38-9.19,4.43-14.16,2.87-13.1-4.12-12.99-25.62.51-29.34,5.5-1.51,10.43.05,14.16,4.24.32.36,1.57,1.71,1.3,2.13l-4.46,3.25c-.83-.63-1.39-1.66-2.22-2.39-3.6-3.17-8.79-2.31-11.27,1.72-4.31,6.99.66,18.07,9.82,14.77,1.81-.65,2.82-2.38,4.19-3.5l4.69,3.1Z"/>
      <polygon class="cls-1" points="180.91 6.33 180.91 15.05 187.07 15.05 187.07 20.86 180.91 20.86 180.91 43.77 174.75 43.77 174.75 20.86 170.31 20.86 170.15 15.66 170.31 15.05 174.75 15.05 174.75 6.33 180.91 6.33"/>
      <path class="cls-1" d="M160.21,54.12c-.22.7-1.27.47-1.38-.67-.15-1.51-.2-6.11.02-7.52.19-1.23,1.36-1.01,1.36-.52v8.72Z"/>
      <path class="cls-1" d="M156.49,54.33c-.34-.34-.33-4.36,0-4.7s1.06-.13,1.16.39.09,3.43,0,3.93c-.11.57-.74.81-1.15.39Z"/>
      <path class="cls-1" d="M161.58,45.4c.17-.6,1.02-.48,1.28.09.17.38.16,3.49.01,3.94-.27.81-1.29.51-1.29.25,0-.92-.18-3.63,0-4.27Z"/>
      <path class="cls-1" d="M161.87,52.69c1.32-.43,1.43,1.58.45,1.84-.81.21-1.27-1.57-.45-1.84Z"/>
      <path class="cls-1" d="M156.49,45.18c1.13-1.15,1.93,2.13.25,1.64-.59-.18-.6-1.28-.25-1.64Z"/>
      <path class="cls-1" d="M157.62,47.73c.37.58-.46,1.63-1.13.96-.84-.84.76-1.55,1.13-.96Z"/>
      <path class="cls-1" d="M162.74,51.77c-.63.61-1.62-.16-1.13-.96.4-.66,1.88.22,1.13.96Z"/>
      <path class="cls-1" d="M111.46,0l.17,16.41c-1.13-.51-2.1-1.31-3.25-1.79-10.68-4.42-19.95,4.65-19.33,15.39.68,11.76,12.89,18.4,22.59,11.19l-.17,2.05h6.16V0h-6.16ZM104.69,38.28c-12,1.4-12.12-17.49-2.85-18.75,12.17-1.65,12.33,17.64,2.85,18.75Z"/>
      <path class="cls-1" d="M49.54,14.53l.09,2.05c-6.24-4.96-15.73-3.5-20.07,3.2-3.23,4.98-3.33,12.57-.27,17.65,4.28,7.11,13.77,8.95,20.34,3.78l-.09,2.05h5.99V14.53h-5.99ZM42.76,38.28c-12.24,1.43-12.07-17.52-3.02-18.75,12.41-1.68,12.27,17.67,3.02,18.75Z"/>
      <path class="cls-1" d="M165.58,15.37c.36-.27.88-.04,1.23-.31.19-.14.24-.56.41-.79.43-.59,1.1-.95.6-1.97-.11-.22-.45-.26-.55-.39-.22-.3-.34-.89-.74-1.06-.36-.15-.82,0-1-.11-.1-.06-.83-1.63-1.22-2.06-2.78-3.06-8.03-2.63-10.23.84-.16.25-.52,1.19-.57,1.22-.31.18-.92-.23-1.44.36-.18.2-.21.49-.35.68-.37.49-.78.33-.77,1.3,0,.76.37.79.78,1.29.16.19.21.54.35.68.33.34.92.03,1.29.25.07.04.81,1.28.85,1.37.18.46-1.31.2-1.62.26-.88.16-.91,1.69-.95,2.47-.03.63.16,1.23.14,1.72-.08,2.87-.52,7.31-.09,10.04.18,1.17.83,1.74,2.05,1.45.46-.11.5-.46.81-.64.42,3.01-.06,6.03,0,9.06-2.03-.22-2.34,2.34-.26,2.57,3.29.37,7.24-.27,10.6-.01.91-.23,1.3-.79,1.08-1.75-.25-1.11-1.56-.7-1.67-.81-.34-.32.26-8.11,0-9.23.76,1.14,2.34,1.3,2.9-.09v-14.01c-.32-1.12-1.31-.67-2.14-.77-.19-.02-.35.06-.25-.25.03-.09.69-1.26.75-1.3ZM160.21,37.62h-1.37v-4.62c.28-.02,1.37-.07,1.37.26v4.36ZM161.92,25.99h-4.79v-.85h4.79v.85ZM161.92,24.28h-4.79v-3.08h4.79v3.08ZM159.94,17.42c-5.59.56-6.41-7.85-1.31-8.66,6.2-.99,7.04,8.09,1.31,8.66Z"/>
      <path class="cls-1" d="M158.27,9.44c1.05-.1,1.04,1.71-.19,1.51-.83-.13-.74-1.42.19-1.51Z"/>
      <path class="cls-1" d="M156.55,11.3c.63-.2,1.03.45.59.76-.67.47-1.25-.55-.59-.76Z"/>
    </g>
  </g>
</svg>