<?xml version="1.0" encoding="UTF-8"?>
<svg id="Capa_2" data-name="Capa 2" xmlns="http://www.w3.org/2000/svg" viewBox="0 0 188.66 43.84">
  <defs>
    <style>
      .cls-1 {
        fill: #fff;
      }
    </style>
  </defs>
  <g id="Espalda">
    <g>
      <path fill="#FFFFFF" d="M8.66,0h180v.09l-8.66,43.75H0L8.66,0ZM21.95,16.44h5.62l.11-.15c.6-4.06,3.21-10.37-2.62-11.73-4.81-1.12-9.76.99-10.88,6.04-1.28,6.97-2.94,13.9-4.11,20.89-.32,1.92-.65,3.97.5,5.69,1.73,2.59,6.74,2.42,9.3,1.36,4.7-1.95,4.75-7.12,5.69-11.4h-5.66c-.42,1.62-.53,3.46-.99,5.05-.33,1.16-1.06,1.77-2.32,1.63-.9-.1-1.08-.87-.98-1.67l4.16-21.19c.56-1.65,3.54-1.78,3.2.37l-1.02,5.1ZM37.63,4.39c-4.29.41-6.32,3.25-7.23,7.17-1.65,7.12-2.66,14.54-4.16,21.7-.53,4.95,3.14,6.39,7.42,5.95,4.26-.43,6.44-3.04,7.38-7.02,1.72-7.29,2.74-14.96,4.24-22.31.21-4.86-3.51-5.89-7.65-5.5ZM120.64,4.39c-4.18.37-6.31,3.04-7.25,6.89-1.75,7.18-2.67,14.82-4.23,22.06-.56,5.25,3.85,6.45,8.17,5.76,3.94-.63,5.78-3.33,6.64-6.98,1.71-7.21,2.7-14.8,4.23-22.07.31-4.95-3.33-6.04-7.56-5.67ZM160.62,16.44c.48-3.51,3-9.52-1.4-11.49-3.35-1.5-8.43-.53-10.62,2.52-1.64,2.28-2.89,8.28-2.2,10.97.98,3.83,6.05,5.73,6.34,8.91.07.78-.61,4.2-.88,5.03-.25.75-.76,1.33-1.57,1.43-.96.11-1.62-.13-1.74-1.16l1.02-5.51h-5.66c-.56,3.94-3.22,10.16,2.23,11.77,1.73.51,4.35.45,6.07-.1,3.29-1.05,4.66-3.6,5.39-6.77.92-3.96,1.96-7.6-.96-10.98-1.37-1.59-4.43-3.43-4.67-5.7-.07-.68.53-3.71.81-4.4.65-1.66,3.31-1.74,3.21.2l-1.02,5.28h5.66ZM42.11,38.7h8.45c3.42-.21,5.88-2.11,7.05-5.29,1.74-7.86,3.41-15.81,4.57-23.78-.09-2.82-1.79-4.52-4.59-4.75h-8.96s-6.52,33.82-6.52,33.82ZM78.89,4.88h-13.29l-6.52,33.82h13.29l1.03-5.39h-7.63l1.73-8.81h6.59s1.03-5.41,1.03-5.41h-6.6l1.72-8.81,7.63-.05,1.02-5.36ZM74.18,38.7h5.66l2.76-14.41.28-.15,1.07,14.56h6.17l-2.41-15.53c1.19-.49,2.34-1.15,3.18-2.15,1.41-1.7,1.68-3.85,2.11-5.95.87-4.31,2.22-9.63-3.94-10.2h-8.36s-6.52,33.83-6.52,33.83ZM103.33,4.88h-5.66l-6.6,33.82h5.62l2.79-14.21h3.34l-2.74,14.21h5.66l6.6-33.82h-5.62l-2.79,14.21h-3.34l2.74-14.21ZM137.12,4.88h-5.62l-5.42,27.47c-.71,5.06,1.53,7.04,6.45,6.87,4.56-.16,7.08-2.38,8.16-6.75l5.34-27.59h-5.66l-5.45,27.83c-.52,1.36-3.09,1.71-3.16-.07l5.35-27.75ZM178.45,4.88h-13.29l-6.52,33.82h13.29l1.03-5.39h-7.63l1.73-8.81h6.59s1.03-5.41,1.03-5.41h-6.6l1.72-8.81,7.63-.05,1.02-5.36Z"/>
      <path fill="#FFFFFF" d="M48.79,33.31l4.51-23.04c1.23.1,2.99-.5,3.03,1.32l-3.89,20.09c-.07.63-.9,1.63-1.54,1.63h-2.1Z"/>
      <path fill="#FFFFFF" d="M120.46,9.78c2.18-.37,1.97,1.03,1.71,2.56-1.11,6.64-2.72,13.21-3.87,19.85-.3,1.21-1.21,1.83-2.47,1.61s-.77-1.9-.64-2.74c1.09-6.68,2.74-13.3,3.92-19.97.17-.6.71-1.2,1.34-1.31Z"/>
      <path fill="#FFFFFF" d="M37.54,9.78c.72-.12,1.63-.06,1.85.77.19.72-.33,2.67-.48,3.51-1.12,6.08-2.42,12.13-3.55,18.2-.43,2.1-3.86,2.28-3.26-.34l4-20.5c.14-.72.68-1.51,1.45-1.64Z"/>
      <path fill="#FFFFFF" d="M83.69,19.09l1.68-8.82c1.2.03,2.58-.32,2.62,1.33-.42,1.82-.59,3.83-1.06,5.63-.18.71-.57,1.43-1.3,1.7-.09.03-.63.17-.69.17h-1.24Z"/>
    </g>
  </g>
</svg>