<?xml version="1.0" encoding="UTF-8"?>
<svg id="Capa_2" data-name="Capa 2" xmlns="http://www.w3.org/2000/svg" viewBox="0 0 565.81 206.38">
  <defs>
    <style>
      .cls-1 {
        fill: #fff;
      }
    </style>
  </defs>
  <g id="Capa_1-2" data-name="Capa 1">
    <g>
      <path fill="#FFFFFF" d="M89.2,40.41c-7.72,31.47,35.37,45.87,53.03,21.6,11.59-15.92,8.82-38.39-6.39-50.87-7.43-6.09-18.46-13.18-46.51-10.6C53.71,3.83,24.59,29.68,10.2,61.35c-1.9,4.17-3.55,8.46-4.95,12.82C1.75,85.09-.15,96.56,0,108.03c.23,16.75,4.41,34.06,15.91,46.75,10.77,11.87,26.98,18.1,42.81,18.7,16.19.61,32.72-4.74,44.44-16.15,4.58-4.46,8.23-9.83,10.55-15.79,4.12-10.53,3.76-22.86-1.57-32.82s-15.7-17.24-26.96-18.19c-4.81-.41-9.7.29-14.28,1.82-1.92.64-3.8,1.43-5.77,1.88-2.77.63-5.64.59-8.45,1.01-9.09,1.36-16.95,7.56-22,15.24-5.05,7.68-7.59,16.74-9.22,25.78,8.62.71,17.39-.5,25.49-3.52,4.91-1.83,9.69-4.4,13.08-8.4,4.03-4.75,5.73-11.12,5.89-17.34.04-1.61.05-3.39,1.15-4.57.54-.58,1.28-.93,2.01-1.24,6.83-2.8,14.97-2.19,21.31,1.6,12.03,7.18,14.85,22.85,10.44,35.37-8.3,23.57-41.65,31.27-62.94,23.21-29.28-11.1-35.92-44.64-30.65-72.44,1.88-9.95,5.32-19.59,10.01-28.55,9.46-18.09,24.66-34.06,43.04-43.11,23.19-11.42,71.97-14.91,75.35,20.6,1.38,14.52-9.21,26.7-23.85,27.45-12.9.66-21.96-13.56-16.29-24.92,13.29-16.86-6.23-16.65-10.33.02ZM32.88,131.4c2.11-13.05,10.55-28.88,25.09-30.46-1.56,3.04-18.93,16.01-10.12,18.66,5.39,1.62,11.72-9.99,16.38-12.39,1.39,18.02-17.34,22.01-31.35,24.2Z"/>
      <path fill="#FFFFFF" d="M558.98,130.29c-.69.38-1.34,1.26-1.96,1.77-.76.64-1.55,1.24-2.37,1.82-4.58,3.24-9.76,5.59-15.13,7.18-4.97,1.48-10.9,3.1-15.97,1.24-.81-.3-1.58-.69-2.29-1.18-1.35-.95-2.43-2.23-3.14-3.72-1.51-3.17-1.42-6.9-.83-10.27.64-3.68,1.92-7.25,3.57-10.59.57-1.16,1.2-2.3,1.88-3.4.05-.08.65-1.02.66-1.02,3.21,1.97,7.07,3,10.82,3.17,10.8.49,19.16-7.13,24.38-15.79,2.63-4.37,4.97-9.5,6.33-14.44.92-3.32,1.22-6.89.3-10.21-1.12-4.05-3.64-6.16-7.17-7.96-7.22-3.69-15.1-2.26-21.51,2.36-6.71,4.84-11.23,11.79-14.42,19.27-2.8,6.56-5.46,13.18-8,19.85-2.47,6.5-5.53,13.15-6.41,20.12-.86,6.87.76,13.53,6.15,18.11,5.98,5.08,14.02,5.94,21.52,4.73,5.54-.9,10.97-2.48,16.07-4.84,4.39-2.03,9.73-4.78,12.75-8.69.56-.72,1.03-1.54,1.23-2.44.91-4.12-2.62-7.14-6.48-5.04ZM533.69,84.16c2.47-4.43,6.95-10.78,12.05-11.6,15.71-2.56,12.63,13.31,4.76,23.93-4.55,6.15-7.16,13.22-20.18,9.35-8.4-2.5-.46-14.79,3.38-21.68Z"/>
      <path fill="#FFFFFF" d="M184.35,67.29c-11.02-7.33-25.65.25-32.5,10.78l-.33.75v.02s-7.37,16.77-7.37,16.77c0,.02,0,.05-.01.07l-1.38,3.15c-.03.05-.06.1-.09.15l-4.33,9.86c-.02.06-.03.12-.04.18l-4.37,9.98c-.18.36-.35.72-.53,1.1l-1.86,4.24c-.18.43-.35.87-.52,1.3v.02s0,0,0,0c-1.3,3.36-2.35,6.78-2.88,9.91-2.82,16.56,15.97,20.16,27.95,13.64,3.42-1.86,6.32-4.88,8.78-8.44l24.06-55.02c2.29-7.23,2.81-13.58-4.55-18.48ZM181.25,81.47l-1.07,2.52c-3.08,5.89-5.68,12.46-8.17,19.16l-14.18,33.26c-2.73,3.91-6.03,5.68-11.13,6.65-2.15.22-3.34.7-6.27,0-4.32-1.35-4.22-3.97-3.37-8.31,1.28-6.52,17.04-43.48,20.8-50,3.54-6.14,9.88-13.03,18.84-10.94,3.85.9,5.39,4.78,4.56,7.66Z"/>
      <path fill="#FFFFFF" d="M332.95,86.82c2.09-4.76,2.92-10.2.77-15.1-2.6-5.94-8.92-8.68-15.16-8.28-3.08.2-6,1.13-8.69,2.64-.04.02-.09.05-.13.07-.54.31-6.62,4.11-6.62,4.11-8-9.76-15.59-3.28-7.78,6.49-6.18,17.21-13.23,34.94-20.5,51.99-2.66,6.24-5.99,13.3-12.89,15.56-9.23,3.03-13.62-1.1-10.4-10.22.09-.27,14.81-32.66,20.61-49.29,1.91-5.39,2.62-14.23-6-18.37-10.55-4.63-17.8.42-24.83,4.82-6.96-10.01-21.2-8.1-30.42-.68-1.64-.78-2.98-3.03-3.28-3.02-2.26-2.23-5.08-2.26-7-.14-.69.79-1.53,3.12-.36,4.67,2.18,2.13,2.97,3.79,3.77,6.44.07.74-5.28,12.29-5.38,12.55-7.7,18.43-15.41,37.12-23.14,56.07.16,5.21,6.89,6.9,8.8,2.19.3-.84.72-1.34.9-1.79,1.91-2.63,23.72-56.83,29.27-66.42,9.64-10.61,25.17-11.1,16.43,7.27-.13.36-.31.67-.47.97,0,.06,0,.13-.01.2l-22.55,52.05c-.64,1.06-1.08,2.1-1.33,3.08,0,0-.01.03,0,.03-1.56,6.16,3.95,10.12,7.71,5.35l27.5-63.98c2.46-6.67,7.12-12.08,16.62-12.07,4.96,0,6.26,1.65,5.43,6.67-5.12,14.13-10.7,28.06-16.75,41.77-.29.7-4.64,9.72-5.38,14.34.11,2.08-.08,4.19,0,6.27.83,9.98,12.06,13.21,20.81,10.82l1.19,1.54c-6.24,14.36-12.03,28.65-17.38,42.87l-1.02,2.13c-1.24,5.33,5.3,8.5,8.48,3.35l18.98-46.12c1.12-4.41,3.1-7.32,5.93-8.75,14.92,7.08,29.04-.02,35.62-18.39,2.62-2.97,3.98-7.88,5.5-11.45,2.57-6.06,5.02-12.18,7.43-18.31,1.85-4.69,3.7-9.31,5.73-13.92ZM305.21,130.83c-2.34,4.57-4.25,8.33-9.37,10.35-5.71,2.25-14.97,3.21-14.34-5.3,6.86-15.41,12.13-32.77,19.49-47.81,3.52-7.21,7.95-14.2,16.67-15.6,5.34-.86,9.03.32,9,6.3-7.59,16.6-13.21,35.96-21.45,52.07Z"/>
      <path fill="#FFFFFF" d="M503.45,140.84c-1.51.1-3.14.63-4.38,1.5-.28.19-.54.42-.84.58-.79.46-1.98.9-2.89,1.02-11.05,1.52-12.41-5.17-4.1-20.07l17.41-41.59c2.41-5.19.12-9.66-4.15-12.96l-17.27-8.55c9.26-14.88-4.35-16.41-6.88-8.77-.27.33-.94,2-1.15,2.3-1.25,1.82-1.86,4.59-2.69,6.64-.94,2.31-1.88,4.61-2.82,6.92-1.89,4.62-3.78,9.23-5.68,13.85-3.81,9.25-7.66,18.5-11.53,27.73-3.34,7.97-6.6,15.98-10.1,23.88-2.76,6.25-9.29,11.51-16.39,10.83-6.07-.57-5.89-6.08-4.31-10.74.66-1.93,1.51-3.79,2.42-5.61.29-.73,42.02-100.03,42.12-100.38,4.4-4.19-.96-12.04-6.25-7.59-7.23,15.47-14.04,31.13-20.4,47l-2.27.4c-14.21-6.69-29.79,3.31-35.58,16.87-4.11,10.96-8.84,21.7-13.19,32.57-1.93,4.82-4.54,9.36-6.22,14.29-.63,1.85-.78,3.83-1.77,5.55-1.84,3.19-5.07,5.36-8.37,6.84-3.1,1.39-8.75,3.21-11.48.12-1.37-1.55-1.23-3.83-.79-5.71.51-2.19,1.9-4.47,2.78-6.55.96-2.28,1.92-4.56,2.87-6.84,1.91-4.57,3.79-9.15,5.66-13.74,2.93-7.21,5.74-14.67,8.75-21.92,1.56-3.77,3.19-7.51,4.94-11.2,1.52-3.2,3.36-6.34,3.62-9.95.36-5.07-3.31-5.79-7.39-3.95-.47.21-1.1,2.15-1.62,2.64-.62.59-1.35.97-2.21,1.01-1.03.05-1.82-.45-2.72-.85-3.02-1.31-6.27-2.27-9.59-1.79-3.31.48-6.46,2.03-9.44,3.46-2.46,1.17-4.7,2.78-6.66,4.67-2.07,2-3.84,4.32-5.25,6.83-4.39,7.79-7.3,16.27-10.74,24.5-2.3,5.5-4.6,10.99-6.89,16.49-.93,2.21-1.94,4.41-2.78,6.65-9.06,24.25,10.07,29.81,28.41,20.38,8.89,11.12,22.24,7.13,32.34.04,8.15,7.91,19.88,6.08,28.39-.45,15.97,12.47,28.1,5.45,36.53-6.94l22.72-53.6s-.01-.05-.03-.07c.12-.28.25-.52.38-.77l3.93-9.27c.05-.24.13-.47.17-.72.27-.62.61-1.17.88-1.75l.03-.08c.28-.9.6-1.64.96-2.27,1.33-2.31,3.14-2.59,5.42-.84l11.23,6.08c.96.42,1.12,1.63.52,3.58l-.05.13c-.23.71-.56,1.51-.98,2.4-2.36,5.77-4.72,11.53-7.08,17.3-1.18,2.88-2.36,5.77-3.54,8.65-.61,1.49-1.22,2.97-1.83,4.46-.21.52-1.2,2.14-1.08,2.67-.03.08-.07.15-.11.23l-7.85,19.19c-2.91,13.85,10.34,21.85,24.99,15.53.14-.03.88-.64,1.79-.9,1.16-.66,2.23-1.5,3.09-2.53.69-.82,1.43-1.91,1.56-3.02.02-.21.03-.42,0-.63-.26-2.2-2.64-3.34-4.61-3.2ZM355.55,134.57c-3.29,5.46-6.33,7.47-12.57,8.49-2.06-.53-4.2-.36-6.27,0-3.9-1.18-3.85-3.51-3.2-7.2,1.29-7.31,16.53-42.49,20.64-50.2,3.24-6.08,10.68-12.89,17.95-12.57,9.99.44,4.64,10.83,2.67,16.16-4.3,11.66-13.21,35.35-19.21,45.32ZM416.36,134.43c-2.48,5.12-8.12,9.03-13.79,9.53-7.74.67-9.77-1.53-8.3-9.21,1.3-6.81,16.37-41.46,20.25-48.76,2.3-4.34,8.46-10.71,13.35-11.74,5.53-1.16,11.39-.53,10.84,6.28l-22.36,53.91Z"/>
    </g>
  </g>
</svg>