<?xml version="1.0" encoding="UTF-8"?>
<svg id="Capa_2" data-name="Capa 2" xmlns="http://www.w3.org/2000/svg" viewBox="0 0 159.72 58.19">
  <defs>
    <style>
      .cls-1 {
        fill: #309a87;
      }

      .cls-2 {
        fill: #fefefe;
      }
    </style>
  </defs>
  <g id="Espalda">
    <g>
      <path class="cls-1" d="M150.22,40.06v.25c-.79.09-.94.17-1.77,0v-.25c.36.07,1.36.04,1.77,0Z"/>
      <path class="cls-2" d="M143.39,40.57c-.4-.15-.18-.23-.25-.51-.56-.91-1.94-.26-2.53.25-.2.05-.4.18-.76.25-3.12.43-3.5-1.46-1.16-5.67l4.92-11.74c.68-1.46.03-2.73-1.17-3.66l-4.87-2.41c1.78-2.78-.67-5.5-2.02-2.08-.08.09-.19.17-.25.25-3.03,7.49-6.15,15-9.35,22.52-.56,1.29-1.45,1.86-2.54,2.53-.31.12-.38.17-.76.25-2.93.44-3.53-1.07-1.77-4.55.08-.21.2-.37.25-.51.69-1.16,1.31-2.47,1.52-3.8.08-.2.19-.36.25-.51.51-.79.84-1.63,1.01-2.53.08-.19.19-.36.25-.51,2.61-5.53,5.13-11.15,7.08-16.95.08-.2.2-.36.25-.51.53-.65.96-1.66,1.01-2.53.07-.2.22-.41.25-.51,1.24-1.18-.27-3.4-1.76-2.14-2.04,4.37-3.96,8.79-5.76,13.27l-.64.11c-4.01-1.89-8.41.94-10.04,4.76-.78,2.09-1.63,4.09-2.54,6.01-.03.07.03.18,0,.25-.93,2.38-1.94,4.75-3.04,7.08-.02.08.02.18,0,.25.05,2.9-7.18,5.61-6.23,1.55,2.25-5.27,4.41-10.59,6.48-15.97.02-.08-.02-.18,0-.25,1.34-1.25,3.04-6.31-.49-4.72-.44,1.1-1.13,1.32-2.04.67-.08,0-.17,0-.25,0-.78-.53-2.66-.46-3.54,0,.05.33-.43.21-.51.25-2.53.79-4.36,3.06-5.06,5.57-.06.09-.17.18-.25.25l-4.69,11.22c-2.56,6.85,2.84,8.42,8.02,5.76,2.51,3.14,6.28,2.01,9.13.01,2.3,2.23,5.61,1.72,8.02-.13,7.5,5.86,12.01-3.51,13.69-9.77.08-.19.19-.36.25-.51.94-1.74,1.79-3.65,2.28-5.57.08-.19.19-.36.25-.51.27-.1.38-.52.25-.76.08-.19.19-.35.25-.51.51-.79.84-1.63,1.01-2.53.08-.18.18-.34.25-.51.39-1.22.99-1.52,1.81-.89l3.17,1.72c.4.18.32.83-.26,1.96-.76,1.59-1.4,3.19-1.94,4.81-.08.2-.19.36-.25.51-.46.8-.8,1.64-1.01,2.53-.08.2-.2.36-.25.51-.29.11-.34.46-.25.76-.08.2-.2.37-.25.51-.51.79-.85,1.63-1.01,2.53-.08.21-.21.38-.25.51-2.71,5.05,1.54,8.39,6.33,6.33.04,0,.25-.18.51-.25.7-.02,2-1.35,1.27-1.77ZM100.38,37.92c-.93,1.54-1.79,2.11-3.55,2.4-.58-.15-1.19-.1-1.77,0-1.1-.33-1.09-.99-.9-2.03.37-2.06,4.67-12,5.83-14.17.92-1.72,3.02-3.64,5.07-3.55,2.82.12,1.31,3.06.75,4.56-1.21,3.29-3.73,9.98-5.42,12.79ZM117.55,37.88c-.7,1.45-2.29,2.55-3.89,2.69-2.18.19-2.76-.43-2.34-2.6.37-1.92,4.62-11.7,5.72-13.77.65-1.22,2.39-3.02,3.77-3.31,1.56-.33,3.22-.15,3.06,1.77l-6.31,15.22Z"/>
      <path class="cls-2" d="M38.35,3.07c-2.1-1.72-5.71-3.42-8.32-2.99-1.35-.11-3.45-.11-4.81,0-1.06-.19-2.42-.04-3.29.51-.16.04-.48.18-.76.25-3.11.78-6.03,2.24-8.6,4.16-2.61,1.95-4.88,4.36-6.73,7.03s-3.35,5.7-4.36,8.83C.49,23.95-.04,27.19,0,30.43c.05,3.53.66,7.43,2.45,10.52.96,1.65,2.22,3.12,3.7,4.32.49.39,1.04.86,1.61,1.13.19.09.37.19.51.25,7.19,4.32,18.83,2.3,23.14-5.23,3.13-5.47,1.09-12.89-4.92-15.27-.11-.06-.52-.14-.51-.25-2.3-1.16-5.58-.22-7.89.82-6.49-.5-9.97,5.76-10.84,11.32-.03.21-.05.38-.03.38.98.12,2.41.07,3.32-.13,2.19-.13,5.11-1.13,6.83-2.53.57-.49.21-.15.76-.76.7-.84,1.28-2.46,1.52-3.54l.25-2.53c.38-.49,1.19-.63,1.77-.76,1.01-.14,2.03-.17,3.04,0,.08.02.18.23.25.25,2.58.91,3.14,1.27,4.3,3.8,1.23,2.68,1.32,4.25.25,7.08-.33.55-.09.69-.51,1.01-.63,1.06-1.57,2.02-2.53,2.78-.51.51-.19.32-.51.51-2.07,1.37-4.65,2.21-7.08,2.53-1.52.12-3.03.13-4.55,0-2.06-.17-4-1.12-5.67-2.3s-3.01-2.56-3.87-4.5c-.17-.39-.33-.79-.49-1.19-.62-1.51-1.07-3.1-1.32-4.71-.43-2.78-.34-5.63.18-8.4.53-2.81,1.5-5.53,2.83-8.06,1.33-2.54,3.01-4.89,5-6.95s4.22-3.76,6.71-5.06c2.47-1.29,5.18-2.13,7.95-2.4,1.18-.11,2.37-.13,3.55-.03.62.05,1.23.12,1.84.23.57.1,1.25.39,1.82.39,9.37,2.43,8.65,16.3-1.59,15.17-.23-.05-.36-.2-.51-.25-2.69-1.37-4.13-3.82-2.69-6.72,3.75-4.76-1.76-4.7-2.92,0-2.36,9.63,10.56,13.23,15.22,5.7.07-.1.16-.34.25-.51,3.09-4.25,1.62-10.24-2.31-13.46ZM9.28,37.02c.6-3.68,2.98-8.15,7.08-8.6-.44.86-5.34,4.52-2.86,5.27,1.52.46,3.31-2.82,4.62-3.5.39,5.09-4.89,6.22-8.85,6.83Z"/>
      <path class="cls-2" d="M87.47,18.55c-.08.05-.15.18-.25.25-.56.21-1.1.53-1.64.96-2.26-2.76-4.4-.93-2.2,1.83-1.74,4.86-3.74,9.86-5.79,14.68-.75,1.76-1.69,3.75-3.64,4.39-2.6.85-3.85-.31-2.94-2.88.02-.08-.03-.18,0-.25,2.24-4.41,4.18-8.97,5.82-13.66.02-.16,0-.34,0-.51.63-.33.54-2.05,0-2.53,0-.08-.01-.18,0-.25,0-.71-.83-1.57-1.52-1.77-.08,0-.17.01-.25,0-2.19-1.58-4.95,0-6.93,1.24-1.97-2.83-5.76-2.01-8.29-.29-.46-.22-.87-.53-1.22-.94-.08,0-.17,0-.25,0-.76-.89-1.46-.2-2.02.51-.05.22.04.52,0,.76.62.6,1.04,1.28,1.27,2.02-.35-.12-.43.14-.25.76-.44.66-1,1.67-1.01,2.53-.04.1-.22.18-.25.25-2.17,5.2-4.35,10.48-6.53,15.83.04,1.47,1.94,1.95,2.48.62.08-.24.2-.38.25-.51.54-.74.92-1.61,1.01-2.53.08-.2.19-.36.25-.51.69-1.14,1.32-2.48,1.52-3.8.08-.19.19-.36.25-.51.5-.79.84-1.63,1.01-2.53.08-.19.19-.36.25-.51,1.07-2.88,2.39-5.67,3.96-8.38,2.72-2.99,7.11-3.14,4.64,2.05-.08.2-.2.37-.25.51-1.41,2.96-2.8,6-3.8,9.11-.08.2-.19.36-.25.51-.29.11-.33.46-.25.76-.08.19-.19.36-.25.51-.51.78-.85,1.63-1.01,2.53-.08.2-.2.37-.25.51-2.53,2.93,1.02,5.56,2.02,1.52.08-.17.18-.35.25-.51,2.12-4.32,3.96-8.87,5.57-13.41.08-.18.18-.34.25-.51.96-2.41,2.59-5.58,5.73-5.58,1.4,0,1.77.46,1.53,1.88-1.44,3.99-3.02,7.92-4.73,11.79-.08.2-.2.36-.25.51-.63,1.06-1.06,2.24-1.27,3.54.03.59-.02,1.18,0,1.77.23,2.82,3.4,3.73,5.87,3.05l.34.43c-1.77,4.09-3.42,8.15-4.94,12.2.02.2.02.55-.25.51-.35,1.5,1.5,2.4,2.39.94l5.36-13.02c.32-1.24.87-2.07,1.68-2.47,4.21,2,9.14-.77,10.06-5.19.08-.17.18-.34.25-.51,1.66-3.28,3.29-6.82,4.3-10.37.08-.2.21-.38.25-.51,2.95-4.84-.77-9.41-6.07-6.83ZM86.17,36.86c-.66,1.29-1.2,2.35-2.65,2.92-1.61.63-4.23.91-4.05-1.5,1.94-4.35,3.42-9.25,5.5-13.5.99-2.03,2.24-4.01,4.71-4.41,1.51-.24,2.55.09,2.54,1.78-2.14,4.69-3.73,10.15-6.06,14.7Z"/>
      <path class="cls-2" d="M157.81,36.71c-2.08,2.04-4.86,2.92-7.59,3.6-.55-.12-1.24-.1-1.77,0-4.17-1.13-2.3-6.33-.68-8.74,1.51.93,4.01,1.27,5.48.39-.01-.11.4-.19.51-.25,3.13-.45,7.31-8.92,5.53-11.25-.05-.06-.13-.1-.21-.13-.02-.08.02-.18,0-.25-.15-.51-.79-1.36-1.27-1.27-.06-.03-.18.03-.25,0-4.72-2.41-8.86,2.52-10.37,6.58-.03.08.03.18,0,.25-1.13,2.31-2.06,4.68-2.78,7.08-.1.26-.24.47-.25.51-.54.63-.91,1.96-.76,2.78,0,.67,0,1.35,0,2.02-.15,1.88,1.89,3.85,3.54,4.3.07.05.55-.08.51.25,1.77.56,4.15.28,5.82-.51.19-.05.54-.18.76-.25,1.43.03,5.36-2.51,5.63-3.7.26-1.16-.74-2.02-1.83-1.42ZM150.67,23.69c.74-1.23,2.6-2.82,4.04-3.05,4.44-.72,1.81,4.53.71,6.53-1.04,1.89-3.47,3.57-5.7,2.64-1.72-.72.26-4.97.95-6.12Z"/>
      <path class="cls-2" d="M52.05,18.93c-3.83-2.55-9.2,1.29-10.12,5.19-.08.17-.18.34-.25.51-.45.8-.9,1.6-1.01,2.53-.08.19-.19.36-.25.51-.69,1.12-1.33,2.49-1.52,3.8-.1.25-.22.43-.25.51-.98,1.71-2.11,4.19-2.46,6.24-.79,4.68,4.51,5.69,7.89,3.85,2.78-1.52,4.36-5.71,5.2-8.57.08-.19.19-.35.25-.51.54-.74,1.05-1.63,1.01-2.53.08-.2.19-.36.25-.51.86-1.63,1.86-3.71,2.45-5.49.73-2.17,1-4.08-1.18-5.53ZM50.97,23.43c-2.34,4.39-3.69,10.18-6.06,14.43-.84,1.51-1.83,2.13-3.5,2.45-.58-.14-1.19-.1-1.77,0-1.22-.38-1.19-1.12-.95-2.35.36-1.84,4.81-12.27,5.87-14.12,1-1.73,3.82-4.05,5.9-3.09,1,.46.96,1.8.51,2.67Z"/>
    </g>
  </g>
</svg>