<?xml version="1.0" encoding="UTF-8"?>
<svg id="Capa_2" data-name="Capa 2" xmlns="http://www.w3.org/2000/svg" viewBox="0 0 249.64 58.9">
  <defs>
    <style>
    </style>
  </defs>
  <g id="Espalda">
    <g>
      <path fill="#FFFFFF" d="M76.88,18.98c1.2,1.24,1.31,3.5-.03,4.67-1.55,1.36-3.99-.48-5.82-.65-8.36-.77-7.69,14.58,1.2,12.38,1.71-.42,3.02-1.94,4.72-.23,2.47,2.5-.62,5.03-3.02,5.8-6,1.94-12.02-.95-14.39-6.69l-.77-2.45c-.55.88-.39,2.25-.6,3.28-2.6,12.95-13.97,22.78-27.17,23.61-9.89.62-20.4-.47-30.35.01l-.65-.22.12-31.75C2.17,6.07,24.15-6.33,42.92,3.34c7.71,3.97,13.58,11.7,15.26,20.24.1.51.22,3.28.59,3.28.67-1.41.91-2.9,1.74-4.28,2.87-4.78,8.12-6.42,13.39-5.02.96.25,2.3.71,2.99,1.42ZM49.32,18.77c-1.73-1.07-3.78-1.67-5.83-1.81-1.73-.12-6.64-.26-8.18.02-.78.14-1.26.95-1.72,1.5l-.13,20.54c.15,1.66.77,2.53,2.47,2.69,2.88.28,9.19.18,11.79-.93,8.17-3.47,8.67-17.64,1.59-22.02ZM26.88,20.27c-1.85,1.84-.63,4.99,2.01,5.01,3.8.03,3.69-5.7-.03-5.73-.53,0-1.6.34-1.98.72ZM31.05,34.24c-.24-.27-1.6-.83-2.01-.85-3.91-.19-4.01,5.72-.18,5.73,1.86,0,3.22-1.64,2.82-3.45-.04-.16-.55-1.35-.62-1.43Z"/>
      <path fill="#FFFFFF" d="M171.65,19.55c.32.23,1.43-1.52,1.95-1.81,1.68-.94,4.26-.26,4.62,1.8-.17,5.88.56,12.38.1,18.2-.19,2.45-1.02,3.89-3.72,3.48-1.12-.17-2.39-1.1-2.32-2.31-.96,0-1.38,1.03-2.22,1.55-3.11,1.95-7.47,1.14-10.15-1.12-5.7-4.8-5.73-15.02-.11-19.9,3.29-2.85,8.25-3.48,11.63-.43.18.16.19.52.21.54ZM163.75,34.75c2.53,2.14,6,1.02,7.4-1.82,1.86-3.77.33-10.41-4.79-9.95-5.04.45-5.84,9.04-2.61,11.78Z"/>
      <path fill="#FFFFFF" d="M242.7,19.52c.58.34,1.08-1.14,1.88-1.61,2.66-1.58,4.56.03,4.77,2.82.35,4.55.4,12.93,0,17.44-.36,4.04-4.93,4.27-6.14.74-.66-.17-.52.37-.85.65-4.01,3.33-9.41,2.3-12.71-1.5-3.55-4.08-3.78-10.97-1.19-15.61,2.77-4.94,8.96-7.31,13.77-3.64.3.23.43.69.47.71ZM240.88,23.71c-1.71-1.15-4.08-1.03-5.64.35-3.09,2.72-2.87,10.04,1.41,11.51,6.44,2.22,8.88-8.72,4.23-11.86Z"/>
      <path fill="#FFFFFF" d="M98.62,20.27c6.46,6.41,4.21,19.3-5.25,21.17-12.77,2.52-18.61-14.25-9.1-22,4.19-3.42,10.53-2.95,14.35.83ZM89.81,23.04c-5.39.92-5.5,12.96,1.23,12.86s6.84-14.24-1.23-12.86Z"/>
      <path fill="#FFFFFF" d="M111.61,19.33c.41.37,1.2-.75,1.52-.95,4.1-2.56,10.52-1.32,12.63,3.27,1.27,2.77,1.23,12.96.93,16.3-.24,2.63-2.46,4.46-4.94,2.99-1.23-.73-1.44-2.09-1.53-3.42-.25-3.46.63-9.2-.23-12.25-1.07-3.81-7.01-3.25-7.67.03-.65,3.2.28,8.48-.05,12-.19,2.02-1.07,4.32-3.52,4.18-2.36-.13-3.03-2.43-3.16-4.39-.29-4.37-.3-11.14,0-15.51.15-2.16.81-4.16,3.35-4.2,1.03-.02,1.88.36,2.48,1.2.21.29.18.73.21.75Z"/>
      <path fill="#FFFFFF" d="M195.66,23.72c-1.51-1.69-4.81-1.39-6.14.45-1.63,2.25-.58,10.57-.86,13.77-.42,4.86-6.06,4.59-6.46-.01.37-5.47-.5-11.6,0-16.99.04-.45.17-1.19.32-1.61.77-2.17,4.1-2.7,5.49-.76.31.43.01.81.53.76.41-.04.99-.83,1.46-1.12,2.53-1.56,6.7-1.39,9.25.08,2.95,1.71,3.84,4.57,4.03,7.8.15,2.47.34,11.32-.33,13.24-.91,2.6-4.55,2.84-5.75.37-.98-2.01-.16-9.89-.39-12.74-.1-1.28-.3-2.28-1.17-3.25Z"/>
      <path fill="#FFFFFF" d="M215.12,35.47h8.93c.09,0,1.3.85,1.4.96.93.98.78,2.7.08,3.75-.58.89-1.79,1.03-2.77,1.1-3.76.29-10.24.29-14,0-2.77-.22-3.8-1.6-2.43-4.17,2.29-4.3,7.15-8.89,9.44-13.15.14-.26.29-.41.21-.76h-8.07c-.1,0-1.36-1.06-1.49-1.31-.86-1.62-.17-3.57,1.53-4.24l15.89-.05c1.97.38,2.14,1.88,1.36,3.52l-10.08,14.34Z"/>
      <path fill="#FFFFFF" d="M132.05,12.77c.65-4.45,5.11-6.75,9.3-5.42,2.47.79,2.69,4.39.33,5.15-2.29.74-2.89-.63-3.14,2.88-.25,3.39.67,1.87,3.08,2.25,2.77.43,2.76,4.65.49,5.41-1.04.35-3.27-.22-3.55.75l-.03,15.02c-.49,2.61-3.66,3.56-5.48,1.58-.25-.27-.99-1.77-.99-2.02v-15.17c-5.75,1.04-5.56-6.44,0-5.59.16-1.5-.21-3.39,0-4.84Z"/>
      <path fill="#FFFFFF" d="M148.57,17.45c1.81-.33,3.47.63,3.94,2.41l-.02,19.15c-.76,1.92-2.6,2.76-4.55,1.99-1.51-.6-1.8-2.24-1.9-3.69-.31-4.24-.42-12.41.04-16.55.15-1.42.96-3.03,2.5-3.31Z"/>
      <path fill="#FFFFFF" d="M149.22,9.06c2.72-.15,3.93,2.63,3.01,4.95s-4.46,2.34-5.63.36c-1.28-2.15.09-5.17,2.62-5.31Z"/>
      <path fill="#FFFFFF" d="M39.19,21.91c-.07.11-.32.26-.32.32v14.2s.3.32.32.32h4.09c6,0,7.7-11.56,1.91-14.17-.39-.17-1.81-.67-2.12-.67h-3.87Z"/>
      <path fill="#FFFFFF" d="M39.19,21.91h3.87c.32,0,1.74.5,2.12.67,5.79,2.61,4.09,14.17-1.91,14.17h-4.09s-.32-.3-.32-.32v-14.2c0-.06.25-.21.32-.32Z"/>
    </g>
  </g>
</svg>