<?xml version="1.0" encoding="UTF-8"?>
<svg id="Capa_2" data-name="Capa 2" xmlns="http://www.w3.org/2000/svg" viewBox="0 0 250.99 57.24">
  <defs>
    <style>
      .cls-1 {
        fill: #fff;
      }
    </style>
  </defs>
  <g id="Espalda">
    <g>
      <path class="cls-1" d="M176.31,21.56c-.61-.23-2.59-.53-2.93-1.01-.29-1.23-.15-2.64-.37-3.92-1.57-8.82-9.14-15.05-17.57-16.38-2.69-.43-5.82-.3-8.35.33-7.23,1.8-13.64,8.54-15.02,15.89-.27,1.44-.13,2.75-.48,4.16-3.41.98-6.61,2.39-8.57,5.51-6.62,10.5,4.1,23.36,15.81,18.39,9.21-3.91,9.95-17.74,1.14-22.32-1.04-.54-3.34-.79-3.3-2.15.03-1.22.72-4.01,1.18-5.18,4.39-11.11,19.14-13.24,26.85-4.18,2.19,2.57,3.71,6.73,3.46,10.11-1.7.9-3.41,1.32-4.97,2.58-8.9,7.19-3.82,22.2,8.24,22.16,13.99-.05,16.91-19.44,4.89-23.97ZM140.95,32.74c.07,5.71-5.23,9.31-10.48,7.03-6.19-2.69-5.16-12.79,1.84-13.95,4.34-.72,8.58,2.43,8.64,6.92ZM172.88,40.29c-9.88,2.17-12.28-13.1-2.8-14.48,9.59-1.39,11.75,12.51,2.8,14.48Z"/>
      <path class="cls-1" d="M211,21.73c-.94-.92-2.56-1.05-3.56-.19-.89.76-.68,1.68-1,2.69-.23,0-.56-.3-.75-.45-.44-.37-1.18-1.26-1.62-1.55-2.71-1.82-7.43-1.86-10.42-.66-6.88,2.78-9.36,11.42-5.98,17.83,3.07,5.81,11.6,8.2,16.86,4.03.31-.25,1.74-1.86,2-1.68.36,2.48-.24,6.06-1.79,8.08-2.18,2.82-6.55,3.37-9.69,1.95-1.4-.63-2.17-1.8-3.19-2.47-1.06-.69-2.48-.47-3.22.56-.92,1.27-.39,2.18.47,3.22,4.89,5.94,16.25,5.53,20.25-1.21,1.9-3.21,2.21-7.04,2.34-10.71.18-5.12.35-11.8,0-16.84-.05-.72-.18-2.08-.68-2.58ZM195.31,39.82c-6.03-3.14-4.73-12.62,2.07-14.17,2.66-.61,6.46.81,7.91,3.16,4.2,6.78-3.02,14.65-9.99,11.02Z"/>
      <path class="cls-1" d="M14.32,40.54c-3.81.46-8.26-1.55-8.98-5.62-1.15-6.52,4.7-11.03,10.78-8.71,1.1.42,2.36,1.57,3.67.92,1.23-.62,1.79-2.1,1.18-3.36-.05-.11-.72-.99-.78-1.03-6.32-4.6-16.85-1.34-19.44,6.12-3.74,10.78,7.21,19.91,17.44,15.72,1.78-.73,4.12-2.57,2.57-4.64-1.73-2.33-4.36.36-6.44.61Z"/>
      <path class="cls-1" d="M121.03,21.56c-.37-3.1-6.83-1.09-7.57-2.04-.44-.56.05-5.83-.23-7.15-.48-2.29-3.91-2.44-4.73-.24-.54,1.46.2,6.71-.33,7.39-.74.94-7.04-1.01-7.53,1.91-.65,3.89,4.77,2.22,6.91,2.62.32.06.51.27.69.51l.14,18.58c.3,2.06,2.67,2.8,4.19,1.45.48-.43.72-1.28.75-1.91l.02-18.18c.1-.29.48-.4.76-.45,2.19-.34,7.38,1.15,6.95-2.51Z"/>
      <path class="cls-1" d="M151.54,10.01c-.9.21-1.58,1.6-1.67,2.45v33.48c.59,3.02,4.45,3.25,5.16.17V11.94c-.36-1.65-1.92-2.29-3.49-1.93Z"/>
      <path class="cls-1" d="M250.99,23.23c0-1.37-1.11-2.49-2.49-2.49-1.13,0-2.08.76-2.38,1.8-.21.41-.37.86-.46,1.34-.34.24-1.85-1.39-2.34-1.69-5.38-3.25-13.03-1.04-16.09,4.28-5.25,9.11,1.65,20.65,12.49,18.85,2.33-.39,3.98-1.55,5.69-3.08.26,0,.45.56.64,1.13.17,1.21,1.2,2.14,2.45,2.14,1.37,0,2.49-1.11,2.49-2.49,0-.05-.01-.1-.02-.16,0-.08.01-.15.02-.22v-19.14c0-.05,0-.11-.01-.16,0-.04.01-.08.01-.12ZM241.67,39.89c-2.87,1.34-7.1.72-9.16-1.81-5.12-6.28,1.46-15.21,8.99-11.82,5.72,2.57,5.79,11.01.17,13.63Z"/>
      <path class="cls-1" d="M218.66,20.74c-1.41,0-2.56,1.15-2.56,2.56v19.43c0,1.41,1.15,2.56,2.56,2.56s2.56-1.15,2.56-2.56v-19.43c0-1.41-1.15-2.56-2.56-2.56Z"/>
      <path class="cls-1" d="M50.46,31.7c-.97,10.66,9.51,16.99,18.83,12.3,1.76-.88,4.88-3.27,2.9-5.36-1.79-1.88-4.33,1.22-6.01,1.9-3.84,1.56-8.99.03-10.34-4.1-.14-.42-.39-1.02-.04-1.36h16.78c1.03,0,1.87-.76,2.03-1.74.23-.91.13-2.08.01-2.81-2.19-13.65-22.89-12.9-24.17,1.16ZM69.54,30.96h-13.74c-.61-.89,1.09-3.38,1.77-3.99,2.84-2.55,8.06-2.62,10.57.43.48.58,1.87,2.81,1.4,3.56Z"/>
      <path class="cls-1" d="M44.48,20.95c-1.46,0-2.64,1.18-2.64,2.64v9.79c-.2,2.51-.78,4.74-2.26,5.9-2.74,2.15-7.82,1.7-8.96-1.99-.51-1.67-.58-3.79-.53-6-.01,0-.02-.01-.03-.02v-7.83c0-1.37-1.11-2.48-2.48-2.48s-2.48,1.11-2.48,2.48v9.7s0,0,0,.01c.02,6.29,1.19,12.23,8.78,12.39,3.32.07,6.85-.8,7.96-3.88v1.04c0,.32.07.62.17.9,0,0,0,.02,0,.03,0,0,0,0,0,0,.37,1,1.33,1.71,2.46,1.71,1.46,0,2.64-1.18,2.64-2.64v-19.1c0-1.46-1.18-2.64-2.64-2.64Z"/>
      <path class="cls-1" d="M96.75,22.92c-1.34-1.28-3.16-1.95-4.98-2.15-2.47-.26-5.01.37-6.96,1.92-.16.13-.32.27-.49.4-.18.13-.39.22-.57.36-.26.2-.63.12-.79-.15-.15-.45-.29-.98-.42-1.2-1.24-2.08-4.21-1.17-4.61,1,.42,6.38-.55,13.46,0,19.76.15,1.69,1.67,2.89,3.34,2.3.91-.32,1.7-1.7,1.82-2.64.41-3.38-.24-7.66-.01-11.17.09-1.41.44-2.53,1.31-3.67,1.97-2.56,7.26-2.9,9.07,0,2.1,3.38.76,11.06,1.12,15.19.12,1.37.89,2.36,2.32,2.39,1.7.03,2.53-1.15,2.67-2.73.29-3.4.18-8.74,0-12.2-.14-2.73-.8-5.46-2.82-7.39Z"/>
      <path class="cls-1" d="M217.95,17.6c.61.73,1.67.9,2.47.38l5.63-3.66c.94-.61,1.14-1.91.42-2.77l-.96-1.16c-.71-.86-2.02-.91-2.8-.11l-4.67,4.83c-.67.69-.71,1.77-.1,2.51h0Z"/>
    </g>
  </g>
</svg>