<?xml version="1.0" encoding="UTF-8"?>
<svg id="Capa_2" data-name="Capa 2" xmlns="http://www.w3.org/2000/svg" viewBox="0 0 95.8 46.33">
  <defs>
    <style>
      .cls-1 {
        fill: #fcfefd;
      }
    </style>
  </defs>
  <g id="Espalda">
    <g>
      <path class="cls-1" d="M55.79,42.63c-1.2.54-2.26,1.32-3.46,1.86-6.38,2.9-13.71,1.81-18.9-2.87-.33-.3-1.82-2.03-1.99-2-.13.03-1.5,1.65-1.83,1.94C17.17,52.85-2.02,42.64.17,26.03,1.59,15.25,13.24,8.26,23.49,11.82c.39.13,2.4.99,2.55,1.21.12.19.03.19-.06.32-.37.53-1.95,2.02-2.51,2.51-3,2.6-4.83,1.4-8.27,2.13-6.58,1.39-10.42,9.03-7.46,15.11,3.95,8.13,14.88,8.82,19.39.83,1.11-1.97.67-1.73.6-3.78-.22-6.18.17-12.49,0-18.68.12-.64,1.6-.21,2.07-.07,2.59.8,4.56,3.51,4.58,6.21.04,6.57-1.93,14.83,4.06,19.49,4.72,3.67,11.4,2.83,15.09-1.82,2.62-3.31,2.55-7.38,2.51-11.41-.03-2.96-.52-7.25-.07-10.09.58-3.67,5.94-3.43,6.46.19-.41,9.31.55,19.09,0,28.34-.11,1.9-.86,3.45-2.96,3.68-2.36.26-3.58-1.1-3.68-3.37Z"/>
      <path class="cls-1" d="M90.59,11.06c3.67-.62,6.1,2.95,3.73,5.86-2.47,3.04-6.1,6.04-8.84,8.96-.62.66-1.17,1.42-1.88,2l-.13.38c3.01,3.62,6.64,6.77,9.84,10.22,1.54,1.66,3.32,3.19,2.03,5.67-1.14,2.2-3.77,2.39-5.61.91-2.48-2-5.1-5.07-7.45-7.34-1.53-1.47-3.18-2.84-4.7-4.32-2.31-2.23-5.35-4.34-2.51-7.66,4.73-4.13,9-9.56,13.72-13.6.45-.39,1.21-1,1.79-1.09Z"/>
      <path class="cls-1" d="M67.54,11.19c1.91-.3,3.62.87,3.92,2.78-.18,9.06.4,18.16-.01,27.2-.08,1.71.38,2.88-1.12,4.14-1.1.93-2.87.98-4.05.17-1.15-.79-1.27-2.13-1.34-3.42-.48-9.04.37-18.5,0-27.58,0-1.45,1.13-3.06,2.6-3.29Z"/>
      <path class="cls-1" d="M64.94.19c.15-.48,2.56.08,3.03.22,1.2.36,2.67,1.25,3.21,2.42.43.94.55,3.41.31,4.41-.51,2.1-4.2,2.24-5.67,1.21-.17-.12-.89-.84-.89-.99V.19Z"/>
    </g>
  </g>
</svg>