<?xml version="1.0" encoding="UTF-8"?>
<svg id="Capa_2" data-name="Capa 2" xmlns="http://www.w3.org/2000/svg" viewBox="0 0 884.22 208.62">
  <defs>
    <style>
      .cls-1 {
        fill: #fffdfc;
      }
    </style>
  </defs>
  <g id="Capa_1-2" data-name="Capa 1">
    <g>
      <path fill="#FFFFFF" d="M631.29,69.2c-1.27-7.29-10.41-9.71-16.37-6.37-1.85,1.04-5.78,7.22-6.91,6.41-.08-.06-.12-1.34-.74-1.9-11.99-10.8-29.57-8.6-41.21,1.51-19.89,17.27-19.77,53.47.41,70.48,9.51,8.02,24.96,10.87,35.96,3.97,2.95-1.85,4.45-5.49,7.85-5.49-.26,4.28,4.25,7.58,8.21,8.18,9.57,1.45,12.49-3.68,13.17-12.34,1.61-20.61-.98-43.62-.37-64.46ZM606.25,116.64c-4.97,10.08-17.28,14.05-26.22,6.46-11.44-9.71-8.59-40.11,9.25-41.71,18.13-1.62,23.55,21.9,16.97,35.25Z"/>
      <path fill="#FFFFFF" d="M883.22,73.4c-.77-9.89-7.48-15.58-16.9-9.98-2.83,1.69-4.59,6.91-6.65,5.71-.13-.08-.59-1.71-1.65-2.52-17.04-12.98-38.98-4.59-48.78,12.9-9.2,16.41-8.36,40.82,4.2,55.27,11.69,13.45,30.8,17.1,45.01,5.32,1.18-.98.69-2.9,3.02-2.3,4.29,12.52,20.48,11.68,21.76-2.62,1.43-15.98,1.25-45.67,0-61.78ZM838.22,126c-15.16-5.23-15.93-31.15-4.98-40.79,5.52-4.86,13.91-5.32,19.96-1.23,16.47,11.12,7.81,49.88-14.98,42.01Z"/>
      <path fill="#FFFFFF" d="M298.49,68.85c-33.68,27.46-13.01,86.87,32.23,77.94,33.51-6.62,41.48-52.3,18.59-74.99-13.5-13.38-35.96-15.05-50.81-2.95ZM322.47,127.17c-23.85.36-23.44-42.29-4.35-45.56,28.58-4.88,28.42,45.19,4.35,45.56Z"/>
      <path fill="#FFFFFF" d="M400.7,65.1c-1.14.71-3.91,4.68-5.37,3.38-.1-.09,0-1.66-.74-2.67-2.13-2.96-5.16-4.3-8.79-4.24-9,.14-11.32,7.24-11.85,14.88-1.08,15.47-1.04,39.44,0,54.93.47,6.94,2.85,15.09,11.2,15.54,8.65.47,11.79-7.65,12.46-14.82,1.16-12.47-2.12-31.17.18-42.49,2.36-11.61,23.38-13.58,27.18-.09,3.04,10.8-.06,31.13.82,43.38.34,4.69,1.05,9.5,5.42,12.1,8.78,5.22,16.67-1.26,17.51-10.58,1.06-11.83,1.22-47.91-3.29-57.74-7.45-16.25-30.21-20.65-44.72-11.59Z"/>
      <path fill="#FFFFFF" d="M705.8,64.82c-9.03-5.24-23.81-5.83-32.77-.3-1.69,1.04-3.71,3.83-5.18,3.97-1.84.19-.8-1.18-1.88-2.69-4.94-6.87-16.74-5.02-19.46,2.68-.52,1.49-.99,4.11-1.14,5.72-1.79,19.1,1.3,40.79,0,60.18,1.42,16.29,21.41,17.24,22.89.04.97-11.33-2.74-40.8,3.03-48.79,4.72-6.53,16.41-7.6,21.76-1.6,3.07,3.45,3.78,6.97,4.14,11.51.8,10.08-2.1,37.99,1.37,45.11,4.26,8.75,17.14,7.88,20.36-1.31,2.37-6.78,1.7-38.12,1.18-46.89-.67-11.45-3.85-21.57-14.29-27.63Z"/>
      <path fill="#FFFFFF" d="M793.62,125.63h-31.64l35.7-50.8c2.76-5.79,2.17-11.13-4.81-12.46l-56.27.18c-6.05,2.38-8.48,9.29-5.44,15.02.46.87,4.93,4.63,5.28,4.63h28.59c.29,1.24-.25,1.76-.74,2.69-8.1,15.1-25.34,31.34-33.44,46.58-4.84,9.11-1.2,14,8.62,14.77,13.33,1.04,36.27,1.04,49.6,0,3.48-.27,7.75-.76,9.82-3.9,2.46-3.73,3-9.82-.3-13.29-.38-.4-4.67-3.41-4.97-3.41Z"/>
      <path fill="#FFFFFF" d="M501.61,62.43c-8.55-1.32-11.78,4.06-10.91-7.96.9-12.44,3.01-7.6,11.13-10.21,8.37-2.68,7.56-15.45-1.17-18.24-14.81-4.72-30.61,3.43-32.93,19.2-.75,5.13.55,11.82,0,17.14-19.69-3-20.38,23.48,0,19.81v53.72c0,.88,2.62,6.21,3.5,7.16,6.44,7.01,17.67,3.63,19.4-5.61l.12-53.22c1.01-3.45,8.89-1.43,12.59-2.66,8.05-2.67,8.08-17.64-1.74-19.16Z"/>
      <path fill="#FFFFFF" d="M526.23,61.8c-5.44.98-8.3,6.69-8.85,11.72-1.6,14.65-1.22,43.61-.13,58.61.37,5.15,1.39,10.96,6.75,13.07,6.9,2.72,13.42-.23,16.12-7.04l.07-67.81c-1.66-6.31-7.55-9.7-13.96-8.55Z"/>
      <path fill="#FFFFFF" d="M528.53,32.09c-8.96.49-13.81,11.17-9.28,18.8,4.16,7,16.78,6.65,19.94-1.29,3.27-8.21-1.03-18.04-10.66-17.52Z"/>
      <path fill="#FFFFFF" d="M255.86,125.29c-31.49,7.8-33.85-46.58-4.24-43.85,6.47.6,15.11,7.11,20.61,2.3,4.73-4.13,4.34-12.13.09-16.53-2.44-2.53-7.2-4.13-10.59-5.03-18.66-4.95-37.24.85-47.41,17.78-2.94,4.9-3.77,10.18-6.15,15.17-1.33,0-1.74-9.8-2.1-11.61-5.96-30.27-26.75-57.66-54.05-71.7C85.52-22.41,7.7,21.48.41,94.73l-.41,112.45,2.31.78c35.26-1.71,72.48,2.17,107.51-.04,46.77-2.95,87.03-37.76,96.25-83.62.73-3.64.17-8.49,2.11-11.61l2.74,8.67c8.41,20.32,29.71,30.57,50.97,23.69,8.47-2.74,19.44-11.7,10.68-20.55-6.02-6.08-10.67-.7-16.72.8ZM95.22,71.78c1.33-1.33,5.12-2.56,7-2.55,13.18.1,13.59,20.4.12,20.3-9.34-.07-13.66-11.25-7.11-17.75ZM102.21,138.57c-13.57-.02-13.2-20.96.65-20.29,1.46.07,6.3,2.06,7.13,3,.23.26,2.06,4.5,2.19,5.06,1.43,6.41-3.4,12.24-9.97,12.23ZM169.09,144.48c-9.22,3.91-31.58,4.27-41.76,3.29-6.05-.59-8.24-3.64-8.76-9.53l.45-72.77c1.64-1.98,3.35-4.83,6.1-5.33,5.43-.99,22.82-.51,28.96-.07,7.26.52,14.49,2.63,20.64,6.43,25.1,15.51,23.3,65.71-5.62,77.98Z"/>
      <path fill="#FFFFFF" d="M172.53,99.95c-.83-8.55-4.79-16.48-12.49-19.94-1.37-.62-6.41-2.38-7.53-2.38h-13.72c-.09.14-.28.31-.47.48-.13.11-.26.22-.38.32-.17.15-.3.27-.3.35v50.29s.07.1.17.21c.05.06.11.12.17.18.32.33.75.75.8.75h14.48c12.95,0,20.25-15.21,19.34-29.18-.02-.36-.05-.71-.09-1.07Z"/>
    </g>
  </g>
</svg>