<?xml version="1.0" encoding="UTF-8"?>
<svg id="Capa_2" data-name="Capa 2" xmlns="http://www.w3.org/2000/svg" viewBox="0 0 106.84 41.49">
  <defs>
    <style>
      .cls-1 {
        fill: #fff;
      }
    </style>
  </defs>
  <g id="Espalda">
    <g>
      <path fill="#FFFFFF" d="M23.52.16v40.83l-.19.19H5.69c-2.7,0-5.61-3.41-5.56-6.06.32-5.58-.41-11.6,0-17.13.18-2.48,1.8-4.88,4.06-5.9.3-.13,1.79-.67,2.01-.67h9.26V3.8c0-.09.34-1.07.42-1.24C17.21-.45,20.77-.09,23.52.16ZM15.34,17.92h-5.69c-.11,0-.67.25-.82.33-.98.52-1.45,1.46-1.54,2.54-.32,3.7.24,7.87.02,11.62.17.76.42,1.41,1.1,1.84.11.07.82.4.87.4h6.07v-16.74Z"/>
      <path fill="#FFFFFF" d="M104.46,39.7c-1.07,1-2.2,1.48-3.7,1.61-2.37.19-10.41.31-12.43-.22-2.98-.78-4.57-3.56-4.76-6.49-.36-5.68.16-11.9.17-17.61.6-2.76,2.92-4.97,5.78-5.21,2.98-.24,8.13-.23,11.11,0,3.66.28,5.84,3.04,6.07,6.58.37,5.79-.13,12.16-.18,17.96-.28,1.32-1.09,2.46-2.06,3.37ZM98.74,34.37c.18-.17.3-.54.46-.76-.1-4.3.46-9.19.1-13.45-.09-1.06-.47-1.72-1.6-1.85s-3.79-.11-4.99,0-1.59.7-1.73,1.85c.29,4.12-.36,8.72,0,12.79.09,1.05.51,1.73,1.6,1.85,1.13.13,3.98.13,5.11,0,.34-.04.8-.19,1.04-.43Z"/>
      <path fill="#FFFFFF" d="M77.27,13.62c3.05,3.14,1.85,9.7,1.82,13.82-.02,2.87.32,5.81.01,8.69-.3,2.75-3.3,4.97-5.94,5.17-2.96.22-8.32.27-11.24,0-4.02-.37-5.64-3.74-5.81-7.35-.22-4.64-.28-10.89.02-15.46.25-3.72,2.27-6.44,6.17-6.71,2.99-.21,7.75-.22,10.73,0,1.56.12,3.13.69,4.24,1.83ZM64.07,18.73c-.31.3-.55.99-.56,1.42.27,4.09-.35,8.62,0,12.66.07.87.37,1.82,1.35,1.97.76.12,5.15.12,5.81-.05.78-.2,1.07-.94,1.14-1.67.41-4.07-.3-8.77,0-12.91-.09-1.09-.44-1.72-1.6-1.85s-3.98-.13-5.11,0c-.34.04-.8.19-1.04.43Z"/>
      <path fill="#FFFFFF" d="M42.94.55c2.78-.12,6.53-.49,7.35,2.93.04.15.19.89.19.97v36.99c-1.1-.24-2.38-.14-3.51-.26-1.63-.17-2.53-.32-3.41-1.83-.09-.16-.61-1.23-.61-1.3V.55Z"/>
      <path fill="#FFFFFF" d="M36.68,41.25c-.1.13-.11.14-.26.14-.46,0-1.12-.04-1.6-.07-.9-.05-3.06-.19-3.75-.59-2.6-1.49-1.86-4.75-1.92-7.28-.18-6.71-.37-13.6-.14-20.32.01-.42.18-.8.04-1.21l.15-.21c1.91-.09,5.36-.23,6.64,1.5.35.47.84,1.93.84,2.48v25.56Z"/>
      <path fill="#FFFFFF" d="M29.52,9.24v-4.54c0-.8.93-1.95,1.54-2.42,3.67-2.79,8.5.73,6.86,5.07-.22.59-1.15,1.88-1.82,1.88h-6.58Z"/>
    </g>
  </g>
</svg>