<?xml version="1.0" encoding="UTF-8"?>
<svg id="Capa_2" data-name="Capa 2" xmlns="http://www.w3.org/2000/svg" viewBox="0 0 179.41 37.02">
  <defs>
    <style>
      .cls-1 {
        fill: #fafafa;
      }

      .cls-2 {
        fill: #f9f9f9;
      }
    </style>
  </defs>
  <g id="Espalda">
    <g>
      <g>
        <path fill="#FFFFFF" d="M77.53,20.79c1.11-8.94,12.24-12.67,18.43-6.02,4.7-5.32,13.76-4.2,17,2.06.3.58,1.43,3.55,1.43,3.96v12.63h-5.8v-13.05c0-.3-1.26-2.13-1.67-2.47-2.93-2.41-8.27-.2-8.27,3.3v12.22h-5.38v-12.63c0-.36-1.41-2.32-1.86-2.7-1.85-1.57-4.52-1.74-6.41-.19-.41.34-1.67,2.17-1.67,2.47v13.05h-5.8c.36-3.98-.48-8.75,0-12.63Z"/>
        <path fill="#FFFFFF" d="M159.12,18.1c-1.46-.23-3.79.34-5.09,0-.32-.08-.54-.94-1.22-1.35-1.85-1.09-7.87-1.18-8.41,1.3-.15.7.7,1.83,1.35,2.03,1.56.47,4.93.14,7.18.69,4.05.99,7.07,3.13,6.1,7.79-1.51,7.25-20.05,7.53-20.2-1.35,1.42.17,3.35-.3,4.68.09.65.19,1.46,1.33,2.48,1.67,2.16.72,8.43.77,7.29-2.72-.44-1.33-7.48-1.38-9.56-2.05-2.21-.71-4.46-2.19-4.85-4.67-1.58-10.12,19.24-11.04,20.27-1.43Z"/>
        <path fill="#FFFFFF" d="M121.43,11.89v12.63c0,2.48,3.9,4.33,6.33,3.84,1.25-.25,3.61-2.24,3.61-3.42v-13.05h5.8v12.22c0,.49-.88,3.15-1.16,3.81-3.1,7.25-13.46,8.15-18.06,1.75-.47-.66-1.9-3.32-1.9-3.9v-13.87h5.38Z"/>
        <rect fill="#FFFFFF" x="176.92" y="3.6" width="2.48" height="12.01"/>
        <path fill="#FFFFFF" d="M46.47,3.19v9.53c-8.56-4.02-17.87,1.6-16.97,11.39.97,10.57,15.49,13.46,20.97,4.41.27-.44,1.39-2.92,1.39-3.17V3.19h-5.38ZM40.72,28.5c-3.21,0-5.82-2.6-5.82-5.82s2.6-5.82,5.82-5.82,5.82,2.6,5.82,5.82-2.6,5.82-5.82,5.82Z"/>
        <path fill="#FFFFFF" d="M64.86,11.33c-6.27,0-11.34,5.08-11.34,11.35s5.08,11.35,11.34,11.35,11.35-5.08,11.35-11.35-5.08-11.35-11.35-11.35ZM64.83,28.51c-3.22,0-5.84-2.61-5.84-5.84s2.61-5.84,5.84-5.84,5.84,2.61,5.84,5.84-2.61,5.84-5.84,5.84Z"/>
        <path fill="#FFFFFF" d="M170.92,4.01c-.48-.56-3.06-.61-3.47-.35-.53.34-3.39,10.55-4.2,11.95,4.06.47,2.3-.41,3.38-2.21.53-.89,3.67-.97,4.65-.71.52.14.3,4.21,3.56,2.92l-3.93-11.6ZM167.81,10.64l1.45-4.97,1.45,4.97h-2.9Z"/>
        <path fill="#FFFFFF" d="M22.36,28.74c-.54-1.83-7.83-5.86-9.05-7.93-.33-.56-.58-.91-.35-1.61,1.2-3.67,7.24,4,8.46,4.28.4.09,1.02-.47,1.02-.62V2.98c0-.89-2.12-2.51-3.13-2.67C16.28-.16,7.24-.03,4,.27,2.47.41.43,1.37.08,2.98v19.88c0,.15.62.71,1.02.62.82-.19,8.11-8.45,8.53-3.92.1,1.06-.99,1.81-1.68,2.48-1.47,1.42-7.05,5.07-7.66,6.42-.4.87-.35,4.48-.13,5.5.35,1.55,1.93,2.61,3.42,2.79,3.43.4,11.43.33,14.94.01,2.2-.2,3.65-1.25,3.92-3.53.11-.94.14-3.66-.09-4.48ZM8.15,15.17c-2.4-.11-3.23,1.82-5.17,2.52V4.22c0-.07.64-.73.83-.82.84-.4,14.06-.39,14.9,0,.2.09.83.75.83.82v13.46c-2.29-.98-2.97-2.91-5.9-2.4-.85.15-1.73.94-2.18.98-.85.07-2.14-1.04-3.32-1.1ZM18.72,33.63c-.55.27-5.2.4-5.38.2-.15-.16.35-3.45-1.86-3.56-2.76-.13-2.09,3.35-2.29,3.56-.19.2-5.1.09-5.53-.06-.98-.32-.84-3.01-.6-3.8.13-.44,6.17-5.33,6.99-5.85.57-.37.89-.69,1.64-.48,1.69.47,5.48,4.97,7.44,5.85.74.89.74,3.58-.41,4.14Z"/>
      </g>
      <rect fill="#FFFFFF" x="9.53" y="6.36" width="3.27" height="3.07" rx="1.33" ry="1.33"/>
      <rect fill="#FFFFFF" x="5.21" y="6.36" width="3.27" height="3.07" rx="1.33" ry="1.33"/>
      <rect fill="#FFFFFF" x="9.53" y="10.39" width="3.27" height="3.07" rx="1.33" ry="1.33"/>
      <rect fill="#FFFFFF" x="13.86" y="6.36" width="3.27" height="3.07" rx="1.33" ry="1.33"/>
      <rect fill="#FFFFFF" x="13.86" y="10.39" width="3.27" height="3.07" rx="1.33" ry="1.33"/>
      <rect fill="#FFFFFF" x="5.21" y="10.39" width="3.27" height="3.07" rx="1.33" ry="1.33"/>
    </g>
  </g>
</svg>