<?xml version="1.0" encoding="UTF-8"?>
<svg id="Capa_2" data-name="Capa 2" xmlns="http://www.w3.org/2000/svg" viewBox="0 0 159.35 64.01">
  <defs>
    <style>
      .cls-1 {
        fill: #fff;
      }
    </style>
  </defs>
  <g id="Espalda">
    <g>
      <polygon fill="#FFFFFF" points=".24 .98 28.44 .98 28.44 5.74 5.37 5.74 5.37 17.54 26.69 17.54 26.69 22.04 5.37 22.04 5.37 35.22 28.84 35.22 28.84 39.85 .24 39.85 .24 .98"/>
      <polygon fill="#FFFFFF" points="44.49 .98 49.76 .98 49.76 35.22 69.26 35.22 69.26 39.85 44.49 39.85 44.49 .98"/>
      <path fill="#FFFFFF" d="M86.68,27.3c.12,2.21.62,4,1.5,5.37,1.68,2.58,4.65,3.86,8.89,3.86,1.9,0,3.64-.28,5.2-.85,3.02-1.09,4.54-3.05,4.54-5.87,0-2.12-.64-3.62-1.92-4.52-1.3-.88-3.33-1.65-6.1-2.3l-5.1-1.19c-3.33-.78-5.69-1.63-7.07-2.57-2.39-1.62-3.59-4.05-3.59-7.28,0-3.49,1.18-6.36,3.53-8.6,2.35-2.24,5.68-3.36,9.99-3.36,3.97,0,7.33.98,10.11,2.95,2.77,1.97,4.16,5.11,4.16,9.43h-4.95c-.25-2.08-.79-3.68-1.62-4.79-1.54-2.03-4.15-3.04-7.84-3.04-2.98,0-5.12.65-6.42,1.96-1.3,1.31-1.95,2.82-1.95,4.55,0,1.91.77,3.3,2.31,4.18,1.01.56,3.29,1.27,6.85,2.12l5.28,1.24c2.55.6,4.51,1.42,5.9,2.46,2.39,1.82,3.59,4.45,3.59,7.91,0,4.3-1.53,7.38-4.58,9.23-3.05,1.85-6.6,2.78-10.64,2.78-4.71,0-8.4-1.23-11.07-3.7-2.67-2.45-3.98-5.78-3.92-9.97h4.95Z"/>
      <polygon fill="#FFFFFF" points="145.25 .98 139.3 .98 124.67 39.85 130.06 39.85 134.27 28.2 137.6 19.02 142.05 6.75 147.95 23.92 139.19 23.92 137.72 28.2 149.64 28.2 153.59 39.85 159.35 39.85 145.25 .98"/>
      <g>
        <path fill="#FFFFFF" d="M4.54,55.47c.43.19.79.5,1.07.92.25.37.42.8.5,1.29.04.29.06.7.05,1.23H1.64c.03.62.24,1.06.65,1.31.25.16.55.23.9.23.37,0,.67-.1.9-.29.13-.1.24-.25.33-.43h1.66c-.04.37-.24.74-.6,1.12-.56.6-1.34.91-2.34.91-.83,0-1.56-.25-2.19-.76-.63-.51-.95-1.34-.95-2.49,0-1.08.29-1.9.86-2.48.57-.57,1.31-.86,2.22-.86.54,0,1.03.1,1.46.29ZM2.11,56.88c-.23.24-.37.56-.43.96h2.8c-.03-.43-.17-.76-.43-.98-.26-.22-.58-.33-.96-.33-.42,0-.74.12-.97.36Z"/>
        <path fill="#FFFFFF" d="M8.24,59.58c.03.29.11.49.22.62.2.22.58.33,1.12.33.32,0,.58-.05.76-.14s.28-.24.28-.43-.08-.32-.23-.42c-.15-.1-.72-.26-1.7-.49-.71-.17-1.2-.39-1.49-.66-.29-.26-.43-.63-.43-1.12,0-.57.23-1.07.68-1.48.45-.41,1.09-.62,1.91-.62.78,0,1.41.15,1.9.46.49.31.77.84.84,1.6h-1.62c-.02-.21-.08-.37-.18-.5-.18-.22-.48-.33-.91-.33-.35,0-.61.05-.76.17-.15.11-.23.24-.23.39,0,.19.08.32.24.4.16.09.73.24,1.7.45.65.15,1.13.38,1.46.69.32.31.48.7.48,1.17,0,.62-.23,1.12-.69,1.51-.46.39-1.17.58-2.13.58s-1.7-.21-2.17-.62c-.47-.41-.7-.94-.7-1.58h1.65Z"/>
        <path fill="#FFFFFF" d="M18.7,56.01c.51.54.76,1.32.76,2.36,0,1.09-.25,1.93-.74,2.5-.5.57-1.13.86-1.91.86-.5,0-.91-.12-1.24-.37-.18-.14-.36-.34-.53-.6v3.24h-1.61v-8.66h1.56v.92c.18-.27.36-.48.56-.64.36-.28.8-.42,1.3-.42.73,0,1.35.27,1.86.8ZM17.46,57.18c-.22-.37-.58-.55-1.07-.55-.6,0-1,.28-1.23.84-.12.3-.17.67-.17,1.13,0,.72.19,1.23.58,1.52.23.17.5.26.82.26.46,0,.81-.17,1.05-.52.24-.35.36-.82.36-1.4,0-.48-.11-.9-.33-1.27Z"/>
        <path fill="#FFFFFF" d="M23.07,57.78c.3-.04.52-.09.65-.14.23-.1.35-.25.35-.46,0-.25-.09-.43-.27-.53-.18-.1-.44-.15-.79-.15-.39,0-.66.1-.83.29-.12.14-.19.33-.23.57h-1.57c.03-.54.19-.99.46-1.34.43-.55,1.17-.82,2.22-.82.68,0,1.29.14,1.82.4s.8.78.8,1.53v2.85c0,.2,0,.44.01.72.01.21.04.36.1.43.05.08.13.14.24.19v.24h-1.77c-.05-.13-.08-.24-.1-.35-.02-.11-.03-.24-.05-.38-.23.24-.49.45-.78.62-.35.2-.75.3-1.19.3-.57,0-1.03-.16-1.4-.48-.37-.32-.55-.78-.55-1.37,0-.76.3-1.32.89-1.66.33-.19.8-.32,1.44-.4l.56-.07ZM24.06,58.54c-.1.06-.21.12-.31.16-.11.04-.25.08-.44.11l-.37.07c-.35.06-.6.14-.75.22-.26.15-.38.38-.38.69,0,.28.08.48.23.6s.35.19.57.19c.35,0,.68-.1.98-.31.3-.21.45-.58.47-1.12v-.6Z"/>
        <path fill="#FFFFFF" d="M30.82,57.57c-.03-.23-.11-.44-.23-.63-.18-.25-.47-.38-.85-.38-.55,0-.92.27-1.13.82-.11.29-.16.67-.16,1.15s.05.82.16,1.1c.19.52.56.78,1.1.78.38,0,.65-.1.81-.31s.26-.47.29-.8h1.66c-.04.49-.22.96-.54,1.4-.51.71-1.27,1.07-2.27,1.07s-1.74-.3-2.21-.89c-.47-.59-.71-1.36-.71-2.31,0-1.07.26-1.9.78-2.49.52-.59,1.24-.89,2.16-.89.78,0,1.42.17,1.91.52.5.35.79.97.88,1.85h-1.66Z"/>
        <path fill="#FFFFFF" d="M35.27,54.6h-1.65v-1.5h1.65v1.5ZM33.62,55.35h1.65v6.21h-1.65v-6.21Z"/>
        <path fill="#FFFFFF" d="M42.02,60.8c-.52.65-1.32.97-2.39.97s-1.86-.32-2.39-.97c-.52-.65-.79-1.43-.79-2.34s.26-1.67.79-2.33c.52-.66,1.32-.99,2.39-.99s1.86.33,2.39.99c.52.66.79,1.43.79,2.33s-.26,1.69-.79,2.34ZM40.72,59.9c.25-.34.38-.82.38-1.44s-.13-1.1-.38-1.44c-.25-.34-.62-.5-1.09-.5s-.84.17-1.1.5-.38.81-.38,1.44.13,1.1.38,1.44c.26.34.62.51,1.1.51s.84-.17,1.09-.51Z"/>
        <path fill="#FFFFFF" d="M45.23,59.58c.03.29.11.49.22.62.2.22.58.33,1.12.33.32,0,.58-.05.76-.14s.28-.24.28-.43-.08-.32-.23-.42c-.15-.1-.72-.26-1.7-.49-.71-.17-1.2-.39-1.49-.66-.29-.26-.43-.63-.43-1.12,0-.57.23-1.07.68-1.48.45-.41,1.09-.62,1.91-.62.78,0,1.41.15,1.9.46.49.31.77.84.84,1.6h-1.62c-.02-.21-.08-.37-.18-.5-.18-.22-.48-.33-.91-.33-.35,0-.61.05-.76.17-.15.11-.23.24-.23.39,0,.19.08.32.24.4.16.09.73.24,1.7.45.65.15,1.13.38,1.46.69.32.31.48.7.48,1.17,0,.62-.23,1.12-.69,1.51-.46.39-1.17.58-2.13.58s-1.7-.21-2.17-.62c-.47-.41-.7-.94-.7-1.58h1.65Z"/>
      </g>
      <g>
        <path fill="#FFFFFF" d="M54.9,61.56h-1.62v-8.4h1.62v8.4Z"/>
        <path fill="#FFFFFF" d="M58.95,57.78c.3-.04.52-.09.65-.14.23-.1.35-.25.35-.46,0-.25-.09-.43-.27-.53-.18-.1-.44-.15-.79-.15-.39,0-.66.1-.83.29-.12.14-.19.33-.23.57h-1.57c.03-.54.19-.99.46-1.34.43-.55,1.17-.82,2.22-.82.68,0,1.29.14,1.82.4s.8.78.8,1.53v2.85c0,.2,0,.44.01.72.01.21.04.36.1.43.05.08.13.14.24.19v.24h-1.77c-.05-.13-.08-.24-.1-.35-.02-.11-.03-.24-.05-.38-.23.24-.49.45-.78.62-.35.2-.75.3-1.19.3-.57,0-1.03-.16-1.4-.48-.37-.32-.55-.78-.55-1.37,0-.76.3-1.32.89-1.66.33-.19.8-.32,1.44-.4l.56-.07ZM59.94,58.54c-.1.06-.21.12-.31.16-.11.04-.25.08-.44.11l-.37.07c-.35.06-.6.14-.75.22-.26.15-.38.38-.38.69,0,.28.08.48.23.6s.35.19.57.19c.35,0,.68-.1.98-.31.3-.21.45-.58.47-1.12v-.6Z"/>
        <path fill="#FFFFFF" d="M68.29,56.09c.46.59.7,1.35.7,2.28s-.23,1.77-.69,2.4c-.46.63-1.1.95-1.92.95-.52,0-.93-.1-1.24-.31-.19-.12-.39-.33-.61-.64v.78h-1.6v-8.39h1.62v2.99c.21-.29.43-.51.68-.66.29-.19.67-.29,1.12-.29.82,0,1.47.29,1.93.88ZM66.93,59.88c.23-.34.35-.78.35-1.33,0-.44-.06-.81-.17-1.09-.22-.55-.62-.82-1.21-.82s-1,.27-1.22.8c-.11.29-.17.65-.17,1.11,0,.53.12.97.36,1.32.24.35.6.52,1.09.52.42,0,.75-.17.98-.51Z"/>
        <path fill="#FFFFFF" d="M75.3,60.8c-.52.65-1.32.97-2.39.97s-1.86-.32-2.39-.97c-.52-.65-.79-1.43-.79-2.34s.26-1.67.79-2.33c.52-.66,1.32-.99,2.39-.99s1.86.33,2.39.99c.52.66.79,1.43.79,2.33s-.26,1.69-.79,2.34ZM74,59.9c.25-.34.38-.82.38-1.44s-.13-1.1-.38-1.44c-.25-.34-.62-.5-1.09-.5s-.84.17-1.1.5-.38.81-.38,1.44.13,1.1.38,1.44c.26.34.62.51,1.1.51s.84-.17,1.09-.51Z"/>
        <path fill="#FFFFFF" d="M80.7,55.2s.07,0,.14,0v1.66c-.1-.01-.19-.02-.27-.02-.08,0-.14,0-.19,0-.65,0-1.09.21-1.32.64-.13.24-.19.61-.19,1.11v2.97h-1.64v-6.21h1.55v1.08c.25-.41.47-.7.66-.85.3-.25.7-.38,1.19-.38.03,0,.06,0,.08,0Z"/>
        <path fill="#FFFFFF" d="M84.25,57.78c.3-.04.52-.09.65-.14.23-.1.35-.25.35-.46,0-.25-.09-.43-.27-.53-.18-.1-.44-.15-.79-.15-.39,0-.66.1-.83.29-.12.14-.19.33-.23.57h-1.57c.03-.54.19-.99.46-1.34.43-.55,1.17-.82,2.22-.82.68,0,1.29.14,1.82.4s.8.78.8,1.53v2.85c0,.2,0,.44.01.72.01.21.04.36.1.43.05.08.13.14.24.19v.24h-1.77c-.05-.13-.08-.24-.1-.35-.02-.11-.03-.24-.05-.38-.23.24-.49.45-.78.62-.35.2-.75.3-1.19.3-.57,0-1.03-.16-1.4-.48-.37-.32-.55-.78-.55-1.37,0-.76.3-1.32.89-1.66.33-.19.8-.32,1.44-.4l.56-.07ZM85.24,58.54c-.1.06-.21.12-.31.16-.11.04-.25.08-.44.11l-.37.07c-.35.06-.6.14-.75.22-.26.15-.38.38-.38.69,0,.28.08.48.23.6s.35.19.57.19c.35,0,.68-.1.98-.31.3-.21.45-.58.47-1.12v-.6Z"/>
        <path fill="#FFFFFF" d="M89.94,61.56h-1.62v-8.4h1.62v8.4Z"/>
        <path fill="#FFFFFF" d="M95.58,55.47c.43.19.79.5,1.07.92.25.37.42.8.5,1.29.04.29.06.7.05,1.23h-4.53c.03.62.24,1.06.65,1.31.25.16.55.23.9.23.37,0,.67-.1.9-.29.13-.1.24-.25.33-.43h1.66c-.04.37-.24.74-.6,1.12-.56.6-1.34.91-2.34.91-.83,0-1.56-.25-2.19-.76-.63-.51-.95-1.34-.95-2.49,0-1.08.29-1.9.86-2.48.57-.57,1.31-.86,2.22-.86.54,0,1.03.1,1.46.29ZM93.15,56.88c-.23.24-.37.56-.43.96h2.8c-.03-.43-.17-.76-.43-.98-.26-.22-.58-.33-.96-.33-.42,0-.74.12-.97.36Z"/>
        <path fill="#FFFFFF" d="M99.28,59.58c.03.29.11.49.22.62.2.22.58.33,1.12.33.32,0,.58-.05.76-.14s.28-.24.28-.43-.08-.32-.23-.42c-.15-.1-.72-.26-1.7-.49-.71-.17-1.2-.39-1.49-.66-.29-.26-.43-.63-.43-1.12,0-.57.23-1.07.68-1.48.45-.41,1.09-.62,1.91-.62.78,0,1.41.15,1.9.46.49.31.77.84.84,1.6h-1.62c-.02-.21-.08-.37-.18-.5-.18-.22-.48-.33-.91-.33-.35,0-.61.05-.76.17-.15.11-.23.24-.23.39,0,.19.08.32.24.4.16.09.73.24,1.7.45.65.15,1.13.38,1.46.69.32.31.48.7.48,1.17,0,.62-.23,1.12-.69,1.51-.46.39-1.17.58-2.13.58s-1.7-.21-2.17-.62c-.47-.41-.7-.94-.7-1.58h1.65Z"/>
      </g>
      <g>
        <path fill="#FFFFFF" d="M108.55,59.58c.03.29.11.49.22.62.2.22.58.33,1.12.33.32,0,.58-.05.76-.14s.28-.24.28-.43-.08-.32-.23-.42c-.15-.1-.72-.26-1.7-.49-.71-.17-1.2-.39-1.49-.66-.29-.26-.43-.63-.43-1.12,0-.57.23-1.07.68-1.48.45-.41,1.09-.62,1.91-.62.78,0,1.41.15,1.9.46.49.31.77.84.84,1.6h-1.62c-.02-.21-.08-.37-.18-.5-.18-.22-.48-.33-.91-.33-.35,0-.61.05-.76.17-.15.11-.23.24-.23.39,0,.19.08.32.24.4.16.09.73.24,1.7.45.65.15,1.13.38,1.46.69.32.31.48.7.48,1.17,0,.62-.23,1.12-.69,1.51-.46.39-1.17.58-2.13.58s-1.7-.21-2.17-.62c-.47-.41-.7-.94-.7-1.58h1.65Z"/>
        <path fill="#FFFFFF" d="M115.46,54.6h-1.65v-1.5h1.65v1.5ZM113.81,55.35h1.65v6.21h-1.65v-6.21Z"/>
        <path fill="#FFFFFF" d="M122.04,55.7c.41.34.61.89.61,1.67v4.18h-1.66v-3.78c0-.33-.04-.58-.13-.75-.16-.32-.46-.48-.91-.48-.55,0-.92.23-1.13.7-.11.25-.16.56-.16.95v3.36h-1.62v-6.2h1.57v.91c.21-.32.4-.55.59-.69.33-.25.76-.38,1.27-.38.64,0,1.16.17,1.57.5Z"/>
      </g>
      <g>
        <path fill="#FFFFFF" d="M129.17,57.78c.3-.04.52-.09.65-.14.23-.1.35-.25.35-.46,0-.25-.09-.43-.27-.53-.18-.1-.44-.15-.79-.15-.39,0-.66.1-.83.29-.12.14-.19.33-.23.57h-1.57c.03-.54.19-.99.46-1.34.43-.55,1.17-.82,2.22-.82.68,0,1.29.14,1.82.4s.8.78.8,1.53v2.85c0,.2,0,.44.01.72.01.21.04.36.1.43.05.08.13.14.24.19v.24h-1.77c-.05-.13-.08-.24-.1-.35-.02-.11-.03-.24-.05-.38-.23.24-.49.45-.78.62-.35.2-.75.3-1.19.3-.57,0-1.03-.16-1.4-.48-.37-.32-.55-.78-.55-1.37,0-.76.3-1.32.89-1.66.33-.19.8-.32,1.44-.4l.56-.07ZM130.16,58.54c-.1.06-.21.12-.31.16-.11.04-.25.08-.44.11l-.37.07c-.35.06-.6.14-.75.22-.26.15-.38.38-.38.69,0,.28.08.48.23.6s.35.19.57.19c.35,0,.68-.1.98-.31.3-.21.45-.58.47-1.12v-.6Z"/>
        <path fill="#FFFFFF" d="M136.92,57.57c-.03-.23-.11-.44-.23-.63-.18-.25-.47-.38-.85-.38-.55,0-.92.27-1.13.82-.11.29-.16.67-.16,1.15s.05.82.16,1.1c.19.52.56.78,1.1.78.38,0,.65-.1.81-.31s.26-.47.29-.8h1.66c-.04.49-.22.96-.54,1.4-.51.71-1.27,1.07-2.27,1.07s-1.74-.3-2.21-.89c-.47-.59-.71-1.36-.71-2.31,0-1.07.26-1.9.78-2.49.52-.59,1.24-.89,2.16-.89.78,0,1.42.17,1.91.52.5.35.79.97.88,1.85h-1.66Z"/>
        <path fill="#FFFFFF" d="M144.88,60.8c-.52.65-1.32.97-2.39.97s-1.86-.32-2.39-.97c-.52-.65-.79-1.43-.79-2.34s.26-1.67.79-2.33c.52-.66,1.32-.99,2.39-.99s1.86.33,2.39.99c.52.66.79,1.43.79,2.33s-.26,1.69-.79,2.34ZM143.58,59.9c.25-.34.38-.82.38-1.44s-.13-1.1-.38-1.44c-.25-.34-.62-.5-1.09-.5s-.84.17-1.1.5-.38.81-.38,1.44.13,1.1.38,1.44c.26.34.62.51,1.1.51s.84-.17,1.09-.51Z"/>
        <path fill="#FFFFFF" d="M148.09,59.58c.03.29.11.49.22.62.2.22.58.33,1.12.33.32,0,.58-.05.76-.14s.28-.24.28-.43-.08-.32-.23-.42c-.15-.1-.72-.26-1.7-.49-.71-.17-1.2-.39-1.49-.66-.29-.26-.43-.63-.43-1.12,0-.57.23-1.07.68-1.48.45-.41,1.09-.62,1.91-.62.78,0,1.41.15,1.9.46.49.31.77.84.84,1.6h-1.62c-.02-.21-.08-.37-.18-.5-.18-.22-.48-.33-.91-.33-.35,0-.61.05-.76.17-.15.11-.23.24-.23.39,0,.19.08.32.24.4.16.09.73.24,1.7.45.65.15,1.13.38,1.46.69.32.31.48.7.48,1.17,0,.62-.23,1.12-.69,1.51-.46.39-1.17.58-2.13.58s-1.7-.21-2.17-.62c-.47-.41-.7-.94-.7-1.58h1.65Z"/>
        <path fill="#FFFFFF" d="M158.5,60.8c-.52.65-1.32.97-2.39.97s-1.86-.32-2.39-.97c-.52-.65-.79-1.43-.79-2.34s.26-1.67.79-2.33c.52-.66,1.32-.99,2.39-.99s1.86.33,2.39.99c.52.66.79,1.43.79,2.33s-.26,1.69-.79,2.34ZM157.2,59.9c.25-.34.38-.82.38-1.44s-.13-1.1-.38-1.44c-.25-.34-.62-.5-1.09-.5s-.84.17-1.1.5-.38.81-.38,1.44.13,1.1.38,1.44c.26.34.62.51,1.1.51s.84-.17,1.09-.51Z"/>
      </g>
    </g>
  </g>
</svg>