<?xml version="1.0" encoding="UTF-8"?>
<svg id="Capa_2" data-name="Capa 2" xmlns="http://www.w3.org/2000/svg" viewBox="0 0 144.84 59.61">
  <defs>
    <style>
      .cls-1 {
        fill: #fff;
      }
    </style>
  </defs>
  <g id="Espalda">
    <g>
      <path fill="#FFFFFF" d="M96.85,11.02h-.1c-.02.16.02.34,0,.49v.05c-.04.11-.08.23-.1.43-.01.16,0,.33,0,.49-.17.11-.09.4-.1.58-.01.16.01.33,0,.49,0,.05-.08.29-.1.49-.02.19.02.39,0,.58-.07.17-.08.31-.01.42,2.23.06,4.52.11,6.73-.04-.1.14-.07.19.1.19v31.69c-.06.14.08.26.1.33.04.14-.04.33.19.39h3.99l.05-32.45c-.02-.07.03-.12.15-.15.81-.1,1.97,0,2.82,0,.64,0,1.3.03,1.95,0,.19,0,.34-.06.44-.09h.05c.09-.02.2,0,.29,0,.21-.03.28-.05.49-.1.13-.03.17-.04.29-.1.05-.02.18.06.2-.06v-3.64h-17.42ZM109.97,14.72s0,0,0,0c.14,0,.27,0,.41,0-.14,0-.27,0-.41,0Z"/>
      <path fill="#FFFFFF" d="M93.93,11.31c-.03-.1-.04-.2-.1-.29h-.1c-.54-.09-1.18-.06-1.84-.02-.68,0-1.37,0-2.05.02v36.5l3.85.1.13-.02c.04-.09.08-.18.11-.27.11-.31.18-.78.2-1.11V12.43c-.02-.36-.09-.77-.2-1.11Z"/>
      <path fill="#FFFFFF" d="M86.93,14.23c-.01-.16-.06-.32-.08-.42v-.07c-.03-.16,0-.33-.01-.49-.01-.15-.06-.33-.09-.43v-.06c-.02-.16,0-.33-.01-.49,0-.16.06-.4-.1-.49,0-.16.01-.33,0-.49-.02-.05-.04-.07-.06-.06.05-.11.04-.26-.08-.28l-14.17.05h-.1c-.09.12-.06.27-.1.39-.06.22-.07.26-.1.49-.09,11.43-.09,23.32,0,34.74.03.22.02.26.1.49.05.15-.01.39.19.49h3.99l.1-15.57h3.02c1.38,0,2.84.09,4.18-.1.21-.03.37-.04.58-.1.13-.03.26-.07.39-.1v-.04s0,.03,0,.04c.16-.1.1-.37.1-.53,0-.91.11-2.27,0-3.12-.01-.1.03-.23-.1-.24h-8.17v-12.73c.26-.03.25-.1,0-.12,3.42.06,6.85.07,10.3.05.21-.02.27-.14.21-.34-.02-.16.01-.33,0-.49ZM84.59,31.65c.02-.26.04-.51.06-.77,0,.27-.02.53-.06.77Z"/>
      <path fill="#FFFFFF" d="M144.83,40.95c0-.79,0-1.59,0-2.39,0-3.6,0-7.2,0-10.8,0-.79.01-1.59,0-2.39,0-.16.06-.43-.1-.53,0,.12,0,.23,0,.35,0-.12,0-.23,0-.35-.14-3.9-1.86-5.44-5.64-5.94-.07,0-.13,0-.2,0,.07,0,.14,0,.2,0-.31-.04-.53-.08-.88-.1-.44-.02-1.03-.04-1.46,0-.03,0-.06,0-.09,0-.18,0-.4-.05-.49.1-2.31.42-4.2,2.54-4.28,4.87-.18.18-.14.46-.19.68v17.81c.06.19.05.43.19.58.09,2.91,2.42,4.82,5.26,4.96.26.18.73.1,1.07.1.26,0,.52.01.78,0,.33-.02.5-.06.78-.1-.05,0-.1,0-.15,0,.05,0,.1,0,.15,0,3.62-.52,4.86-2.91,4.96-6.33.16-.1.1-.37.1-.53ZM131.74,31.84c0,.73,0,1.46,0,2.2,0-.73,0-1.46,0-2.2ZM141.4,41.99c-.73,3.96-5.47,3.88-6.4-.12v-17.03c1.14-4.4,6.21-3.7,6.52.63.26,3.62.07,7.75,0,11.39-.03,1.63.17,3.56-.12,5.14Z"/>
      <path fill="#FFFFFF" d="M59.87,28.93c0-.36,0-.71,0-1.07,0-.21.07-.55-.1-.68C58.89,13.18,47.79,1.95,33.98.32c-.12-.01-.27-.08-.49-.1-.1,0-.2,0-.29,0-.22-.18-.67-.1-.97-.1-.32,0-.65,0-.97,0-.46-.16-1.2-.16-1.65,0-.29,0-.59-.01-.88,0-.08,0-.17,0-.25,0-.23-.02-.48-.05-.63.1-.13.01-.26-.01-.39,0-.21.02-.36.08-.49.1-1.89.24-3.58.67-5.35,1.36-.04.02-.13-.01-.19,0-.06.42.36.11.49.1.24-.02.53,0,.78,0,.24,0,.62.08.78-.1.26,0,.52,0,.78,0,.24,0,.62.08.78-.1,1.09,0,2.33-.07,3.41,0,.03,0,.31.08.49.1.97.1,2.63.32,3.5.68l-2.43.19c-1.13,0-2.27,0-3.41,0-.53,0-1.19-.08-1.65.1-.26,0-.52,0-.78,0-.21,0-.55-.07-.68.1C11.14,3.52,1.13,14.78.21,26.79v.04c-.03.09-.09.27-.1.45-.01.23,0,.46,0,.68-.18.37-.1.93-.1,1.36,0,.26,0,.52,0,.78,0,.43-.08,1,.1,1.36,0,.23,0,.45,0,.68,0,.18-.07.48.1.58,0,.13,0,.26,0,.39.01.18.06.33.08.42v.06c.63,5.45,3.31,10.78,7.12,14.7.1.1.2.2.29.29,4.35,4.29,10.14,7.02,16.16,7.98.13.02.32.07.49.1.09.01.2-.01.29,0,.11.02.3.07.49.1.09.01.2-.01.29,0,.1.01.3.07.49.1.09.01.2-.01.29,0,.1.01.29.07.49.1,1.43.18,2.89.3,4.32.5.15.02.59.05.64.18h-10.02c.02.15.18.18.29.24,1.54.79,4.68,1.44,6.42,1.51.22.18.67.1.97.1.32,0,.65,0,.97,0,.31.17.97.16,1.27,0,.36,0,.71,0,1.07,0,.21,0,.55.07.68-.1,13.51-.66,25.77-13.47,26.47-26.86.16-.11.1-.4.1-.58,0-.36,0-.71,0-1.07.16-.56.16-1.38,0-1.95ZM55.09,32.09c-.01.1-.04.26-.11.32-.1.1-.59.22-.86.46-.79.71-.62,1.95-.8,2.89-.56,2.84-2.11,6.43-3.71,8.85-10.01,15.14-34.76,10.48-41.7-5.23-.24-.54-1.37-3.88-1.73-3.94-.18-.03-.43.18-.61.21.71,2.94,1.83,5.81,2.52,8.75h-.28c-.76-2.82-2.01-5.66-2.67-8.48-1.31-5.61.32-14.53,3.65-19.28,5.06-7.23,17.34-10.93,25.81-9.59,11.44,1.81,22.22,12.92,20.49,25.04Z"/>
      <path fill="#FFFFFF" d="M129.16,40.71c.02-.61,0-1.24,0-1.85,0-.47.04-1,0-1.46,0-.06.02-.16,0-.19-.06-.14-.12-.09-.24-.1-.61-.07-2.24-.07-2.83,0-.09.01-.23-.03-.24.1v4.77c-.36,1.9-2.03,3.26-4.01,2.7-1.2-.34-1.7-1.34-2.12-2.41v-17.81c.48-1.39,1.1-2.22,2.63-2.43h.68c1.74.22,2.35,1.1,2.82,2.72v4.18c.14.07.28-.05.36-.09.01,0,.02,0,.03-.01.87-.12,1.76-.15,2.63-.29.09-.01.2.01.29,0,0-.45,0-.91,0-1.36,0-.85.05-1.79,0-2.63-.02-.27-.07-.39-.1-.58,0,.01,0,.03,0,.05,0-.02,0-.03,0-.05-.47-3.1-2.38-4.91-5.55-5.16-.36-.16-1.08-.16-1.46,0-4.61.3-5.75,2.83-5.84,7.01-.16.1-.1.37-.1.53-.01,1.31,0,2.63,0,3.94,0,2.14,0,4.28,0,6.42,0,1.28-.02,2.56,0,3.85,0,.16-.06.43.1.53.07,3.67,1.1,6.4,5.26,6.62.13.17.47.1.68.1.23,0,.45,0,.68,0,.34.15.95.14,1.33.1.18-.02.28-.1.33-.1,3.38-.5,4.55-3.55,4.67-6.62.15-.06.15-.42,0-.49ZM129.06,28.3c0-.06.02-.11.02-.17,0,.06,0,.12-.02.17ZM119.42,29.2c0,.3,0,.6.01.89,0-.3,0-.6-.01-.9,0,0,0,0,0,0Z"/>
      <path fill="#FFFFFF" d="M39.83,22.07c-.62-.64-2.24-2.43-3.02-2.63-1.04-.27-3.46.01-4.62.06-1.05.04-2.11.04-3.17.09l8.08,8.61c.88,1.16.75,1.79-.14,2.87-2.43,2.93-5.73,5.54-8.18,8.46-.2.24-.35.52-.53.78,1.35-.06,2.69.12,4.04.1,1.83-.03,3.73-.12,5.2-1.32,2.94-2.38,5.53-6.01,8.37-8.57.88-1.13.11-1.83-.63-2.68-1.66-1.92-3.62-3.96-5.4-5.79Z"/>
      <path fill="#FFFFFF" d="M34.66,29.75c.03-.21.03-.54-.02-.75-.11-.53-1.61-2.02-2.07-2.5-2.12-2.25-4.34-4.43-6.54-6.6-.64-.4-1.38-.55-2.13-.6-1.87-.13-3.86.1-5.75,0-.24.01-.27.6-.19.78l7.59,8.18c.84,1.1.91,1.52,0,2.63-2.28,2.76-5.4,5.22-7.69,7.98-.32.38-.57.84-.83,1.27h6.96c.38,0,1.38-.57,1.7-.83,2.18-1.76,5.02-4.98,7.01-7.1.47-.5,1.84-1.86,1.94-2.44Z"/>
    </g>
  </g>
</svg>