<?xml version="1.0" encoding="UTF-8"?>
<svg id="Capa_2" data-name="Capa 2" xmlns="http://www.w3.org/2000/svg" viewBox="0 0 146.48 37.06">
  <defs>
    <style>
      .cls-1 {
        fill: #f9f9fa;
      }
    </style>
  </defs>
  <g id="Espalda">
    <g>
      <rect class="cls-1" x="72.62" y="10.84" width="4.39" height="23.01"/>
      <rect class="cls-1" x="109.55" y="10.84" width="4.39" height="22.74"/>
      <path class="cls-1" d="M144.72,15.31c-4.03-6.75-15.5-6.69-19.79-.32-5.66,8.39.2,21.57,11.23,18.99,3.23-.76,4.38-1.82,3.86-5.31-1.26.57-2.33,1.59-3.77,1.78-13.13,1.81-11.08-19.92.92-16.12,7.58,2.4,4.47,12.81,5.15,18.61.03.26.12.89.4.89h3.74v-14.08c0-.66-1.33-3.72-1.76-4.44Z"/>
      <circle class="cls-1" cx="111.65" cy="4.48" r="2.9"/>
      <path class="cls-1" d="M56.36,5.04c-2.54,1.74-2.8,4.48-2.6,7.35-2.92.09-4.87-.98-4.13,2.97.26,1.39,4.13.07,4.13,1.03v17.05c0,.66,3.79.43,4.39.13v-17.57h6.97v-3.62h-6.97c.02-1.3-.27-3.01.79-3.99.11-.1,1.08-.66,1.15-.66h5.81v-3.62h-7.62c-.17,0-1.65.74-1.92.92Z"/>
      <circle class="cls-1" cx="74.81" cy="4.47" r="2.86"/>
      <path class="cls-1" d="M100.51,29.95h-5.81c-.61,0-1.94-1.88-1.94-2.45v-11.11s.36-.39.39-.39h7.36v-3.62h-7.75v-5.94h-4.13v5.94h-4.13v3.62h3.74c.28,0,.37.63.4.89.84,7.16-3.34,16.21,7.08,16.95.78.05,3.83.13,4.37-.05.82-.27.26-3.05.42-3.84Z"/>
      <path class="cls-1" d="M4.37,26.92c-5.9.93-5.39,9.3-.3,9.99,3.63.49,8.22-.05,8.58-4.57.36-4.63-4.55-6.01-8.28-5.42Z"/>
      <path class="cls-1" d="M32.7,0L3.85.05C-1.65,1.51-1.12,9.34,4.59,10.03c.02,0,.04,0,.06,0h27.24v-.02c.09,0,.18.01.28.02,5.71-.94,6.1-8.49.52-10.04Z"/>
      <path class="cls-1" d="M21.06,13.52H7c-.49,0-.99,0-1.47,0h-1.82c-5.18,1.63-4.75,9.31.66,9.96h16.37s.05,0,.07,0c5.47-.74,5.72-8.8.25-9.95Z"/>
    </g>
  </g>
</svg>