<?xml version="1.0" encoding="UTF-8"?>
<svg id="Capa_2" data-name="Capa 2" xmlns="http://www.w3.org/2000/svg" viewBox="0 0 136.89 51.35">
  <defs>
    <style>
      .cls-1 {
        fill: #fff;
      }
    </style>
  </defs>
  <g id="Espalda">
    <g>
      <path fill="#FFFFFF" d="M73.73,48.64c-3.45,3.38-9.52,1.79-13.9,2.15-1.03-.27-1.68-1.21-1.63-2.3V11.28c-.06-1.05.81-1.34,1.54-1.83,6.65-.12,15.74-1.59,16.28,7.58.51,8.61-.4,17.73,0,26.39-.13,1.77-1.02,3.96-2.3,5.21ZM66.17,16.72c-1.32.25-.68,2.02-.66,2.98.13,7.83-.16,15.7.05,23.52,1.42.31,3.11.43,3.17-1.49.23-6.73-.03-13.73-.14-20.48-.02-1.02.19-2.2.15-3.09-.07-1.42-1.37-1.66-2.57-1.44Z"/>
      <path fill="#FFFFFF" d="M94.87,28.53c-.23.27-.43.53-.68.8-.22.23-.62.23-.5.62.03.08,1.11.66,1.41.98.52.57,1.06,1.89,1.12,2.66.26,2.99.15,7.65,0,10.67-.13,2.47-1.93,4.93-4.17,5.93-1.84.82-7.41.77-9.64.74-1.53-.02-2.74-.67-2.88-2.31V11.98c.08-1.43.21-2.53,1.9-2.73,1.74-.21,5.05-.09,6.88,0,4.21.2,7.6,2.09,7.93,6.67.19,2.67.22,7.18,0,9.83-.12,1.46-.46,1.77-1.35,2.79ZM88.22,16.45c-.63,0-1.25.02-1.4.17-.54.57-.11,2.78-.12,3.51-.03,1.76-.24,3.57-.14,5.32.08,1.49,1.54.87,2.53.76.09,0,.18-.02.26-.07.1-.06.15-.18.19-.29.51-1.36.35-3.06.31-4.49-.05-1.67-.18-3.34-.21-5.01,0,.12-1.34.09-1.42.09ZM86.99,43.88c.6.35,2.07-.35,2.41-.96.26-.46.51-2.03.51-2.59,0-.4-.16-.75-.16-1.12,0-.97.18-4.9-.48-5.42-.32-.26-2.15-.32-2.5-.13-.18.1-.21.32-.23.5-.25,1.96.11,4.07.13,6.02,0,.23-.15.48-.14.71,0,.7-.2,2.61.45,2.98Z"/>
      <path fill="#FFFFFF" d="M20.1,11.12c5.61-5.22,14.35-.99,14.83,6.33.52,7.99-.41,16.53,0,24.57-.4,11.3-15.26,12.9-17.67,1.67v-27.5c.17-1.65,1.64-3.95,2.85-5.07ZM25.2,15.74c-.4.09-1.08.73-1.09,1.16.05,8.61-.04,17.27,0,25.83,0,1.55,1.69,2.17,2.93,1.39.8-.5.8-1.34.86-2.23.1-1.58-.14-3.33-.15-4.91-.02-5.96.04-11.86,0-17.84,0-.58.19-2.44-.13-2.8-.35-.4-1.88-.73-2.43-.6Z"/>
      <path fill="#FFFFFF" d="M113.42,10.57c1.99,1.45,2.99,3.25,3.55,5.64v27.48c-1.24,5.33-6.56,9.46-12.02,6.86-.19-.09-1.08-.62-1.33-.78-1.15-.72-2.13-1.88-2.83-3.06-1.03-1.72-1.13-2.84-1.21-4.82-.35-8.37.26-17,.02-25.39.94-6.11,8.69-9.68,13.82-5.93ZM109.78,16.17c-.98-.91-2.81-.64-3.19.72.06,7.76-.06,15.59.01,23.3,0,.93-.13,2.23-.01,3.1.2,1.51,3.28,1.71,3.52-.28,0-7.86-.02-15.72,0-23.59,0-.8.35-2.63-.32-3.25Z"/>
      <path fill="#FFFFFF" d="M130.92,10s.36-.35.4-.37c.62-.29,3.2-.46,3.92-.35,1.05.16,1.42.73,1.64,1.73-1.43,6.04-3.36,11.94-4.92,17.95,1.18,5.77,2.87,11.44,4.18,17.16.31,1.36,1.13,3.38-.24,4.32-.74.51-4.2.49-5.02.09-.99-.48-.84-1.66-1.03-2.48-.61-2.64-1.2-5.31-1.7-7.98-.1-.28-.26-.26-.53-.24l-2.55,10.01c-.2.15-.38.62-.55.72-.48.29-3.73.31-4.35.15-1.07-.26-1.26-1.58-1.1-2.52l4.69-17.2c.27-1.74-.43-3.78-.84-5.48-1-4.13-2.33-8.29-3.26-12.45-.28-1.25-.8-3.36,1.02-3.67.87-.15,2.78-.25,3.63-.13.69.09,1.39.54,1.56,1.24l1.89,9.33.34.36.32-.39c.71-2.7,1.18-5.49,1.93-8.18.14-.49.3-1.21.55-1.63Z"/>
      <path fill="#FFFFFF" d="M52.68,48.49c-1.45,1.84-3.28,2.56-5.63,2.72-1.15.08-2.29-.22-3.41-.46-1.08-.24-2.49-.94-3.29-1.72-.4-.4-.75-.96-1.03-1.44-.78-1.35-1.1-2.3-1.18-3.87-.3-5.65.22-11.57.02-17.25.98-9.09,16.19-8.73,16.26.54.05,5.4-.19,10.86-.16,16.29,0,.41.16.79.16,1.26-.03,1.47-.87,2.83-1.75,3.94ZM45.68,26.82c-.57.13-1.03.88-1.08,1.44.33,4.66-.42,9.88,0,14.46.15,1.61,2,1.81,3.08.97.64-.5.29-1.11.28-1.67-.02-4.25.4-9.52.01-13.62-.12-1.29-1.02-1.87-2.29-1.58Z"/>
      <path fill="#FFFFFF" d="M7.29,49.32c-.09.47-.9,1.3-1.39,1.41-.68.16-3.39.15-4.14.05-1.23-.17-1.65-1.19-1.75-2.32-.07-.76.12-1.27.13-1.94.1-11.06-.34-22.24.14-33.26.06-1.29-.47-3.43,1.22-3.83,1.22-.29,3.24,0,4.6-.03,2.11-.05,4.33-.34,6.45-.15.75.07,1.82.57,2,1.37.12.55.12,3.44.02,4.03-.03.2-.33.88-.46,1.02-.17.19-1.06.46-1.29.46h-5.33s-.21.2-.21.21v9.82s.2.21.21.21h3.93c.41,0,1.22,1.24,1.3,1.65.13.66.1,3.59-.1,4.18-.18.51-1.12,1.33-1.62,1.33h-3.51s-.21.2-.21.21v15.58Z"/>
      <path fill="#FFFFFF" d="M53.11,2.28c1.61.98,2.11,3.85,1.09,5.42-.15.23-.67.73-.9.93-.2.17-.49.2-.64.35-.35.35-.22,2.9-.22,3.58,0,.94.3,1.9-.11,2.83-.38.86-.9.71-1.77.75-2.77.13-6.39.14-9.13-.12-.55-.05-1.06.21-1.32-.67s-.13-1.9-.14-2.79c-.01-.82.15-2.86-.04-3.49-.09-.31-1.18-.95-1.49-1.46-1.45-2.35-.12-5.72,2.71-5.95.45-.04,1.5.17,1.66.13.1-.03,1.16-1.12,1.61-1.35.9-.46,2.53-.65,3.45-.16.44.23,1.41,1.58,1.72,1.63.37.07,1.57-.18,2.22-.1.33.04,1.01.29,1.3.46Z"/>
    </g>
  </g>
</svg>