<?xml version="1.0" encoding="UTF-8"?>
<svg id="Capa_2" data-name="Capa 2" xmlns="http://www.w3.org/2000/svg" viewBox="0 0 121.27 57.64">
  <defs>
    <style>
      .cls-1 {
        fill: #fff;
      }
    </style>
  </defs>
  <g id="Espalda">
    <g>
      <path fill="#FFFFFF" d="M9.44,19.68l.72-5.05,5.38-.39c.66-5.65,1.24-12.39,7.88-13.89,2.48-.56,9.58-.4,12.14.11.17.03.59.07.64.27-.04,1.68-.71,3.27-.91,4.93-2.71.68-6.38-.41-8.95.58-2.74,1.06-2.74,5.55-3.1,8.01h8.83c.06,0,.29.25.23.39l-.86,5-8.99.19-3.78,26.65c-.51,4.49-1.94,9.34-6.83,10.66-2.76.74-7.16.49-10.02.12-.35-.05-1.75-.16-1.82-.45-.12-.48,1.14-4.07,1.2-4.89,4.97-.46,8.62,1.41,9.78-4.74,1.64-8.73,2.09-17.97,3.71-26.74.07-.21-.08-.78-.27-.78h-4.98Z"/>
      <path fill="#FFFFFF" d="M117.86,45.21h-7.69c.06-.77.1-1.57.2-2.34.73-6.05,2.43-12.72,2.79-18.72.07-1.27.23-3.35-1.22-3.86-3.87-1.37-9.74,3.07-12.51,5.52l-2.71,19.41h-7.52l4.28-30.95h5.77c.57,0,.09,2.15.08,2.53-.04,1.19.04,2.4,0,3.59,2.89-2.25,5.71-4.66,9.22-5.9,6.58-2.33,13.64-.53,12.63,7.73l-3.32,23Z"/>
      <path fill="#FFFFFF" d="M58.4,13.56l-1.59,7.15c-4.98-.49-9.45,2.24-13.32,4.95l-2.75,19.55h-7.52l4.2-30.95h5.95v5.95c2.9-2.25,5.67-4.69,9.22-5.9.48-.16,2.4-.74,2.76-.74h3.06Z"/>
      <path fill="#FFFFFF" d="M77.72,13.91c-6.16-.46-14.94-.97-18.77,4.84-3.18,4.83-5.22,18.42-2.69,23.61,2.33,4.77,9.32,4.26,13.49,2.59,2.97-1.19,5.16-3.26,7.35-5.51l-.17,5.77c1.97-.15,3.97.44,5.91-.04l4.22-29.85c-.27-.38-8.26-1.33-9.35-1.41ZM76.77,33.42c-2.77,2.9-6.58,6.69-10.95,6.38-1.76-.12-2.72-.91-2.89-2.71-.3-3.34.83-13.32,3.16-15.74,1.42-1.48,3.73-1.74,5.67-1.85.84-.04,6.67-.06,6.91.19-.45,4.58-1.11,9.18-1.9,13.73Z"/>
    </g>
  </g>
</svg>