<?xml version="1.0" encoding="UTF-8"?>
<svg id="Capa_2" data-name="Capa 2" xmlns="http://www.w3.org/2000/svg" viewBox="0 0 249.38 43.17">
  <defs>
    <style>
      .cls-1 {
        fill: #fefefe;
      }

      .cls-2 {
        fill: #fff;
      }
    </style>
  </defs>
  <g id="Espalda">
    <g>
      <g>
        <path fill="#FFFFFF" d="M32.15,11.84c.95-.15,1.81-.29,2.38.56,1.27,1.9,2.54,9.94,2.62,12.4.59,16.49-18.41,24.22-30.18,13.28C4.38,35.67-.44,28.33.04,24.8c.18-1.3,3.25-2.27,4.47-2.57,4.46-1.09,3.52,1.74,5.64,4.45,3.64,4.67,12.54,5.67,14.83-.42,1.47-3.92-.48-6.75-.73-10.17-.12-1.63.75-1.84,2.04-2.38s4.52-1.66,5.87-1.88Z"/>
        <path fill="#FFFFFF" d="M135.02,18.12c5.06-3,10.97-.99,12.37,4.88.77,3.22.32,6.56.79,9.77.24,1.65,2.32,2.7,1.24,4.38-.36.17-.74.2-1.13.22-1.94.14-6.16.24-8,0-2.35-.3-.38-2.45.02-3.28.61-1.26.13-8.69-.13-10.46-.22-1.49-.63-3.69-2.49-3.8-2.16-.13-2.54,2.15-2.66,3.8-.15,1.88-.26,9.23.5,10.52.47.8,1.54,1.12,1.33,2.32-.11.63-.41.82-1,.89-1.97.23-6.94.2-8.95,0-3.3-.32.59-3.15.61-4.59-.44-6.12.56-13,0-19.03-.2-2.15-3.68-3.09-1.16-4.89.64-.46,6.78-3.16,7.39-3.19.29-.01.47.02.7.21.32.26.54,3.38.57,4.12.13,2.69-.12,5.42,0,8.11Z"/>
        <path fill="#FFFFFF" d="M51.69,20.47c-.85-.1-2.68.27-3.29-.35l-.11-2.47c.44-.74,2.62-.39,3.41-.47-.56-6.57,3.06-11.12,9.95-10.3,2.83.33,6.2,3.05,5.49,6.15-.44,1.94-3.36,2.28-4.86,1.44-2.1-1.18-1.29-5.96-3.84-5.23-2.04.59-.2,6.57.33,7.92,1.17.25,4.86-.38,5.61.37.6.72.23,2.94-.83,2.94h-4.34v13.03l2.31,2.64c.02.91-.68,1.17-1.48,1.25-1.03.1-9.07.09-9.52-.13-1.72-.84,1.17-3.29,1.17-3.76v-13.03Z"/>
        <path fill="#FFFFFF" d="M113.61,16.78c2.77-.28,6.92.36,8.98,2.39,3.55,3.49-1.5,7.64-4.23,4.23-1.03-1.28-1.33-4.98-3.59-4.3-1.2.37-1.26,2.04-1.05,3.07.73,3.55,8.99,2.59,10.17,7.43,2.42,9.98-15.42,9.81-17.78,4.63-1.79-3.93,3.18-5.75,5.21-3.33.87,1.04,1.42,3.71,2.49,4.32,2.76,1.57,4.59-2.26,1.85-4.2-2.85-2.02-8.64-1.47-9.45-6.27-.84-4.95,2.99-7.53,7.41-7.97Z"/>
        <path fill="#FFFFFF" d="M93.95,29.63c.55,2.33,3.5,2.87,5.63,2.46,1.58-.3,2.38-1.66,3.27-1.92,1.4-.4,1.13,1.64.82,2.49-1.56,4.27-6.8,5.76-10.92,4.83-11.8-2.65-9.44-22.38,4.07-20.68,4.2.53,9.02,4.13,5.41,8.31l-8.29,4.5ZM92.53,27.28c.2.2,4.38-2.4,4.59-3.04.95-2.87-2.18-7.14-4.22-3.98-1.38,2.15-.76,4.69-.37,7.02Z"/>
        <path fill="#FFFFFF" d="M243.23,17.18h4.34c1.28,0,1.1,3.29-.23,3.29h-4.11v10.21c0,.07.61,1.12.7,1.18,2.1.63,2.9-.34,4.16-1.73,2.1-.18,1.13,2.91.55,4.08-2.01,4.05-8.36,4.85-11.4,1.52-3.03-3.32-1.28-11.04-1.75-15.26-1.32.07-2.54.05-2.61-1.52-.12-2.68,1.98-1.39,3.83-2.06.46-.17,1.37-.78,1.7-1.12,1.69-1.72.97-5.44,4.81-3.17v4.58Z"/>
        <path fill="#FFFFFF" d="M221.63,19.76c.29.37,1.14-1.29,1.4-1.53,1.3-1.24,3.81-1.86,5.54-1.3,4.17,1.37,3.59,9.03-1.36,8.17-2.5-.43-2.04-4.18-3.54-3.9-.86.47-1.02,1.28-1.1,2.18-.17,1.8-.29,8.28.01,9.86.21,1.09,4.49,3.78.59,4.12-1.23.11-8.49.15-9.23-.17-1.55-.66.98-3.01,1.13-4.18.21-1.75.24-7.22,0-8.94s-4.03-2.51-.45-4.65c.72-.43,5.72-2.74,6.2-2.71.18.01.34.06.47.19.58.5.39,2.1.33,2.84Z"/>
        <path fill="#FFFFFF" d="M74.7,19.76c.58-.43.84-1.26,1.42-1.75,2.33-1.95,7.27-1.81,7.91,1.69.53,2.92-.44,5.98-3.95,5.36-2.66-.47-1.88-3.25-3.05-3.78s-1.58,1.54-1.65,2.34c-.18,1.99-.27,7.53.02,9.39.19,1.21,3.27,2.96,1.77,4.14-.7.55-9.08.17-10.56,0-.78-1.56.62-2.19,1.09-3.14.58-1.2.63-8.37.32-9.81-.37-1.7-3.67-2.69-1-4.49.75-.51,6.02-3.02,6.63-2.99,1.3.07,1.07,2.16,1.05,3.04Z"/>
        <path fill="#FFFFFF" d="M23.11,3.51c.5.58,2.7-.57,4.29.99,1.74,1.71.67,3.89-.99,5.13-1.28.96-5.94,3.55-7.43,4.08-1.19.43-2.53.73-3.23-.61-1.07-2.05-.85-7.37-.15-9.57,1.42-4.45,6.59-4.92,7.5-.01Z"/>
        <path fill="#FFFFFF" d="M10.3,10.22c.48.54,1.06,1.44,1.27,2.14,2.31,7.77-13.57,7.68-11.35-1.24,1.28-5.15,7.22-4.11,10.08-.9Z"/>
      </g>
      <g>
        <path fill="#FFFFFF" d="M158.05,17.47c2.23-.89,2.36-.45,2.49,1.9,3.43-3.65,9.37-2.88,12.34.95,1.17-2.17,3.64-3.26,6.03-3.3,2.61-.04,5.01,1.35,6.38,3.55,1.64,2.63,1.28,5.83,1.56,8.79.15,1.61.14,3.63.82,5.12.5,1.1,2.29,2.87-.31,3.17-1.15.13-7.37.16-8.2-.11-1.85-.61.13-2.5.46-3.36.44-1.12-.03-8.06-.22-9.7s-.71-4.74-2.96-4.65c-1.72.07-2.48,2.23-2.5,3.7-.01,1.82.07,9.69.53,10.85.43,1.07,2.54,2.96-.18,3.27-1.26.14-7.67.15-8.58-.2-.59-.23-.37-1.21-.22-1.71.16-.53.56-.98.84-1.48.29-.53.36-1.08.42-1.67.12-1.17.14-2.36.15-3.53,0-2.08.09-4.37-.39-6.41-.98-4.15-4.88-3.55-5.37.43-.27,2.23-.26,7.45-.04,9.72.1,1,.77,1.76,1.31,2.56.42.61.99,1.56.17,2.1-.64.42-1.75.24-2.47.24-1.92,0-3.89.2-5.8.08-.82-.05-1.88-.25-2.42-.94-.8-1.02.49-2,1.06-2.75.49-.88.6-8.4.29-9.58-.14-.52-.37-.96-.8-1.32-.6-.5-1.5-.92-1.57-1.82-.07-.84.73-1.63,1.44-1.94.94-.42,1.99-.33,2.96-.63s1.81-.95,2.75-1.32Z"/>
        <path fill="#FFFFFF" d="M212.09,35.79c-.24-.38-1.03-.78-1.27-1.13-.4-.57-.6-1.25-.72-1.93-.24-1.36-.12-2.75-.32-4.11-.78-5.25-1.79-9.98-7.78-11.33-4.11-.92-10.73-.25-11.58,4.92-.05.29-.07.6.04.86.27.63,1.45,1.04,2.05,1.27.88.35,1.78.41,2.65-.03,1.54-.79,1.76-4.41,3.05-5.02,3.42-1.59,3.66,4.71,3.74,6.71-5.26-2.33-12.72.05-11.52,6.9.95,5.44,9.57,6.53,13.07,3.07.72,1.45,2.52,1.79,3.99,1.8.73,0,4.68-.17,4.68-1.13,0-.22,0-.43,0-.65,0-.07-.03-.14-.07-.21ZM201.01,35.63c-2.84.92-3.93-5.7-2.63-7.37.76-.97,2.1-1.11,3.02-.28,1.41,1.28,2.02,6.88-.39,7.65Z"/>
      </g>
    </g>
  </g>
</svg>