<?xml version="1.0" encoding="UTF-8"?>
<svg id="Capa_2" data-name="Capa 2" xmlns="http://www.w3.org/2000/svg" viewBox="0 0 883.3 152.92">
  <defs>
    <style>
      .cls-1 {
        fill: #fefefe;
      }
    </style>
  </defs>
  <g id="Capa_1-2" data-name="Capa 1">
    <g>
      <path fill="#FFFFFF" d="M122.29,43.93c-2.02-3.01-5.05-2.53-8.42-1.99-4.76.76-16.08,4.68-20.78,6.65-4.55,1.9-7.64,2.66-7.21,8.42.9,12.12,7.81,22.12,2.59,36.02-8.1,21.57-39.61,18.01-52.51,1.49-7.51-9.62-4.18-19.63-19.97-15.77-4.32,1.06-15.21,4.49-15.84,9.1-1.72,12.49,15.38,38.52,24.54,47.04,41.69,38.77,108.98,11.37,106.89-47.03-.31-8.7-4.79-37.19-9.29-43.92Z"/>
      <path fill="#FFFFFF" d="M522.07,81.46c-4.98-20.79-25.92-27.89-43.82-17.27-.38-9.53.48-19.19.03-28.72-.12-2.63-.91-13.68-2.04-14.6-.8-.65-1.46-.79-2.48-.74-2.18.1-23.93,9.68-26.19,11.3-8.93,6.4,3.4,9.7,4.11,17.33,1.97,21.37-1.56,45.71-.02,67.4-.06,5.08-13.85,15.1-2.15,16.24,7.11.7,24.73.83,31.69,0,2.11-.25,3.17-.94,3.56-3.17.74-4.27-3.05-5.38-4.73-8.23-2.7-4.59-2.3-30.63-1.78-37.28.46-5.85,1.78-13.92,9.44-13.46,6.6.39,8.06,8.2,8.83,13.46.92,6.26,2.62,32.58.47,37.04-1.42,2.95-8.4,10.56-.09,11.63,6.52.84,21.47.5,28.34,0,1.38-.1,2.74-.18,4-.79,3.85-5.96-3.53-9.68-4.38-15.52-1.66-11.37-.06-23.2-2.79-34.62Z"/>
      <path fill="#FFFFFF" d="M208.13,60.76c-1.88-4.76-8.41-25.94-1.17-28.04,9.05-2.62,6.18,14.32,13.61,18.51,5.31,2.99,15.64,1.78,17.21-5.09,2.51-10.97-9.44-20.59-19.45-21.77-24.4-2.88-37.23,13.22-35.24,36.5-2.79.27-10.52-.99-12.07,1.65l.4,8.76c2.16,2.18,8.66.89,11.66,1.23v46.14c0,1.66-10.24,10.33-4.16,13.31,1.58.77,30.08.82,33.73.46,2.84-.28,5.31-1.19,5.23-4.42l-8.19-9.35v-46.14h15.38c3.74,0,5.07-7.85,2.93-10.41-2.65-2.68-15.73-.43-19.88-1.33Z"/>
      <path fill="#FFFFFF" d="M402.78,78.55c-.76-3.66-.54-9.57,3.72-10.87,7.98-2.43,9.08,10.67,12.71,15.21,9.67,12.08,27.56-2.63,14.99-14.99-7.3-7.18-21.97-9.43-31.79-8.46-15.66,1.56-29.21,10.72-26.24,28.24,2.88,17.01,23.4,15.07,33.48,22.22,9.69,6.88,3.21,20.44-6.57,14.88-3.79-2.16-5.72-11.6-8.81-15.3-7.17-8.56-24.79-2.14-18.44,11.79,8.36,18.35,71.55,18.93,62.97-16.41-4.17-17.15-33.42-13.74-36.02-26.32Z"/>
      <path fill="#FFFFFF" d="M364.32,106.9c-3.16.9-6,5.73-11.58,6.79-7.55,1.44-18-.49-19.96-8.73l29.36-15.95c12.78-14.81-4.28-27.55-19.17-29.43-47.88-6.04-56.22,63.85-14.42,73.24,14.61,3.28,33.16-1.98,38.68-17.1,1.1-3.02,2.03-10.23-2.91-8.82ZM327.76,96.61c-1.38-8.24-3.58-17.26,1.32-24.86,7.2-11.17,18.3,3.93,14.94,14.11-.74,2.25-15.56,11.45-16.26,10.75Z"/>
      <path fill="#FFFFFF" d="M878.74,106.71c-4.46,4.91-7.29,8.35-14.74,6.13-.32-.2-2.48-3.93-2.48-4.17v-36.17h14.55c4.72,0,5.36-11.64.83-11.64h-15.38v-16.21c-13.6-8.07-11.08,5.13-17.05,11.21-1.18,1.2-4.39,3.35-6.03,3.95-6.55,2.39-14-2.2-13.58,7.3.24,5.56,4.54,5.63,9.23,5.39,1.66,14.95-4.52,42.29,6.21,54.06,10.76,11.81,33.25,8.95,40.38-5.38,2.07-4.17,5.5-15.12-1.94-14.47Z"/>
      <path fill="#FFFFFF" d="M809.6,59.98c-6.11-2.01-15,.18-19.61,4.59-.9.86-3.93,6.75-4.96,5.43.21-2.63.88-8.31-1.19-10.07-.48-.47-1.02-.63-1.67-.67-1.69-.09-19.43,8.09-21.97,9.61-12.7,7.57.78,10.39,1.59,16.47.81,6.09.72,25.46-.02,31.66-.5,4.16-9.47,12.48-3.99,14.81,2.61,1.11,28.35.98,32.69.59,13.8-1.23-1.36-10.74-2.1-14.61-1.07-5.6-.65-28.54-.05-34.93.3-3.18.85-6.06,3.9-7.73,5.31-.99,3.69,12.28,12.55,13.8,17.54,3.02,19.61-24.1,4.83-28.95Z"/>
      <path fill="#FFFFFF" d="M269.61,63.82c-2.07,1.73-2.97,4.66-5.03,6.18.1-3.11.89-10.52-3.71-10.76-2.18-.11-20.82,8.8-23.49,10.6-9.45,6.37,2.25,9.9,3.55,15.91,1.1,5.09.94,30.49-1.13,34.74-1.66,3.39-6.62,5.63-3.85,11.14,3.74.42,30.29.32,30.29.32,4.03-.11,6.41.23,7.13-.34,5.33-4.21-5.58-10.37-6.26-14.68-1.04-6.57-.71-26.18-.08-33.24.25-2.84,1.76-10.13,5.83-8.3,4.14,1.86,1.38,11.72,10.79,13.38,12.4,2.19,15.87-8.62,13.98-18.98-2.26-12.37-19.79-12.86-28.03-5.97Z"/>
      <path fill="#FFFFFF" d="M67.27,48.55c5.25-1.87,21.76-11.03,26.3-14.44,5.88-4.41,9.68-12.13,3.5-18.17-5.65-5.53-13.44-1.45-15.2-3.52-3.23-17.4-21.55-15.71-26.57.04-2.49,7.82-3.25,26.65.53,33.91,2.49,4.77,7.22,3.68,11.44,2.17Z"/>
      <path fill="#FFFFFF" d="M40.96,43.78c-.73-2.47-2.78-5.65-4.49-7.56C26.33,24.83,5.29,21.16.76,39.4c-7.86,31.58,48.38,31.89,40.21,4.38Z"/>
      <path fill="#FFFFFF" d="M661.83,103.96c-1-10.48.28-21.8-5.52-31.12-4.86-7.81-13.35-12.73-22.6-12.58-8.46.14-17.21,3.99-21.34,11.69-10.51-13.58-31.57-16.29-43.72-3.36-.47-8.32-.91-9.88-8.82-6.72-3.34,1.33-6.31,3.61-9.75,4.69-3.42,1.07-7.15.76-10.48,2.24-2.51,1.11-5.35,3.91-5.1,6.88.26,3.15,3.47,4.65,5.58,6.43,1.52,1.28,2.34,2.82,2.82,4.67,1.09,4.17.69,30.82-1.04,33.92-2,2.65-6.59,6.1-3.75,9.72,1.92,2.46,5.66,3.16,8.58,3.34,6.78.42,13.75-.27,20.55-.29,2.57,0,6.48.64,8.75-.86,2.89-1.91.86-5.29-.62-7.43-1.94-2.81-4.31-5.5-4.66-9.06-.77-8.02-.82-26.51.14-34.41,1.71-14.11,15.52-16.23,19.01-1.54,1.72,7.24,1.42,15.33,1.39,22.72-.01,4.17-.1,8.36-.52,12.52-.21,2.1-.46,4.03-1.5,5.91-.97,1.76-2.39,3.35-2.96,5.23-.54,1.78-1.34,5.23.76,6.05,3.23,1.26,25.93,1.23,30.39.73,9.61-1.1,2.13-7.8.62-11.58-1.65-4.12-1.94-32-1.89-38.44.04-5.19,2.76-12.83,8.84-13.09,7.97-.34,9.78,10.44,10.48,16.46.67,5.81,2.32,30.4.77,34.36-1.19,3.03-8.2,9.75-1.64,11.9,2.97.97,24.99.86,29.06.39,9.21-1.06,2.88-7.31,1.1-11.22-2.41-5.3-2.38-12.46-2.92-18.15Z"/>
      <path fill="#FFFFFF" d="M746.74,122.76c-1.42-2.01-2.11-4.43-2.54-6.83-.85-4.81-.42-9.74-1.14-14.57-2.78-18.6-6.33-35.34-27.55-40.11-14.55-3.27-38.01-.9-41.02,17.43-.17,1.02-.26,2.11.15,3.06.97,2.23,5.14,3.67,7.24,4.51,3.13,1.25,6.3,1.47,9.37-.12,5.45-2.81,6.22-15.63,10.81-17.76,12.11-5.62,12.98,16.69,13.25,23.75-18.63-8.26-45.04.19-40.81,24.43,3.36,19.25,33.88,23.13,46.28,10.89,2.54,5.15,8.93,6.34,14.13,6.39,2.58.03,16.57-.61,16.57-4.02,0-.76,0-1.53,0-2.29,0-.25-.1-.5-.26-.76-.87-1.34-3.64-2.78-4.49-3.99ZM712,126.22c-10.07,3.24-13.92-20.18-9.3-26.12,2.68-3.45,7.44-3.92,10.68-.99,5.01,4.53,7.15,24.36-1.38,27.11Z"/>
    </g>
  </g>
</svg>