<?xml version="1.0" encoding="UTF-8"?>
<svg id="Capa_2" data-name="Capa 2" xmlns="http://www.w3.org/2000/svg" viewBox="0 0 130.82 41.46">
  <defs>
    <style>
      .cls-1 {
        fill: #fff;
      }
    </style>
  </defs>
  <g id="Espalda">
    <g>
      <path fill="#FFFFFF" d="M2.69.74c-.61.36-1.15.83-1.58,1.39-.43.56-.74,1.21-.92,1.89C0,4.71-.05,5.43.05,6.14c.1.71.32,1.38.68,1.99l13.57,23.27c.72,1.24,1.91,2.13,3.3,2.51,1.39.36,2.87.17,4.1-.55,1.24-.72,2.14-1.91,2.51-3.3.36-1.39.17-2.87-.56-4.1L10.08,2.69c-.36-.61-.83-1.15-1.39-1.58-.56-.43-1.21-.74-1.9-.92C6.1,0,5.38-.05,4.68.05c-.71.1-1.38.34-1.99.68h0Z"/>
      <path fill="#FFFFFF" d="M68.55,33.59h-4.8v-11.76c0-3.02-1.18-4.4-3.82-4.4-2.95,0-4.84,1.73-4.84,4.68v11.49h-4.8V4.8h4.8v11.68c1.14-2.21,3.5-3.45,6.49-3.45,4.37,0,6.97,2.76,6.97,7.59v12.99h-.01Z"/>
      <path fill="#FFFFFF" d="M93.87,13.56v20.02h-4.73v-3.19c-1.14,2.36-3.82,3.74-6.85,3.74-5.32,0-9.2-4.37-9.2-10.54s3.9-10.58,9.2-10.58c3.02,0,5.71,1.42,6.85,3.78v-3.23h4.73ZM83.62,17.38c-3.42,0-5.63,2.48-5.63,6.21s2.21,6.18,5.63,6.18,5.63-2.52,5.63-6.18-2.2-6.21-5.62-6.21h-.01Z"/>
      <path fill="#FFFFFF" d="M111.41,34.14c-2.99,0-5.54-1.38-6.77-3.62v10.94h-4.8V13.56h4.73v3.23c1.14-2.36,3.82-3.78,6.85-3.78,5.32,0,9.22,4.37,9.22,10.58s-3.9,10.55-9.22,10.55h-.01ZM110.08,17.38c-3.42,0-5.63,2.48-5.63,6.21s2.21,6.18,5.63,6.18,5.63-2.52,5.63-6.18-2.2-6.21-5.63-6.21Z"/>
      <path fill="#FFFFFF" d="M127.79,4.25c1.76,0,3.02,1.26,3.02,2.99s-1.26,2.99-3.02,2.99-3.07-1.26-3.07-2.99,1.22-2.99,3.07-2.99ZM125.39,13.56h4.8v20.02h-4.8V13.56Z"/>
      <path fill="#FFFFFF" d="M37.01,33.29c-.61.36-1.3.59-1.99.68-.71.1-1.42.05-2.1-.13-.68-.18-1.33-.49-1.9-.92-.56-.43-1.04-.97-1.39-1.58l-7.28-12.47c-.36-.61-.59-1.3-.68-1.99-.1-.71-.05-1.42.13-2.1.18-.68.49-1.33.92-1.89.43-.56.97-1.04,1.58-1.39.61-.36,1.3-.59,1.99-.68.71-.1,1.42-.05,2.1.13.68.18,1.33.49,1.9.92.56.43,1.04.97,1.39,1.58l7.28,12.47c.36.61.59,1.3.68,1.99.1.71.05,1.42-.13,2.1-.18.68-.49,1.33-.92,1.89-.43.56-.97,1.04-1.58,1.39Z"/>
    </g>
  </g>
</svg>