<?xml version="1.0" encoding="UTF-8"?>
<svg id="Capa_2" data-name="Capa 2" xmlns="http://www.w3.org/2000/svg" viewBox="0 0 179.37 46.56">
  <defs>
    <style>
      .cls-1 {
        fill: #fff;
      }
    </style>
  </defs>
  <g id="Espalda">
    <g>
      <path fill="#FFFFFF" d="M0,13.09h48.92s-1.73,6.04-1.73,6.04l-10.93-1.67.49,9.09c0,.2.23.61.36.61h7.67l-1.73,6.04-5.82-.7.98,13.34-6.09.73v-13.94c0-.13-.75-1.09-.85-1.09h-14.24v14.55h-6.33l.97-13.58-5.82.7c-.38-2.03-1.37-3.97-1.48-6.04h6.69c.06,0,.79-.48.87-.59.54-2.94.56-6.08.71-9.11l-10.81,1.71-1.85-5.59v-.48ZM17.04,27.16h14.73c.17,0,.33-.4.36-.61.47-2.54-.38-6.1-.24-8.73-.14-.78-.92-.8-1.57-.86-2.93-.26-8.78-.27-11.71,0-.35.03-1.57.23-1.57.62v9.58Z"/>
      <path fill="#FFFFFF" d="M36.27,0c3.65.91,5.87,3.8,5.33,7.62-.23,1.66-.84,2.43-2.52,2.58-1.76.16-6.63.23-8.27-.03-1.91-.3-2.19-2.68-2.09-4.24.2-3.04,2.37-5,5.12-5.93h2.43Z"/>
      <path fill="#FFFFFF" d="M67.91,12.61v16c4.59-3.5,9.1-4.93,14.57-2.27,1.3.63,2.37,1.67,3.68,2.27V12.61h3.89v33.46h-3.89v-12.24c0-1.63-3.37-3.28-4.74-3.76-3.25-1.14-6.27-.95-9.44.3-.96.38-4.07,1.89-4.07,2.97v12.73h-3.89c-.11-.44-.22-.86-.26-1.32-.73-9.18.55-19.32.03-28.6.39-2.11,1.85-3.69,4.12-3.54Z"/>
      <path fill="#FFFFFF" d="M115.37,25.22v-3.88c1.29-.51,4.14,1.7,4.14,2.79v21.94h-4.14v-3.64c-6.79,6.92-17.96,5-20.75-4.67-3.94-13.65,10.87-22.98,20.75-12.55ZM106.77,24.34c-11.38.12-11.01,18.6-.04,18.6,11.52,0,11.37-18.72.04-18.6Z"/>
      <path fill="#FFFFFF" d="M151.15,12.61v11.64c3.38-3.47,7.61-4.43,12.24-2.86,5.54,1.89,5.82,6.39,6.03,11.45.18,4.41-.24,8.82-.25,13.23h-3.89v-15.15c0-.36-.51-2.27-.68-2.72-1.91-4.88-9.93-5.09-12.41-.63-.26.46-1.02,2.22-1.02,2.62v15.88h-4.02s-.37-.34-.37-.36v-29.34c0-2.08,2.25-4.12,4.38-3.76Z"/>
      <path fill="#FFFFFF" d="M127.42,38.79c.19.06,1.57,2.51,2.43,3.15,3.03,2.27,10.37.57,8.61-3.73-.52-1.28-2.05-1.63-3.26-2.09-3.82-1.45-10.41-2.02-11.26-6.96-1.86-10.76,18.86-11.57,18.68-.55h-3.77c-.19,0-1.43-2.55-2.19-3.15-2.84-2.24-8.99-1.48-8.41,3.04.19,1.46,1.68,1.99,2.87,2.48,4.09,1.69,11.31,2.12,11.74,7.7.83,10.58-19.14,10.38-19.47.12,1.03.2,3.15-.27,4.02,0Z"/>
      <path fill="#FFFFFF" d="M178.41,21.34v21.94c0,1.06-2.66,3.1-3.89,2.55v-24.49h3.89Z"/>
      <path fill="#FFFFFF" d="M175.92,12.17c2.9-.56,4.92,3.41,2.09,5.24-3.87,2.5-6.42-4.41-2.09-5.24Z"/>
    </g>
  </g>
</svg>