<?xml version="1.0" encoding="UTF-8"?>
<svg id="Capa_2" data-name="Capa 2" xmlns="http://www.w3.org/2000/svg" viewBox="0 0 100.68 82.78">
  <defs>
    <style>
      .cls-1 {
        fill: #f3fbfc;
      }
    </style>
  </defs>
  <g id="Espalda">
    <g>
      <path class="cls-1" d="M38.47,41.1c.45.8,1.09.96,1.22,2.01.28,2.34.01,5.81,0,8.28,0,.56.09.87-.15,1.47-.77,1.93-5.58,3.93-7.57,4.29-8.71,1.57-17.39-2.91-19.61-11.67-1.82-7.2,1.28-14.6,7.73-18.1,4.4-2.39,10.54-2.69,15.14-.69,1.22.53,3.74,1.9,4.28,3.08.29.63.27,2.45-.04,3.07-.07.14-.22.14-.25.2-.17.29-.13.48-.52.79-2.28,1.83-3.78-.1-5.64-1.08-7.47-3.95-15.97,2.4-14.54,10.76.03.19,0,.73.02.74.06.03.19-.04.31.07.2.19.31.96.46,1.25,1.49,2.9,4.98,5.54,8.43,5.43.07,0,.14,0,.2,0,.24,0,.48,0,.72,0,.3-.01.62.02.92,0,.76-.05,1.34-.21,2.04-.46.33-.12,2.05-.83,2.05-1.12v-2.4s-.58-.21-.66-.21c-.68,0-1.76.18-2.45.1-.35-.04-1.75-.61-2.01-.86-1.04-1.02-.95-2.56-.42-3.81.22-.52.95-1.27,1.52-1.34.17-.02.33.09.48.08,2.34-.16,4.65-.1,7.01-.2.07,0,.14,0,.2,0,.16.19.4.16.61.2.17.03.35.06.51.1Z"/>
      <path class="cls-1" d="M37.96,11.44c.03.7.84,2.27,1.08,3.17.54,2.03.84,3.71-1.09,5.06-.7.49-2.25.51-3.07.32s-1.99-1.69-2.12-2.49c-1.15-6.76-7.5-11.44-14.39-10.97-3.3.22-7.34,2.64-9.32,5.25-.5.66-1.49,2.31-1.82,3.15-.94,2.37-.57,5.18-4,5.21-1.11,0-2.39-.59-2.88-1.61-.6-1.25-.32-2.63.03-3.91C2.27,7.54,8.12,1.85,15.33.43c8.85-1.74,17.36,1.92,21.91,9.66.18.31.29,1.07.71,1.15,0,.07,0,.14,0,.2Z"/>
      <path class="cls-1" d="M90.32,80.68c-.92.24-1.76.74-2.68,1.05-3.42,1.15-7.9,1.37-11.37.58-5.03-1.15-9.36-4.33-12.13-8.63-1.37-2.13-3.11-5.96-2.76-8.5s3.28-3.33,5.16-1.98c.29.21.5.7.88.8,0,.03-.01.07,0,.1,1.09,3.18,1.47,5.25,3.83,7.88,2.03,2.25,5.19,3.78,8.18,4.19,6.17.84,12.2-3.27,14.24-9.07.35-1,.61-2.91,1.3-3.61.95-.95,3.06-1.09,4.21-.48.03.02.59.38.62.4.13.1,0,.45.33.39,0,.03,0,.07,0,.1.08.42.43.69.5,1.19.32,2.35-1.33,6.33-2.57,8.36-1.08,1.77-2.56,3.34-4.18,4.62-.15.12-.29.42-.33.44-.11.06-.32,0-.49.08s-.5.55-.72.71c-.5.37-1.62.85-1.97,1.17-.11.1-.04.15-.06.21Z"/>
      <path class="cls-1" d="M50.82,26.61c.16.15.71,1.51.75,1.76v17.49c1.21,6.63,9.73,6.92,11.15.32v-17.4c.18-.37.13-.91.22-1.21.02-.07.98-1.04,1.05-1.09,2.01-1.52,4.98-.73,5.55,1.82l.03,17.77c-.32,2.59-1,5.07-2.8,7.07-4.15,4.59-10.43,5.56-15.8,2.63-9.37-5.1-5.22-18.03-6.15-26.79.04-.44.58-2.25.92-2.45.08-.04.23.08.29.04.03-.02.12-.27.27-.4.68-.53,2.21-.53,3.02-.36.19.04,1.39.69,1.5.8Z"/>
      <path class="cls-1" d="M88.65,26.82c3.47,6.84,6.47,13.89,9.65,20.85.61,1.34,1.5,2.79,2.06,4.2.74,1.86.23,4.79-2.13,5.07-4.13.49-4.41-3.15-5.83-6.01-.1-.2-.44-.75-.62-.81l-10.82-.03c-.32,0-.52.3-.68.55-.96,1.47-1.71,4.94-3.16,5.83-1.99,1.22-4.91.48-5.3-2.04-.36-2.33,1.35-4.62,2.27-6.62,2.94-6.44,5.66-13.14,8.86-19.47,1.2-2.37,3.45-2.92,5.71-1.54ZM88.99,44.07c-.18-.99-.75-1.81-1.14-2.7-.43-.97-.87-2.32-1.4-3.2-.07-.11-.11-.26-.27-.24l-2.71,6.14h5.52Z"/>
      <path class="cls-1" d="M5.89,26.74c.36.4.59.91.78,1.42v26.39c-.62,3.35-6.12,3.35-6.65-.11v-26.08c.43-2.75,4.08-3.6,5.87-1.62Z"/>
    </g>
  </g>
</svg>