<?xml version="1.0" encoding="UTF-8"?>
<svg id="Capa_2" data-name="Capa 2" xmlns="http://www.w3.org/2000/svg" viewBox="0 0 207.74 59.4">
  <defs>
    <style>
      .cls-1 {
        fill: #fff;
      }
    </style>
  </defs>
  <g id="Espalda">
    <g>
      <path fill="#FFFFFF" d="M29.7,0C13.3,0,0,13.3,0,29.7s13.3,29.7,29.7,29.7,29.7-13.3,29.7-29.7S46.08,0,29.7,0ZM44.46,34.4c0,3.99-3.24,7.23-7.23,7.23s-7.23-3.24-7.23-7.23v-9.45c0-1.14-.91-2.06-2.06-2.06s-2.06.91-2.06,2.06v9.45c0,3.99-3.24,7.23-7.23,7.23s-7.23-3.24-7.23-7.23c0-1.43,1.16-2.59,2.59-2.59s2.59,1.16,2.59,2.59c0,1.14.91,2.06,2.06,2.06s2.06-.92,2.06-2.06v-9.45c0-3.99,3.24-7.23,7.23-7.23s7.23,3.24,7.23,7.23v9.45c0,1.14.91,2.06,2.06,2.06s2.06-.92,2.06-2.06v-14.09c0-1.43,1.16-2.59,2.59-2.59s2.59,1.16,2.59,2.59v14.09Z"/>
      <path fill="#FFFFFF" d="M89.25,16.52c-.97,0-1.76.9-1.76,1.88v15.64c0,4.03-2.94,7.34-6.77,7.34s-6.86-3.33-6.86-7.34c0-1-.79-1.85-1.76-1.85s-1.76.81-1.76,1.85c0,6.09,4.52,10.63,10.34,10.63s10.33-4.93,10.33-11.02v-15.26c.02-.99-.77-1.88-1.78-1.88h.02Z"/>
      <path fill="#FFFFFF" d="M118.28,21.19c1.29,0,2.34-1.05,2.34-2.34s-1.05-2.34-2.34-2.34-2.34,1.05-2.34,2.34,1.05,2.34,2.34,2.34Z"/>
      <path fill="#FFFFFF" d="M103.54,23.74c-5.79,0-10.47,4.7-10.47,10.47s4.7,10.47,10.47,10.47,10.47-4.7,10.47-10.47-4.7-10.47-10.47-10.47ZM103.54,41.32c-3.92,0-7.11-3.18-7.11-7.11s3.18-7.11,7.11-7.11,7.11,3.18,7.11,7.11-3.18,7.11-7.11,7.11Z"/>
      <path fill="#FFFFFF" d="M132.44,27.13c.37-.07.77-.11,1.16-.11h-.02c-.39,0-.77.04-1.14.11Z"/>
      <path fill="#FFFFFF" d="M156.74,23.74h-.18c-.35,0-.7.02-1.04.09-1.9.25-3.64,1.09-5,2.32v-.63c0-.97-.79-1.76-1.76-1.76s-1.76.79-1.76,1.76v13.64c0,1.14-.9,2.04-2.02,2.06-1.09,0-1.99-.9-1.99-1.99v-6.25c0-5.09-4.12-9.2-9.2-9.2h-.18c-.35,0-.7.02-1.04.09-1.9.25-3.64,1.09-5,2.32v-.63c0-.97-.79-1.76-1.76-1.76s-1.76.79-1.76,1.76v13.67c0,1.13-.9,2.04-2.04,2.04s-2.04-.9-2.04-2.04v-15.43h-3.54v15.8c0,2.87,2.37,5.17,5.24,5.17s5.73-2.16,5.91-4.89v-6.28c0-.26.02-.53.03-.79.07-2.76,2.06-5.07,4.72-5.6.37-.09.77-.11,1.14-.11h.02c2.5,0,4.63,1.55,5.47,3.77.25.65.39,1.35.39,2.11v6.19c0,.16,0,.28.02.42,0,.02,0,.07.02.09.26,2.8,2.6,5.01,5.47,5.03,1.79-.11,3.66-1.09,4.73-2.52.56-.88.9-1.94.9-3.04v-5.6c0-.26.02-.53.04-.79.07-2.76,2.06-5.07,4.72-5.6.37-.09.77-.11,1.14-.11h.02c2.5,0,4.63,1.55,5.47,3.77.25.65.39,1.35.39,2.11v11.79h3.57v-11.72c0-5.16-4.13-9.27-9.22-9.27h.11Z"/>
      <path fill="#FFFFFF" d="M186.3,23.84c-1.58,0-2.96,1.43-2.96,3.04v7.43c0,2.6-1.86,4.63-4.22,4.63s-4.28-2.04-4.28-4.63v-7.43c0-1.64-1.36-3.04-2.96-3.04s-2.92,1.43-2.92,3.04v7.43c0,5.77,4.45,10.29,10.15,10.29s10.1-4.63,10.1-10.29v-7.43c0-1.64-1.35-3.04-2.92-3.04Z"/>
      <path fill="#FFFFFF" d="M200.55,32.15c-1.95-.42-3.5-.74-3.5-1.94,0-.81.62-1.76,2.32-1.76,1.44,0,2.39.46,3.22.88.72.35,1.36.69,2.25.69,1.37,0,2.23-1.13,2.23-2.16,0-2.39-3.04-4.01-7.6-4.01s-7.88,2.8-7.88,6.37c0,4.73,4.17,5.63,7.21,6.26,1.81.39,3.24.7,3.24,1.81,0,.72-.51,1.58-2.96,1.58-1.53,0-2.43-.48-3.2-.9-.63-.35-1.16-.63-1.99-.63-1.35,0-2.37,1-2.37,2.38,0,2.29,3.15,3.87,7.67,3.87,5.03,0,8.55-2.71,8.55-6.62.02-4.29-4.13-5.19-7.2-5.82Z"/>
    </g>
  </g>
</svg>