<?xml version="1.0" encoding="UTF-8"?>
<svg id="Capa_2" data-name="Capa 2" xmlns="http://www.w3.org/2000/svg" viewBox="0 0 106.1 40.16">
  <defs>
    <style>
      .cls-1 {
        fill: #fff;
      }
    </style>
  </defs>
  <g id="Espalda">
    <g>
      <polygon fill="#FFFFFF" points="9.34 2.7 0 2.7 0 40.08 20.76 40.08 20.76 31.77 9.34 31.77 9.34 2.7"/>
      <rect fill="#FFFFFF" x="23.36" y="14.64" width="8.82" height="25.43"/>
      <path fill="#FFFFFF" d="M24.43,1.44c-5.14,4.74,2.54,11.83,7.05,7.31,4.32-4.32-2.05-11.93-7.05-7.31Z"/>
      <path fill="#FFFFFF" d="M88.59,4.54c-9.67,0-17.52,7.84-17.52,17.52s7.84,17.52,17.52,17.52,17.52-7.84,17.52-17.52-7.84-17.52-17.52-17.52ZM96.68,21.69v10.32h-5.43v-8c-.81-1.01-2.47-1.08-2.47-1.08-1.78.27-2.38,1.08-2.38,1.08v8h-5.12v-10.65h-2.8l10.35-10.03,10.21,10.36h-2.36Z"/>
      <path fill="#FFFFFF" d="M72.1,4.42l.67-1.9h-10.39l-1.07,2.75h0c-2.22,5-3.46,10.1-5.55,15.2-.46,1.14-.4,1.19-1.79,4.62l-7.55-19.81-.87-2.76h-10.78l1.54,3.62h0c4.12,11.49,9.39,22.62,13.87,33.96,1.79-.33,6.61.62,7.72-.53,4.11-10.69,9.05-21.11,13.04-31.84h0s.03-.1.03-.1c.22-.61.45-1.21.67-1.82.17-.47.32-.93.47-1.4Z"/>
    </g>
  </g>
</svg>