<?xml version="1.0" encoding="UTF-8"?>
<svg id="Capa_2" data-name="Capa 2" xmlns="http://www.w3.org/2000/svg" viewBox="0 0 294.84 67.39">
  <defs>
    <style>
      .cls-1 {
        isolation: isolate;
        opacity: .3;
      }

      .cls-1, .cls-2 {
        fill: #fff;
      }
    </style>
  </defs>
  <g id="Espalda">
    <g>
      <path class="cls-2" d="M29.92,14.53s-6.01-8.08,2.04-14.53c0,0,4.41,6.59-2.04,14.53Z"/>
      <path class="cls-2" d="M49.98,65.06c.73-.74,1.44-1.5,2.11-2.29,4.23-4.87,7.23-10.69,8.74-16.97,1.56-7.03.91-13.51-1.93-18.68-1.43-2.59-3.37-4.86-5.7-6.67-2.34-1.81-5.02-3.12-7.88-3.85-1.65-.47-3.35-.7-5.06-.69-3.3.02-6.54.86-9.43,2.44-2.9-1.58-6.14-2.42-9.44-2.44-1.71,0-3.41.22-5.06.69-2.86.73-5.54,2.05-7.88,3.86-2.34,1.81-4.27,4.08-5.7,6.67C-.08,32.32-.73,38.77.83,45.8c1.53,6.31,4.56,12.16,8.84,17.04.22.26.69.8,1.27,1.42.44.74,1.03,1.39,1.74,1.89.7.51,1.5.86,2.35,1.04.85.18,1.72.19,2.57.02.85-.17,1.65-.51,2.36-1,.71-.49,1.31-1.13,1.77-1.86.46-.74.75-1.56.88-2.41.12-.86.07-1.73-.16-2.56-.23-.84-.62-1.61-1.16-2.29l-.15-.15c-.2-.24-.42-.46-.66-.66-3.63-3.64-6.22-8.17-7.5-13.15-.98-4.44-1.42-12.23,6.74-14.53.55-.14,1.11-.22,1.68-.22,2.01.11,3.93.91,5.43,2.26l4.01,3.39,4.01-3.39c1.5-1.35,3.41-2.15,5.43-2.26.57,0,1.13.07,1.68.22,8.16,2.29,7.72,10.09,6.74,14.53-1.19,4.75-3.6,9.11-6.99,12.64-.71.46-1.32,1.07-1.78,1.78l-.11.11.04.04c-.77,1.21-1.1,2.65-.95,4.07.16,1.43.79,2.75,1.81,3.77,1.01,1.01,2.34,1.65,3.77,1.81,1.43.16,2.86-.18,4.07-.95l.07.07c.18-.15.33-.33.51-.47.31-.3.6-.62.86-.95h0Z"/>
      <path class="cls-2" d="M29.81,14.5c3.78.19,7.53-.81,10.71-2.88,2.94-2.37,5.05-5.63,6.01-9.28,0,0-6.08-.47-10.67,2.88-2.96,2.36-5.08,5.62-6.05,9.28Z"/>
      <path class="cls-1" d="M38.4,12.45c.27,0,.54,0,.8-.04-2.86,1.45-6.05,2.12-9.25,1.97.41-1.57,1.04-3.08,1.86-4.48,1.8,1.65,4.15,2.55,6.59,2.55Z"/>
      <path class="cls-2" d="M58.79,27.13c-1.43-2.59-3.37-4.86-5.7-6.67-2.34-1.81-5.02-3.12-7.88-3.85-1.65-.47-3.35-.7-5.06-.69-3.3.02-6.54.86-9.43,2.44v15.62l4.01-3.39c1.5-1.35,3.41-2.15,5.43-2.26.57,0,1.13.07,1.68.22,8.16,2.29,7.72,10.09,6.74,14.53-1.19,4.75-3.6,9.11-6.99,12.64-.71.46-1.32,1.07-1.78,1.78l-.11.11.04.04c-.77,1.21-1.09,2.64-.94,4.07.16,1.42.8,2.75,1.81,3.76,1.01,1.01,2.34,1.65,3.76,1.81,1.42.16,2.86-.17,4.07-.93l.07.07c.18-.15.33-.33.51-.47.33-.28.63-.58.91-.91.73-.74,1.44-1.5,2.11-2.29,4.23-4.87,7.23-10.69,8.74-16.97,1.53-6.99.88-13.47-1.96-18.64h0Z"/>
      <path class="cls-2" d="M93.47,41.84l-5.51-9.83v12.83c-.01.53-.23,1.03-.6,1.4-.37.37-.87.59-1.4.6-.52-.03-1.02-.24-1.39-.61s-.59-.87-.61-1.39v-20.22c.01-.53.23-1.03.6-1.4.37-.37.87-.59,1.4-.6.77,0,1.47.44,1.81,1.13l7.45,13.33,7.45-13.33c.2-.41.53-.73.94-.93.41-.19.87-.25,1.32-.14s.84.35,1.12.7c.28.35.44.79.44,1.25v20.22c0,.53-.21,1.04-.59,1.42-.38.38-.89.59-1.42.59s-1.04-.21-1.42-.59c-.38-.38-.59-.89-.59-1.42v-12.83l-5.51,9.83c-.18.31-.44.56-.74.73-.31.18-.66.27-1.01.27s-.7-.09-1.01-.27c-.31-.18-.56-.43-.74-.73h0s0,0,0,0ZM113.07,34.83c-.3.24-.68.38-1.06.38-.21,0-.43-.04-.62-.12-.2-.08-.38-.2-.53-.35-.15-.15-.27-.33-.35-.53-.08-.2-.12-.41-.12-.62,0-.44.16-.86.44-1.19.74-.76,1.64-1.36,2.64-1.75.99-.39,2.06-.56,3.12-.51,4.38,0,6.95,2.13,6.95,5.88v9.01c0,.5-.2.98-.55,1.33-.35.35-.83.55-1.33.55s-.98-.2-1.33-.55-.55-.83-.55-1.33c-.94,1.5-2.5,2.07-4.63,2.07-3.44,0-5.7-2.13-5.7-5.32s2.63-4.95,5.7-4.95h4.63v-.63c0-1.56-1.19-2.63-3.19-2.63-1.29-.06-2.55.39-3.5,1.25h0ZM119.83,40.65v-1h-4.13c-1.56,0-2.38.75-2.38,2,0,1.31.94,2.13,2.94,2.13.44.04.89,0,1.31-.14.42-.14.82-.36,1.15-.65.33-.29.61-.65.8-1.05.19-.4.3-.84.31-1.29ZM141.11,36.21v8.76c0,.24-.04.49-.14.71-.09.23-.23.43-.41.6-.18.17-.38.3-.61.39-.23.09-.47.12-.72.11-.25.02-.49-.02-.72-.1-.23-.08-.44-.22-.62-.39-.18-.17-.32-.38-.41-.61-.09-.23-.14-.47-.13-.72v-8.08c0-2-.81-3.38-3.07-3.38-2.63,0-3.51,1.56-3.51,3.63v7.82c-.01.49-.22.96-.57,1.3-.35.34-.82.53-1.31.53s-.96-.19-1.31-.53c-.35-.34-.55-.81-.57-1.3v-12.77c0-.5.2-.98.55-1.33.35-.35.83-.55,1.33-.55s.98.2,1.33.55c.35.35.55.83.55,1.33.52-.7,1.2-1.26,1.99-1.63.79-.37,1.65-.54,2.52-.5,4.69,0,5.82,3.07,5.82,6.14h0ZM145.24,30.57h9.01c.32,0,.63.09.9.26.27.17.49.41.62.7.14.29.19.61.15.93-.04.32-.16.62-.37.86l-7.39,9.95h6.38c.22-.01.44.02.65.1.21.08.4.19.56.35.16.15.29.33.38.54.09.2.13.42.13.64s-.04.44-.13.64c-.09.2-.22.39-.38.54-.16.15-.35.27-.56.35-.21.08-.43.11-.65.1h-9.69c-.43,0-.84-.18-1.14-.48-.3-.3-.48-.71-.49-1.14,0-.39.14-.76.38-1.06l7.57-10.14h-5.95c-.41,0-.81-.17-1.11-.46-.29-.29-.46-.69-.46-1.11s.16-.81.46-1.11c.29-.29.69-.46,1.11-.46h0ZM161.58,34.83c-.3.24-.68.38-1.06.38-.21,0-.43-.04-.62-.12-.2-.08-.38-.2-.53-.35-.15-.15-.27-.33-.35-.53-.08-.2-.12-.41-.12-.62,0-.44.16-.86.44-1.19.75-.76,1.64-1.36,2.64-1.75.99-.39,2.06-.56,3.12-.51,4.38,0,6.95,2.13,6.95,5.88v9.01c0,.5-.2.98-.55,1.33-.35.35-.83.55-1.33.55s-.98-.2-1.33-.55c-.35-.35-.55-.83-.55-1.33-.94,1.5-2.5,2.07-4.63,2.07-3.44,0-5.7-2.13-5.7-5.32s2.63-4.95,5.7-4.95h4.63v-.63c0-1.56-1.19-2.63-3.19-2.63-.64-.04-1.28.06-1.88.27-.6.21-1.16.55-1.63.98ZM168.27,40.65v-1h-4.13c-1.56,0-2.38.75-2.38,2,0,1.31.94,2.13,2.94,2.13.44.05.89,0,1.32-.13.43-.13.82-.35,1.16-.65.34-.29.61-.66.79-1.06.19-.4.29-.85.3-1.29h0ZM189.55,36.21v8.76c0,.24-.04.49-.14.71-.1.23-.23.43-.41.6-.18.17-.38.3-.61.39-.23.09-.47.12-.72.11-.25.02-.49-.02-.72-.1-.23-.08-.44-.22-.62-.39-.18-.17-.32-.38-.41-.61-.09-.23-.14-.47-.13-.72v-8.08c0-2-.81-3.38-3.07-3.38-2.63,0-3.51,1.56-3.51,3.63v7.82c-.01.49-.22.96-.57,1.3-.35.34-.82.53-1.31.53s-.96-.19-1.31-.53c-.35-.34-.55-.81-.57-1.3v-12.77c0-.5.2-.98.55-1.33.35-.35.83-.55,1.33-.55s.98.2,1.33.55c.35.35.55.83.55,1.33.52-.7,1.2-1.26,1.99-1.63.79-.37,1.65-.54,2.52-.5,4.7,0,5.82,3.07,5.82,6.14h0ZM195.69,34.83c-.3.24-.68.38-1.06.38-.21,0-.43-.04-.62-.12-.2-.08-.38-.2-.53-.35-.15-.15-.27-.33-.35-.53-.08-.2-.12-.41-.12-.62,0-.44.16-.86.44-1.19.75-.76,1.65-1.36,2.64-1.75.99-.39,2.06-.56,3.12-.51,4.38,0,6.95,2.13,6.95,5.88v9.01c0,.5-.2.98-.55,1.33-.35.35-.83.55-1.33.55s-.97-.2-1.33-.55c-.35-.35-.55-.83-.55-1.33-.94,1.5-2.5,2.07-4.63,2.07-3.44,0-5.7-2.13-5.7-5.32s2.63-4.95,5.7-4.95h4.63v-.63c0-1.56-1.19-2.63-3.19-2.63-.64-.04-1.28.06-1.88.27-.6.21-1.15.55-1.63.98ZM202.39,40.65v-1h-4.13c-1.56,0-2.38.75-2.38,2,0,1.31.94,2.13,2.94,2.13.44.05.89,0,1.32-.13.43-.13.82-.35,1.15-.65.34-.29.61-.66.8-1.06.19-.4.29-.85.3-1.29h0Z"/>
      <path class="cls-2" d="M221.6,46.1l-5.83-13.21c-.08-.24-.12-.5-.12-.75,0-.51.21-1.01.57-1.37.36-.36.85-.57,1.37-.57.4,0,.78.12,1.11.34.32.22.57.54.71.91l4.01,10.14,4.01-10.14c.14-.37.38-.69.71-.91.32-.22.71-.34,1.11-.34.51,0,1,.21,1.37.57.36.36.57.86.57,1.37,0,.26-.04.51-.12.75l-5.83,13.21c-.15.36-.4.66-.72.88-.33.21-.71.32-1.09.31-.39.02-.78-.08-1.1-.3-.33-.21-.57-.53-.71-.89ZM240.63,29.95c6.14,0,7.32,4.76,7.32,7.26,0,1.38,0,2.94-2.25,2.94h-9.01c0,2.63,1.88,3.82,4.26,3.82,1.3,0,2.56-.39,3.63-1.13.34-.25.76-.39,1.19-.38.45,0,.88.18,1.19.49.32.32.49.74.49,1.19-.02.52-.25,1.02-.63,1.38-1.65,1.36-3.74,2.08-5.88,2-5.07,0-8.2-2.75-8.2-8.83,0-5.63,2.95-8.76,7.89-8.76h0ZM236.81,36.84h7.2c.05-.46-.01-.93-.16-1.37-.15-.44-.4-.84-.72-1.18-.32-.34-.71-.6-1.14-.78-.43-.17-.9-.26-1.36-.24-.49-.03-.98.05-1.43.21-.46.17-.88.42-1.24.76-.36.33-.64.74-.84,1.18-.2.45-.3.93-.31,1.42ZM254.59,32.33c.39-.71.96-1.29,1.65-1.7.69-.41,1.49-.62,2.29-.61.5,0,.98.2,1.33.55.35.35.55.83.55,1.33s-.2.98-.55,1.33c-.35.35-.83.55-1.33.55-.54-.04-1.08.05-1.58.24-.5.19-.96.5-1.33.88-.38.39-.66.85-.84,1.36-.18.51-.24,1.05-.19,1.59v7.57c0,.51-.2,1.01-.57,1.37-.36.36-.86.57-1.37.57s-1.01-.2-1.37-.57c-.36-.36-.57-.86-.57-1.37v-13.27c0-.51.2-1.01.57-1.37.36-.36.86-.57,1.37-.57s1.01.2,1.37.57c.36.36.57.86.57,1.37v.19s0,0,0,0ZM272.99,31.39v-8.39c0-.51.2-1.01.57-1.37.36-.36.86-.57,1.37-.57s1.01.2,1.37.57c.36.36.57.86.57,1.37v17.15c0,4.81-3.13,7.32-7.57,7.32-4.94,0-7.82-2.82-7.82-8.76s2.81-8.76,7.38-8.76c1.51-.03,2.97.48,4.13,1.44h0ZM272.99,35.15c-.44-.55-.99-1-1.62-1.32-.63-.32-1.31-.51-2.01-.56-2.5,0-3.88,1.81-3.88,5.45s1.38,5.38,3.88,5.38c.51.02,1.01-.08,1.48-.27.47-.2.89-.49,1.24-.87.34-.37.6-.82.76-1.3.16-.48.21-1,.15-1.5v-5.01h0ZM287.51,29.95c6.14,0,7.32,4.76,7.32,7.26,0,1.38,0,2.94-2.25,2.94h-8.95c0,2.63,1.88,3.82,4.25,3.82,1.3,0,2.57-.39,3.63-1.13.34-.25.76-.39,1.19-.38.22,0,.44.04.64.13.2.08.39.21.55.37.16.16.28.34.37.55.09.21.13.42.13.64-.02.52-.25,1.02-.63,1.38-1.65,1.36-3.74,2.08-5.88,2-5.07,0-8.2-2.75-8.2-8.83,0-5.63,2.88-8.76,7.83-8.76h0ZM283.69,36.84h7.2c.04-.46-.01-.93-.16-1.37-.15-.44-.4-.84-.72-1.18-.32-.34-.71-.6-1.14-.78-.43-.17-.9-.26-1.36-.24-.49-.02-.97.05-1.43.22-.46.17-.87.43-1.23.76-.35.33-.64.73-.84,1.18-.2.44-.31.92-.32,1.41h0Z"/>
    </g>
  </g>
</svg>