<?xml version="1.0" encoding="UTF-8"?>
<svg id="Capa_2" data-name="Capa 2" xmlns="http://www.w3.org/2000/svg" viewBox="0 0 214.4 42.95">
  <defs>
    <style>
      .cls-1 {
        fill: #fff;
      }
    </style>
  </defs>
  <g id="Espalda">
    <g>
      <path class="cls-1" d="M33.14.36c-7.02-.02-14.67-.64-21.66-.2C5.32.54.45,5,.17,11.24c-.25.16-.15.58-.16.84-.02,2.31.02,4.62,0,6.93l.31-1.15c.78-3.76,4.1-6.63,7.95-6.91,5.11.29,10.77-.46,15.81,0,11.73,1.08,7.22,16.16,8.11,23.92-.29,3.41-2.48,6.35-5.66,7.58l-1.58.5h7.93c4.28,0,9.66-5.49,9.91-9.79,0-6.96.58-14.44.18-21.38-.33-5.8-4.05-10.36-9.82-11.41Z"/>
      <path class="cls-1" d="M25.1,24.25c-.3-3.21-2.79-5.71-5.94-6.22-4.19.29-9.07-.47-13.18.03C2.94,18.42.02,21.41.02,24.55v5.31l.43-1.49c.53-1.47,2.11-2.86,3.69-3.09,1.85-.27,7.93-.27,9.8-.03,1.93.25,3.74,2.13,3.94,4.07.22,2.2.24,7.51-.02,9.68-.17,1.46-1.35,2.89-2.65,3.51l-1.18.43h5.46c2.71,0,5.34-3.58,5.6-6.1.32-3.04.3-9.53.02-12.6Z"/>
      <path class="cls-1" d="M70.27,14.94l-1.78-1.91c-3.01-2.15-7.45-1.62-9.76,1.29l-.08-2h-2.46v20.16h2.77v-13.77c0-3.71,4.68-5.77,7.53-3.53.75.59,1.71,2.12,1.71,3.06v14.24h2.77v-14.08c0-3.51,4.94-5.38,7.61-3.15.74.61,1.62,2.21,1.62,3.15v14.08h2.54s.23-.21.23-.23v-14.77c0-.24-.42-1.6-.54-1.92-1.92-4.96-9.6-5.03-12.16-.62Z"/>
      <path class="cls-1" d="M169.31,17.62c-.2-3.32-2.74-6.07-6.09-6.38-4.69-.43-8.38,2.03-8.54,6.92h4.16c.19-4.77,7.5-4.04,6.24.93-.17.67-.86,1.28-1.24,1.84l-9.16,8.08v3.23s.21.23.23.23h14.39v-3.85h-8.31c1.79-1.77,3.88-3.26,5.7-5,1.97-1.89,2.8-3.12,2.62-6.01Z"/>
      <path class="cls-1" d="M185,25.4v-5.08h-4.16v5.08h-4.31l6.31-13.85h-4.23c-.18,0-.57.83-.67,1.02-2.15,4.12-3.83,8.63-6.02,12.75v3.92h8.93v3s.21.23.23.23h3.69s.23-.21.23-.23v-3c.4-.06,1.57.15,1.78-.14.12-.18.12-3.39,0-3.56-.21-.3-1.37-.08-1.78-.14Z"/>
      <path class="cls-1" d="M113.56,19.82c-1.6-.66-3.17-1.77-2.09-3.71,1.74-3.13,9.77-2.2,9.98,2.06l2.77-.46c-.41-8.19-17.08-8.02-15.81.65.56,3.84,7.1,4.54,10.08,5.62,1.57.57,3.06,1.03,2.97,3.05-.19,4.36-7.74,4.19-10.01,1.38-.31-.38-.84-1.65-.92-1.7-.16-.11-2.34.49-2.78.4.79,4.88,5.91,6.22,10.22,5.83,2.66-.24,5.58-1.79,6.21-4.56,1.56-6.85-6.33-6.77-10.62-8.54Z"/>
      <path class="cls-1" d="M201.55,11.55s-.23.21-.23.23v3.62h8.77l-6.77,17.08h4.08l.26-.35,6.74-16.5v-4.08h-12.85Z"/>
      <polygon class="cls-1" points="189.31 32.48 193.08 32.48 198.7 11.55 194.85 11.55 189.31 32.48"/>
      <path class="cls-1" d="M9.18,31.09c-1.34-.15-4.97-.16-6.3.01-1.47.19-2.38,1.21-2.71,2.6-.25,1.06-.14,2.12-.15,3.23.21.03.31-.67.31-.77.11-.63.86-1.28,1.47-1.38.84-.14,3.88-.12,4.77-.01.81.1,1.62.82,1.76,1.63.13.77.12,3.97,0,4.75-.05.35-.29.75-.52,1.01l-1.16.77h2.85c.1,0,.98-.44,1.14-.55.76-.52,1.27-1.4,1.38-2.32.16-1.31.17-4.83,0-6.13-.19-1.43-1.38-2.7-2.83-2.86Z"/>
      <path class="cls-1" d="M99.04,12.18c-10.05-3.03-15.55,7.77-11.48,15.95,3.11,6.25,12.58,6.48,16.4.81.2-.3.86-1.23.64-1.53-.08-.11-2.33-.95-2.46-.93-1.47,3.21-5.15,4.54-8.47,3.54-3.1-.93-4.18-3.97-4.39-6.92h15.85v-2.54c0-3.37-2.82-7.39-6.09-8.38ZM89.43,20.78c.28-4.22,2.84-6.75,7.16-6.47,3.74.24,5.32,3.03,5.61,6.47h-12.77Z"/>
      <path class="cls-1" d="M127.75,17.55l2.52.6c.84-1.86,1.79-3.18,3.91-3.64,3.9-.85,7.26.86,6.95,5.19-3.98.82-11.8.43-13.72,4.83-1.68,3.86.8,7.88,4.92,8.37,3.59.43,7.02-.64,9.11-3.65v3.23h2.46v-14.39c0-.45-.36-1.75-.54-2.23-2.31-6.21-14.84-5.42-15.62,1.69ZM138.11,29.53c-3.05,1.87-9.2,1.39-8.32-3.4.64-3.48,8.66-3.49,11.35-3.96.1,2.79-.49,5.8-3.03,7.36Z"/>
    </g>
  </g>
</svg>