<?xml version="1.0" encoding="UTF-8"?>
<svg id="Capa_2" data-name="Capa 2" xmlns="http://www.w3.org/2000/svg" viewBox="0 0 221.6 43.46">
  <defs>
    <style>
      .cls-1 {
        fill: #fff;
      }
    </style>
  </defs>
  <g id="Espalda">
    <g>
      <path fill="#FFFFFF" d="M36.46,11.92l-.58.48c-2.56-.08-4.53,1.46-5.91,4.64l-4.95,8.3h-.74c-2.79,4.48-5.65,10.42-8.8,14.48-6.35,8.19-19.13.91-14.48-9.17L18.18,2.85c10.09-7.74,13.83,1.96,18.28,9.06Z"/>
      <path fill="#FFFFFF" d="M40.83,18.16c2.54-4.23,4.87-8.72,7.68-12.78.86-1.25,1.69-2.7,2.96-3.6,3.39-2.4,8.29-2.09,11.22.92,2.07,2.13,7.73,11.74,9.31,14.74.18.35.49.55.38,1.03-1.75-.81-3.15-1.61-5.16-1.58-6.96.09-11.57,9.51-14.83,14.7-1.6,1.85-3.78.4-5.13-1.08-1.07-1.18-7.12-10.95-6.97-11.88l.55-.47Z"/>
      <path fill="#FFFFFF" d="M36.46,11.92c1.28,2.05,3.33,4.54,4.37,6.25.09.14.04.83.36,1.35,1.63,2.62,5.13,9.32,7.01,11.11,1.26,1.2,2.53,1.48,4.18.97-2.85,4.53-4.78,11.24-11.12,11.84-2.34.22-5.35-.95-6.99-2.63-2.65-2.73-6.36-10.42-8.74-14.06-.35-.53-.63-1.12-1.26-1.4,1.78-2.85,5.87-10.37,7.81-12.34,1.22-1.24,2.73-1.64,4.37-1.1Z"/>
      <path fill="#FFFFFF" d="M70.74,26.05c11.46-1.8,14.21,14.4,3.9,17.02-11.81,3-15.19-15.25-3.9-17.02Z"/>
      <path fill="#FFFFFF" d="M111.42,25.03c-.83-.08-2.11,1.63-2.61,1.55-.34-.06-1.55-1.72-2.69-2.02-9.47-2.47-10.06,11.99-1.46,11.39,1.81-.13,4.12-2.15,4.36-2.12.28.03,1.88,1.09,2.09,1.36.39.49.29.19,0,.63-3.98,5.95-13.66,3.87-15.71-2.72-3.26-10.49,10.2-16.86,16.02-8.06Z"/>
      <path fill="#FFFFFF" d="M95.18,4.42l3.08.04c1.26,2.82,2.28,6.23,3.73,8.92.11.21.48.87.68.72.69-1.16,3.67-9.35,4.11-9.63s2.36.09,3.07-.05v13.43h-2.81v-7.81l-3.4,7.61c-.3.39-2,.34-2.38-.12l-3.28-7.5v7.81h-2.81V4.42Z"/>
      <path fill="#FFFFFF" d="M197.61,25.02c-.66-.14-2.2,1.24-2.33,1.24-.29,0-2.43-3.72-4.83-1.68-2.88,2.45,4.13,4.32,5.4,5.19,5.83,3.99.26,11.44-6.29,9.1-1.17-.42-4.7-3.26-3.5-4.32.12-.11,2.23-1.06,2.36-1.05.18.02,1.24,1.87,2.1,2.22,1.82.74,4.16.2,4.01-2.11-.18-2.77-6.77-2.48-7.94-6.45-2.01-6.86,9.69-8.64,11.02-2.15Z"/>
      <path fill="#FFFFFF" d="M176.34,24.99c-.07.11-2.18,1.27-2.31,1.26-.35-.03-1.08-2.63-3.73-2.14-1.45.27-1.91,2.08-.88,3.13,1.7,1.73,6.77,1.63,7.51,5.21,1.71,8.33-10.73,8.45-11.98,3.21-.35-1.47,2.52-2.31,2.67-2.19.08.06.22,1.05.96,1.7,1.55,1.36,4.73,1.15,4.82-1.22.1-2.58-3.81-2.8-5.57-3.96-6.48-4.3.65-12.17,6.68-7.93.57.4,2.25,2.2,1.82,2.93Z"/>
      <path fill="#FFFFFF" d="M163.58,13.48V4.42h2.5v13.43c-.8-.11-2.13.25-2.81-.16-1.27-.77-4.19-7.39-5.94-8.59v8.75h-2.81V4.42c.95.09,2.2-.28,2.99.29l6.07,8.77Z"/>
      <polygon fill="#FFFFFF" points="124.23 21.29 124.23 35.65 131.1 35.65 131.1 39.09 120.79 39.09 120.79 21.29 124.23 21.29"/>
      <path fill="#FFFFFF" d="M197.63,4.42v2.5h-5v3.12h4.37c.63,3.6-1.89,2.3-4.37,2.5v2.81h5.31v2.5h-7.81V4.42h7.5Z"/>
      <rect fill="#FFFFFF" x="127.97" y="4.42" width="2.81" height="13.43"/>
      <path fill="#FFFFFF" d="M150.1,21.34c-.3-.18-3.68-.29-3.98.44l-6.58,17.31c.9-.16,3.1.3,3.76-.14.48-.32.54-2.13,1.07-2.68.5-.51,7.42-.48,7.82,0,.41.49.43,2.27,1.08,2.67.76.45,2.8-.01,3.75.15-1.25-1.99-6.11-17.25-6.92-17.75ZM145.78,32.53l2.19-6.56c1.21,2.8,1.82,4.5,2.81,6.56h-5Z"/>
      <path fill="#FFFFFF" d="M215.04,2.32c-8.83.35-8.34,13.1.23,13.06,8.53-.04,8.4-13.4-.23-13.06ZM216.14,13.71c-6.86,1.11-7.69-8.83-2.04-9.85,6.88-1.24,7.74,8.92,2.04,9.85Z"/>
      <path fill="#FFFFFF" d="M217.06,8.94c0-.23.78-.58.88-1.26.42-2.84-3.62-2.12-5.32-2.01v6.56h1.56s0-2.5,0-2.5c2.93-.74,1.17,3.43,4.06,2.34.13-.71-1.19-2.96-1.19-3.13ZM214.18,8.48v-1.88c2.83-.26,2.85,2.13,0,1.88Z"/>
    </g>
  </g>
</svg>