<?xml version="1.0" encoding="UTF-8"?>
<svg id="Capa_2" data-name="Capa 2" xmlns="http://www.w3.org/2000/svg" viewBox="0 0 256.45 57.31">
  <defs>
    <style>
      .cls-1 {
        fill: #fff;
      }
    </style>
  </defs>
  <g id="Espalda">
    <g>
      <path fill="#FFFFFF" d="M47.43,5.95l-5.07,15.26-6.28,4.33,4.07,3.06-1.53,4.89-6.65,1.23-6.57-1.27-1.62-4.92,4.05-2.92-6.22-4.35-4.94-14.9v-.41s6.5-4.05,6.5-4.05l8.91,5.67,8.8-5.68,6.56,4.06ZM29.28,21.25c-1.26.29-1.24,2.38.14,2.65,2.27.43,2.29-3.2-.14-2.65ZM33.74,21.25c-1.19.27-1.3,2.31.03,2.62,2.39.56,2.38-3.17-.03-2.62Z"/>
      <polygon fill="#FFFFFF" points="92.39 15.4 98.34 24.19 98.65 23.97 104.42 15.4 109.63 15.4 109.63 38.25 105.03 38.25 105.03 21.89 98.47 31.5 98.12 31.4 91.78 22.03 91.78 38.25 87.32 38.25 87.32 15.4 92.39 15.4"/>
      <polygon fill="#FFFFFF" points="13.64 30.68 19.45 27.43 21.76 34.52 13.5 37.24 0 22.75 13.57 9.46 18.21 23.56 13.64 26.42 13.64 30.68"/>
      <polygon fill="#FFFFFF" points="50.41 26.35 45.72 23.59 50.28 9.46 64.06 22.77 50.21 37.39 42.22 34.6 44.46 27.43 50.41 30.81 50.41 26.35"/>
      <path fill="#FFFFFF" d="M41.55,39.33c.79,2.12,1.64,4.33,2.27,6.52.12.4.45,1.26.3,1.59l-12.17,9.88-12.22-10.17,2.57-7.79,9.62-.02,2.59,4.2.05.38-2.62,1.88-4.86-3.61-.88,2.9,5.87,6.01,5.69-5.94-1.55-5.82h5.34Z"/>
      <path fill="#FFFFFF" d="M192.5,30.54h-13.79c.3,1.57,1,3.18,2.54,3.88,2.04.93,5.45.51,6.25-1.86h4.73c-2.1,7.64-13.61,8.13-17.06,1.31-2.66-5.26-.18-12.2,5.75-13.63,6.86-1.65,12.34,3.42,11.58,10.29ZM187.64,27.16c-.76-4.66-7.66-4.49-8.65,0h8.65Z"/>
      <path fill="#FFFFFF" d="M160.6,13.24v14.6l1.42-1.35,5.54-6.08h5.61l-7.94,8.45,8.62,9.4h-5.75c-2.03-2.03-3.89-4.23-5.88-6.29-.35-.36-.85-.93-1.22-1.21-.14-.1-.17-.26-.41-.2v7.7h-4.46V13.24h4.46Z"/>
      <path fill="#FFFFFF" d="M129.86,35.63c-4.57,5.1-13.6,3.43-15.73-3.17-2.39-7.39,4.02-14.36,11.56-12.09,6.5,1.96,8.65,10.27,4.18,15.26ZM122.03,24.36c-5.42.74-5.07,10.05.9,9.97,6.49-.08,6.15-10.94-.9-9.97Z"/>
      <polygon fill="#FFFFFF" points="231.17 15.4 231.17 19.87 220.49 19.87 220.49 24.73 230.22 24.73 230.22 29.06 220.49 29.06 220.49 38.25 215.89 38.25 215.89 15.4 231.17 15.4"/>
      <path fill="#FFFFFF" d="M152.21,38.25h-4.46v-10.61c0-.1-.15-1-.19-1.16-.76-2.97-5.57-2.82-6.86-.35-.12.23-.52,1.19-.52,1.38v10.75h-4.6v-17.84h4.6v2.3c1.99-2.32,4.53-3.26,7.57-2.5,2.32.58,4.46,3.12,4.46,5.54v12.5Z"/>
      <polygon fill="#FFFFFF" points="198.66 20.41 203.25 30.81 207.65 20.41 212.51 20.41 200.82 46.49 196.15 46.49 200.74 35.88 193.86 20.41 198.66 20.41"/>
      <path fill="#FFFFFF" d="M249.02,15.54v4.87h6.62v4.33h-6.62v7.37c0,.11.43,1.05.54,1.22,1.26,1.82,4.37.87,6.08.2l.81,3.78c-3.95,2.03-9.68,2.22-11.46-2.67-.24-.67-.58-1.99-.58-2.67v-7.23h-3.11v-4.33h3.11v-3.92l4.6-.95Z"/>
      <rect fill="#FFFFFF" x="234.01" y="20.41" width="4.46" height="17.84"/>
      <path fill="#FFFFFF" d="M234.19,16.71c-1.27-1.27-.88-3.62.76-4.35,2.44-1.08,5.04,1.06,3.91,3.64-.74,1.7-3.42,1.96-4.67.71Z"/>
      <path fill="#FFFFFF" d="M35.67.27l-3.72,2.81-3.72-2.81c2.49-.34,4.95-.37,7.44,0Z"/>
    </g>
  </g>
</svg>