<?xml version="1.0" encoding="UTF-8"?>
<svg id="Capa_2" data-name="Capa 2" xmlns="http://www.w3.org/2000/svg" viewBox="0 0 191.83 40.18">
  <defs>
    <style>
      .cls-1 {
        fill: #fff;
      }
    </style>
  </defs>
  <g id="Espalda">
    <g>
      <path fill="#FFFFFF" d="M87.74,10.89l16.84,15.87.12-15.87h4.03l.37.37v28.92h-4.27c-.9-1.91-.08-4.51-.24-6.58l-16.35-15.62c-.75-.06-.12.26-.12.36v21.84h-4.64V11.26l.37-.37h3.9Z"/>
      <polygon fill="#FFFFFF" points="4.27 10.89 20.99 26.76 20.99 11.26 21.35 10.89 25.26 10.89 25.63 11.26 25.63 40.18 20.99 40.18 20.99 33.71 5.13 18.33 4.39 17.97 4.39 40.18 0 40.18 0 10.89 4.27 10.89"/>
      <path fill="#FFFFFF" d="M125.69,40.18V15.53h-2.2v-4.64c4,.17,8.08-.21,12.09-.01,9.74.49,17.16,7.1,15.42,17.4-.89,5.3-6.88,11.9-12.51,11.9h-12.81ZM130.08,35.79h7.69c1.43,0,4.26-1.49,5.38-2.43,5.24-4.45,4.7-12.58-1.07-16.27-.69-.44-2.86-1.55-3.57-1.55h-8.42v20.26Z"/>
      <path fill="#FFFFFF" d="M191.83,40.18h-5l-10.98-22.7-10.98,22.7h-5l13.91-29.17c1.21-.09,3.88-.55,4.6.52l13.46,28.64Z"/>
      <path fill="#FFFFFF" d="M70.39,40.18h-5l-10.98-22.7-10.98,22.7h-5l13.91-29.17c1.21-.09,3.88-.55,4.6.52l13.46,28.64Z"/>
      <path fill="#FFFFFF" d="M63.88.21c7.8-1.33,8.97,9.87,2.08,10.86-7.36,1.06-8.67-9.74-2.08-10.86ZM63.77,6.92c1.46,1.47,4.11-.83,2.63-2.51s-4.33.8-2.63,2.51Z"/>
      <path fill="#FFFFFF" d="M40.37,9.81c-5.14-4.15.9-12.76,6.72-8.78,6.18,4.23-.56,13.75-6.72,8.78ZM43.62,3.85c-2.16.39-1.63,3.94.62,3.58,2.23-.35,1.65-3.99-.62-3.58Z"/>
    </g>
  </g>
</svg>