<?xml version="1.0" encoding="UTF-8"?>
<svg id="Capa_2" data-name="Capa 2" xmlns="http://www.w3.org/2000/svg" viewBox="0 0 152.68 29.41">
  <defs>
    <style>
      .cls-1 {
        fill: #fff;
      }
    </style>
  </defs>
  <g id="Espalda">
    <g>
      <path class="cls-1" d="M95.27.31l-14.96,24.12h14.96v4.89h-23.51l14.66-24.12h-21.99v24.12h-4.43l-.32-.3c.24-.52-.14-1.14-.14-1.38V5.19h-5.65l-.46-.46V.31h41.83Z"/>
      <path class="cls-1" d="M19.54,20.46V.31h4.89v29.01h-4.73c-.59,0-5.67-8.35-6.88-9.61-.22-.23-.37-.55-.75-.47l-7.33,10.08H0V.31h5.04l14.5,20.15ZM4.89,20.76l4.26-5.95c.02-.69-3.47-5.15-4.26-5.96v11.91Z"/>
      <path class="cls-1" d="M132.99.31l14.81,20.46V.31h4.89v28.55c-.98.75-4.35.71-5.22.02l-14.33-20.03v20l-.46.46h-4.43l-.31-29.01h5.04Z"/>
      <path class="cls-1" d="M51,.31v4.43l-.46.46h-14.5v7.02h12.06l.47.76c-.54,1.47-.19,2.66-.01,4.13h-12.52v7.33h14.96v4.43l-.46.46h-18.93l-.46-.46V.31h19.85Z"/>
      <path class="cls-1" d="M104.43,0c.04,5.85-.06,11.72.01,17.57.02,1.56-.48,2.7.47,4.39,1.76,3.15,8.02,3.34,10.36.94.35-.36,1.37-2.25,1.37-2.6V0h4.89v20.92c0,11.11-22.29,11.32-22.29-.61V0h5.19Z"/>
    </g>
  </g>
</svg>