<?xml version="1.0" encoding="UTF-8"?>
<svg id="Capa_2" data-name="Capa 2" xmlns="http://www.w3.org/2000/svg" viewBox="0 0 95.41 31.71">
  <defs>
    <style>
      .cls-1 {
        fill: #fff;
      }
    </style>
  </defs>
  <g id="Espalda">
    <g id="fa8bc464ec">
      <path fill="#FFFFFF" d="M28.12.53v30.66h-5.82L7.01,12.57v18.61H0V.53h5.87l15.24,18.61V.53h7.01Z"/>
      <path fill="#FFFFFF" d="M50.23,31.71c-3.18,0-6.05-.69-8.61-2.06-2.55-1.37-4.55-3.26-6-5.67-1.45-2.41-2.17-5.12-2.17-8.12s.72-5.72,2.17-8.12c1.44-2.41,3.44-4.3,6-5.67,2.55-1.37,5.42-2.06,8.61-2.06s6.04.69,8.58,2.06c2.54,1.37,4.54,3.26,6,5.67,1.46,2.41,2.19,5.12,2.19,8.12s-.73,5.72-2.19,8.12c-1.46,2.41-3.46,4.3-6,5.67-2.54,1.37-5.4,2.06-8.58,2.06ZM50.23,25.66c1.81,0,3.44-.42,4.9-1.25,1.46-.83,2.61-1.99,3.44-3.48.83-1.49,1.25-3.18,1.25-5.08s-.42-3.59-1.25-5.08c-.83-1.49-1.98-2.65-3.44-3.48-1.46-.83-3.09-1.25-4.9-1.25s-3.45.42-4.91,1.25c-1.46.83-2.61,1.99-3.44,3.48-.83,1.49-1.25,3.18-1.25,5.08s.42,3.59,1.25,5.08c.83,1.49,1.98,2.65,3.44,3.48,1.46.83,3.1,1.25,4.91,1.25Z"/>
      <path fill="#FFFFFF" d="M82.41,31.71c-2.42,0-4.77-.33-7.03-.99s-4.08-1.51-5.45-2.56l2.41-5.34c1.31.96,2.88,1.74,4.69,2.32,1.81.58,3.62.88,5.43.88,2.01,0,3.5-.3,4.47-.9.96-.6,1.45-1.39,1.45-2.39,0-.73-.28-1.34-.85-1.82-.57-.48-1.3-.87-2.19-1.16-.89-.29-2.09-.61-3.61-.96-2.34-.56-4.25-1.11-5.74-1.66-1.49-.55-2.77-1.44-3.83-2.67-1.07-1.23-1.6-2.86-1.6-4.91,0-1.78.48-3.39,1.45-4.84.96-1.44,2.42-2.59,4.36-3.44,1.94-.85,4.31-1.27,7.12-1.27,1.96,0,3.87.23,5.74.7,1.87.47,3.5,1.14,4.91,2.01l-2.19,5.39c-2.83-1.61-5.66-2.41-8.5-2.41-1.99,0-3.45.32-4.4.96-.95.64-1.42,1.49-1.42,2.54s.55,1.83,1.64,2.34c1.1.51,2.77,1.01,5.02,1.51,2.34.56,4.25,1.11,5.74,1.66,1.49.55,2.77,1.43,3.83,2.63,1.07,1.2,1.6,2.82,1.6,4.86,0,1.75-.49,3.35-1.47,4.8-.98,1.45-2.44,2.59-4.4,3.44-1.96.85-4.34,1.27-7.14,1.27Z"/>
    </g>
  </g>
</svg>