<?xml version="1.0" encoding="UTF-8"?>
<svg id="Capa_2" data-name="Capa 2" xmlns="http://www.w3.org/2000/svg" viewBox="0 0 210.1 44.47">
  <defs>
    <style>
      .cls-1 {
        fill: #fafafa;
      }
    </style>
  </defs>
  <g id="Espalda">
    <g>
      <g>
        <path fill="#FFFFFF" d="M209.23.29c.14.09.52,1.39.56,1.73,1.01,9.77-.81,21.26,0,31.22.16,2.16-2.91,1.92-4.46,1.74-2.23-.26-1.32-1.66-1.75-3.23-.51.41-.78,1-1.34,1.48-4.77,4.06-12.63,2.62-15.81-2.74-2.84-4.79-2.68-13.18.88-17.56,3.97-4.89,12.45-5.18,16.27,0V.96s.62-.67.67-.67c.74,0,4.76-.13,4.97,0ZM196,14.34c-4.94.7-5.81,7.02-4.97,11.02,1.49,7.1,11.09,6.81,12.5-.27,1.09-5.45-.84-11.69-7.52-10.75Z"/>
        <path fill="#FFFFFF" d="M163,24.22c.32,5.02,4.9,7.92,9.6,5.97,1.32-.55,2.95-3.01,3.17-3.01h5.24c-.77,6.06-7.2,8.81-12.76,8.33-15.9-1.36-14.77-27.68,2.38-26.31,4.93.4,8.87,3.39,10.51,8.04.39,1.1,1.43,6.98,0,6.98h-18.15ZM175.59,19.88c.6-.96-1.19-3.83-1.97-4.54-2.73-2.53-7.7-1.76-9.56,1.48-.82,1.43-1.59,3.11.67,3.37s7.04.18,9.43,0c.31-.02,1.31-.13,1.43-.32Z"/>
      </g>
      <g>
        <path fill="#FFFFFF" d="M69.99,24.22c.21,4.82,4.35,7.4,8.88,6.06,2.3-.68,2.2-2.11,3.29-3.02.55-.46,4.37-.51,5.11-.29,1.8.53-1.05,4.27-1.82,5.06-3.73,3.83-11.19,4.37-15.69,1.7-8.65-5.12-7.6-21.18,2.44-24.1,5.69-1.66,12.19.11,14.96,5.62.71,1.42,3.08,8.97.44,8.97h-17.61ZM70.66,19.92h11.56c1.19,0-.64-3.5-1.07-4.04-2.32-2.9-7.36-2.89-9.69,0-.58.72-2.15,3.66-.8,4.04Z"/>
        <path fill="#FFFFFF" d="M97.61,34.37c-.41.41-5.92.95-5.79-.67.35-7.19-.67-15.17-.07-22.26.11-1.27.13-1.59,1.48-1.74,3.04-.32,5.08-.51,4.44,3.23,4.76-5.89,15.33-5.24,16.64,3.11l-.11,18.12c-.4.83-5.24.83-5.65,0l-.25-16.14c-.52-4.6-7.23-4.59-9.4-1.31-2.2,3.31-.03,16.39-1.29,17.66Z"/>
      </g>
      <path fill="#FFFFFF" d="M136.12,23.41c.37-.15.59-1.15.72-1.56,2.16-6.63,3.6-13.55,5.93-20.14,2.33-3.06,6.97-1.75,7.51,2.01.9,8.67,3.84,18,4.61,26.57.2,2.26.34,4.72-2.55,4.93-2.13.15-3.16-1.26-3.53-3.14l-2.75-20.23c-.64-.2-.74.61-.93,1.08-2.35,6.01-3.45,13.44-5.72,19.56-1.2,3.24-4.01,3.82-5.96.97l-6.62-22.15c-1.43,6.1-1.82,12.46-2.86,18.65-.37,2.21-.29,4.98-3.09,5.27s-3.51-1.84-3.29-4.12c.78-8.41,3.58-17.27,4.34-25.77.51-2.49,1.01-5.1,4.1-5.32,4.17-.3,4.48,3.91,5.43,6.94,1.7,5.43,3.09,10.99,4.65,16.45Z"/>
      <g>
        <path fill="#FFFFFF" d="M5.58,6.86c10.18-11.62,30.73-7.87,28.35,9.93-1.09,8.16-7.21,16.34-15.5,18.11C-.35,38.9-5.05,18.98,5.58,6.86ZM15.62,6.01c-2.65.36-5.42,2.7-6.39,5.17-.76,1.94-.8,9.3-.51,11.54,1.2,9.15,15.89,9.88,16.91-1.59.64-7.13-.53-16.41-10.01-15.11Z"/>
        <path fill="#FFFFFF" d="M42.3,31.74v11.96c0,.8-6.63,1.61-6.16-1.1.62-9.95-.91-21.09-.04-30.9.1-1.08.27-1.86,1.48-2.02s4.01-.31,4.51.89c.27.64-.03,2.28.6,2.08.11-.03.98-1.31,1.51-1.73,2.9-2.3,7.53-2.36,10.82-.93,7.1,3.09,8.02,14.26,4.52,20.3-3.57,6.16-12.72,6.83-17.25,1.43ZM48.16,14.07c-9.11.71-7.68,19.22,2.79,15.98,6.11-1.89,6.44-16.7-2.79-15.98Z"/>
      </g>
    </g>
  </g>
</svg>