<?xml version="1.0" encoding="UTF-8"?>
<svg id="Capa_2" data-name="Capa 2" xmlns="http://www.w3.org/2000/svg" viewBox="0 0 236.36 42.86">
  <defs>
    <style>
      .cls-1 {
        fill: #fff;
      }
    </style>
  </defs>
  <g id="Espalda">
    <g>
      <rect fill="#FFFFFF" x="41.01" y="7.13" width="22.94" height="2.7" transform="translate(7.08 36.15) rotate(-40.54)"/>
      <rect fill="#FFFFFF" x="52" y="20.38" width="22.94" height="2.7" transform="translate(1.11 46.48) rotate(-40.55)"/>
      <rect fill="#FFFFFF" x="63.16" y="33.03" width="22.94" height="2.7" transform="translate(-4.44 56.75) rotate(-40.53)"/>
      <path fill="#FFFFFF" d="M14.33,2.66H.15v2.7h14.18c5.26,0,9.71,4.26,9.71,9.3s-4.44,9.3-9.71,9.3H0v13.69h2.7v-10.99h11.63c6.73,0,12.41-5.5,12.41-12.01S21.06,2.66,14.33,2.66Z"/>
      <path fill="#FFFFFF" d="M175.83,2.66h-14.18v2.7h14.18c5.26,0,9.71,4.26,9.71,9.3s-4.44,9.3-9.71,9.3h-14.33v13.69h2.7v-10.99h11.63c6.73,0,12.41-5.5,12.41-12.01s-5.68-12.01-12.41-12.01Z"/>
      <path fill="#FFFFFF" d="M117.57,2.52c-10.08,0-18.28,7.98-18.28,17.79s8.2,17.79,18.28,17.79,18.28-7.98,18.28-17.79S127.64,2.52,117.57,2.52ZM117.57,35.4c-8.59,0-15.57-6.77-15.57-15.09s6.99-15.09,15.57-15.09,15.57,6.77,15.57,15.09-6.99,15.09-15.57,15.09Z"/>
      <polygon fill="#FFFFFF" points="216.46 35.27 216.46 3 213.76 3 213.76 37.97 236.36 37.97 236.36 35.27 216.46 35.27"/>
    </g>
  </g>
</svg>