<?xml version="1.0" encoding="UTF-8"?>
<svg id="Capa_2" data-name="Capa 2" xmlns="http://www.w3.org/2000/svg" viewBox="0 0 211.39 42.08">
  <defs>
    <style>
      .cls-1 {
        fill: #fff;
      }
    </style>
  </defs>
  <g id="Espalda">
    <g>
      <path class="cls-1" d="M5.54,3.77C-1.43,9.71.45,18.58.38,26.77c-.04,4.42-.7,10.32-.2,14.61.02.18.08.61.28.61h4.46s.27-.25.27-.27v-15.23l2.12,1.54c11.98,7.68,27.63-3.59,23.24-17.35C27.17.09,13.98-3.41,5.54,3.77ZM26.4,15.71c-.67,10.65-15.19,13.62-20.09,4.05-3.16-6.17,1.1-13.97,7.93-14.78,6.32-.75,12.57,4.13,12.16,10.73Z"/>
      <path class="cls-1" d="M203.49,19.89c-8.74-15.94-32.04-8.22-29.48,8.63,2.01,13.24,19.34,17.58,27.52,7.07.71-.91,1.1-1.92,1.87-2.67l3.4,8.72c.2.15,4.02-1.5,4.54-1.76l.05-.24-7.9-19.73ZM199.08,30.1c-3.19,8.2-15.08,8.66-19.15.88-3.48-6.65,1.25-14.59,8.64-14.95,7.67-.36,13.37,6.73,10.51,14.07Z"/>
      <path class="cls-1" d="M73.16,14.05c-12.56-8.1-28.49,4.91-22.67,18.74,5.47,13,24.27,11.95,29.11-1.5.07-.19.48-1.06,0-1.06h-4.28c-.71.79-1,1.78-1.62,2.66-3.28,4.68-10,5.94-14.78,2.87-2.3-1.47-4.37-4.21-4.72-6.95h26.02v-3.47c0-3.94-3.85-9.2-7.07-11.28ZM54.21,24.35c.23-2.23,1.72-4.18,3.38-5.61,2.53-2.18,5.29-2.89,8.64-2.58,4.01.37,8.59,4.07,9,8.19h-21.03Z"/>
      <path class="cls-1" d="M142.66,21.28c-6.52,16.36,15.97,28.57,26.59,14.82.81-1.05,2.61-4.05,2.75-5.28.02-.22-.05-.58-.24-.58h-4.1c-.4,0-1.13,1.83-1.37,2.2-3.11,4.63-8.95,6.37-14.05,3.95-2.89-1.37-5.33-4.34-5.71-7.57h25.76c.36,0,.29-1.38.27-1.7-.61-17.42-23.8-21.17-29.91-5.83ZM146.54,24.35c-.01-1.37.73-2.65,1.53-3.73,3.54-4.76,9.85-5.95,14.93-2.83,2.19,1.34,4.29,3.98,4.58,6.56h-21.03Z"/>
      <path class="cls-1" d="M135.66,5.73v10.07c-.98-.42-1.79-1.31-2.7-1.85-10.55-6.27-24.14,1.35-23.51,13.7.62,12.28,15.25,18.72,24.95,11.2,2.52-1.95,5.9-6.69,5.9-9.96V5.47h-4.37s-.27.25-.27.27ZM125.06,37.55c-13.9.27-15-20.41-.85-21.33,14.6-.95,15.54,21.05.85,21.33Z"/>
      <path class="cls-1" d="M104.12,16.24c-5.27-4.93-13.69-4.84-18.88.2-1.5,1.46-3.76,5.37-3.76,7.46v18.08h4.46v-16.12c0-7.19,8.21-11.06,14.07-7.12,1.26.85,3.58,3.82,3.58,5.33v17.91h4.63v-17.73c0-2.59-2.23-6.28-4.1-8.02Z"/>
      <path class="cls-1" d="M50.28,13.31c-3.91-1.26-8.24-.83-11.68,1.42-3.8,2.48-5.87,6.08-6.14,10.61-.32,5.44.24,11.18,0,16.66h4.63v-17.02c0-5.01,5.44-8.17,10.05-7.73,1.09.1,2.09.62,3.14.69v-4.63Z"/>
    </g>
  </g>
</svg>