<?xml version="1.0" encoding="UTF-8"?>
<svg id="Capa_2" data-name="Capa 2" xmlns="http://www.w3.org/2000/svg" viewBox="0 0 121.45 53.55">
  <defs>
    <style>
      .cls-1 {
        fill: #fff;
      }
    </style>
  </defs>
  <g id="Espalda">
    <g id="Layer_2" data-name="Layer 2">
      <g id="Layer_1-2" data-name="Layer 1-2">
        <path class="cls-1" d="M22.82,37.73h-.12c-1.97,3.09-5.25,4.7-9.6,4.7-6.53,0-13.09-5.2-13.09-14.86,0-10.58,7.4-15.52,13.8-15.52,4.35,0,7.2,1.55,8.96,4.22h.12l.18-3.51h9.42c-.09,2.87-.19,5.68-.19,8.55v32.24h-9.48v-15.83ZM22.82,25.43c.01-.46-.03-.93-.12-1.38-.61-2.82-3.11-4.83-6-4.82-4.64,0-7.06,3.57-7.06,8.07s2.69,7.82,6.9,7.82c2.84.05,5.35-1.85,6.07-4.6.16-.65.23-1.31.23-1.97l-.03-3.11Z"/>
        <path class="cls-1" d="M49.8,4.6c0,2.51-1.88,4.6-5.1,4.6s-4.93-2.08-4.93-4.6,1.91-4.6,5.04-4.6,4.94,2.06,4.99,4.6ZM40.02,41.72V12.76h9.44v28.96h-9.44Z"/>
        <path class="cls-1" d="M57.26,22.2c0-3.76-.11-6.9-.24-9.44h7.89l.38,4.09h.21c2.05-3.16,5.62-4.99,9.38-4.8,3.65-.14,7.01,1.96,8.47,5.31h.12c1.06-1.52,2.43-2.8,4.03-3.74,1.8-1.08,3.88-1.62,5.98-1.57,5.65,0,10.5,3.85,10.5,13.07v16.61h-9.13v-15.28c0-4.5-1.68-6.9-4.78-6.9-2.07.02-3.9,1.35-4.56,3.31-.24.77-.35,1.56-.35,2.37v16.47h-9.1v-15.56c0-4.16-1.67-6.55-4.68-6.55-2.12.07-3.97,1.44-4.66,3.44-.26.74-.37,1.53-.35,2.32v16.39h-9.1v-19.52Z"/>
        <path class="cls-1" d="M121.45,4.6c0,2.51-1.88,4.6-5.1,4.6s-4.93-2.08-4.93-4.6,1.9-4.6,5.04-4.6,4.94,2.06,4.99,4.6ZM111.68,41.72V12.76h9.43v28.96h-9.43Z"/>
      </g>
    </g>
  </g>
</svg>