<?xml version="1.0" encoding="UTF-8"?>
<svg id="Capa_2" data-name="Capa 2" xmlns="http://www.w3.org/2000/svg" viewBox="0 0 177.73 77.72">
  <defs>
    <style>
      .cls-1 {
        fill: #fff;
      }
    </style>
  </defs>
  <g id="Espalda">
    <g>
      <path class="cls-1" d="M73.15,43.62C77.95,17.26,54.33-5.12,28.23,1.03,16.57,3.77,6.71,12.4,2.58,23.63h3.58C10.62,13.28,20.23,5.59,31.44,3.83,58.13-.35,78.83,26.82,67.1,51.33c-1.95,4.08-6.86,10.59-10.84,12.77-.11.06-.14.19-.34.13-1.65-9.42-6.06-18.48-13.57-24.55-10.64-8.59-24.94-11.85-38.48-11.21-.41.02-2.87.24-2.97.4-.31,2.32-.57,4.63-.73,6.97-.01.17-.14.31-.14.33-.03.58.02,1.17,0,1.75l.42,4.1c3.15,21.52,23.96,35.71,45.3,30.59,2.69-.64,5.25-1.69,7.75-2.85.16,2.61.33,5.21.41,7.82v.13h3.24v-.13c.16-1.41.09-3.19,0-4.65-.11-1.65-.33-3.33-.55-4.97,8.55-5.38,14.76-14.37,16.58-24.35ZM52.79,66.17c-.11.33-.68.36-.92.49l-20.42-14.01-14.01,7.73c4.65,5.47,10.81,8.32,17.78,9.63.25.05.53-.11.45.29-12.99-.59-24.67-8.68-29.63-20.64-2.39-5.75-2.99-11.77-2.23-17.94,1.38.08,2.74-.15,4.13-.14,3.67.02,7.55.45,11.16,1.13,11.57,2.16,22.97,8.15,28.6,18.84-1.06-1.48-3.46-4.39-4.86-5.46-.14-.1-.17-.26-.41-.2.32,4.04.48,8.13.7,12.19l9.56,6.97c.06.37.24.74.11,1.13Z"/>
      <path class="cls-1" d="M148.53,53.9c-8.39,1.58-10.55,12.77-4.11,18.01,4.77,3.88,13.22,2.38,15.59-3.5l-2.29-.95c-1.03,2.23-3.03,3.72-5.49,4.03-5.34.67-9.07-2.39-9.1-7.81h17.82c.27-6.95-5.87-11.02-12.43-9.79ZM143.55,61.4c1.79-7.05,12.97-7.01,14.58,0h-14.58Z"/>
      <path class="cls-1" d="M112.73,53.75c-7.01.68-10.97,8.78-7.74,14.94,4.24,8.06,16.95,6.63,18.88-2.32,1.56-7.21-3.77-13.33-11.14-12.62ZM117.98,70.46c-5.64,3.43-12.73-1.6-11.53-8.01.59-3.17,3.6-5.96,6.82-6.27,8.15-.78,11.65,10.07,4.71,14.28Z"/>
      <path class="cls-1" d="M78.57,53.75c-7.88.81-11.58,10.68-6.52,16.69,4.8,5.7,14.42,4.36,17.24-2.61,2.98-7.37-2.86-14.89-10.72-14.08ZM86.08,68.4c-3.19,4.39-9.71,4.1-12.67-.41-3.1-4.72.2-11.3,5.7-11.82,6.63-.63,10.87,6.85,6.97,12.23Z"/>
      <path class="cls-1" d="M177.71,67.54c-.23-2.73-2.09-3.94-4.36-4.95-2.16-.95-5.97-1.35-5.3-4.57.48-2.31,3.82-2.05,5.46-1.26.52.25,1.27,1.09,1.67.98.1-.03,1.55-1.31,1.57-1.42-2.84-4.01-11.15-3.36-11.33,2.32-.16,4.88,4.67,5.03,7.88,6.69,2.62,1.35,2.56,5.17-.32,5.99-2.86.82-5.38-.3-6.7-2.91-.12-.02-2,1.01-2.06,1.11-.28.48,1.52,2.45,1.94,2.81,4.25,3.57,12.06,1.47,11.54-4.78Z"/>
      <path class="cls-1" d="M98.11,38.87h-2.16s-.2.19-.2.2v34.6h2.57v-34.6s-.19-.2-.2-.2Z"/>
      <path class="cls-1" d="M133.16,54.6l-1.23,1.27v-1.89h-2.43v19.7h2.43v-13.42c0-1.12,1.42-3.24,2.47-3.73,1.63-.76,3.06.23,4.47.98.23-.66,1.57-1.67.94-2.29-1.38-1.35-5.13-2.03-6.66-.61Z"/>
      <path class="cls-1" d="M10.29,45.12c.69,4.96,2.78,9.68,5.79,13.66l13.77-7.36-19.71-13.76c-.19,2.51-.2,4.97.15,7.47Z"/>
      <path class="cls-1" d="M40.26,44.06c-.22-.3-2.53-1.69-3.02-1.97-3.63-2.09-7.63-3.49-11.7-4.43l-1.15,7.55,16.68,11.6-.54-11.8c-.06-.3-.08-.71-.26-.95Z"/>
      <path class="cls-1" d="M23.64,37.25c-1.98-.4-4-.58-6.01-.81l-5.74-.13,10.6,7.55,1.15-6.61Z"/>
    </g>
  </g>
</svg>