<?xml version="1.0" encoding="UTF-8"?>
<svg id="Capa_2" data-name="Capa 2" xmlns="http://www.w3.org/2000/svg" viewBox="0 0 257.86 27.72">
  <defs>
    <style>
      .cls-1 {
        fill: #fefefe;
      }

      .cls-2 {
        fill: #fdfdfd;
      }

      .cls-3 {
        fill: #fcfcfc;
      }
    </style>
  </defs>
  <g id="Espalda">
    <g>
      <path class="cls-1" d="M133.66,21.48c1.54,1.68,4.64.43,4.86-1.91.25-2.71-.42-6.34,0-8.9.17-.99.96-1.89,1.97-2.01,2.69-.32,4.33-.04,4.58,2.92.27,3.13.28,9.07,0,12.19-.29,3.23-2.76,3.41-5.51,3.15-1.45-.14-.91-.43-1.17-1.64-3.17,2.98-9.74,2.82-11.37-1.74-.38-1.05-.61-3.09-.69-4.23-.12-1.82-.2-8.58.7-9.84s4.67-1.23,5.49.14c.97,1.64.01,7.82.38,10.15.05.32.56,1.48.76,1.7Z"/>
      <path class="cls-1" d="M42.74,26.7c-.13-.13.2-1.18-.12-1.4-3.76,3.62-11.2,2.37-11.83-3.39-.4-3.65.29-7.97.01-11.7.26-.77.69-1.38,1.52-1.52,1.84-.29,4.52-.37,4.79,1.97.33,2.8-.51,6.89.1,9.5.65,2.81,4.29,2.58,5.41.23.53-3.05-.37-6.97.16-9.91.19-1.06.83-1.72,1.92-1.83,1.99-.19,4.1-.3,4.53,2.06.4,2.23.33,11.11.05,13.53-.08.66-.82,2.46-1.52,2.46s-4.86.18-5.03,0Z"/>
      <path class="cls-1" d="M119.07,19.56c.5,2.82,3.38,1.24,4.56,2.94.64.92.88,2.87.34,3.83-.51.88-3.06,1.28-4.06,1.32-4.8.22-7.05-2.27-7.4-6.91-.07-.93.22-5.98,0-6.2-.12-.12-1.69.09-2.3-1.09-.34-.67-.44-2.94-.14-3.59.53-1.16,2.2-1.18,2.35-1.39.55-.79-.69-2.55,1.05-3.64,1.11-.69,3.97-1.01,4.91-.01s.66,2.58.7,3.87c1.68,0,4.29-.48,4.67,1.77.62,3.68-1.41,4.44-4.67,4.08.19,1.52-.25,3.6,0,5.03Z"/>
      <path class="cls-1" d="M100.67,14.44c.98,1.62,5.99,1.11,7.44,4.84,3.05,7.89-7.96,9.52-13.24,6.68-2.72-1.46-.88-5,1.32-4.61.44.08,1.05.58,1.63.73,1.06.28,5.21,1.09,4.05-1.24-.34-.68-3.97-1.74-4.96-2.3-5.06-2.86-3.67-9.79,2.17-10.56,1.62-.21,7.17,0,8.03,1.53s-.11,3.58-1.96,3.57c-.47,0-1.03-.38-1.64-.44-1.25-.13-3.95-.05-2.83,1.79Z"/>
      <path class="cls-1" d="M209.69,8.67c.14.14-.33,1.37.35,1.17.43-.13.91-.75,1.36-.98,1.55-.77,4.98-1.67,6.12.06.67,1.01-.21,5.01-1.28,5.49-.9.41-2.9-.06-4.04.17-3.98.81-2.01,7.77-2.52,10.59-.16.88-.88,1.44-1.74,1.54-2.49.3-4.51.4-4.8-2.47-.2-1.96-.26-12.92.24-14.27.2-.53.71-1.18,1.29-1.29.45-.09,4.85-.19,5.03,0Z"/>
      <path class="cls-1" d="M174.03,8.72c1.58-.35,4.72-.36,4.93,1.76-.29,4.39.57,9.73.06,14-.1.87-.65,1.96-1.58,2.17-1.29.29-4.33.33-4.7-1.29l-.05-14.94c.02-.78.57-1.53,1.34-1.7Z"/>
      <circle class="cls-2" cx="175.78" cy="3.38" r="3.19"/>
      <circle class="cls-2" cx="222.03" cy="24.17" r="3.18"/>
      <path class="cls-1" d="M167.96,1.58c-.55-1.88-5.98-2.28-6.51.89-.34,2.06.25,4.98,0,7.14-5.49-3.58-11.92-.78-13.24,5.61-1.34,6.45,2.18,13.42,9.59,12.4,1.17-.16,3.55-1.86,3.76-1.86.11,0,.5,1.21,1.66,1.4,1.45.23,4.88.39,4.8-1.73l-.06-23.85ZM158.02,22.17c-4.53.14-4.72-8.35-.16-8.5,4.66-.16,5,8.35.16,8.5Z"/>
      <path class="cls-1" d="M75.05,11.13c-4.95,5.84-1.7,15.37,6.04,16.21,1.95.21,5.42-.26,6.96-1.57,1.21-1.04,1.25-3.2-.29-3.93-1.47-.7-2.1.22-3.48.39-2.15.26-4.03-.25-5.01-2.31h9.95c.07,0,1.05-.58,1.16-.71.34-.4.33-.79.37-1.27.84-9.15-9.87-13.7-15.7-6.81ZM84.89,15.93c-1.46-.26-4.24.35-5.5,0-1.09-.3.64-2.08,1.39-2.36,1.69-.62,4.61.24,4.11,2.36Z"/>
      <path class="cls-1" d="M199.16,14.17c-.53-6.18-7.31-7-12.23-5.66-1.8.49-4.1,1.33-3.36,3.69,1.25,3.95,8.38-2.16,9.26,3.03-3.55.31-9.32.01-10.55,4.32-2.02,7.07,5.69,10.14,10.43,5.75.31.22-.02,1.27.12,1.4.17.17,4.12,0,4.8,0,.64,0,1.45-1.32,1.53-1.98.29-2.44.22-8.04,0-10.55ZM192.78,20.92c-.51,2.27-4.51,1.88-4.4-.16.1-1.95,2.96-2.1,4.45-2.01-.05.7.1,1.49-.05,2.18Z"/>
      <g>
        <path class="cls-1" d="M24.47,21.66c-.04-.45,1.62-3.26,1.89-4.19C29.07,8.2,21.63-.94,12.02.08,1.5,1.2-3.74,13.8,3.05,22.02c4.66,5.64,12.15,6.35,18.27,2.58,1.46,1.17,4.88,4.85,6.08,1.39.69-1.98-2.83-3.36-2.93-4.33ZM22.92,16.13c-.14.53-.99,2.97-1.59,2.84-.75-.17-1.75-2.7-3.73-1.13-1.61,1.28-.15,2.96.79,4.06C9.83,26.92.06,17.53,4.94,8.69c1.3-2.36,4.13-4.51,6.83-4.88,7.2-.98,13.04,5.2,11.14,12.31Z"/>
        <path class="cls-3" d="M12.45,11.52c-.96.57-4.43,4.41-5.3,5.47-.22.26-.57.38-.47.82l8.28-2.6,5.76-6.29c-2.27.9-6.29,1.43-8.28,2.61ZM13.59,14.25c-.47,0-.86-.38-.86-.86s.38-.86.86-.86.86.38.86.86-.38.86-.86.86Z"/>
      </g>
      <path class="cls-1" d="M56.94,8.94c-8.7,4.96-5.18,19.26,5.55,18.43,2.2-.17,7.73-1.81,5.41-4.88-1.33-1.76-2.78-.45-4.23-.26-2.15.29-4.07-.24-5.01-2.32h9.95c.64,0,1.45-1.32,1.53-1.98.87-7.28-6.81-12.62-13.2-8.98ZM63.93,15.93c-1.1,0-4.38.22-5.15,0-.81-.23.01-1.39.37-1.73,1.64-1.54,4.43-.89,5.3,1.15-.01.13-.49.58-.52.58Z"/>
      <g>
        <path class="cls-1" d="M232.8.29c1.56-.35,4.42-.29,4.74,1.72l.02,22.47c-.08.78-.7,2.06-1.53,2.21-1.4.26-4.45.24-4.79-1.52V2.23c0-.82.78-1.76,1.57-1.94Z"/>
        <path class="cls-1" d="M257.58,12.87c-1.17-5.64-9.31-5.59-13.54-3.91-1.65.66-2.6,2.15-1.54,3.78,1.83,2.83,7.94-2.5,8.86,2.49-5.03.22-11.26.48-10.78,7.15.39,5.43,7.32,6.33,10.66,2.92.31.22-.02,1.27.12,1.4.17.17,4.12,0,4.8,0,.5,0,1.42-1.2,1.51-1.77.27-1.74.25-10.4-.09-12.06ZM251.35,20.72c-.39,2.73-4.99,2.17-4.15-.64.37-1.25,3.08-1.45,4.17-1.34-.04.65.08,1.34-.02,1.98Z"/>
      </g>
    </g>
  </g>
</svg>