<?xml version="1.0" encoding="UTF-8"?>
<svg id="Capa_2" data-name="Capa 2" xmlns="http://www.w3.org/2000/svg" viewBox="0 0 913.36 98.18">
  <defs>
    <style>
      .cls-1 {
        fill: #fefefe;
      }
    </style>
  </defs>
  <g id="Capa_1-2" data-name="Capa 1">
    <g>
      <path fill="#FFFFFF" d="M497.63,30.7c-3.59.42-6.41,3.6-6.99,7.11-1.51,9.04.88,21.92,0,31.51-.76,8.27-11.74,12.72-17.2,6.76-.72-.78-2.51-4.87-2.69-6.02-1.31-8.25,2.09-30.15-1.36-35.96-2.89-4.86-16.3-4.9-19.44-.49-3.17,4.44-2.88,28.41-2.46,34.84.26,4.05,1.1,11.26,2.43,14.99,5.79,16.18,29.06,16.72,40.28,6.17.91,4.27-.99,5.32,4.14,5.8,9.75.92,18.52.28,19.53-11.16.98-11.07.94-32.09,0-43.19-.89-10.48-6.68-11.47-16.22-10.35Z"/>
      <path fill="#FFFFFF" d="M158.39,30.67c-3.85.38-6.12,2.71-6.8,6.47-1.89,10.41,1.3,24.31-.57,35.1-3.99,8.34-16.88,9.13-19.18-.82-2.15-9.28.83-23.74-.34-33.67-.98-8.27-10.47-8.02-16.97-6.98-2.97.48-4.48,2.66-5.4,5.38.97,13.19-1.45,28.51-.05,41.43,2.21,20.42,28.56,24.84,41.89,12.02,1.11.79-.07,4.5.41,4.97.63.63,15.32,0,17.83,0s5.13-6.36,5.39-8.71c.97-8.54,1.24-40.01-.19-47.91-1.52-8.37-8.98-7.98-16.03-7.29Z"/>
      <path fill="#FFFFFF" d="M421.76,69.28c-.9-5.09.66-12.46,0-17.83,11.54,1.25,18.75-1.43,16.54-14.47-1.35-7.96-10.6-6.23-16.54-6.26-.13-4.57,1-10.04-2.47-13.7-3.34-3.52-13.46-2.41-17.4.05-6.16,3.85-1.74,10.09-3.71,12.88-.54.77-6.46.81-8.34,4.93-1.05,2.31-.71,10.38.51,12.73,2.17,4.2,7.72,3.44,8.15,3.87.77.79-.24,18.7,0,21.98,1.23,16.44,9.21,25.26,26.2,24.47,3.53-.17,12.58-1.56,14.38-4.69,1.95-3.39,1.06-10.31-1.19-13.56-4.17-6.02-14.37-.41-16.14-10.4Z"/>
      <path fill="#FFFFFF" d="M356.58,51.15c-3.97-6.53,5.61-6.79,10.03-6.34,2.14.22,4.14,1.54,5.79,1.56,6.56.04,10.06-7.15,6.96-12.65-3.07-5.45-22.7-6.17-28.45-5.42-20.66,2.73-25.6,27.26-7.67,37.39,3.51,1.98,16.37,5.75,17.56,8.15,4.09,8.27-10.61,5.4-14.36,4.4-2.03-.54-4.19-2.33-5.76-2.6-7.8-1.35-14.32,11.16-4.67,16.35,18.69,10.04,57.71,4.27,46.9-23.68-5.12-13.24-22.85-11.42-26.34-17.16Z"/>
      <path fill="#FFFFFF" d="M748.77,31.38c-1.61.81-3.32,3.02-4.83,3.47-2.38.7-.73-3.64-1.22-4.14-.63-.63-16.22-.28-17.82.02-2.06.39-3.86,2.67-4.56,4.56-1.76,4.79-1.54,43.6-.84,50.56,1.03,10.17,8.19,9.78,17,8.74,3.05-.36,5.59-2.32,6.16-5.45,1.82-9.97-5.14-34.64,8.94-37.5,4.05-.83,11.12.82,14.31-.62,3.78-1.7,6.88-15.86,4.53-19.43-4.03-6.11-16.2-2.95-21.68-.21Z"/>
      <path fill="#FFFFFF" d="M633.88,37.14c-.76-7.5-11.87-7.49-17.46-6.24-2.74.61-4.7,3.28-4.76,6.02l.19,52.92c1.3,5.73,12.09,5.58,16.65,4.56,3.28-.73,5.22-4.6,5.59-7.68,1.82-15.13-1.23-34.05-.22-49.58Z"/>
      <circle fill="#FFFFFF" cx="622.62" cy="11.96" r="11.3"/>
      <path fill="#FFFFFF" d="M786.45,74.38c-6.21,0-11.25,5.04-11.25,11.25s5.04,11.25,11.25,11.25,11.25-5.04,11.25-11.25-5.04-11.25-11.25-11.25Z"/>
      <path fill="#FFFFFF" d="M571.87,8.74c-1.21,7.31.9,17.63,0,25.3-19.45-12.69-42.21-2.75-46.9,19.86-4.74,22.86,7.74,47.53,33.98,43.93,4.15-.57,12.58-6.57,13.33-6.58.4,0,1.75,4.29,5.86,4.94,5.15.81,17.29,1.37,17.01-6.12l-.22-84.47c-1.94-6.66-21.19-8.08-23.05,3.15ZM559.72,78.54c-16.06.5-16.72-29.56-.57-30.11,16.5-.56,17.7,29.58.57,30.11Z"/>
      <path fill="#FFFFFF" d="M265.82,39.41c-17.53,20.7-6.04,54.43,21.4,57.43,6.92.76,19.21-.91,24.66-5.57,4.3-3.68,4.41-11.33-1.03-13.91-5.22-2.47-7.45.77-12.34,1.37-7.63.93-14.28-.88-17.74-8.2h35.25c.24,0,3.73-2.06,4.12-2.51,1.2-1.41,1.15-2.8,1.31-4.5,2.98-32.43-34.95-48.52-55.63-24.11ZM300.67,56.43c-5.15-.92-15,1.24-19.49,0-3.88-1.07,2.27-7.38,4.92-8.35,6-2.21,16.34.83,14.57,8.35Z"/>
      <path fill="#FFFFFF" d="M662.09,30.13c-6.39,1.75-14.53,4.72-11.89,13.08,4.41,13.97,29.68-7.66,32.8,10.73-12.58,1.1-33,.05-37.36,15.31-7.15,25.03,20.15,35.93,36.95,20.36,1.11.79-.07,4.5.41,4.97.6.6,14.59,0,17,0,2.25,0,5.13-4.67,5.41-7.03,1.01-8.65.77-28.47.01-37.37-1.88-21.88-25.9-24.81-43.33-20.05ZM682.83,74.09c-1.79,8.05-15.96,6.66-15.59-.58.35-6.9,10.5-7.43,15.77-7.13-.17,2.49.36,5.28-.18,7.71Z"/>
      <path fill="#FFFFFF" d="M86.67,76.71c-.16-1.58,5.73-11.54,6.7-14.86C102.97,29.05,76.6-3.34,42.57.28,5.3,4.24-13.26,48.89,10.8,78c16.51,19.98,43.05,22.5,64.72,9.13,5.16,4.13,17.27,17.18,21.53,4.91,2.44-7.03-10.04-11.9-10.38-15.33ZM81.17,57.12c-.5,1.88-3.52,10.53-5.62,10.06-2.67-.6-6.2-9.57-13.2-4-5.7,4.54-.53,10.48,2.79,14.38C34.82,95.34.2,62.11,17.51,30.79c4.61-8.34,14.64-15.96,24.2-17.27,25.5-3.49,46.19,18.42,39.46,43.6Z"/>
      <path fill="#FFFFFF" d="M25.32,60.16c-.77.93-2.01,1.34-1.65,2.9l29.34-9.22,20.42-22.28c-8.04,3.17-22.28,5.07-29.32,9.23-3.39,2.01-15.7,15.63-18.78,19.37ZM48.13,44.38c1.68,0,3.04,1.36,3.04,3.04s-1.36,3.04-3.04,3.04-3.04-1.36-3.04-3.04,1.36-3.04,3.04-3.04Z"/>
      <path fill="#FFFFFF" d="M201.69,31.68c-30.8,17.56-18.35,68.21,19.67,65.28,7.78-.6,27.38-6.42,19.16-17.29-4.72-6.25-9.84-1.61-14.98-.92-7.62,1.03-14.42-.84-17.76-8.22h35.25c2.26,0,5.13-4.67,5.41-7.03,3.07-25.79-24.12-44.71-46.75-31.82ZM226.44,56.43c-3.9,0-15.53.79-18.25,0-2.87-.83.04-4.93,1.33-6.14,5.79-5.45,15.7-3.16,18.78,4.07-.04.45-1.72,2.06-1.86,2.06Z"/>
      <path fill="#FFFFFF" d="M824.58,1.04c-2.78.62-5.56,3.95-5.58,6.86l.04,81.28c1.2,6.25,12.01,6.32,16.96,5.39,2.94-.55,5.14-5.08,5.43-7.84l-.07-79.59c-1.12-7.12-11.24-7.33-16.78-6.09Z"/>
      <path fill="#FFFFFF" d="M912.37,45.6c-4.15-19.97-32.98-19.81-47.96-13.86-5.84,2.32-9.19,7.61-5.46,13.39,6.47,10.03,28.13-8.86,31.4,8.81-17.82.77-39.88,1.69-38.17,25.33,1.39,19.22,25.92,22.41,37.77,10.34,1.11.79-.06,4.5.41,4.97.6.6,14.59,0,17,0,1.77,0,5.02-4.24,5.34-6.27.97-6.18.9-36.83-.32-42.71ZM890.29,73.38c-1.39,9.65-17.68,7.69-14.7-2.26,1.33-4.44,10.91-5.13,14.76-4.74-.14,2.29.27,4.74-.06,7Z"/>
    </g>
  </g>
</svg>