<?xml version="1.0" encoding="UTF-8"?>
<svg id="Capa_2" data-name="Capa 2" xmlns="http://www.w3.org/2000/svg" viewBox="0 0 131.42 42.5">
  <defs>
    <style>
      .cls-1 {
        fill: #f9f9fa;
      }
    </style>
  </defs>
  <g id="Espalda">
    <g>
      <path class="cls-1" d="M57.48,10.02v14.17c0,.37.7,2.49.92,2.99,2.1,4.76,9.77,4.44,11.62-.56.16-.42.82-2.84.82-3.09v-13.03s.45-.49.49-.49h8.96v25.73h-9.45c-.13,0,.1-2.24,0-2.61-5.46,4.63-16.61,5.58-20.57-1.41-.99-1.75-2.23-5.59-2.23-7.55v-14.17h9.45Z"/>
      <path class="cls-1" d="M131.42,10.02l-10.75,12.89.5,1.43c2.63,3.15,5.82,6.02,8.46,9.13.51.61,1.31,1.5,1.46,2.28h-10.26c-.8,0-6.43-7.8-8.14-7.8-1.6,0-6.46,6.44-7.82,7.8h-10.91c.17-.49.48-.91.81-1.31,2.59-3.2,6.94-6.61,9.29-9.93.37-.52.69-.9.65-1.61l-10.75-12.89h10.59c.5,0,5.78,6.52,6.66,7.34,1.66,1.31,2.35.62,3.61-.66.83-.84,5.57-6.69,6.02-6.69h10.59Z"/>
      <path class="cls-1" d="M92.66,35.75h-9.45v-18.4c0-.44,1.2-2.24,1.64-2.59,1.36-1.08,3.97-1.16,5.5-.31.56.31,2.31,2.4,2.31,2.9v18.4Z"/>
      <circle class="cls-1" cx="87.88" cy="4.74" r="4.74"/>
      <path class="cls-1" d="M33.09,35.14c-.27.38.24,1.67.21,2.32-.24,4.47-5.53,6.75-8.89,3.52-1.11-1.07-1.32-3.09-1.78-3.43-.89-.64-3.2-.36-4.31-.57C-8.06,32.01-4.83,1.99,20.82.24c22.31-1.53,35.8,22.83,13.61,34.46-.34.18-1.26.34-1.34.45ZM23.31,36.7c2.11.09,4.05.2,6.06-.56,3.73-1.41,1.38-3.2,1.12-6.13-.59-6.67,5.37-9.9,1.11-17.4C25.2,1.36,6.66,9.64,12.15,22.62c2.19,5.19,6.59,5.02,9.31,9.25.94,1.46,1.61,3.1,1.85,4.83Z"/>
    </g>
  </g>
</svg>