<?xml version="1.0" encoding="UTF-8"?>
<svg id="Capa_2" data-name="Capa 2" xmlns="http://www.w3.org/2000/svg" viewBox="0 0 331 56.39">
  <defs>
    <style>
      .cls-1 {
        fill: #fff;
      }
    </style>
  </defs>
  <g id="Espalda">
    <g>
      <g>
        <path fill="#FFFFFF" d="M95.72,13.37s0,8.06,0,8.06c.51-.35,1.01-.74,1.53-1.06,1.52-.93,3.96-.59,5.42.31,1.33.82,2.23,2.19,2.76,3.64,1.03,2.81.91,6.2-.32,8.94-1.77,3.94-6.8,4.81-9.73,1.62-.07.55.21,1.28-.25,1.68h-3.95V13.37h4.54ZM100.55,24.33c-.19-.2-.41-.38-.67-.53-1.3-.75-3.7-.37-4.12,1.27-.16.61-.16,5.8-.03,6.5.31,1.72,3.71,2.06,4.79.94.89-.92,1.05-2.48,1.1-3.69.05-1.47,0-3.36-1.07-4.49Z"/>
        <path fill="#FFFFFF" d="M108.33,25.12c-.17-1.78,1.12-3.35,2.6-4.2,2.68-1.55,7.7-1.46,9.79,1.07,2.18,2.63.83,9.42,1.23,12.79.07.62.53,1.11.51,1.76h-4.29l-.51-1.34c-.33,0-1.79,1.32-2.56,1.48-1.85.38-4.24-.04-5.68-1.31-2.38-2.1-1.93-6.2.81-7.75.59-.34,3.13-1.14,3.73-1.14h3.45c.07-2.4-.57-3.5-3.12-3.19-.88.1-1.67.93-1.59,1.85h-4.37ZM117.41,29.15c-.01-.16-1.85-.07-2.02-.06-.86.03-1.72.24-2.35.87-1.17,1.17-.74,3.09.96,3.35.68.1,1.42-.04,2.05-.3.41-.17.8-.43,1.05-.8.36-.52.32-1.06.3-1.65-.01-.47.04-.94,0-1.41Z"/>
        <path fill="#FFFFFF" d="M132.72,25.12c-.09-.09.32-1.62.42-1.85,1.82-4.13,9.68-4.5,12.27-1,1.63,2.2.71,8.43.93,11.33.06.79.26,1.87.65,2.54l-.23.39h-4.2l-.5-1.51c-1.65,2.17-5.24,2.15-7.44.89-3.07-1.76-2.82-6.65.25-8.4.5-.28,2.99-1.05,3.49-1.05h3.45c-.04-1.1.29-2-.67-2.77-1.17-.95-4.11-.57-3.87,1.43h-4.54ZM141.8,29.15h-2.61c-.67,0-1.64.61-2.01,1.18-1.14,1.77.24,3.2,2.18,3.01.48-.05,2.44-.8,2.44-1.26v-2.94Z"/>
        <path fill="#FFFFFF" d="M283.74,36.54h-4.12l-.67-1.51c-.24.42-.63.72-1.04.98-2.46,1.55-7.05.7-8.2-2.17-1.09-2.73.26-5.91,3.09-6.79.26-.08,2.32-.58,2.44-.58h3.62c.06-.97-.04-1.84-.68-2.6-1.03-1.21-4.23-.83-4.03,1.25h-4.54c0-.46.11-.91.25-1.34,1.48-4.57,10-5.33,12.53-1.26,1.6,2.58.58,8.09.83,11.26.08,1,.56,1.79.51,2.76ZM278.86,29.15h-2.77c-1.24,0-2.32,1.2-2.28,2.43.08,2.2,2.81,2.09,4.2,1.17.19-.13.85-.84.85-1v-2.6Z"/>
        <path fill="#FFFFFF" d="M88.82,29.82h-10.26c.3,3.81,5.62,4.43,7.58,1.69h.23s2.28,2.25,2.28,2.25c-.77.92-1.66,1.76-2.76,2.28-1.87.87-4.75.94-6.69.28-8.69-2.94-6.32-18.58,4.82-16.23,2.44.51,4.8,3.86,4.8,6.29v3.44ZM84.45,26.8c.35-4.63-5.65-4.28-5.89,0h5.89Z"/>
        <path fill="#FFFFFF" d="M229.59,29.82c.56,2.86,2.85,3.88,5.59,3.14,1.11-.3,1.5-.95,2.4-1.47l2.11,2.27c-1.77,2.64-4.98,3.24-8,2.95-1.66-.16-3.32-1.02-4.46-2.22-3.06-3.21-2.86-9.5.27-12.59.05-.05.1-.1.16-.15,2.76-2.55,8-2.56,10.52.3.63.72,1.85,3.42,1.85,4.32v3.44h-10.43ZM235.64,26.8c.21-4.53-5.78-4.36-5.89,0h5.89Z"/>
        <path fill="#FFFFFF" d="M256.33,36.54h-4.37v-11.17c0-2.42-4.29-2.37-5.21-.5v11.67h-4.29l-.25-.25v-15.95l.25-.25h3.95l.25,1.85c1.8-2.56,7.03-2.84,8.74-.16.23.36.93,2.28.93,2.6v12.17Z"/>
        <path fill="#FFFFFF" d="M212.77,20.08v9.75c0,.66-.15,1.59.21,2.16.51.79,1.41,1.21,2.33,1.23,1.11.02,1.93-.33,2.56-1.23.07-.1.19-.15.22-.27.05-.16-.03-.49-.02-.67.1-2.82.07-5.64.07-8.46v-2.51h4.37v16.46h-4.2v-1.68c0,.23-.69.7-.86.82-.34.25-.72.46-1.11.62-.82.34-1.7.5-2.59.5-1.27,0-2.61-.35-3.6-1.17-1.97-1.63-1.75-4.12-1.75-6.41v-9.13s4.37,0,4.37,0Z"/>
        <path fill="#FFFFFF" d="M289.96,31.16c-.27,2.26,2.58,3.03,4.36,2.25,1.1-.48,1.43-1.95.3-2.62-1.42-.84-3.58-.92-5.16-1.56-1.16-.47-2.98-1.88-3.19-3.2-.57-3.64,2.24-5.92,5.63-6.12,3.62-.21,7.48,1.04,7.65,5.2h-4.54c.37-2.02-2.14-2.35-3.57-1.8-.85.33-1.29,1.51-.75,2.25.72.99,4.84,1.36,6.16,1.99.49.24,1.95,1.4,2.19,1.88,1.05,2.08.55,4.8-1.45,6.06-4.1,2.57-11.66,1.37-11.99-4.34h4.37Z"/>
        <path fill="#FFFFFF" d="M206.04,30.83c.18,1.14-.34,2.37-.96,3.32-2.2,3.36-8.74,3.45-11.31.46-2.36-2.74-2.62-7.38-1.22-10.61,2.77-6.4,13.84-5.19,13.49,2.3h-4.04c-.19-1.8-1.32-3.08-3.24-2.82-2.89.41-2.97,5.12-2.36,7.32.43,1.54,1.09,2.4,2.83,2.4,1.57,0,2.55-.8,2.77-2.36h4.04Z"/>
        <path fill="#FFFFFF" d="M264.91,16.22v3.86h2.86v3.36h-2.86v8.82s.51.69.62.73c.54.19,1.62-.08,2.24.03v3.27c-1.54.75-4.31.68-5.71-.35-.67-.49-1.69-2.22-1.69-3.01v-9.49h-2.35v-3.36h2.35v-3.86h4.54Z"/>
        <path fill="#FFFFFF" d="M121.95,42.92v-3.69c.79.17,2.52.31,3.01-.44.06-.08.35-.94.35-.99v-17.71h4.29l.25.25v17.29c0,.73-.66,2.82-1.1,3.43-.37.51-2.12,1.86-2.68,1.86h-4.12Z"/>
        <path fill="#FFFFFF" d="M162.82,20.08v11.67c0,.1.67,1.64.76,1.75,1.07,1.31,3.85.99,5.16.17.14-.09,1.31-1.49,1.31-1.59v-12.01h2.86v16.46h-2.69v-1.51c-.11-.13-1.13.77-1.37.9-3.72,2.12-8.89.42-8.89-4.34v-11.5h2.86Z"/>
        <path fill="#FFFFFF" d="M189.22,25.12h-3.03c.48-3.55-6.59-3.95-6.4-.43.03.57.35,1.23.86,1.5,1.89,1.04,4.56.93,6.6,2.14,2.98,1.76,2.78,5.85-.17,7.5-3.89,2.17-10.7.68-10.82-4.5h2.77c.38.34.28.94.47,1.38.71,1.67,3.17,1.84,4.75,1.64,2.17-.26,3.08-3.06,1.21-4.08-2.04-1.12-4.7-.97-6.66-2.24-3.55-2.28-1.77-6.91,1.82-7.88s8.57.51,8.59,4.97Z"/>
        <path fill="#FFFFFF" d="M67.8,20.08l.17,1.85c-.02-.18.64-.83.77-.96,1.1-1.09,2.87-1.32,4.29-.79l-.18,4.27c-1.54-.37-3.55-.37-4.57,1.04-.26.37-.14,1.13-.14,1.57v6.82c0,.15,0,2.65,0,2.65h-4.37v-16.46h4.04Z"/>
        <path fill="#FFFFFF" d="M153.91,20.08h3.03v2.35h-3.03v10.66c0,1.43,2.03,1.46,3.03,1.09v2.35c-1.7.3-3.99.54-5.15-1.07-.11-.15-.74-1.44-.74-1.53v-11.5h-3.03v-2.35h3.03v-3.86h2.61l.25.25v3.61Z"/>
        <path fill="#FFFFFF" d="M320.24,28.81h1.35s0,.84,0,.84c1.25-1.09,3.71-1.43,4.46.33.77-1.33,3.34-1.68,4.38-.51.2.22.58,1.04.58,1.27v5.79h-1.35v-5.12c0-1.27-1.11-1.72-2.24-1.39-.15.04-.96.82-.96.89v5.62h-1.35v-4.95c0-.4-.61-1.5-1.1-1.59-.34-.07-1.11-.04-1.44.07-.22.07-.83.76-.83.85v5.62h-1.51v-7.72Z"/>
        <path fill="#FFFFFF" d="M317.78,29.93c1.04,1.16,1.29,2.71.86,4.26-1.07,3.89-6.97,3.29-6.82-1.6.08-2.56,1.7-4.14,4.31-3.78.74.1,1.21.63,1.65,1.12ZM314.08,35.12c3.84,2.73,4.8-6.46.38-5.1-.8.24-1.37,2.27-1.28,3.06.06.57.43,1.7.9,2.04Z"/>
        <path fill="#FFFFFF" d="M310.82,31.67l-1.33-.02c-.08-1.39-1.45-2.09-2.71-1.57-1.33.55-1.89,5.8,1.26,5.46,1.29-.14,1.27-1.35,1.71-1.49.41-.14,1.2-.08,1.04.53-.21.81-1.6,1.99-2.42,2.13-2.73.47-4.3-1.9-4.09-4.42.35-4.32,5.9-4.92,6.54-.61Z"/>
        <path fill="#FFFFFF" d="M129.29,17.67c-.66.62-1.68.67-2.55.57-2.39-.29-2.41-4.43.52-4.52,2.23-.07,3.7,2.38,2.03,3.96Z"/>
        <path fill="#FFFFFF" d="M302.79,35.69c0-.56-.45-1.01-1.01-1.01s-1.01.45-1.01,1.01c0,.48.34.89.8.98.11.03.23.03.35,0,.49-.07.86-.49.86-.99Z"/>
      </g>
      <g>
        <path fill="#FFFFFF" d="M27.28,0l.48,2.79c10.89.4,20.62,7.59,24.26,17.81,5.73,16.06-4.78,33.12-21.45,35.54l-2.26.25h-3.03l-2.26-.25C11.32,54.5,1.89,45.06.25,33.37l-.25-2.34V8.85h7.5s0,21.66,0,21.66c.79,15.02,17.83,23.67,30.37,14.89,13.61-9.54,9.63-30.17-6.34-34.53-.52-.14-1.57-.48-2.05-.5-.2-.01-.13.21-.12.36.07.77.24,1.57.38,2.33.02.11.03.13-.1.1l-13.68-5.34L27.2,0h.08Z"/>
        <path fill="#FFFFFF" d="M22.89,42.19c-2.83-.87-5.37-3.15-6.71-5.77-.14-.26-.78-1.75-.78-1.93v-15.43h7.38l.12.12v23.01Z"/>
        <path fill="#FFFFFF" d="M38.2,29.11v5.46c0,.08-.54,1.34-.62,1.53-1.32,2.78-3.92,5.18-6.87,6.09v-13.08h7.5Z"/>
      </g>
    </g>
  </g>
</svg>