<?xml version="1.0" encoding="UTF-8"?>
<svg id="Capa_2" data-name="Capa 2" xmlns="http://www.w3.org/2000/svg" viewBox="0 0 126.04 55.45">
  <defs>
    <style>
      .cls-1 {
        fill: #fff;
      }
    </style>
  </defs>
  <g id="Espalda">
    <g>
      <path class="cls-1" d="M7.61,18.09l3.22-2.26c3.47-2.11,9.17-.41,7.14,4.35-1.09,2.57-4.28,1.89-6.4,2.89-6.23,2.96-2.75,13.63-3.86,19-.81,3.95-7.17,3.7-7.7-.68v-23.38c.6-4.43,7.3-4.44,7.6.08Z"/>
      <path class="cls-1" d="M82.51,18.09l3.22-2.26c3.47-2.11,9.17-.41,7.14,4.35-1.09,2.57-4.28,1.89-6.4,2.89-6.23,2.96-2.75,13.63-3.86,19-.81,3.95-7.17,3.7-7.7-.68v-23.38c.6-4.43,7.3-4.44,7.6.08Z"/>
      <path class="cls-1" d="M25.4,14.78c2.55-.52,4.74.76,5.07,3.4l-.02,23.4c-.91,4.34-6.99,4.46-7.79.02l.02-23.78c.18-1.3,1.43-2.78,2.72-3.04Z"/>
      <path class="cls-1" d="M25.4.1c7.04-1.2,8.13,8.5,1.95,9.39-6.68.95-7.65-8.41-1.95-9.39Z"/>
      <path class="cls-1" d="M59.46,18.27c-3.32-3.53-8.41-4.31-12.96-3.02-11.16,3.14-13.07,19.45-4.69,26.54,4.83,4.09,12.89,4.34,17.47-.28v10.87c0,.12.53,1.19.66,1.38,2,2.91,6.51,1.84,7.13-1.58l.02-34c-.42-4.73-7.34-4.57-7.63.1ZM53.74,37.56c-2.35.51-5.13-.15-6.86-1.88-4.3-4.3-2.28-13.1,4.14-13.85,10.01-1.17,11.14,13.91,2.72,15.73Z"/>
      <path class="cls-1" d="M125.62,17.45c-1.08-4.04-7.18-3.51-7.42.64-.22.23-1-.76-1.21-.92-4.11-3.14-10.2-3.24-14.64-.71-10.23,5.83-9.22,23.76,2.19,27.66,4.56,1.56,9.93.92,13.39-2.6,1.11,4.8,7.46,4.48,7.91-.64.64-7.39-.33-15.96-.2-23.41ZM109.04,37.56c-8.02-1.76-7.48-14.6.56-15.7,11.58-1.59,10.97,18.23-.56,15.7Z"/>
    </g>
  </g>
</svg>