<?xml version="1.0" encoding="UTF-8"?>
<svg id="Capa_2" data-name="Capa 2" xmlns="http://www.w3.org/2000/svg" viewBox="0 0 295.25 41.55">
  <defs>
    <style>
      .cls-1 {
        fill: #fff;
      }
    </style>
  </defs>
  <g id="Espalda">
    <g>
      <g>
        <path class="cls-1" d="M44.16,20.95l-1.28-4.22c-.17-.57-.91-.7-1.27-.22-1.38,1.84-4.51,3.98-8.53,2.51,2.62-4.79,3.22-9.8,1.39-13.58-2.08-4.44-8.33-8.46-14.37-2.26-.02.02-.03.04-.05.06-4.05,4.65-2.67,12.58,3.02,18.16-.2.18-.41.36-.62.54-.46.39-.93.74-1.41,1.08-5.56-7.98-10.68-9.51-15.4-7.76-3.14,1.12-8.9,7.36-3.28,14.04,3.19,3.8,8.98,4.62,14.99,2.71h0c.55,3.09.16,6.02-.97,8.21-.32.62.16,1.36.86,1.33l3.82-.15c.82-.03,1.56-.52,1.92-1.26,1.44-2.97,1.67-6.96.58-11.08h0c2.51-1.57,4.27-3.32,4.85-3.9,5.21,2.48,12.23,2.46,15.53-2.65.3-.46.39-1.03.23-1.56ZM8.52,25.77c-2.61-1.04-1.68-3.18-1.68-3.18,0,0,.64-2.03,3.49-.92,2.85,1.12,4.65,4.15,4.65,4.15-2.1.64-4.66.67-6.46-.05ZM27.17,16.12s-2.61-1.99-3.16-4.78c-.55-2.79.27-4.49,2.14-4.71,1.6-.19,2.19,1.42,2.3,1.86.12.44,1,3.29-1.28,7.63Z"/>
        <g>
          <path class="cls-1" d="M63.14,18.49c-2.82-.78-4.35-1.43-4.35-2.59,0-.73.59-1.58,2.25-1.58s3.46,1.43,4.76,3.82l.06.12,4.52-2.22-.06-.12c-1.96-3.9-5.52-6.22-9.52-6.22-5.9,0-7.99,3.36-7.99,6.25s1.79,4.71,6.17,5.97c3.76,1,5.44,2.01,5.44,3.29,0,1.2-.87,1.89-2.39,1.89-2.29,0-4.23-1.73-5.59-5.01l-.05-.12-4.59,1.85.04.12c1.53,4.88,5.52,7.8,10.65,7.8,4.67,0,7.92-2.74,7.92-6.67,0-4.22-3.58-5.55-7.26-6.55Z"/>
          <rect class="cls-1" x="73.2" y="10.39" width="5.68" height="20.74"/>
          <path class="cls-1" d="M75.94.06c-1.81,0-3.29,1.61-3.29,3.59s1.48,3.59,3.29,3.59,3.25-1.64,3.25-3.59S77.7.06,75.94.06Z"/>
          <path class="cls-1" d="M126.47,23.14c-.21,1.48-1.6,3.08-4.19,3.08-2.73,0-4.49-1.9-4.49-4.83v-.29h14.32v-.14c0-7.32-3.48-11.19-10.06-11.19-6.09,0-10.02,4.41-10.02,11.23s3.87,10.63,10.1,10.63,9.91-4.36,9.98-8.47v-.14s-5.63,0-5.63,0l-.02.12ZM118.02,18.58c.58-2.16,2.16-3.4,4.38-3.4s3.71,1.2,4.23,3.4h-8.61Z"/>
          <polygon class="cls-1" points="168.98 10.39 165.87 20.12 164.4 25.48 162.83 20.11 159.67 10.48 159.64 10.39 153.98 10.39 160.84 31.13 167.85 31.13 174.72 10.39 168.98 10.39"/>
          <path class="cls-1" d="M185.16,9.77c-6.2,0-10.37,4.39-10.37,10.93s4.17,10.93,10.37,10.93,10.41-4.39,10.41-10.93-4.18-10.93-10.41-10.93ZM185.16,15.22c2.78,0,4.65,2.2,4.65,5.48s-1.87,5.43-4.65,5.43-4.61-2.18-4.61-5.43,1.85-5.48,4.61-5.48Z"/>
          <rect class="cls-1" x="198.4" y="2.44" width="5.68" height="28.68"/>
          <path class="cls-1" d="M218.16,25.93c-1.92,0-2.9-.93-2.9-2.76v-7.9h5.22v-4.89h-5.22v-6.13h-5.68v6.13h-3.93v4.89h3.93v8.84c0,5.02,2.28,7.56,6.79,7.56,1.56,0,3.2-.39,4.08-.97l.06-.04v-5.2l-.19.07c-.71.28-1.3.38-2.17.38Z"/>
          <path class="cls-1" d="M275.27,24.33v-5.22c0-6.37-2.81-9.33-8.86-9.33-5.54,0-9.13,3.12-9.13,7.95v.14h5.41v-.14c0-1.78,1.46-3.02,3.56-3.02,2.93,0,3.31,2.53,3.33,3.71l-6.49.59c-4.32.38-6.51,2.58-6.51,6.53s2.42,6.1,6.48,6.1c3.63,0,6.05-1.99,6.6-5.3.13,1.88.43,3.41.9,4.65l.03.09h5.71l-.08-.19c-.7-1.73-.96-3.51-.96-6.55ZM269.58,21.55v.19c0,2.8-2.31,4.53-4.46,4.53-1.25,0-2.74-.36-2.74-2.06,0-1.2.52-1.83,3.46-2.2l3.74-.46Z"/>
          <path class="cls-1" d="M288,18.49c-2.82-.78-4.35-1.43-4.35-2.59,0-.73.59-1.58,2.25-1.58s3.46,1.43,4.76,3.82l.06.12,4.52-2.22-.06-.12c-1.96-3.9-5.52-6.22-9.52-6.22-5.9,0-7.99,3.36-7.99,6.25s1.79,4.71,6.17,5.97c3.76,1,5.44,2.01,5.44,3.29,0,1.2-.87,1.89-2.39,1.89-2.29,0-4.23-1.73-5.59-5.01l-.05-.12-4.59,1.85.04.12c1.53,4.88,5.52,7.8,10.65,7.8,4.67,0,7.92-2.74,7.92-6.67,0-4.22-3.58-5.55-7.26-6.55Z"/>
          <path class="cls-1" d="M95.25,9.83c-3.33,0-5.6,1.87-6.36,5.1h-.28v-4.54h-5.68v20.74h5.68v-11.41c0-2.5,1.66-4.31,3.95-4.31,2.75,0,3.33,2.44,3.33,4.48v11.23h5.68v-12.7c0-5.71-2.13-8.6-6.32-8.6ZM88.61,17.08h0s0,.03,0,.05v-.05Z"/>
          <path class="cls-1" d="M146.63,9.83c-3.34,0-5.61,1.88-6.36,5.14v-.03h-.27v-4.54h-5.68v20.74h5.68v-11.41c0-2.5,1.66-4.31,3.95-4.31,2.75,0,3.33,2.44,3.33,4.48v11.23h5.68v-12.7c0-5.71-2.13-8.6-6.33-8.6ZM139.99,17.08h0s0,.03,0,.05v-.05Z"/>
          <path class="cls-1" d="M256.1,9.83c-3.4,0-5.36,1.6-6.12,5.1h-.24v-4.54h-5.68v20.74h5.68v-9.94c0-3.52,1.46-4.83,5.39-4.83h1.11v-6.53h-.14Z"/>
          <path class="cls-1" d="M234.4,10.39v11.41c0,2.96-2.05,4.31-3.95,4.31s-2.78-1.27-2.78-3.88v-11.84h-5.68v13.56c0,6.39,3.29,7.74,6.05,7.74,3.38,0,5.57-2.01,6.19-5.58h.17v5.02h5.68V10.39h-5.68Z"/>
        </g>
      </g>
      <g>
        <path class="cls-1" d="M44.16,20.95l-1.28-4.22c-.17-.57-.91-.7-1.27-.22-1.38,1.84-4.51,3.98-8.53,2.51,2.62-4.79,3.22-9.8,1.39-13.58-2.08-4.44-8.33-8.46-14.37-2.26-.02.02-.03.04-.05.06-4.05,4.65-2.67,12.58,3.02,18.16-.2.18-.41.36-.62.54-.46.39-.93.74-1.41,1.08-5.56-7.98-10.68-9.51-15.4-7.76-3.14,1.12-8.9,7.36-3.28,14.04,3.19,3.8,8.98,4.62,14.99,2.71h0c.55,3.09.16,6.02-.97,8.21-.32.62.16,1.36.86,1.33l3.82-.15c.82-.03,1.56-.52,1.92-1.26,1.44-2.97,1.67-6.96.58-11.08h0c2.51-1.57,4.27-3.32,4.85-3.9,5.21,2.48,12.23,2.46,15.53-2.65.3-.46.39-1.03.23-1.56ZM8.52,25.77c-2.61-1.04-1.68-3.18-1.68-3.18,0,0,.64-2.03,3.49-.92,2.85,1.12,4.65,4.15,4.65,4.15-2.1.64-4.66.67-6.46-.05ZM27.17,16.12s-2.61-1.99-3.16-4.78c-.55-2.79.27-4.49,2.14-4.71,1.6-.19,2.19,1.42,2.3,1.86.12.44,1,3.29-1.28,7.63Z"/>
        <g>
          <path class="cls-1" d="M63.14,18.49c-2.82-.78-4.35-1.43-4.35-2.59,0-.73.59-1.58,2.25-1.58s3.46,1.43,4.76,3.82l.06.12,4.52-2.22-.06-.12c-1.96-3.9-5.52-6.22-9.52-6.22-5.9,0-7.99,3.36-7.99,6.25s1.79,4.71,6.17,5.97c3.76,1,5.44,2.01,5.44,3.29,0,1.2-.87,1.89-2.39,1.89-2.29,0-4.23-1.73-5.59-5.01l-.05-.12-4.59,1.85.04.12c1.53,4.88,5.52,7.8,10.65,7.8,4.67,0,7.92-2.74,7.92-6.67,0-4.22-3.58-5.55-7.26-6.55Z"/>
          <rect class="cls-1" x="73.2" y="10.39" width="5.68" height="20.74"/>
          <path class="cls-1" d="M75.94.06c-1.81,0-3.29,1.61-3.29,3.59s1.48,3.59,3.29,3.59,3.25-1.64,3.25-3.59S77.7.06,75.94.06Z"/>
          <path class="cls-1" d="M126.47,23.14c-.21,1.48-1.6,3.08-4.19,3.08-2.73,0-4.49-1.9-4.49-4.83v-.29h14.32v-.14c0-7.32-3.48-11.19-10.06-11.19-6.09,0-10.02,4.41-10.02,11.23s3.87,10.63,10.1,10.63,9.91-4.36,9.98-8.47v-.14s-5.63,0-5.63,0l-.02.12ZM118.02,18.58c.58-2.16,2.16-3.4,4.38-3.4s3.71,1.2,4.23,3.4h-8.61Z"/>
          <polygon class="cls-1" points="168.98 10.39 165.87 20.12 164.4 25.48 162.83 20.11 159.67 10.48 159.64 10.39 153.98 10.39 160.84 31.13 167.85 31.13 174.72 10.39 168.98 10.39"/>
          <path class="cls-1" d="M185.16,9.77c-6.2,0-10.37,4.39-10.37,10.93s4.17,10.93,10.37,10.93,10.41-4.39,10.41-10.93-4.18-10.93-10.41-10.93ZM185.16,15.22c2.78,0,4.65,2.2,4.65,5.48s-1.87,5.43-4.65,5.43-4.61-2.18-4.61-5.43,1.85-5.48,4.61-5.48Z"/>
          <rect class="cls-1" x="198.4" y="2.44" width="5.68" height="28.68"/>
          <path class="cls-1" d="M218.16,25.93c-1.92,0-2.9-.93-2.9-2.76v-7.9h5.22v-4.89h-5.22v-6.13h-5.68v6.13h-3.93v4.89h3.93v8.84c0,5.02,2.28,7.56,6.79,7.56,1.56,0,3.2-.39,4.08-.97l.06-.04v-5.2l-.19.07c-.71.28-1.3.38-2.17.38Z"/>
          <path class="cls-1" d="M275.27,24.33v-5.22c0-6.37-2.81-9.33-8.86-9.33-5.54,0-9.13,3.12-9.13,7.95v.14h5.41v-.14c0-1.78,1.46-3.02,3.56-3.02,2.93,0,3.31,2.53,3.33,3.71l-6.49.59c-4.32.38-6.51,2.58-6.51,6.53s2.42,6.1,6.48,6.1c3.63,0,6.05-1.99,6.6-5.3.13,1.88.43,3.41.9,4.65l.03.09h5.71l-.08-.19c-.7-1.73-.96-3.51-.96-6.55ZM269.58,21.55v.19c0,2.8-2.31,4.53-4.46,4.53-1.25,0-2.74-.36-2.74-2.06,0-1.2.52-1.83,3.46-2.2l3.74-.46Z"/>
          <path class="cls-1" d="M288,18.49c-2.82-.78-4.35-1.43-4.35-2.59,0-.73.59-1.58,2.25-1.58s3.46,1.43,4.76,3.82l.06.12,4.52-2.22-.06-.12c-1.96-3.9-5.52-6.22-9.52-6.22-5.9,0-7.99,3.36-7.99,6.25s1.79,4.71,6.17,5.97c3.76,1,5.44,2.01,5.44,3.29,0,1.2-.87,1.89-2.39,1.89-2.29,0-4.23-1.73-5.59-5.01l-.05-.12-4.59,1.85.04.12c1.53,4.88,5.52,7.8,10.65,7.8,4.67,0,7.92-2.74,7.92-6.67,0-4.22-3.58-5.55-7.26-6.55Z"/>
          <path class="cls-1" d="M95.25,9.83c-3.33,0-5.6,1.87-6.36,5.1h-.28v-4.54h-5.68v20.74h5.68v-11.41c0-2.5,1.66-4.31,3.95-4.31,2.75,0,3.33,2.44,3.33,4.48v11.23h5.68v-12.7c0-5.71-2.13-8.6-6.32-8.6ZM88.61,17.08h0s0,.03,0,.05v-.05Z"/>
          <path class="cls-1" d="M146.63,9.83c-3.34,0-5.61,1.88-6.36,5.14v-.03h-.27v-4.54h-5.68v20.74h5.68v-11.41c0-2.5,1.66-4.31,3.95-4.31,2.75,0,3.33,2.44,3.33,4.48v11.23h5.68v-12.7c0-5.71-2.13-8.6-6.33-8.6ZM139.99,17.08h0s0,.03,0,.05v-.05Z"/>
          <path class="cls-1" d="M256.1,9.83c-3.4,0-5.36,1.6-6.12,5.1h-.24v-4.54h-5.68v20.74h5.68v-9.94c0-3.52,1.46-4.83,5.39-4.83h1.11v-6.53h-.14Z"/>
          <path class="cls-1" d="M234.4,10.39v11.41c0,2.96-2.05,4.31-3.95,4.31s-2.78-1.27-2.78-3.88v-11.84h-5.68v13.56c0,6.39,3.29,7.74,6.05,7.74,3.38,0,5.57-2.01,6.19-5.58h.17v5.02h5.68V10.39h-5.68Z"/>
        </g>
      </g>
    </g>
  </g>
</svg>