<?xml version="1.0" encoding="UTF-8"?>
<svg id="Capa_2" data-name="Capa 2" xmlns="http://www.w3.org/2000/svg" viewBox="0 0 1042.9 146.77">
  <defs>
    <style>
      .cls-1 {
        fill: #fff;
      }
    </style>
  </defs>
  <g id="Capa_1-2" data-name="Capa 1">
    <g>
      <path fill="#FFFFFF" d="M151.45,59.1c-.61-2-3.23-2.46-4.48-.79-4.86,6.49-15.94,14.05-30.12,8.88,9.26-16.91,11.38-34.61,4.92-47.96-7.36-15.7-29.43-29.89-50.76-8-.06.07-.12.14-.18.22-14.3,16.41-9.43,44.43,10.66,64.15-.71.65-1.43,1.28-2.18,1.91-1.63,1.36-3.3,2.63-4.99,3.81-19.63-28.17-37.72-33.6-54.39-27.42-11.09,3.96-31.43,26-11.59,49.6,11.28,13.42,31.71,16.33,52.94,9.57h0c1.94,10.9.57,21.27-3.42,29-1.14,2.2.56,4.8,3.03,4.7l13.48-.53c2.91-.11,5.5-1.85,6.76-4.47,5.07-10.51,5.9-24.6,2.06-39.13h.03c8.85-5.56,15.07-11.73,17.13-13.76,18.4,8.75,43.2,8.68,54.84-9.36,1.06-1.64,1.36-3.65.8-5.52l-4.54-14.9ZM30.1,91.03c-9.2-3.69-5.93-11.23-5.93-11.23,0,0,2.25-7.18,12.32-3.24,10.07,3.94,16.42,14.65,16.42,14.65-7.41,2.26-16.47,2.35-22.8-.18ZM95.98,56.95s-9.21-7.01-11.17-16.87c-1.96-9.86.95-15.87,7.55-16.64,5.64-.66,7.72,5.02,8.13,6.57.41,1.55,3.53,11.61-4.51,26.94Z"/>
      <path fill="#FFFFFF" d="M223.03,65.3c-9.97-2.77-15.38-5.05-15.38-9.16,0-2.57,2.08-5.56,7.94-5.56s12.23,5.04,16.8,13.49l.22.41,15.97-7.84-.22-.44c-6.91-13.76-19.48-21.98-33.63-21.98-20.84,0-28.24,11.88-28.24,22.06s6.31,16.63,21.79,21.08c13.29,3.53,19.22,7.12,19.22,11.62,0,4.24-3.08,6.67-8.44,6.67-8.1,0-14.93-6.12-19.75-17.71l-.18-.44-16.22,6.53.13.43c5.41,17.25,19.48,27.55,37.63,27.55,16.48,0,27.99-9.69,27.99-23.57,0-14.91-12.66-19.61-25.63-23.14Z"/>
      <rect fill="#FFFFFF" x="258.54" y="36.7" width="20.07" height="73.25"/>
      <path fill="#FFFFFF" d="M268.24.2c-6.41,0-11.62,5.69-11.62,12.68s5.21,12.68,11.62,12.68,11.48-5.81,11.48-12.68S274.46.2,268.24.2Z"/>
      <path fill="#FFFFFF" d="M446.71,81.74c-.73,5.24-5.67,10.87-14.78,10.87-9.64,0-15.87-6.7-15.87-17.06v-1.04h50.59v-.48c0-25.86-12.29-39.53-35.54-39.53-21.5,0-35.4,15.57-35.4,39.68s13.67,37.54,35.68,37.54,35-15.41,35.26-29.91v-.49s-19.87,0-19.87,0l-.06.42ZM432.34,53.62c7.83,0,13.11,4.25,14.93,12h-30.4c2.03-7.63,7.64-12,15.47-12Z"/>
      <polygon fill="#FFFFFF" points="585.9 71.06 580.71 90.01 575.14 71.04 564 37.03 563.89 36.7 543.9 36.7 568.14 109.95 592.9 109.95 617.14 36.7 596.87 36.7 585.9 71.06"/>
      <path fill="#FFFFFF" d="M654.03,34.51c-21.92,0-36.64,15.52-36.64,38.61s14.72,38.61,36.64,38.61,36.78-15.52,36.78-38.61-14.78-38.61-36.78-38.61ZM654.03,92.31c-9.74,0-16.29-7.71-16.29-19.19s6.55-19.34,16.29-19.34,16.43,7.77,16.43,19.34-6.6,19.19-16.43,19.19Z"/>
      <rect fill="#FFFFFF" x="700.81" y="8.63" width="20.07" height="101.32"/>
      <path fill="#FFFFFF" d="M770.59,91.6c-6.8,0-10.24-3.28-10.24-9.74v-27.89h18.42v-17.28h-18.42V15.04h-20.07v21.66h-13.88v17.28h13.88v31.24c0,17.73,8.07,26.72,23.99,26.72,5.49,0,11.29-1.38,14.42-3.44l.22-.14v-18.35l-.66.26c-2.52.98-4.59,1.34-7.66,1.34Z"/>
      <path fill="#FFFFFF" d="M972.31,85.93v-18.45c0-22.49-9.94-32.97-31.28-32.97-19.58,0-32.24,11.02-32.24,28.09v.48h19.11v-.48c0-6.27,5.17-10.65,12.58-10.65,10.36,0,11.69,8.94,11.75,13.11l-22.93,2.1c-15.25,1.35-22.98,9.1-22.98,23.05s8.56,21.53,22.89,21.53c12.81,0,21.37-7.04,23.3-18.71.46,6.64,1.52,12.05,3.19,16.42l.12.31h20.16l-.27-.66c-2.48-6.11-3.4-12.39-3.4-23.15ZM952.23,76.78c0,9.88-8.17,15.99-15.74,15.99-4.42,0-9.69-1.27-9.69-7.29,0-4.24,1.83-6.48,12.22-7.76l13.21-1.61v.68Z"/>
      <path fill="#FFFFFF" d="M1017.27,65.3c-9.98-2.77-15.38-5.05-15.38-9.16,0-2.57,2.08-5.56,7.94-5.56s12.23,5.04,16.8,13.49l.22.41,15.97-7.84-.22-.44c-6.91-13.76-19.48-21.98-33.63-21.98-20.84,0-28.24,11.88-28.24,22.06s6.31,16.63,21.79,21.08c13.29,3.53,19.22,7.12,19.22,11.62,0,4.24-3.08,6.67-8.44,6.67-8.1,0-14.93-6.12-19.75-17.71l-.18-.44-16.22,6.53.13.43c5.41,17.25,19.48,27.55,37.63,27.55,16.48,0,27.99-9.69,27.99-23.57,0-14.91-12.66-19.61-25.63-23.14Z"/>
      <path fill="#FFFFFF" d="M336.43,34.72c-11.76,0-19.76,6.61-22.45,18.03h-.99v-16.05h-20.07v73.25h20.07v-40.29c0-8.82,5.87-15.23,13.95-15.23,9.71,0,11.75,8.61,11.75,15.84v39.68h20.07v-44.86c0-20.16-7.52-30.38-22.34-30.38ZM312.99,60.52v-.18h.01c0,.06,0,.12-.01.18Z"/>
      <path fill="#FFFFFF" d="M517.91,34.72c-11.8,0-19.82,6.65-22.48,18.15v-.12h-.96v-16.05h-20.07v73.25h20.07v-40.29c0-8.82,5.87-15.23,13.95-15.23,9.71,0,11.75,8.61,11.75,15.84v39.68h20.07v-44.86c0-20.16-7.52-30.38-22.34-30.38ZM494.48,60.52v-.18h.01c0,.06,0,.12-.01.18Z"/>
      <path fill="#FFFFFF" d="M882.98,52.75h-.85v-16.05h-20.07v73.25h20.07v-35.1c0-12.44,5.16-17.06,19.04-17.06h3.92v-23.08h-.48c-12.02,0-18.95,5.66-21.63,18.03Z"/>
      <path fill="#FFFFFF" d="M827.96,76.99c0,10.46-7.23,15.23-13.95,15.23s-9.83-4.48-9.83-13.7v-41.81h-20.07v47.91c0,22.58,11.63,27.32,21.38,27.32,11.94,0,19.67-7.1,21.86-19.71h.62v17.72h20.07V36.7h-20.07v40.29Z"/>
    </g>
  </g>
</svg>