<?xml version="1.0" encoding="UTF-8"?>
<svg id="Capa_2" data-name="Capa 2" xmlns="http://www.w3.org/2000/svg" viewBox="0 0 182.05 55.87">
  <defs>
    <style>
      .cls-1 {
        fill: #fff;
      }
    </style>
  </defs>
  <g id="Espalda">
    <g>
      <g>
        <rect class="cls-1" y=".21" width="15.3" height="15.3"/>
        <path class="cls-1" d="M38.04,15.51h-14.98s-.32-.3-.32-.32V.21c.21.07.46-.21.53-.21h14.45s.32.3.32.32v15.19Z"/>
        <path class="cls-1" d="M.32,20.39h14.66s.32.3.32.32v14.87s-.3.32-.32.32H.32s-.32-.3-.32-.32v-14.87c0-.06.25-.21.32-.32Z"/>
        <path class="cls-1" d="M44.2,15.51V.32s.3-.32.32-.32h14.45s.53.49.53.53v14.66s-.3.32-.32.32h-14.98Z"/>
        <path class="cls-1" d="M59.29,20.39v15.51h-14.77s-.32-.3-.32-.32v-14.87s.3-.32.32-.32h14.77Z"/>
        <path class="cls-1" d="M38.04,55.87h-15.3v-14.98s.3-.32.32-.32h14.66s.32.3.32.32v14.98Z"/>
        <path class="cls-1" d="M15.3,55.87H0v-14.98s.3-.32.32-.32h14.66s.32.3.32.32v14.98Z"/>
        <path class="cls-1" d="M59.29,40.57c-.07.21.21.46.21.53v14.45s-.3.32-.32.32h-14.98v-14.98s.3-.32.32-.32h14.77Z"/>
      </g>
      <g>
        <path class="cls-1" d="M97.31,31.06c1.31,1.18,3.65,1.21,5.11.24,3.2-2.13,1.68-8.42,2.08-11.73.17-.51,2.78-.47,3.16-.24.36.21.4.88.43,1.27.3,3.4.18,8.86,0,12.34-.33,6.4-3.74,10.89-10.69,9.39-1.49-.32-5.42-2.52-5.06-4.27.02-.12,1.84-1.1,2.08-1.16,1.17-.3,1.25.94,2.19,1.54,1.09.7,2.85.91,4.12.73,2.84-.39,3.74-3.44,3.74-5.93-3.49,3.72-9.77,2.35-11.42-2.49-1.11-3.24-.19-7.73-.45-11.18.18-.54,3.16-.55,3.34,0,.36,2.77-.84,9.51,1.37,11.48Z"/>
        <path class="cls-1" d="M86.54,14.85c.57.4,2.5,2.49,2.11,3.11-.09.15-.81.54-1.04.67-2.28,1.31-1.65.2-3.01-.88-2.25-1.8-7.5-1.43-7.11,2.21.04.33.19.84.4,1.09.97,1.18,5.74,1.75,7.5,2.49,1.49.62,3.49,2.2,3.76,3.89,1.11,7.15-7.16,9.81-12.53,6.79-.9-.51-3.3-2.5-2.95-3.58.11-.35,2.25-1.25,2.63-1.22.41.04,1.06,1.21,1.61,1.59,1.99,1.38,6.42,1.63,7.53-.94.48-1.12.17-2.66-.97-3.28-1.63-.87-4.95-1-6.9-1.82-3.83-1.6-4.93-6.07-2.22-9.24,2.68-3.15,7.94-3.14,11.18-.88Z"/>
        <path class="cls-1" d="M158.45,33.04l-3,1.99c-5.57,2.04-10.93-2.76-10.59-8.47.58-9.71,16.24-10.97,17.01.84.1,1.51.23,5.7-.01,7.01-.22,1.19-3.21.88-3.36.4s.04-1.25-.03-1.77ZM152.89,22.05c-6.61.58-5.97,11.15,1.4,10.12,6.01-.84,5.18-10.7-1.4-10.12Z"/>
        <path class="cls-1" d="M127.85,35.16h-3.08c-.15,0-.29-.35-.32-.53-.6-3.27,1.74-11.71-3.5-12.23-7.25-.72-4.7,7.68-5.21,12.02-.03.21-.1.73-.33.73h-3.08v-10.09c0-2.97,3.77-5.84,6.54-6.21,5.79-.78,8.89,3.22,9.2,8.54.04.66.17,7.76-.22,7.76Z"/>
        <path class="cls-1" d="M168.97,19.23c.23.06,2.52,3.27,2.83,3.75.27.41,1.22,2.51,1.34,2.59.24.15,1.1.09,1.35-.17l3.49-5.79c.09-.13.43-.37.54-.37h3.19c.08,0,.34.29.3.51-.05.31-2.89,4.16-3.34,4.95-.38.66-1.11,1.79-1.11,2.51,0,1.45,3.41,5.73,4.36,7.12.26.23,0,.85-.21.85h-3.19c-.27,0-2.8-3.91-3.17-4.48-.61-.94-.54-2.08-1.93-1.91-.45.05-.56.81-.86,1.28-.42.65-3.28,5.12-3.6,5.12h-3.19c-.08,0-.34-.29-.3-.51.06-.43,3.26-4.62,3.77-5.59.33-.63.69-1.13.7-1.87.01-1.85-3.56-5.68-4.46-7.46-.1-.18.25-.51.3-.51.74,0,2.65-.15,3.19,0Z"/>
        <path class="cls-1" d="M136.78,19.23h5.42c.73,0,.71,3.19.21,3.19h-5.63v7.97c0,.08.59,1.03.74,1.17,1.72,1.62,4.95-.27,5.21,0-.1.77.23,2.45-.19,3.05-.2.29-2.24.92-2.7.97-3.18.31-6.32-1.91-6.67-5.18-.27-2.49.2-5.43,0-7.97-.12-.12-2.14.13-2.63-.03-.56-.18-.46-2.85-.15-3.06.43-.3,2.15.02,2.78-.09v-3.82c.58-.27,3.61-.47,3.61.32v3.51Z"/>
      </g>
    </g>
  </g>
</svg>