<?xml version="1.0" encoding="UTF-8"?>
<svg id="Capa_2" data-name="Capa 2" xmlns="http://www.w3.org/2000/svg" viewBox="0 0 170.49 42.33">
  <defs>
    <style>
      .cls-1 {
        fill: #f9f9fa;
      }
    </style>
  </defs>
  <g id="Espalda">
    <g>
      <path class="cls-1" d="M57.09.58v33.52c0,.08-.01.15-.04.22-.03.07-.07.13-.12.19-.05.05-.12.1-.19.12-.07.03-.14.04-.22.04h-4.28c-.08,0-.15-.01-.22-.04-.07-.03-.13-.07-.19-.12-.05-.05-.1-.12-.12-.19-.03-.07-.04-.14-.04-.22V.58c0-.15.06-.3.17-.41.11-.11.25-.17.41-.17h4.28c.15,0,.3.06.41.17.11.11.17.25.17.41Z"/>
      <path class="cls-1" d="M141.16.58v33.52c0,.15-.06.3-.17.41-.11.11-.25.17-.41.17h-4.28c-.08,0-.15-.01-.22-.04-.07-.03-.13-.07-.19-.12-.05-.05-.1-.12-.12-.19-.03-.07-.04-.14-.04-.22V.58c0-.08.01-.15.04-.22.03-.07.07-.13.12-.19.05-.05.12-.1.19-.12.07-.03.14-.04.22-.04h4.28c.15,0,.3.06.41.17.11.11.17.25.17.41Z"/>
      <path class="cls-1" d="M85.35,21.93c0,.59-.03,1.17-.1,1.75-.01.11-.06.22-.15.3-.08.08-.19.12-.31.12h-17.28c-.07,0-.13.01-.19.04-.06.03-.11.07-.16.12-.04.05-.08.11-.09.17-.02.06-.02.13-.01.2.71,4.29,3.42,6.17,7.01,6.17,3.23,0,5.38-1.2,6.73-3.84.03-.06.08-.12.13-.16.06-.04.12-.07.19-.09.07-.01.14-.01.21,0,.07.02.13.05.18.1l3.17,2.82c.08.07.14.18.15.29.01.11-.01.22-.07.32-2.35,3.49-6.44,5.14-10.83,5.14-7.74,0-12.65-5.33-12.65-12.92s5.19-13.16,12.32-13.16c7.22,0,11.76,5.14,11.76,12.64ZM79.02,20.14c.06,0,.12-.01.18-.04s.11-.06.15-.1c.04-.04.08-.1.1-.15s.03-.12.03-.18c-.18-3.51-2.37-5.8-5.98-5.8-3.07,0-5.58,1.85-6.37,5.73-.01.07,0,.13,0,.2.02.07.05.13.09.18.04.05.1.09.16.12.06.03.13.04.2.04h11.44Z"/>
      <path class="cls-1" d="M162.94,14.81l-4.58,11.87c-.03.08-.08.15-.15.2-.07.05-.15.07-.24.07-.08,0-.17-.02-.24-.07-.07-.05-.12-.11-.16-.19l-6.53-16.36c-.03-.08-.08-.15-.16-.19-.07-.05-.15-.07-.24-.07h-5.09c-.08,0-.16.02-.23.06-.07.04-.13.09-.18.16-.04.07-.07.14-.08.23,0,.08,0,.16.04.24l.31.74-.03-.06,9.46,22.51c-.23.72-.62,1.38-1.13,1.93-.14.15-.29.28-.46.4-.28.19-.59.33-.91.42-.53.15-1.08.22-1.64.21h-.01c-.08,0-.15,0-.23,0l-3.52.04c-.11,0-.21.05-.29.12-.08.08-.12.18-.12.29l-.07,4.54c0,.06,0,.11.03.16.02.05.05.1.09.14.04.04.09.07.14.09.05.02.11.03.16.03h5.06c4.07,0,6.04-1.03,7.56-4.75l8.08-19.78c.04-.1.04-.22,0-.32-.04-.1-.12-.18-.22-.23l-4.36-2.42.03-.02h-.07Z"/>
      <path class="cls-1" d="M162.94,14.81l-4.58,11.87c-.03.08-.08.15-.15.2-.07.05-.15.07-.24.07-.08,0-.17-.02-.24-.07-.07-.05-.12-.11-.16-.19l-6.53-16.36c-.03-.08-.08-.15-.16-.19-.07-.05-.15-.07-.24-.07h-5.09c-.08,0-.16.02-.23.06-.07.04-.13.09-.18.16-.04.07-.07.14-.08.23,0,.08,0,.16.04.24l.31.74-.03-.06,9.46,22.51c-.23.72-.62,1.38-1.13,1.93-.14.15-.29.28-.46.4-.28.19-.59.33-.91.42-.53.15-1.08.22-1.64.21h-.01c-.08,0-.15,0-.23,0l-3.52.04c-.11,0-.21.05-.29.12-.08.08-.12.18-.12.29l-.07,4.54c0,.06,0,.11.03.16.02.05.05.1.09.14.04.04.09.07.14.09.05.02.11.03.16.03h5.06c4.07,0,6.04-1.03,7.56-4.75l8.08-19.78c.04-.1.04-.22,0-.32-.04-.1-.12-.18-.22-.23l-4.36-2.42.03-.02h-.07Z"/>
      <path class="cls-1" d="M168.95,14.48l1.49-3.65c.04-.08.05-.18.04-.27,0-.09-.04-.18-.09-.25-.05-.08-.12-.14-.2-.18-.08-.04-.17-.06-.26-.06h-4.87c-.08,0-.17.03-.24.08-.07.05-.12.12-.15.2l-1.73,4.49h5.48c.11,0,.23-.03.32-.1.09-.06.17-.15.21-.26Z"/>
      <path class="cls-1" d="M129.69,10.17h-6.25s-.1,0-.14-.03c-.04-.02-.08-.05-.12-.08-.03-.03-.06-.08-.08-.12-.02-.04-.03-.09-.03-.14V1.67c0-.07-.02-.14-.06-.19-.04-.06-.09-.11-.15-.14-.06-.03-.13-.04-.2-.04-.07,0-.13.03-.19.07l-4.69,3.5s-.08.08-.11.13c-.03.05-.04.11-.04.17v4.63s0,.06-.02.09v5.23s.02.06.02.09v12.27c0,5.61,2.93,7.83,8.26,7.83,1.18-.02,2.36-.16,3.51-.43.08-.02.14-.07.19-.13s.07-.14.07-.22v-4.04c0-.05-.01-.11-.03-.16-.02-.05-.06-.09-.1-.13-.04-.03-.09-.06-.14-.07-.05-.01-.11-.02-.16,0-.84.16-1.69.26-2.54.29-2.45,0-3.64-.62-3.64-3.63v-11.56c0-.1.04-.19.11-.26s.16-.11.26-.11h6.25c.1,0,.19-.04.26-.11.07-.07.11-.16.11-.26v-3.93s0-.1-.03-.14c-.02-.04-.05-.09-.08-.12-.04-.03-.08-.06-.12-.08-.04-.02-.09-.03-.14-.03Z"/>
      <path class="cls-1" d="M162.94,14.81l-4.58,11.87c-.03.08-.08.15-.15.2-.07.05-.15.07-.24.07-.08,0-.17-.02-.24-.07-.07-.05-.12-.11-.16-.19l-6.53-16.36c-.03-.08-.08-.15-.16-.19-.07-.05-.15-.07-.24-.07h-5.09c-.08,0-.16.02-.23.06-.07.04-.13.09-.18.16-.04.07-.07.14-.08.23,0,.08,0,.16.04.24l.31.74-.03-.06,9.46,22.51c-.23.72-.62,1.38-1.13,1.93-.14.15-.29.28-.46.4-.28.19-.59.33-.91.42-.53.15-1.08.22-1.64.21h-.01c-.08,0-.15,0-.23,0l-3.52.04c-.11,0-.21.05-.29.12-.08.08-.12.18-.12.29l-.07,4.54c0,.06,0,.11.03.16.02.05.05.1.09.14.04.04.09.07.14.09.05.02.11.03.16.03h5.06c4.07,0,6.04-1.03,7.56-4.75l8.08-19.78c.04-.1.04-.22,0-.32-.04-.1-.12-.18-.22-.23l-4.36-2.42.03-.02h-.07Z"/>
      <path class="cls-1" d="M16.81,10.51c0-.1-.04-.19-.11-.26-.07-.07-.16-.11-.26-.11h-6.25s-.1,0-.14-.03c-.04-.02-.09-.05-.12-.08s-.06-.07-.08-.12c-.02-.04-.03-.09-.03-.14V1.64c0-.07-.02-.14-.05-.19-.04-.06-.09-.11-.15-.14-.06-.03-.13-.04-.2-.04-.07,0-.13.03-.19.07l-4.69,3.5s-.08.08-.11.13c-.03.05-.04.11-.04.17h0s0,.01,0,.02v4.63c0,.1-.04.19-.11.26-.07.07-.16.11-.26.11H.37s-.1,0-.14.03c-.04.02-.09.05-.12.08-.03.03-.06.07-.08.12-.02.04-.03.09-.03.14v3.93s0,.1.03.14c.02.04.05.09.08.12.03.03.08.06.12.08.04.02.09.03.14.03h3.65c.1,0,.19.04.26.11.07.07.11.16.11.26v12.27c0,5.61,2.93,7.83,8.26,7.83,1.18-.02,2.36-.16,3.51-.43.06-.02.11-.05.16-.09.04-.04.08-.1.09-.16.01-.04.02-.08.02-.12v-4.05c0-.05-.01-.11-.03-.16s-.06-.09-.1-.13c-.04-.03-.09-.06-.14-.07-.05-.01-.11-.02-.16,0-.84.16-1.69.26-2.54.29-2.45,0-3.63-.61-3.63-3.63v-9.34h0v-2.2s0-.1.03-.14c.02-.04.05-.09.08-.12.03-.03.08-.06.12-.08.04-.02.09-.03.14-.03h6.25s.1,0,.14-.03c.04-.02.09-.05.12-.08.03-.03.06-.07.08-.12.02-.04.03-.09.03-.14,0,0,0,0,0-.02v-3.93Z"/>
      <path class="cls-1" d="M45.61,10.11h-4.49c-.12,0-.24.05-.33.14-.09.09-.14.21-.14.33v2.51c-1.94-2.31-4.77-3.82-8.55-3.82-7.38,0-12.37,5.65-12.42,13v.1c.05,7.35,5.04,13,12.42,13,3.78,0,6.61-1.51,8.55-3.82v2.66c0,.12.05.24.14.33s.2.14.33.14h4.5c.12,0,.24-.05.33-.14.09-.09.14-.2.14-.33V10.58c0-.12-.05-.24-.14-.33-.09-.09-.21-.14-.33-.14ZM33.09,30.46c-4.61,0-7.76-3.42-7.79-8.15.03-4.73,3.18-8.15,7.79-8.15s7.71,3.37,7.74,8.15c-.03,4.78-3.32,8.15-7.74,8.15ZM43.82,22.31h-.08s.08,0,.08,0h0Z"/>
      <path class="cls-1" d="M103.43,9.29c-4.75-.07-6.55,2.53-7.79,4.5v-3.06c0-.16-.06-.31-.18-.42-.11-.11-.27-.18-.43-.18h-4.23c-.16,0-.31.06-.42.18-.11.11-.18.27-.18.42v23.32c0,.16.06.31.18.42.11.11.27.18.42.18h4.23c.16,0,.31-.06.43-.18.11-.11.18-.27.18-.42v-12.46c0-4.67,2.31-7.31,6.23-7.31,3.64,0,5.29,2.03,5.29,6.46v13.31c0,.16.06.31.18.43.11.11.27.18.43.18h4.23c.16,0,.31-.06.43-.18.11-.11.18-.27.18-.43v-14.07c0-6.88-3.21-10.7-9.16-10.7Z"/>
    </g>
  </g>
</svg>