<?xml version="1.0" encoding="UTF-8"?>
<svg id="Capa_2" data-name="Capa 2" xmlns="http://www.w3.org/2000/svg" xmlns:xlink="http://www.w3.org/1999/xlink" viewBox="0 0 254.49 48.09">
  <defs>
    <style>
      .cls-1, .cls-2 {
        fill: #fff;
      }

      .cls-2 {
        fill-rule: evenodd;
      }

      .cls-3 {
        fill: none;
      }

      .cls-4 {
        clip-path: url(#clippath-1);
      }

      .cls-5 {
        clip-path: url(#clippath);
      }
    </style>
    <clipPath id="clippath">
      <rect class="cls-3" width="58.11" height="48.09"/>
    </clipPath>
    <clipPath id="clippath-1">
      <rect class="cls-3" x="74.14" y="8.02" width="180.35" height="32.06"/>
    </clipPath>
  </defs>
  <g id="Espalda">
    <g>
      <g class="cls-5">
        <g>
          <path class="cls-2" d="M31.77,5.32c-.32-.97-1.32-1.48-2.36-1.48-1.04,0-2.04.49-2.38,1.46l-3.16,9.29h10.94l-3.05-9.28ZM34.22,14.2l-2.88-8.77c-.25-.77-1.05-1.19-1.93-1.2-.89,0-1.69.41-1.95,1.18l-2.99,8.79h9.75ZM23.04,4.37c.91-2.67,3.67-3.98,6.39-3.97,2.72,0,5.47,1.34,6.35,4.02l3.34,10.18h12.42c2.66,0,4.72,1.38,5.55,3.24.83,1.87.35,4.14-1.75,5.67-2.98,2.16-6.67,4.58-10.66,6.59-.13.07-.26.13-.4.2l3.4,10.36c.81,2.47-.49,4.68-2.61,5.89-2.11,1.21-5.06,1.44-7.58-.03l-6.63-3.86c-.84-.49-1.97-.5-2.82-.02l-7.28,4.1c-2.54,1.43-5.47,1.16-7.56-.06-2.09-1.23-3.36-3.44-2.52-5.9l3.52-10.36c-.13-.06-.27-.13-.4-.19-4.17-2.02-8.04-4.49-11.15-6.69C.5,22.02,0,19.75.82,17.86c.82-1.87,2.89-3.26,5.56-3.26h13.19l3.48-10.23ZM19.24,14.2l3.38-9.95C23.59,1.38,26.56-.01,29.43,0c2.87.01,5.82,1.42,6.77,4.3l3.25,9.9h12.09c2.84,0,5.07,1.48,5.96,3.49.9,2.03.37,4.48-1.89,6.12-3.01,2.19-6.76,4.64-10.82,6.67l3.3,10.06c.88,2.67-.54,5.04-2.79,6.33-2.24,1.28-5.38,1.53-8.06-.03l-6.63-3.86c-.7-.41-1.64-.41-2.34-.02l-7.28,4.1c-2.7,1.52-5.82,1.24-8.04-.07-2.22-1.31-3.61-3.69-2.7-6.34l3.42-10.06c-4.24-2.04-8.16-4.54-11.3-6.76C.07,22.22-.49,19.76.4,17.72c.88-2.02,3.12-3.51,5.97-3.51h12.86ZM22.71,18.04l-3.62,10.67c.14.05.27.11.41.16,3.49,1.34,6.95,2.15,10.12,2.09,2.97-.05,6.17-.88,9.4-2.17.14-.05.27-.11.41-.17l-3.47-10.58h-13.24ZM35.61,18.43h-12.58l-3.42,10.05c3.47,1.34,6.88,2.13,9.98,2.08,2.91-.05,6.07-.86,9.28-2.16l-3.27-9.97ZM43.15,26.89c.13-.07.26-.14.4-.2,3.43-1.79,6.64-3.91,9.32-5.85.75-.55.84-1.21.6-1.74-.25-.55-.89-1.06-1.93-1.06h-11.29l2.91,8.85ZM40.84,18.43h10.7c.86,0,1.34.4,1.52.81.09.2.11.41.05.62-.06.21-.21.44-.52.67-2.64,1.91-5.79,3.99-9.16,5.76l-2.58-7.86ZM18.37,32.18c-.14-.05-.27-.1-.41-.16l-3.29,9.68c-.3.89.15,1.69.93,2.15.78.46,1.88.56,2.83.02l7.28-4.1c2.28-1.28,5.28-1.26,7.54.05l6.63,3.86c.94.55,2.04.46,2.84,0,.79-.45,1.25-1.26.96-2.15l-3.15-9.59c-.14.05-.27.11-.41.16-3.39,1.31-6.94,2.21-10.41,2.27-3.77.07-7.64-.84-11.33-2.22ZM40.23,32.51c-3.41,1.31-7,2.22-10.53,2.29-3.83.07-7.76-.85-11.47-2.23l-3.15,9.26c-.24.69.1,1.33.75,1.71.65.38,1.56.46,2.35.02l7.28-4.1c2.43-1.36,5.62-1.34,8.02.05l6.63,3.86c.78.45,1.69.39,2.35,0,.66-.38,1-1.01.77-1.71l-3.01-9.16ZM18.4,18.04H6.38c-1.05,0-1.69.51-1.93,1.06-.23.53-.14,1.19.62,1.74,2.82,2,6.24,4.18,9.88,6,.13.07.26.13.4.2l3.06-9ZM15.07,26.46l2.73-8.02H6.38c-.87,0-1.34.41-1.52.81-.09.2-.11.41-.05.62.06.21.22.44.54.67,2.79,1.97,6.15,4.12,9.73,5.92Z"/>
          <path class="cls-2" d="M32.02,5.25c-.72-2.19-4.5-2.2-5.24-.02l-12.37,36.41c-.68,2.01,2.06,3.62,4.15,2.44l7.28-4.1c2.19-1.23,5.09-1.21,7.25.05l6.63,3.86c2.08,1.21,4.86-.38,4.19-2.4L32.02,5.25ZM23.29,4.43c1.73-5.1,10.55-5.07,12.23.04l11.9,36.24c1.55,4.71-4.94,8.42-9.79,5.6l-6.63-3.86c-.93-.54-2.17-.55-3.11-.02l-7.28,4.1c-4.88,2.75-11.28-1.01-9.69-5.69L23.29,4.43Z"/>
          <path class="cls-2" d="M29.41,3.84c-1.04,0-2.04.49-2.38,1.46l-12.37,36.41c-.3.89.15,1.69.93,2.15.78.46,1.88.56,2.83.02l7.28-4.1c2.28-1.28,5.28-1.26,7.54.05l6.63,3.86c.94.55,2.04.46,2.84,0,.79-.45,1.25-1.26.96-2.15L31.77,5.32c-.32-.97-1.32-1.48-2.36-1.48ZM29.43.39c2.72,0,5.47,1.34,6.35,4.02l11.9,36.24c.81,2.47-.49,4.68-2.61,5.89-2.11,1.21-5.06,1.44-7.58-.03l-6.63-3.86c-.84-.49-1.97-.5-2.82-.02l-7.28,4.1c-2.54,1.43-5.47,1.16-7.56-.06-2.09-1.23-3.36-3.44-2.52-5.9L23.04,4.37c.91-2.67,3.67-3.98,6.39-3.97ZM26.78,5.23c.74-2.19,4.52-2.17,5.24.02l11.9,36.24c.66,2.02-2.12,3.61-4.19,2.4l-6.63-3.86c-2.17-1.26-5.06-1.28-7.25-.05l-7.28,4.1c-2.09,1.18-4.83-.43-4.15-2.44L26.78,5.23ZM35.52,4.48c-1.68-5.11-10.49-5.14-12.23-.04l-12.37,36.41c-1.59,4.68,4.81,8.44,9.69,5.69l7.28-4.1c.94-.53,2.18-.52,3.11.02l6.63,3.86c4.85,2.82,11.34-.89,9.79-5.6L35.52,4.48Z"/>
          <path class="cls-2" d="M1.06,17.94c.78-1.78,2.75-3.11,5.31-3.11h45.16c2.55,0,4.51,1.32,5.3,3.09.79,1.78.34,3.94-1.68,5.4-3.24,2.35-7.32,5-11.7,7.09-4.36,2.08-9.15,3.67-13.77,3.75-4.85.09-9.91-1.47-14.52-3.57-4.63-2.11-8.95-4.84-12.37-7.25-2.05-1.45-2.53-3.61-1.74-5.4ZM4.2,19.02c-.27.62-.16,1.4.71,2.01,3.32,2.34,7.45,4.94,11.81,6.93,4.39,2,8.86,3.31,12.91,3.24,3.87-.07,8.11-1.42,12.25-3.4,4.12-1.97,8.02-4.49,11.16-6.77.85-.61.96-1.38.68-2.01-.29-.64-1.03-1.2-2.17-1.2H6.38c-1.16,0-1.9.57-2.18,1.21Z"/>
          <path class="cls-2" d="M.82,17.86c.82-1.87,2.89-3.26,5.56-3.26h45.16c2.66,0,4.72,1.38,5.55,3.24.83,1.87.35,4.14-1.75,5.67-3.25,2.36-7.34,5.02-11.74,7.12-4.37,2.09-9.21,3.7-13.89,3.78-4.91.09-10.02-1.48-14.64-3.59-4.65-2.12-8.99-4.86-12.41-7.28C.5,22.02,0,19.75.82,17.86ZM4.44,19.1c-.23.53-.14,1.19.62,1.74,3.31,2.34,7.42,4.93,11.76,6.91,4.37,1.99,8.8,3.28,12.78,3.21,3.81-.07,8-1.4,12.13-3.37,4.1-1.96,7.98-4.47,11.12-6.75.75-.55.84-1.21.6-1.74l.25-.09c.28.62.17,1.39-.68,2.01-3.14,2.28-7.04,4.81-11.16,6.77-4.14,1.98-8.38,3.33-12.25,3.4-4.05.07-8.52-1.24-12.91-3.24-4.36-1.99-8.49-4.59-11.81-6.93-.86-.61-.98-1.38-.71-2.01.28-.64,1.02-1.21,2.18-1.21h45.16c1.15,0,1.89.56,2.17,1.2l-.25.09c-.25-.55-.89-1.06-1.93-1.06H6.38c-1.05,0-1.69.51-1.93,1.06ZM6.38,14.83c-2.56,0-4.54,1.34-5.31,3.11-.79,1.8-.3,3.96,1.74,5.4,3.41,2.41,7.74,5.14,12.37,7.25,4.61,2.1,9.67,3.65,14.52,3.57,4.63-.09,9.42-1.68,13.77-3.75,4.38-2.09,8.46-4.74,11.7-7.09,2.01-1.46,2.47-3.61,1.68-5.4-.79-1.76-2.75-3.09-5.3-3.09H6.38Z"/>
        </g>
      </g>
      <g class="cls-4">
        <g>
          <path class="cls-1" d="M83.88,31.61c0,.8.25,1.4.75,1.8.5.39,1.27.59,2.29.59s2.31-.22,3.87-.65v4.27c-1.6.64-3.64.96-6.11.96s-4.27-.57-5.47-1.72c-1.19-1.14-1.79-2.89-1.79-5.25v-10.15h-3.11v-2.43l3.56-1.93,1.89-4.44h4.13v4.48h6.65v4.31h-6.65v10.15Z"/>
          <path class="cls-1" d="M112.35,38.2h-4.53l-1.25-2.87h-.16c-1.1,1.23-2.22,2.08-3.37,2.55-1.15.46-2.65.69-4.5.69-2.29,0-4.09-.58-5.4-1.74-1.3-1.17-1.96-2.84-1.96-5s.86-3.78,2.59-4.85c1.74-1.07,4.42-1.67,8.01-1.78l4.13-.1v-.92c0-2.13-1.23-3.2-3.7-3.2-1.87,0-4.09.5-6.67,1.51l-2.15-3.87c2.72-1.27,5.71-1.9,8.98-1.9s5.77.63,7.45,1.88c1.68,1.24,2.52,3.1,2.52,5.59v14.02ZM105.92,30.19v-1.74l-2.5.06c-1.9.06-3.31.36-4.22.92-.91.54-1.37,1.38-1.37,2.51,0,1.62,1.05,2.43,3.14,2.43,1.51,0,2.71-.38,3.61-1.13.9-.77,1.34-1.79,1.34-3.06Z"/>
          <path class="cls-1" d="M122.65,8.91v29.3h-6.46V8.91h6.46Z"/>
          <path class="cls-1" d="M140.98,25.29c-.02-1.41-.42-2.5-1.23-3.29-.8-.78-1.89-1.17-3.28-1.17s-2.44.39-3.23,1.17c-.79.77-1.23,1.86-1.34,3.29h9.08ZM145.72,37.09c-2.23.99-5.01,1.49-8.34,1.49-3.82,0-6.8-.93-8.96-2.78-2.14-1.87-3.21-4.55-3.21-8.04s.99-6.19,2.97-8.12c2.01-1.93,4.72-2.89,8.13-2.89s6.07.85,7.94,2.55c1.87,1.7,2.81,4.04,2.81,7.01v2.78h-15.3c.06,1.65.6,2.93,1.63,3.85,1.04.91,2.47,1.36,4.29,1.36,2.72,0,5.4-.55,8.04-1.65v4.44Z"/>
          <path class="cls-1" d="M171.43,24.48v13.73h-6.48v-12.3c0-1.53-.31-2.67-.92-3.41-.61-.75-1.58-1.13-2.9-1.13-1.79,0-3.1.54-3.91,1.61-.82,1.06-1.23,2.84-1.23,5.34v9.9h-6.46v-21.05h4.95l.87,2.7h.35c.71-1,1.69-1.77,2.95-2.3,1.27-.53,2.72-.8,4.34-.8,2.77,0,4.86.66,6.29,1.99,1.43,1.31,2.14,3.22,2.14,5.73Z"/>
          <path class="cls-1" d="M182.45,31.61c0,.8.25,1.4.76,1.8.5.39,1.26.59,2.29.59s2.31-.22,3.87-.65v4.27c-1.6.64-3.64.96-6.1.96s-4.28-.57-5.47-1.72c-1.19-1.14-1.79-2.89-1.79-5.25v-10.15h-3.11v-2.43l3.56-1.93,1.88-4.44h4.12v4.48h6.65v4.31h-6.65v10.15Z"/>
          <path class="cls-1" d="M213.09,38.2h-4.95l-.87-2.7h-.35c-.69.99-1.67,1.75-2.95,2.28-1.27.53-2.72.8-4.34.8-2.77,0-4.86-.66-6.29-1.97-1.41-1.33-2.12-3.24-2.12-5.73v-13.73h6.46v12.3c0,1.52.31,2.66.92,3.41.61.75,1.58,1.13,2.9,1.13,1.81,0,3.11-.53,3.91-1.59.82-1.07,1.23-2.86,1.23-5.36v-9.9h6.46v21.05Z"/>
          <path class="cls-1" d="M238.32,27.64v10.57h-6.48v-12.3c0-1.53-.29-2.67-.87-3.41-.58-.75-1.48-1.13-2.69-1.13-1.65,0-2.85.54-3.61,1.61-.75,1.06-1.13,2.84-1.13,5.34v9.9h-6.46v-21.05h4.95l.87,2.7h.35c.63-.98,1.54-1.74,2.73-2.28,1.21-.54,2.59-.82,4.15-.82,3.57,0,5.97,1.03,7.21,3.1h.59c.61-.99,1.54-1.75,2.78-2.28,1.24-.54,2.65-.82,4.22-.82,2.73,0,4.78.62,6.13,1.86,1.35,1.24,2.03,3.19,2.03,5.86v13.73h-6.48v-12.3c0-1.53-.29-2.67-.87-3.41-.58-.75-1.48-1.13-2.69-1.13-1.6,0-2.8.51-3.58,1.53-.77,1-1.16,2.59-1.16,4.75Z"/>
        </g>
      </g>
    </g>
  </g>
</svg>