<?xml version="1.0" encoding="UTF-8"?>
<svg id="Capa_2" data-name="Capa 2" xmlns="http://www.w3.org/2000/svg" viewBox="0 0 896.51 170.35">
  <defs>
    <style>
      .cls-1 {
        fill: #fff;
      }
    </style>
  </defs>
  <g id="Capa_1-2" data-name="Capa 1">
    <g>
      <path fill="#FFFFFF" d="M182.55,50.31h-42.81l-11.51-35.06C124.88,5.04,114.42.04,104.25,0c-10.17-.04-20.68,4.89-24.14,15.07l-11.97,35.24H22.59c-10.12,0-18.03,5.3-21.16,12.45-3.17,7.24-1.18,15.94,6.95,21.69,11.14,7.87,25.02,16.72,40.02,23.96l-12.1,35.62c-3.19,9.39,1.7,17.82,9.58,22.45,7.86,4.62,18.92,5.62,28.49.24l25.78-14.51c2.5-1.4,5.83-1.38,8.29.05l23.47,13.67c9.5,5.53,20.61,4.65,28.56.1,7.97-4.56,12.99-12.97,9.89-22.42l-11.7-35.64c14.36-7.19,27.63-15.89,38.31-23.64,8-5.81,9.88-14.48,6.68-21.66-3.15-7.09-11.05-12.35-21.11-12.35ZM201.32,63.47c-2.78-6.25-9.76-10.94-18.77-10.94,9.02,0,15.99,4.69,18.77,10.94ZM182.55,63.89c3.68,0,5.96,1.78,6.83,3.74.21.47.35.97.4,1.48-.05-.51-.19-1.01-.4-1.48-.87-1.96-3.15-3.74-6.83-3.74h-39.99s39.99,0,39.99,0ZM188.11,70.36c-.21.74-.74,1.56-1.85,2.37-9.34,6.78-20.53,14.14-32.46,20.41l-9.14-27.84h37.89c3.03,0,4.74,1.43,5.37,2.86.31.7.4,1.46.19,2.2ZM143.52,113.21l11.15,33.98c.13.4.22.79.27,1.17-.05-.38-.14-.77-.27-1.17l-11.15-33.97c-.48.19-.97.38-1.45.57-1.84.71-3.7,1.39-5.57,2.03,2.36-.81,4.7-1.68,7.02-2.61ZM104.87,108.26c-11.01.2-23.09-2.62-35.37-7.36l12.1-35.61h44.54l11.6,35.32c-11.37,4.58-22.58,7.45-32.87,7.64ZM108.15,121.73c-.99.05-1.97.1-2.96.12-1.03.02-2.06.01-3.1-.01,1.03.02,2.07.03,3.1,0,.98-.02,1.97-.06,2.96-.11ZM105.22,123.24c12.5-.23,25.22-3.45,37.29-8.1l10.65,32.44c.81,2.47-.42,4.72-2.74,6.05-2.34,1.34-5.57,1.58-8.34-.03l-23.47-13.67c-8.5-4.95-19.81-5.02-28.4-.19l-25.78,14.51c-2.79,1.57-6,1.29-8.31-.07-2.29-1.35-3.49-3.6-2.65-6.05l11.14-32.79c13.15,4.89,27.06,8.15,40.62,7.9ZM95.76,18.78c1.17-3.44,4.74-5.2,8.41-5.19,3.68.01,7.22,1.8,8.36,5.25l10.79,32.86h0l-10.79-32.86c-1.13-3.45-4.68-5.23-8.36-5.25-3.68-.01-7.24,1.75-8.41,5.19l-11.18,32.92h0l11.19-32.92ZM121.23,50.31h-34.53l10.57-31.12c.93-2.73,3.76-4.21,6.9-4.2,3.14.01,5.96,1.51,6.85,4.24l10.2,31.08ZM80.44,63.89h46.89l12.31,37.49s0,0,0,0l-12.31-37.48h-46.89l-12.83,37.78s0,0,0,0l12.84-37.78ZM79.46,63.89l-12.72,37.44h0l12.72-37.44ZM65.06,114c-.49-.18-.97-.37-1.46-.55l-11.65,34.28c-.33.98-.41,1.93-.27,2.83-.14-.9-.07-1.85.27-2.83l11.65-34.29c.73.28,1.47.56,2.21.84-.25-.09-.5-.18-.75-.27ZM18.93,72.72c-1.13-.8-1.68-1.62-1.9-2.36-.22-.74-.14-1.5.17-2.2.62-1.43,2.32-2.87,5.39-2.87h40.46l-9.65,28.41c-12.68-6.39-24.58-13.99-34.46-20.98ZM19.89,76.22c-.85-.59-1.69-1.18-2.52-1.76-.36-.25-.68-.51-.97-.78.29.27.61.53.97.78.83.58,1.67,1.17,2.52,1.76ZM51.06,147.49l11.68-34.38h0l-11.68,34.38c-.11.33-.2.66-.26.99.06-.33.15-.66.26-.99ZM65.16,63.89h0s-42.57,0-42.57,0c-3.72,0-6,1.8-6.85,3.76-.31.7-.46,1.47-.38,2.26-.08-.79.07-1.56.38-2.27.86-1.96,3.13-3.76,6.85-3.76h42.57ZM14.86,67.36c1-2.28,3.62-4.29,7.72-4.29h0c-4.11,0-6.73,2.02-7.72,4.29-.12.28-.22.56-.29.85.08-.29.17-.57.29-.85ZM9.36,83.35c-4.74-3.35-7.22-7.75-7.7-12.21.48,4.46,2.97,8.86,7.7,12.2,3.78,2.68,7.88,5.46,12.23,8.26-4.35-2.79-8.45-5.58-12.23-8.25ZM47.79,93.38c-3.73-1.98-7.37-4.05-10.9-6.17,3.53,2.11,7.17,4.18,10.9,6.17ZM47.44,106.33c.94.46,1.88.92,2.83,1.38h0c-.47-.22-.94-.45-1.41-.67-.48-.23-.95-.47-1.42-.7ZM159.62,164.84c6.08-3.48,10.27-9.29,10.09-16.04.19,6.75-4,12.57-10.09,16.05-7.48,4.28-17.92,5.11-26.85-.09l-23.47-13.67c-2.98-1.74-6.98-1.76-9.99-.07l-25.78,14.51c-8.99,5.06-19.38,4.12-26.78-.22-5.55-3.26-9.47-8.48-9.83-14.56.36,6.08,4.28,11.3,9.83,14.56,7.4,4.35,17.79,5.28,26.78.22l25.78-14.51c3.02-1.7,7.01-1.67,10,.07l23.47,13.67c8.92,5.2,19.36,4.37,26.85.09ZM195.98,83.24c-10.56,7.66-23.64,16.24-37.77,23.34-.47.24-.94.47-1.41.7h0c14.67-7.25,28.27-16.13,39.18-24.05,5.59-4.06,7.95-9.58,7.53-14.89.42,5.31-1.94,10.84-7.53,14.89Z"/>
      <path fill="#FFFFFF" d="M299.77,118.34c-1.78-1.43-2.67-3.56-2.67-6.37v-35.95h23.55v-15.27h-23.55v-15.86h-14.61l-6.68,15.71-12.61,6.82v8.6h11.02v35.95c0,8.35,2.12,14.55,6.35,18.6,4.23,4.05,10.69,6.08,19.37,6.08s15.95-1.14,21.63-3.41v-15.12c-5.51,1.53-10.08,2.3-13.69,2.3s-6.32-.69-8.1-2.08Z"/>
      <path fill="#FFFFFF" d="M389.02,65.86c-5.96-4.45-14.75-6.67-26.38-6.67s-22.18,2.25-31.81,6.75l7.6,13.71c9.13-3.56,17.01-5.34,23.63-5.34,8.74,0,13.11,3.78,13.11,11.34v3.26l-14.61.37c-12.75.4-22.21,2.5-28.39,6.3-6.12,3.81-9.18,9.54-9.18,17.2s2.31,13.56,6.93,17.72c4.62,4.1,10.99,6.15,19.12,6.15,6.57,0,11.88-.82,15.95-2.45,4.06-1.68,8.04-4.69,11.94-9.04h.58l4.43,10.15h16.03v-49.66c0-8.79-2.98-15.39-8.93-19.79ZM375.16,106.93c0,4.5-1.59,8.1-4.76,10.82-3.17,2.67-7.43,4-12.78,4-7.4,0-11.1-2.87-11.1-8.6,0-4,1.61-6.97,4.84-8.89,3.23-1.98,8.21-3.06,14.95-3.26l8.85-.22v6.15Z"/>
      <rect fill="#FFFFFF" x="411.56" y="31.55" width="22.88" height="103.77"/>
      <path fill="#FFFFFF" d="M510.96,68.38c-6.62-6.03-16-9.04-28.14-9.04s-21.68,3.41-28.81,10.23c-7.01,6.82-10.52,16.41-10.52,28.76s3.79,21.84,11.36,28.46c7.63,6.57,18.2,9.86,31.73,9.86,11.8,0,21.65-1.75,29.56-5.26v-15.71c-9.35,3.9-18.84,5.85-28.47,5.85-6.46,0-11.52-1.61-15.2-4.82-3.62-3.26-5.54-7.81-5.76-13.64h54.19v-9.86c0-10.53-3.31-18.8-9.94-24.83ZM467.2,89.58c.39-5.04,1.98-8.92,4.76-11.64,2.78-2.77,6.6-4.15,11.44-4.15s8.77,1.38,11.61,4.15c2.84,2.77,4.29,6.65,4.34,11.64h-32.15Z"/>
      <path fill="#FFFFFF" d="M599.61,66.38c-5.07-4.69-12.5-7.04-22.29-7.04-5.73,0-10.86.94-15.37,2.82-4.45,1.88-7.93,4.6-10.44,8.15h-1.25l-3.09-9.56h-17.53v74.57h22.88v-35.06c0-8.84,1.45-15.15,4.34-18.9,2.9-3.8,7.52-5.71,13.86-5.71,4.68,0,8.1,1.33,10.27,4,2.17,2.62,3.26,6.65,3.26,12.08v43.58h22.96v-48.62c0-8.89-2.53-15.66-7.59-20.31Z"/>
      <path fill="#FFFFFF" d="M648.91,118.34c-1.78-1.43-2.67-3.56-2.67-6.37v-35.95h23.55v-15.27h-23.55v-15.86h-14.61l-6.68,15.71-12.61,6.82v8.6h11.02v35.95c0,8.35,2.12,14.55,6.35,18.6,4.23,4.05,10.69,6.08,19.37,6.08s15.95-1.14,21.62-3.41v-15.12c-5.51,1.53-10.08,2.3-13.69,2.3s-6.32-.69-8.1-2.08Z"/>
      <path fill="#FFFFFF" d="M731.9,95.81c0,8.84-1.45,15.17-4.34,18.97-2.83,3.76-7.46,5.63-13.86,5.63-4.68,0-8.1-1.33-10.27-4-2.17-2.67-3.26-6.7-3.26-12.08v-43.58h-22.88v48.62c0,8.84,2.51,15.61,7.52,20.31,5.07,4.65,12.5,6.97,22.29,6.97,5.73,0,10.86-.94,15.37-2.82,4.51-1.88,7.99-4.57,10.43-8.08h1.26l3.09,9.56h17.53V60.75h-22.88v35.06Z"/>
      <path fill="#FFFFFF" d="M889.33,65.94c-4.78-4.4-12.02-6.6-21.71-6.6-5.57,0-10.55.96-14.95,2.89-4.4,1.88-7.68,4.57-9.85,8.08h-2.09c-4.39-7.31-12.91-10.97-25.55-10.97-5.52,0-10.41.96-14.7,2.89-4.23,1.93-7.46,4.62-9.68,8.08h-1.26l-3.09-9.56h-17.53v74.57h22.88v-35.06c0-8.84,1.33-15.15,4-18.9,2.68-3.8,6.93-5.71,12.78-5.71,4.29,0,7.46,1.33,9.52,4,2.06,2.62,3.09,6.65,3.09,12.08v43.58h22.96v-37.43c0-7.66,1.37-13.27,4.1-16.83,2.78-3.61,7.01-5.41,12.69-5.41,4.28,0,7.45,1.33,9.52,4,2.06,2.62,3.09,6.65,3.09,12.08v43.58h22.96v-48.62c0-9.44-2.39-16.36-7.18-20.75Z"/>
    </g>
  </g>
</svg>