<?xml version="1.0" encoding="UTF-8"?>
<svg id="Capa_2" data-name="Capa 2" xmlns="http://www.w3.org/2000/svg" viewBox="0 0 603.87 149.93">
  <defs>
  </defs>
  <g id="Capa_1-2" data-name="Capa 1">
    <g>
      <path fill="#FFFFFF" d="M200.19,0h-15.16c-.54,0-1.06.22-1.44.6-.38.38-.6.9-.6,1.44v118.72c0,.27.05.53.16.78.1.25.25.47.44.66.19.19.42.34.66.44.25.1.51.15.78.15h15.15c.27,0,.53-.05.78-.15.25-.1.47-.25.66-.44.19-.19.34-.41.44-.66.1-.25.16-.51.16-.78V2.04c0-.54-.21-1.06-.6-1.44-.38-.38-.9-.6-1.44-.6Z"/>
      <path fill="#FFFFFF" d="M497.97,0h-15.15c-.27,0-.53.05-.78.16-.25.1-.47.25-.66.44s-.34.41-.44.66c-.1.25-.16.51-.15.78v118.72c0,.27.05.53.15.78.1.25.25.47.44.66.19.19.42.34.66.44.25.1.51.15.78.15h15.15c.54,0,1.06-.21,1.44-.6s.6-.9.6-1.44V2.04c0-.54-.21-1.06-.6-1.44s-.9-.6-1.44-.6Z"/>
      <path fill="#FFFFFF" d="M260.67,32.91c-25.25,0-43.65,19.71-43.65,46.61s17.39,45.78,44.82,45.78c15.56,0,30.03-5.81,38.36-18.19.22-.33.31-.73.25-1.12-.05-.39-.24-.75-.54-1.01l-11.23-9.99c-.19-.16-.41-.28-.65-.34-.24-.06-.49-.07-.73-.02-.24.05-.47.15-.67.31-.2.15-.35.35-.46.57-4.76,9.34-12.39,13.6-23.84,13.6-12.7,0-22.31-6.64-24.82-21.85-.04-.23-.02-.47.05-.7.06-.23.18-.44.33-.61.15-.18.34-.32.56-.42.21-.1.45-.15.68-.15h61.2c.41,0,.8-.15,1.1-.42.3-.27.49-.65.53-1.05.22-2.06.34-4.14.35-6.21,0-26.56-16.06-44.77-41.65-44.77ZM281.43,70.3c-.08.2-.2.39-.35.55-.15.16-.34.28-.54.37-.2.08-.42.13-.64.13h-40.53c-.24,0-.47-.05-.69-.15-.22-.1-.41-.25-.56-.43-.15-.18-.26-.4-.32-.63-.06-.23-.07-.47-.02-.71,2.8-13.72,11.69-20.29,22.57-20.29,12.81,0,20.56,8.11,21.2,20.54,0,.22-.03.44-.11.64Z"/>
      <path fill="#FFFFFF" d="M603.54,36.52c-.18-.27-.42-.48-.71-.64-.29-.15-.6-.23-.92-.23l-17.24.03c-.3,0-.59.09-.85.26-.25.17-.44.41-.55.69l-6.11,15.83h-.03l-16.23,42.05c-.11.28-.3.52-.55.69-.25.17-.54.26-.84.27-.3,0-.59-.09-.84-.26-.25-.17-.44-.41-.55-.69l-23.11-57.95c-.11-.28-.3-.52-.55-.68-.25-.17-.54-.26-.84-.26h-18.04c-.29,0-.57.07-.82.21s-.47.33-.63.57c-.16.24-.26.51-.28.8-.02.29.02.57.13.84l1.09,2.61-.11-.21,33.52,79.74c-.82,2.54-2.19,4.88-4.01,6.84-.49.54-1.04,1.01-1.65,1.4-.99.67-2.08,1.17-3.24,1.47-1.88.54-3.84.79-5.81.75h-.05c-.28,0-.54.02-.82.03l-12.45.15c-.39,0-.76.16-1.03.44-.28.27-.43.65-.44,1.03l-.25,16.1c0,.2.03.4.11.58.07.18.18.35.32.49s.3.25.49.33c.18.08.38.12.58.12h17.91c14.43,0,21.38-3.67,26.76-16.83l28.61-70.05c.15-.36.15-.77,0-1.13-.15-.36-.43-.65-.78-.81l-15.46-8.56.02-.02h19.25c.4,0,.8-.12,1.13-.34s.59-.54.75-.92l5.29-12.92c.12-.3.17-.62.13-.94-.03-.32-.14-.63-.32-.89Z"/>
      <path fill="#FFFFFF" d="M460.31,36.42c-.12-.12-.27-.22-.43-.28-.16-.07-.33-.1-.5-.1h-22.13c-.17,0-.34-.03-.5-.1-.16-.07-.3-.16-.42-.28-.12-.12-.22-.27-.28-.42-.07-.16-.1-.33-.1-.5V5.91c0-.24-.07-.48-.2-.69-.13-.21-.31-.37-.53-.48-.22-.11-.46-.15-.7-.13-.25.02-.48.11-.67.26l-16.61,12.41c-.17.12-.3.28-.39.46-.09.18-.14.38-.14.59v16.41c-.01.11-.03.22-.07.32v18.52c.03.1.06.21.07.32v43.47c0,19.88,10.37,27.73,29.27,27.73,4.19-.07,8.36-.58,12.44-1.51.27-.08.51-.24.68-.47s.26-.5.26-.79v-14.33c0-.19-.04-.38-.12-.56-.08-.17-.2-.33-.35-.45-.15-.12-.32-.21-.5-.26-.19-.05-.38-.05-.57-.02-2.97.57-5.98.92-9,1.02-8.7,0-12.88-2.18-12.88-12.87v-40.96c0-.35.14-.68.38-.92.25-.25.58-.38.93-.38h22.13c.35,0,.68-.14.93-.38.25-.25.38-.58.38-.92v-13.92c0-.17-.03-.34-.1-.5-.07-.16-.16-.3-.28-.43Z"/>
      <path fill="#FFFFFF" d="M59.17,36.3c-.25-.25-.58-.38-.93-.38h-22.13c-.17,0-.34-.03-.5-.1-.16-.07-.3-.16-.42-.28-.12-.12-.22-.27-.28-.42-.07-.16-.1-.33-.1-.5V5.79c0-.24-.07-.48-.19-.69s-.31-.37-.53-.48-.46-.16-.7-.13c-.24.02-.47.11-.67.25l-16.62,12.41c-.16.12-.3.28-.39.46-.09.18-.14.38-.14.59h0s-.01.04-.01.06v16.41c0,.35-.14.68-.38.92-.25.25-.58.38-.93.38H1.31c-.17,0-.34.03-.5.1-.16.07-.3.16-.42.28-.12.12-.22.27-.28.42-.07.16-.1.33-.1.5v13.93c0,.17.03.34.1.5.07.16.16.3.28.42.12.12.27.22.42.28.16.07.33.1.5.1h12.93c.35,0,.68.14.93.38.25.25.38.58.38.92v43.47c0,19.88,10.37,27.73,29.27,27.73,4.19-.07,8.36-.58,12.44-1.52.21-.06.4-.18.56-.33.15-.16.27-.35.32-.56.05-.14.07-.28.07-.43v-14.33c0-.19-.04-.38-.12-.55-.08-.17-.2-.33-.35-.45-.15-.12-.32-.21-.51-.26s-.38-.05-.57-.02c-2.97.57-5.98.91-9,1.02-8.69,0-12.87-2.18-12.87-12.87v-33.09h-.01v-7.8c0-.17.03-.34.1-.5.07-.16.16-.3.28-.42.12-.12.27-.22.42-.28.16-.07.33-.1.5-.1h22.13c.17,0,.34-.03.5-.1.16-.07.3-.16.42-.28.12-.12.22-.27.28-.42.07-.16.1-.33.1-.5,0-.02.01-.03.01-.05v-13.93c0-.35-.14-.68-.39-.92Z"/>
      <path fill="#FFFFFF" d="M161.54,35.8h-15.91c-.44,0-.86.17-1.18.49-.31.31-.49.73-.49,1.17v8.87c-6.86-8.19-16.89-13.53-30.27-13.53-26.13,0-43.8,20.01-43.98,46.05v.35c.18,26.04,17.85,46.05,43.98,46.05,13.38,0,23.41-5.35,30.27-13.53v9.44c0,.44.17.85.48,1.16s.73.48,1.16.48h15.95c.44,0,.85-.17,1.16-.48.31-.31.48-.73.48-1.16V37.46c0-.44-.18-.86-.49-1.17-.31-.31-.73-.49-1.18-.49ZM117.21,107.88c-16.32,0-27.49-12.1-27.59-28.85.09-16.75,11.27-28.85,27.59-28.85s27.32,11.93,27.42,28.85c-.1,16.92-11.76,28.86-27.42,28.86ZM155.22,79.04h-.3s.3-.02.3-.02v.02Z"/>
      <path fill="#FFFFFF" d="M366.37,32.92c-16.81-.27-23.19,8.98-27.6,15.96v-10.83c0-.56-.23-1.11-.62-1.5-.4-.4-.94-.62-1.51-.63h-14.97c-.56,0-1.11.23-1.5.63-.4.4-.62.94-.62,1.5v82.62c0,.56.22,1.11.62,1.5.4.4.94.62,1.5.63h14.97c.56,0,1.11-.23,1.51-.63.4-.4.62-.94.62-1.5v-44.15c0-16.53,8.2-25.89,22.08-25.89,12.88,0,18.73,7.18,18.73,22.89v47.16c0,.56.22,1.11.63,1.51.4.4.94.62,1.51.62h14.97c.56,0,1.11-.23,1.51-.62.4-.4.62-.94.62-1.51v-49.83c0-24.38-11.36-37.91-32.44-37.91Z"/>
    </g>
  </g>
</svg>