<?xml version="1.0" encoding="UTF-8"?>
<svg id="Capa_2" data-name="Capa 2" xmlns="http://www.w3.org/2000/svg" viewBox="0 0 175.54 59.62">
  <defs>
    <style>
      .cls-1 {
        fill: #fff;
      }
    </style>
  </defs>
  <g id="Espalda">
    <g>
      <path fill="#FFFFFF" d="M38.42,23.91l3.08-12.21c.06-.17-.15-.44-.27-.47h-19.03c-.4,1.95-1.09,3.87-1.61,5.77-2.67,9.71-5.03,19.5-7.56,29.24-.9,3.44-2.39,7.5-3.05,10.88-.07.36-.19,2.14.26,2.14h8.32c.18,0,1.02-.71,1.1-.98.12-.43-.03-.94.09-1.37,2.61-9.63,4.68-18.8,7.19-28.58.11-.43.97-4.13,1.29-4.32.92-.56,9.84.26,10.19-.1Z"/>
      <path fill="#FFFFFF" d="M15.81,23.03c1.66-7.04,3.56-14.01,5.29-21.12.11-.46.51-1.74-.04-1.91H3.58c-1.04,2.02-1.4,4.32-2.04,6.48-.34,1.16-.97,2.55-1.29,3.7-.09.33-.51,1.88,0,1.88h9.78c.84,0-.04,1.94-.09,2.2-1.95,10.32-5.4,20.76-7.56,31.12-.08.37-.46.72-.55,1.32-.09.57.02,1.18-.02,1.75h7.59c.42,0,.51-1.73.62-2.09,2.31-7.58,3.98-15.68,5.79-23.33Z"/>
      <path fill="#FFFFFF" d="M136.9,41.19c.4-1.54.31-1.05.77-2.92.06-.26.49-2.5.49-2.5-.4.04-4.58,0-5.55,0s-1.52,1.2.24,1.2c.13,0-.44,2.8-.47,3.08,0,0-1.68,0-2.63-.05l2.34-9.69c1.05-.03,1.88.01,2.58.03-.05.67-1.13,4.33-.84,4.39h4.67c.08,0,.34-1.02.47-1.36.1-.25.53-3.04.56-3.21.17-.83.1-.9-1.03-.87-1.08-.01-9.8-.01-11-.01-.23,0-.12.55-.25.68-.13.13-2.27,9.35-2.49,10.1-.07.23-.42,1.16-.12,1.33.31.17,2.13-.03,2.51,0,2.47.16,6.29.18,8.75,0,.35-.03.69-.06,1.01-.19Z"/>
      <path fill="#FFFFFF" d="M116.8,46.79c-2.54,0-2.48-.09-2.48.38s-.62,3.85-.73,4.37c-.1.44-.51,2.52-.65,2.52-.19,0-1.08-.04-1.33.01l-.43-2.74c-.49-1.48-.77-4.54-.79-4.55-.74-.33-5.47-.03-6.57-.28-.35.8.32,1.39.34,1.46.17.87-2.21,8.89-2.5,10.29-.17.84-.4.97.83,1.01,2.14.07,1.61.52,1.98-.95.08-.32,1.15-5.3,1.33-5.64.23-.41-.07-.95.81-.79.7.13.53.99.65,1.35.08.26.09.97.21,1.2.06.11.13.6.22.87.4,1.18.31,2.87,1.28,4.04.13.16.29.02.4.09.17.11,3.84.02,4.23.02.87,0,1.76-4.65,1.98-5.57.46-1.88.98-3.92,1.33-5.84.12-.68.66-1.27-.13-1.27Z"/>
      <path fill="#FFFFFF" d="M158.03,29.52h-5.91c-.22.82,0,1.45-.49,2.24-.65,1.05-5.34,8.06-5.45,8.15-.21.18-.7,1.1.1,1.25,1.43.27,1.22-.13,1.59-.58.14-.17.28-.72.42-.89.15-.18-.03-.13.17-.29.67-.52,5.49-.21,5.6-.1.09.09.07,1.71.53,1.86.62.2,4.2,0,5.2,0s-.96-6.62-1.5-9.1c-.18-.84-.34-1.67-.27-2.54ZM152.95,37.44c-.43.19-2.29.19-2.4-.02-.14-.25.46-1.19.55-1.33.29-.47.52-.69.79-1.12.61-.99,1.39,2.33,1.07,2.47Z"/>
      <path fill="#FFFFFF" d="M129.04,47.02h-6.23c-.23.86,0,1.53-.51,2.36-.68,1.1-5.63,8.49-5.74,8.59-.23.19-.74,1.16.1,1.32,1.51.29,1.28-.14,1.68-.61.15-.17.29-.76.44-.94.16-.19-.04-.14.18-.31.7-.55,5.78-.22,5.91-.1.09.09.07,1.8.56,1.96.65.21,4.43,0,5.48,0s-1.01-6.98-1.58-9.6c-.19-.89-.36-1.76-.28-2.68ZM123.69,55.36c-.45.2-2.41.2-2.53-.02-.14-.27.48-1.26.58-1.4.31-.49.55-.72.83-1.18.65-1.04,1.46,2.46,1.12,2.61Z"/>
      <path fill="#FFFFFF" d="M174.57,29.32c-2.15-.19-5.96-.18-8.12,0-.35.03-1.92-.1-2.14.08-.21.17-.21.11-.33.45-.07.2-.39,2.31-.45,2.5-.24.68-.46,3.91-.46,3.91-.02-.03-.09.44.9.35,1.55-.15,3.77,0,5.41,0,.86,0,.49.06.49,1-.29,2.64-.36,2.52-.58,2.65-.99.3-6.65.1-6.88.14-.07.02.03.61,0,.78h11.21c.84.2.88-2.19,1.18-4.03.08-.48.53-3.33-.11-3.37-1.35-.09-4.52-.03-6.22-.11-.08-.13.1-2.84.17-3.16.03-.12.46-.35.53-.35h6.34c.17-.73-.31-.78-.93-.83Z"/>
      <path fill="#FFFFFF" d="M138.66,41.01c-.44.59,3.98.3,4.5.37.91.11,1.02-2.51,1.19-3.4.1-.56.57-3.28.82-3.96.1-.29.62-2.77.8-3.52.04-.16,1.01-.5.63-.97-.19-.23-4.31-.29-4.9-.22-1.25.15-.49.81-.53,1.55-.09,1.8-2.39,9.07-2.5,10.16Z"/>
      <path fill="#FFFFFF" d="M135.45,46.63c-.38,0-.71.27-.78.64l-1.33,6.73c-.1.49.28.95.78.95h5.13c.48,0,.85.43.79.9l-.17,1.27c-.01.09-.04.18-.09.26-.06.1-.12.18-.19.22-.14.1-.31.16-.51.2,0,0-.01,0-.02,0l-5.62-.13c-.38,0-.72.26-.8.63-.1.49.27.95.76.96l1.9.03s.04.02.07.03c.02-.01.04-.02.05-.03l6.51.12s0,0,0,0c0,0,0,0,0,0l1.92.03c.4,0,.74-.28.8-.67l1.08-6.84c.08-.48-.3-.92-.78-.92l-6.35-.02c-.28,0-.51-.15-.65-.36,0-.63.22-1.54.46-2.21l.39-.64c.04-.07.1-.13.16-.19h6.9c.15,0,.28-.05.37-.13h.15s.14-.85.14-.85h-11.07Z"/>
      <path fill="#FFFFFF" d="M86.99,47.53s.52-.13.43-.75h-5.32c-.21,0-.59,1.49-.64,1.74-.4,1.9-.8,4.16-1.26,6.02-.21.84-.32,2.75-1.05,3.1-.37.18-1.43.07-1.58-.35-.24-.73,2.57-10.52,1.52-10.52h-5.51c-.29.7.38.86.41.97.07.29-.32,1.68-.43,2.03-.47,1.49-1.79,6.89-1.66,7.92.1.8,1.33,1.69,2.19,1.77,1.77.17,6.21.21,7.93,0,.26-.03,1.8-.81,1.96-.96.2-.19.2-.49.36-.69.13-.17.65-1.78.79-2.32.54-2.07.96-4.87,1.56-6.76.11-.35.3-1.08.33-1.22Z"/>
      <path fill="#FFFFFF" d="M55.26,40.29c.1.18-.04.59.21.79.15.11,2.57.13,2.89.15.49.03,8.38.12,8.59-.06.22-.2.51-2.3.84-3.62.13-.51-.01-.03.07-.37,0,0-4.15-.11-4.58-.03l-.86,3.17c-.5.03-.46,0-2.39-.05l2.11-9.9h2.49c.07.06-.19,1.67-.26,1.92-.12.43-.18,1.75-.11,1.75h4.26c.23-.17.91-4.1.88-4.51h-10.91c-.11,0-.61-.01-.75.1-.25.19-.55,2.26-.7,2.82-.27,1.03-1.91,7.65-1.79,7.85Z"/>
      <path fill="#FFFFFF" d="M100.27,58.68c-.1-.54-.53-3.4-.64-3.94-.38-2.02-.58-4.84-1.14-6.76-.19-.65-.36-1.12-1.08-1.21-.56-.07-5.13-.18-5.32.01-.05.05.02,1.07-.09,1.48-.22.81-1.66,2.41-2.13,3.16-1.23,1.98-2.31,4.1-3.52,5.95-.18.27-.75,1.28-.98,1.77-.33.71.77.29,1.61.31,1.31.04,1.18-.83,1.41-1.16.1-.14.19-.58.34-.74.2-.22-.09-.44.28-.45.99-.01,4.45.09,4.64.07.4-.05.19,1.01.38,1.39.03.06-.14.9.87.9h4.93c.87,0,.51-.4.43-.78ZM90.49,55.78c-.27-.17,1.01-2.64,1.46-3.21.13-.17.54-.72.88-.18.08.13.48,3.34.48,3.34,0,0-2.39.31-2.81.05Z"/>
      <path fill="#FFFFFF" d="M44.34,47.82c.42-1.04-.57-1.01-.62-1.04,0,0-8.37,0-11.75,0-.1.51,0,1.1-.05,1.57-.15,1.54-1.47,6.71-2.01,9.78-.1.54-.11,1.13.51,1.13h3.74c.8.06.7-1.36.89-1.92.01-.04.15-1.33.43-1.43.83-.3,5.34.01,6.57-.23.51-.1.64-.15.94-1.12.56-1.21.94-5.68,1.36-6.74ZM38.73,52.7c-.12.42-.3,2.11-.6,2.1-.34,0-2.04.14-2.32-.07s.45-2.74.61-3.44c.16-.68.09-1.57.36-2.16.1-.22.24-1.27.48-1.41.2-.11,1.3.02,2.21.09.36.03.18.49,0,1.15-.31,1.1-.44,2.68-.74,3.74Z"/>
      <path fill="#FFFFFF" d="M69.63,41.17c.07.08,2.01.07,2.08,0,.01-.01.02-.08.02-.16h0l2.15-7.65c.08.05.16.14.25.3.65,1.18,1.16,2.71,1.63,3.99.4,1.08.71,2.35,1.13,3.44.79.06,4.34.31,4.7-.12l2.37-9.67.53-2.01h-1.97l-.1.46-1.61,6.7c-.23.53-.59.42-.9.13l-2.57-6.85c-.02-.07-.04-.14-.06-.16-.31-.35-5.05-.38-5.28-.05-.04.06-.07.21-.08.4l-2.31,10.83h0c-.05.2-.06.36.01.43Z"/>
      <path fill="#FFFFFF" d="M55.77,52.19h-5.07c.28-1.6.56-2.8.84-4.56.92-.13,6.14-.1,6.14-.1.11-.16.33-.7.17-.75h-11.21c-.48,0-.1,1.02-.09,1.34.02,1.37-.59,3.67-.94,5.11-.32,1.32-1.03,3.34-1.34,4.69-.07.29-.44,1.54-.03,1.54h9.84c.03.11.47-1.66.47-1.66h-5.12c.17-.53.81-3.56.93-3.69.04-.05,4.77,0,4.92-.02,0,0,.51-1.9.49-1.9Z"/>
      <path fill="#FFFFFF" d="M34.16,30.15c.48,0,.2,1.59.09,1.92-.81,2.39-1.26,5-2.04,7.4-.17.52-.23,1.16-.23,1.71h4.58c.23-.67.17-1.38.34-2.05.55-2.29,1.01-4.64,1.59-6.93.15-.57.61-1.47.88-2.03h3.64v-.62c-4.18-.12-8.31-.18-12.48,0v.62h3.64Z"/>
      <path fill="#FFFFFF" d="M70.35,54.68c.55-.7,1.61-5.12,1.58-6.13-.02-.88-.31-1.25-1.07-1.65,0,0-11-.11-11.22-.11-.41,0,0,.75,0,.75.25.49-1.61,8.28-1.89,9.73-.08.43-1,2,.13,2h4.46c.23-.23.07-.29.2-.4,0,0,.4-2.7.44-2.8,0,0,.72.01.89.07.38.12.25,3.13.43,3.13l4.95.06c.34,0,.32-.1.32-.42,0-.46-1.08-2.68-1-2.86.17-.39,1.02-.38,1.77-1.36ZM66.36,52.36c-.6,2.55-.16,2.7-3.07,2.38.27-1.23.65-2.84,1.04-4.4.13-.52.48-2.17.61-2.57.03-.08,1.72-.05,1.8-.04.7.08.47.73.26,1.76-.27,1.26-.38,1.8-.64,2.87Z"/>
      <path fill="#FFFFFF" d="M42.64,40.49l-.02.1h.01c-.03.28.03.51.26.58h9.57c.72,0,.71-.83-.21-.83h-4.37c-.06,0-.18-.12-.29-.27l.98-4.31c1.11-.29,5.05.34,5.44-.21.12-.17-.2-.62-.31-.62h-4.37c-.34,0-.39-.48-.32-1.11l.79-3.47.16-.2h6.14v-.62s-11.2-.33-11.2-.33l-.03.34-2.19,10.74c-.02.08-.03.15-.04.22Z"/>
      <path fill="#FFFFFF" d="M98.75,30.67c-.09-.89-.29-1.23-.8-1.39h-10.16c-1.05.2-.74.02-1.01.67-.06.16-.56,1.45-.67,1.69-.97,2.13-2.29,8.15-1.97,9.21.02.06.03.4.35.42,2.17.16,8.42.48,10.51.24.96-.11,1.01-.33,1.36-1.4.62-1.89,2.55-7.74,2.38-9.43ZM91.7,39.87c-.11.3-.89.31-2.23.11-.3-.05.25-2.42.34-2.85.1-.46,1.51-6.59,1.67-6.75.12-.12,1.89.06,2.28-.01.3,1.14-1.41,7.75-2.06,9.51Z"/>
      <path fill="#FFFFFF" d="M109.15,40.34h-4.68c-.09,0-.15-.09-.19-.23l1.38-6.77c.05-.15.09-.3.14-.44.1-.3.13-.63.15-.96l.36-1.78c.29-.09.66-.24.34-.63-.18-.22-4.34-.31-4.89-.21-.95.18-.3.95-.33,1.54-.12,2.29-1.49,6.45-2.02,9-.08.39-.79,1.14-.14,1.31h9.88s.04-.83,0-.83Z"/>
      <path fill="#FFFFFF" d="M124.5,29.28h-3.27c-3.14-.06-7.28,0-7.9,0-.12,0-.29.07-.38.19-.16.22-.33,1.72-.51,2.05-.23.42-2.3,8.97-1.89,9.38.62.62,8.9,0,10.35.27.11,0,.19-.03.26-.07h.81c.45-.16.64-.45.64-.45l2.42-10.89c.14-.43-.52-.47-.52-.47ZM117.36,30.56c.12,0,2.85-.07,2.85-.07.04.08-.38,1.93-.53,2.5-.5,1.94-1.28,5.08-1.68,7.16,0,0-1.01,0-2.82-.04l2.18-9.56Z"/>
    </g>
  </g>
</svg>