<?xml version="1.0" encoding="UTF-8"?>
<svg id="Capa_2" data-name="Capa 2" xmlns="http://www.w3.org/2000/svg" viewBox="0 0 128.67 64.52">
  <defs>
    <style>
      .cls-1 {
        fill: #fff;
      }
    </style>
  </defs>
  <g id="Espalda">
    <g>
      <path fill="#FFFFFF" d="M126.71,12.61c-.47.47-1.18.79-1.67,1.16-.85.63-.02.54.39,1,1.17,1.32,1.9,3.2,1.96,4.97.22,6.17,1.41,14.41.87,20.34-.72,7.82-13.97,8.97-14.79.52-3.34,3.78-7.85,6.06-12.9,6.5l1.27,9.98c.09,8.12-11.97,10.23-14.52,3.18-.52-1.45-.39-2.65-.59-4.03-.63-4.52-1.3-9.04-2.1-13.53l-2.54,1.76c-3.38,1.77-8.34,1.4-10.36-2.18-.38,0-1.46,1.31-1.92,1.65-3.89,2.85-10.17,1.95-11.91-2.91-.61-1.72-.5-3.46-.74-5.24l-2.01,3.76c-6.03,10-19.1,12.02-26.61,2.54-1.5,5.52-10.49,8.17-13.53,2.63-1.59-2.9-2.17-9.75-2.51-13.22-.34-3.46-.42-6.93-.73-10.39-.19-.28-.3-.16-.54-.12-2.78.54-4.55,1.52-7.47.37-5.23-2.06-4.74-10.03-.21-12.66,2.62-1.52,5.03-1.2,7.78-1.66,2.64-.44,5.31-.97,7.93-1.51,4.04-.83,10.27-3.3,14.09-1.38,3.2,1.6,3.96,5.56,3.07,8.77,2.82.64,5.34,2.78,5.65,5.78.43,4.17-2.41,10.56-1.03,14.46.1.27.1.57.51.53,1.06-.23,1.96-4.97,1.99-5.98.07-2.26-.77-4.85-.85-7.12-.23-6.63,5.88-8.47,11.33-6.62-.35-2.6-.89-5.23.11-7.76,1.8-4.56,7.86-5.87,11.91-3.53.85.49,1.32,1.18,2.14,1.65,2.88-2.69,7.21-3.73,10.81-1.8,4.21,2.24,4.14,7.51,4.6,11.66,1.65-.63,3.31-1.18,5.11-1.02.58.05,2.05.64,2.29.58.28-.07,1.13-1.1,1.55-1.41,6.68-4.85,15.72-2.18,20.93,3.53l2.62-2.41c-5.06-2.91-4.85-10.39.7-12.73,7.9-3.34,15.59,6.26,9.92,11.92ZM119.61,4.14c-4.27.5-3.91,5.74,0,6.4,7.45,1.25,5.53-7.05,0-6.4ZM60.26,5.81c-1.84.31-2.65,2.11-2.69,3.83,1.2,7.9,2.65,15.77,3.58,23.71.36,3.12-.66,8.51,4.07,8.05,3.8-.37,3.86-4.01,3.69-7-.4-7.25-1.85-16.41-2.96-23.68-.55-3.63-1.51-5.61-5.69-4.91ZM73.47,5.81c-1.45.24-2.54,1.58-2.65,3.01.87,8.26,2.56,16.46,3.54,24.74.37,3.13-.7,8.3,4.07,7.84,3.68-.35,3.86-3.85,3.69-6.8-.42-7.21-1.84-16.24-2.96-23.47-.58-3.71-1.13-6.09-5.69-5.33ZM29.24,7.5c-3.89.26-9.07,2.08-13.12,2.81-2.83.51-6.56.64-9.15,1.33-2.17.58-3.27,2.36-2.7,4.57.2.79.42,1.09,1.18,1.33,2.08.65,6.6-1.27,9.07-1.3,1.14-.01,1.25.79,1.35,1.8.59,5.92.49,11.87,1.29,17.8.2,1.47.77,7.22,2.22,7.64,2.17.63,5.08-.81,5.31-3.21-1.03-6.86-2.34-13.81-2.52-20.78-.03-1.26-.25-3.32.51-4.31,2.13-2.76,10.96.5,9.92-5.71-.33-1.95-1.67-2.09-3.35-1.98ZM90.93,21.08c.48-5.21-7.26-4.89-6.71-.11,2.36,10.07,4.51,20.21,6.05,30.45.27,1.8.37,7.46,1.62,8.45,1.02.8,3.52.52,4.59-.18,1.23-.81,1.22-2.13,1.15-3.46-.2-3.46-1.33-7.45-1.46-10.91-.14-3.58,2.29-2.18,4.92-2.41,11.48-1.04,16.48-15.64,9.33-24.22-4.42-5.3-13.78-7.15-17.78-.38-.44.74-.7,1.78-1.15,2.42-.17.24-.17.46-.57.37ZM47.37,18.2c-1.25,1.22.27,6.23.36,8.02.21,4.15-1.85,13.32-7.66,11.65-5.84-1.67-2.59-13.03-2.22-17.13.25-2.75-.9-3.83-3.63-4.07-2.25-.2-3.65.27-4.08,2.65-1.46,8.12-2.23,23.52,9.11,24.63,9.56.94,14.03-7.57,15.35-15.68.44-2.71,1.42-8.13-1.1-9.91-1.35-.95-4.93-1.33-6.13-.15ZM119.4,16.94c-2.79.36-2.75,1.91-2.68,4.25.11,3.75.88,7.8,1.06,11.53.08,1.79-.35,7.55.33,8.69,1,1.66,5.23.8,5.85-1.04.3-.88.16-4.02.12-5.14-.12-3.76-.6-7.57-.85-11.32-.19-2.98.91-7.58-3.83-6.97Z"/>
      <path fill="#FFFFFF" d="M99.48,19.67c8.26-.93,11.85,16.21,1.57,17.51-2.18.28-5.69.51-6.46-2.03-.34-1.14-.5-4.07-.52-5.35-.07-3.95.52-9.58,5.41-10.12ZM98.51,33.22c3.96.5,5.5-1.96,4.65-5.6-.92-3.96-4.39-6.13-5.05-.71-.1.78.03,6.09.39,6.31Z"/>
    </g>
  </g>
</svg>