<?xml version="1.0" encoding="UTF-8"?>
<svg id="Capa_2" data-name="Capa 2" xmlns="http://www.w3.org/2000/svg" viewBox="0 0 136.52 56.87">
  <defs>
    <style>
      .cls-1 {
        fill: #fff;
      }
    </style>
  </defs>
  <g id="Espalda">
    <g>
      <path class="cls-1" d="M107.3,19.79c2.71,0,5.16.75,7.2,2.6.22.19.42.4.6.62.66.8.7,1.49.17,2.39-.48.81-1.12,1.5-1.82,2.13-.5.45-1.27.51-1.87.17-.36-.21-.71-.43-1.05-.66-1.76-1.21-3.62-1.36-5.53-.43-1.86.89-2.62,2.54-2.78,4.52-.12,1.56.17,3.04.8,4.47,1.3,2.95,5.01,3.8,7.49,1.74.41-.35.82-.7,1.29-.98.59-.37,1.2-.36,1.78.02.83.56,1.51,1.27,2.03,2.14.36.6.34,1.17-.07,1.76-1.52,2.16-3.66,3.26-6.2,3.79-5.07,1.07-10.44-1.44-12.69-6.09-1.4-2.89-1.52-5.92-.87-9.02.6-2.87,1.93-5.27,4.4-6.93,2.14-1.45,4.52-2.22,7.12-2.2v-.02Z"/>
      <path class="cls-1" d="M117.73,43.59c3.03-5.83,6.04-11.62,9.05-17.41-.19-.12-.37-.07-.54-.07h-5.63c-.34,0-.69,0-1.01-.1-.52-.16-.86-.5-.89-1.04-.05-1.03-.08-2.05-.05-3.08.02-.91.45-1.29,1.37-1.32,2.54-.05,5.09-.1,7.62-.11,2.9-.02,5.81,0,8.88,0-2.92,5.93-5.77,11.69-8.66,17.55h6.16c1.09,0,1.64.53,1.67,1.61.01.85.02,1.69,0,2.55-.02.82-.56,1.35-1.37,1.38-5.45.14-10.9.05-16.35.07-.05,0-.1-.01-.23-.04h-.01Z"/>
      <path class="cls-1" d="M67.38,18.38c-1.16-2.98-3.2-5.19-6.22-6.41-2.02-.82-4.18-.95-6.31-1.1-3.76-.27-7.54-.24-11.31-.36-.47-.01-.56.13-.56.58.01,5.3,0,10.61,0,15.91s0,10.61-.01,15.91c0,.48.16.63.6.63,1.4,0,2.81.05,4.22.02,3.04-.04,6.1.14,9.13-.23,4.88-.6,8.48-3.1,10.37-7.61,2.4-5.71,2.31-11.56.06-17.33h.02ZM60.73,34c-1.03,2.2-2.9,3.33-5.3,3.59-1.75.18-3.5.06-5.24.11-.41,0-.36-.23-.36-.48v-10.12c-.06-3.39-.14-6.79-.02-10.17,0-.21-.07-.47.29-.43,2.21.19,4.45.1,6.62.6,2.13.5,3.59,1.82,4.35,3.84,1.68,4.4,1.69,8.78-.33,13.07Z"/>
      <path class="cls-1" d="M93.68,29.83c-.36-2.63-1.22-5.07-3.15-6.96-3.06-3-6.78-3.91-10.92-3.08-3.44.69-6.11,2.51-7.67,5.74-1.63,3.38-1.93,6.9-.97,10.53.74,2.79,2.23,5.05,4.8,6.45,2.98,1.63,6.16,2.04,9.47,1.27,2.91-.69,5.32-2.11,6.89-4.72,1.28-2.14,1.67-4.51,1.69-6.95,0-.76-.04-1.51-.13-2.27h0ZM85.43,37.19c-1.75,1.93-4.77,2.01-6.62.17-1.5-1.5-2.14-3.33-2.14-5.77.02-1.35.54-2.87,1.56-4.23,1.93-2.57,5.38-2.67,7.44-.19,2.38,2.86,2.27,7.26-.23,10.03h-.01Z"/>
      <path class="cls-1" d="M37.13,12.39c-.35-.4-.79-.69-1.22-.98-5.18-3.56-10.37-7.13-15.74-10.4C19.17.39,18.15,0,16.96.04c-2.79.13-5.59-.05-8.38-.01C6.32.06,4.07-.1,1.81.12.99.19.46.66.21,1.43c-.17.52-.21,1.06-.21,1.61v20.18h.01v20.35c0,.79.19,1.47.6,2.15,2.08,3.33,4.28,6.58,6.67,9.71.79,1.03,1.82,1.39,2.95,1.4,7.9.05,15.8.02,23.7,0,.56,0,1.12-.04,1.67-.11,1.3-.17,1.99-.85,2.19-2.15.1-.6.17-1.22.17-1.82.01-12.72.01-25.44.02-38.16,0-.86-.31-1.58-.87-2.21h.01ZM18.39,1.83c0-.11.02-.21.06-.45,5.86,3.58,11.55,7.27,17.08,11.25-.18.19-.37.11-.54.12h-13.1c-.41,0-.83-.04-1.24-.1-1.44-.23-2.23-1.12-2.26-2.71-.04-2.71-.01-5.41-.01-8.12h.01ZM8.46,52.91c-.01.6,0,1.21,0,1.81-.05,0-.11.02-.16.02-1.3-1.68-2.54-3.39-3.73-5.15-1.04-1.52-2.03-3.06-2.98-4.63-.21-.34-.19-.45.24-.45,1.35.02,2.71-.06,4.05.05,1.43.11,2.11.79,2.37,2.2.36,2.04.29,4.08.23,6.14h-.01ZM36.71,53.89c-.02,1.24-.31,1.55-1.53,1.7-.42.06-.86.07-1.29.07-7.83,0-15.66,0-23.5.02-.58,0-.72-.19-.72-.71.02-1.84.04-3.68.05-5.52,0-1.14-.12-2.27-.39-3.38-.37-1.58-1.72-2.69-3.33-2.73-1.4-.02-2.81-.04-4.22,0-.46,0-.56-.12-.56-.57.01-6.64,0-13.27,0-19.92V3.27c0-1.87.16-2.04,2.03-2.03,4.43.02,8.88.06,13.31.07.45,0,.57.12.56.58-.02,2.38,0,4.76,0,7.14,0,.56.04,1.12.14,1.67.4,2.08,1.61,3.1,3.88,3.27.41.04.83.02,1.24.02h13.53c.56,0,.85.28.85.83,0,11.67-.02,23.35-.02,35.02,0,1.35.01,2.71-.01,4.06h-.01Z"/>
      <path class="cls-1" d="M13.77,28.33c0,2.05-.02,4.11,0,6.17.02,1.46.25,2.91,1.34,4,1.5,1.5,3.36,1.91,5.34,1.32,1.98-.6,3.02-2.14,3.36-4.13.57-3.39.46-6.82.36-10.25-.04-1.28-.13-2.56.07-3.83.12-.74.53-1.14,1.28-1.24,1.34-.21,2.69-.19,4.04,0,.62.1.99.46,1.1,1.09.13.8.18,1.61.18,2.43,0,3.65.02,7.28,0,10.93-.02,2.32-.48,4.51-2.04,6.34-1.24,1.47-2.89,2.32-4.68,2.89-4.16,1.34-8.26,1.11-12.23-.68-2.89-1.29-4.39-3.68-4.84-6.76-.18-1.2-.24-2.4-.23-3.61v-10.71c0-1.3.47-1.79,1.8-1.92,1.23-.12,2.45-.11,3.67.01,1.06.11,1.47.51,1.49,1.59.02,2.13,0,4.25,0,6.39h-.01Z"/>
    </g>
  </g>
</svg>