<?xml version="1.0" encoding="UTF-8"?>
<svg id="Capa_2" data-name="Capa 2" xmlns="http://www.w3.org/2000/svg" viewBox="0 0 150.74 36.47">
  <defs>
    <style>
      .cls-1 {
        fill: #fff;
      }
    </style>
  </defs>
  <g id="Espalda">
    <g>
      <path class="cls-1" d="M107.36,20.11c6.76-7.81,1.36-19.59-8.72-20.11h-20.83v36.47h7.93V8.29l.22-.22h12.83c.62,0,2.09.88,2.52,1.37,2.26,2.54.31,6.85-2.95,6.85h-11.6l13.69,20.18h9.8l-8.5-12.61c2.15-.86,4.1-1.98,5.63-3.75Z"/>
      <path class="cls-1" d="M50.59,29.06s-.12-.1-.2-.08v-6.97l.12-.12h16.47s.14-.12.16-.16v-7.24s-.14-.16-.16-.16h-16.43v-7.05l.12-.12h19.93l.12-.12V.2l-.23-.16-26.99-.04-.41.1-.1.49.07,35.69.28.11h27.11s.43-.08.43-.08v-7.13l-.12-.12h-20.17Z"/>
      <path class="cls-1" d="M28.22.55l-10.24,20.16L8.88.71H.09C0,.71-.01.85,0,.95c.05.24.59,1.23.74,1.55,5.49,11.33,11.42,22.46,16.94,33.79l.21.18L36.3.75l-.12-.19h-7.96Z"/>
      <path class="cls-1" d="M150.68,36.02c-.39-1.07-1.52-2.87-2.1-3.96-5.31-9.91-10.51-19.94-16.02-29.74-.16-.28-.49-.99-.64-1.17-.08-.09-.15-.13-.27-.12l-18.48,35.29h8.63l9.77-19.29c.14-.03.34.41.42.53,1.36,2.18,2.56,4.55,3.87,6.77l-.11.18h-4.14l-3.28,6.29h8.93c.06,0,.13,0,.19,0h.63c.16.02.33.02.49.02l2.93,5.5h9.26c.02-.11-.03-.19-.06-.29Z"/>
    </g>
  </g>
</svg>