<?xml version="1.0" encoding="UTF-8"?>
<svg id="Capa_2" data-name="Capa 2" xmlns="http://www.w3.org/2000/svg" viewBox="0 0 133.1 39.96">
  <defs>
    <style>
      .cls-1 {
        fill: #fefefe;
      }

      .cls-2 {
        fill: #fdfdfd;
      }
    </style>
  </defs>
  <g id="Espalda">
    <g>
      <path class="cls-1" d="M74.2,23.93c.09.09-.06,1.82,0,2.19,2.49-3.39,8.53-3.39,10.29.66.62-.29.84-.97,1.33-1.41,3.56-3.15,9.46-1.91,10.61,2.93.07.28.32,1.69.32,1.87v9.52h-5.03v-9.52c0-.13-.79-1.42-1.01-1.61-1.35-1.19-3.97-.81-4.87.77-.09.15-.47,1.2-.47,1.28v9.08h-4.71s-.33-.31-.33-.33v-9.63c0-1.1-2.37-1.98-3.4-1.87s-2.73,1.25-2.73,2.3v9.52h-5.03v-15.76c.69.13,4.86-.18,5.03,0Z"/>
      <path class="cls-1" d="M5.91.29l3.72,12.04L13.9.29h5.58l-6.23,17.52c-.47.47-5.66.16-6.68.11l-.39-.49L0,.29h5.91Z"/>
      <path class="cls-1" d="M57.78,26.34v-4.6c0-.15,2.85.18,2.85-.77v-6.24l-6.51,1.71c-.77.06-.58-2.92-.39-3.24.55-.91,5.75-3.3,6.78-4.38.59-2.67-1.32-8.88,3.06-8.77,1.73.04,2.65,1.31,2.75,2.96-.46,5.77.61,12.45-.07,18.11-.25,2.08-1.2,3.88-3.22,4.65-.39.15-1.77.55-2.08.55h-3.17Z"/>
      <path class="cls-1" d="M132.86,29.18h-4.82s0-.54-.17-.81c-1.81-3.11-6.56-.11-2.74,1.42,2.67,1.06,7.25.81,7.89,4.59,1.26,7.5-13.68,7.35-13.95.06h4.82s0,.55.17.81c1.25,2.03,4.94,1.58,4.4-.43-.58-2.15-8.62-.97-9.16-5.52-.93-7.85,12.86-7.27,13.57-.11Z"/>
      <rect class="cls-1" x="22.76" y=".29" width="5.47" height="17.73"/>
      <path class="cls-2" d="M110.75,15.18v3.39c0,.38-6.15,2.73-7,2.95v-3.28l7-3.06Z"/>
      <path class="cls-1" d="M82.73.29v2.85c-3.26-4.87-10.43-3.82-12.7,1.42-3.37,7.76,2.69,17.08,11.15,12.24l1.55-1.84c.11.59-.28,2.88.33,3.06,1.09.34,3.85-.25,5.14,0V.29h-5.47ZM82.24,11.29c-1.24,2.6-5.09,2.85-6.73.5-1.37-1.96-.76-6.3,1.91-6.85,4.03-.82,6.52,2.78,4.82,6.35Z"/>
      <path class="cls-1" d="M111.19,23.93v2.41s-1.81-1.8-1.81-1.8c-13.95-5.6-13.53,20.57.26,14.38l1.54-1.63v2.41h5.04v-15.76h-5.03ZM111.17,33c-.23,1.46-1.98,2.69-3.4,2.73-4.47.12-5.03-7.26-.58-7.8,3.13-.38,4.41,2.3,3.98,5.07Z"/>
      <path class="cls-1" d="M45.53.29v2.85c-1.23-1.48-2.48-2.78-4.51-3.05-12.14-1.61-12.38,19.89.4,17.88,1.79-.28,3.07-1.68,4.1-3.01.11.59-.28,2.88.33,3.06.65.2,3.83,0,4.82,0,.02,0,.33-.31.33-.33V.29h-5.47ZM45.25,10.63c-.88,2.88-4.69,3.76-6.65,1.63-1.81-1.96-1.22-6.88,1.8-7.35,3.69-.57,5.91,2.22,4.85,5.72Z"/>
    </g>
  </g>
</svg>