<?xml version="1.0" encoding="UTF-8"?>
<svg id="Capa_2" data-name="Capa 2" xmlns="http://www.w3.org/2000/svg" viewBox="0 0 516.77 155.14">
  <defs>
    <style>
      .cls-1 {
        fill: #fefefe;
      }
    </style>
  </defs>
  <g id="Capa_1-2" data-name="Capa 1">
    <g>
      <path fill="#FFFFFF" d="M333.19,98.5c-1.9,1.69-2.72,4.32-5.15,5.46-6.82-15.7-30.27-15.71-39.95-2.55-.26-1.42.32-8.17,0-8.5-.69-.69-16.88.52-19.55,0v61.19h19.55v-36.97c0-4.11,6.68-8.53,10.61-8.95,4.01-.42,13.19,2.99,13.19,7.25v37.39c0,.09,1.18,1.27,1.27,1.27h18.27v-35.27c0-.31,1.47-4.4,1.81-4.99,3.48-6.1,13.64-7.6,18.89-2.97.87.76,3.94,5.73,3.94,6.26v36.97h19.55v-36.97c0-.71-.97-6.17-1.23-7.27-4.46-18.79-27.38-23.61-41.2-11.36Z"/>
      <path fill="#FFFFFF" d="M37.4,47.88L22.94,1.14H0l23.99,66.52,1.5,1.9c3.99.22,24.15,1.43,25.95-.41L75.63,1.14h-21.67l-16.56,46.74Z"/>
      <path fill="#FFFFFF" d="M257.53,11.73c-.36-6.4-3.95-11.34-10.66-11.5-17.04-.41-9.62,23.69-11.9,34.05-4.01,4.19-24.21,13.48-26.34,17-.76,1.26-1.5,12.81,1.51,12.6l25.26-6.65v24.22c0,3.66-11.05,2.38-11.05,2.97v17.85h12.32c1.19,0,6.56-1.56,8.06-2.14,7.85-2.99,11.55-10,12.52-18.07,2.65-21.98-1.51-47.93.27-70.33Z"/>
      <path fill="#FFFFFF" d="M516.48,133.48c-2.46-14.67-20.25-13.69-30.62-17.82-14.86-5.91,3.58-17.56,10.62-5.49.62,1.06.49,3.14.65,3.14h18.7c-2.75-27.8-56.28-30.06-52.69.42,2.08,17.66,33.31,13.1,35.56,21.44,2.12,7.81-12.23,9.57-17.08,1.68-.63-1.03-.48-3.15-.64-3.15h-18.7c1.07,28.31,59.07,28.9,54.18-.23Z"/>
      <rect fill="#FFFFFF" x="88.38" y="1.14" width="21.25" height="68.83"/>
      <path fill="#FFFFFF" d="M430,72.1v-13.17l-27.19,11.9v12.75c3.32-.86,27.19-9.99,27.19-11.47Z"/>
      <path fill="#FFFFFF" d="M315.2,65.22l6.02-7.14c.41,2.3-1.07,11.17,1.28,11.89,4.22,1.3,14.95-.97,19.97,0V1.14h-21.25v11.05c-12.67-18.91-40.49-14.84-49.31,5.5-13.07,30.12,10.45,66.32,43.29,47.54ZM300.6,19.18c15.65-3.19,25.3,10.79,18.7,24.64-4.81,10.09-19.76,11.05-26.12,1.94-5.32-7.63-2.95-24.47,7.42-26.58Z"/>
      <path fill="#FFFFFF" d="M431.69,102.26l-7.01-7c-54.17-21.74-52.55,79.87,1.01,55.82l5.99-6.32v9.34h19.55v-61.19h-19.55v9.34ZM431.65,128.13c-.88,5.66-7.7,10.45-13.2,10.6-17.35.46-19.51-28.18-2.24-30.3,12.14-1.49,17.1,8.93,15.44,19.7Z"/>
      <path fill="#FFFFFF" d="M176.75,12.19c-4.75-5.73-9.62-10.78-17.48-11.83-47.12-6.26-48.06,77.23,1.57,69.41,6.93-1.09,11.91-6.53,15.92-11.69.41,2.3-1.07,11.17,1.28,11.9,2.51.78,14.88,0,18.7,0,.09,0,1.27-1.18,1.27-1.27V1.14h-21.25v11.05ZM175.67,41.27c-3.4,11.19-18.19,14.6-25.81,6.32-7.01-7.62-4.74-26.72,6.98-28.54,14.32-2.23,22.96,8.63,18.83,22.23Z"/>
    </g>
  </g>
</svg>