<?xml version="1.0" encoding="UTF-8"?>
<svg id="Capa_2" data-name="Capa 2" xmlns="http://www.w3.org/2000/svg" viewBox="0 0 110.73 56.22">
  <defs>
    <style>
      .cls-1 {
        fill: #fff;
      }
    </style>
  </defs>
  <g id="Espalda">
    <g>
      <path class="cls-1" d="M108.29,2.6c-.19.57-.46,1.08-.89,1.49-.5.47-.99.96-1.55,1.33-.68.45-1.42.81-2.15,1.18-.4.2-.83.36-1.26.5-.86.28-1.73.56-2.61.81-1.24.35-2.48.69-3.72.98-1.23.29-2.47.53-3.71.79-1.14.24-2.28.45-3.41.7-.94.21-1.89.41-2.81.71-1.35.45-2.67,1-3.9,1.73-1.16.69-2.23,1.52-3.12,2.52-.64.73-1.16,1.57-1.65,2.42-.82,1.4-1.25,2.93-1.52,4.53-.27,1.61-.2,3.2-.1,4.81.36-.52.68-1.1,1.11-1.55.55-.58,1.17-1.12,1.83-1.59.64-.46,1.34-.82,2.03-1.19.34-.18.7-.31,1.07-.43.53-.17,1.06-.34,1.6-.45,1.25-.26,2.5-.51,3.76-.72.93-.15,1.87-.25,2.81-.35,1.24-.13,2.47-.24,3.71-.37,1.07-.11,2.14-.22,3.2-.39,1.22-.2,2.45-.4,3.64-.71,1.47-.39,2.91-.91,4.23-1.69,1.01-.6,1.95-1.29,2.69-2.22.63-.79,1.33-1.55,1.83-2.42.44-.77.68-1.66.96-2.52.51-1.54.34-3.13.32-4.74,0,.01,0,.02.01.03-.64-1.97-1.36-3.91-2.17-5.8,0,.01,0,.02.01.03.33.9.03,1.73-.25,2.57Z"/>
      <path class="cls-1" d="M108.53,54.96c-.35-.38-.69-.67-.95-1.03-.61-.84-.94-1.79-.95-2.83-.03-3.56-.04-7.12-.1-10.68-.02-1.39-.07-2.79-.23-4.17-.12-1-.38-2-.7-2.96-.25-.76-.6-1.51-1.04-2.17-.6-.91-1.37-1.68-2.28-2.31-1.02-.72-2.12-1.29-3.31-1.59-1.13-.28-2.29-.4-3.45-.54-2.59-.31-5.18-.32-7.78-.17-1.2.07-2.41.16-3.59.39-1.59.32-3.1.93-4.3,2.07-.56.53-.98,1.19-1.22,1.95-.25.79-.35,1.6-.22,2.41.26,1.63,1,2.97,2.41,3.88.25.17.54.29.83.39,1.2.41,2.41.55,3.66.21.1-.03.2-.04.31-.05,1.17-.12,2.19-.62,3.16-1.23.28-.18.51-.45.75-.69.19-.18.09-.39-.05-.51-.63-.57-1.13-1.25-1.51-1.99-.51-1.01-.64-2.07-.23-3.18.3-.8.78-1.38,1.55-1.74.64-.3,1.32-.28,1.98-.16.97.18,1.74.68,2.23,1.59.31.59.58,1.18.58,1.85,0,1.24.03,2.5-.1,3.73-.08.75-.58,1.38-1.13,1.94-.8.82-1.78,1.32-2.83,1.73-1.2.47-2.42.84-3.69,1.08-1.19.22-2.38.47-3.56.76-.72.18-1.44.39-2.12.7-1.11.5-2.09,1.16-2.77,2.25-.62.99-.99,2.02-1.14,3.18-.15,1.16.04,2.28.29,3.37.2.87.63,1.68,1.18,2.43.84,1.12,1.91,1.89,3.18,2.44,1.09.48,2.24.64,3.41.78.94.11,1.86-.02,2.77-.17.85-.14,1.64-.49,2.41-.91,1.04-.57,1.88-1.37,2.64-2.24.48-.55.82-1.21,1.23-1.82.1-.15.18-.3.26-.43.12.55.21,1.1.36,1.64.37,1.3,1.17,2.22,2.43,2.76.68.29,1.38.43,2.1.44,2.92.05,5.84.07,8.77.1.16,0,.31,0,.55,0l.24-.54ZM92.12,50.41c-.72.51-1.5.7-2.33.53-.71-.14-1.3-.51-1.71-1.18-.54-.88-.68-1.8-.53-2.77.11-.74.51-1.37,1.01-1.9.67-.7,1.38-1.36,2.09-2.01.61-.55,1.3-1.03,1.9-1.59.55-.51,1.02-1.1,1.58-1.71,0,.39,0,.73,0,1.06,0,1.94-.01,3.88.01,5.81.02,1.64-.72,2.84-2.02,3.76Z"/>
      <path class="cls-1" d="M73.52,53.11c-.45-1.04-.64-2.15-.64-3.28,0-3.19,0-6.38,0-9.56,0-2.39,0-4.79,0-7.18,0-1.24-.25-2.43-.97-3.44-.99-1.4-2.38-2.18-4.13-2.2-3.24-.03-6.48-.02-9.72-.03-.07,0-.15.04-.19.05.4.3.82.56,1.17.89.79.74,1.14,1.71,1.29,2.75.09.61.1,1.24.1,1.87.01,5.18.01,10.36.02,15.54,0,.32-.06.59-.32.83-.28.26-.5.57-.75.86-.46.55-1.08.86-1.74,1.06-.65.2-1.3.15-1.95-.16-.91-.44-1.49-1.16-1.84-2.04-.32-.79-.45-1.63-.45-2.5.02-4.27.03-8.54.01-12.8,0-.76-.14-1.53-.21-2.29-.07-.78-.3-1.5-.79-2.12-.29-.36-.56-.8-.95-1.03-.54-.33-1.16-.56-1.78-.72-.57-.14-1.18-.17-1.77-.17-3.12-.01-6.25,0-9.37,0-.1,0-.21.02-.37.03.24.18.41.34.6.45.72.42,1.19,1.05,1.55,1.77.47.95.62,1.98.63,3.02.03,4.75.01,9.5.02,14.25,0,.99.05,1.98.33,2.95.28.95.71,1.81,1.3,2.59.93,1.23,2.15,2.11,3.54,2.74,1.41.64,2.92.94,4.45,1,.93.04,1.88-.09,2.8-.26,1.17-.22,2.3-.6,3.31-1.27.63-.42,1.31-.78,1.85-1.29.61-.57,1.09-1.28,1.62-1.94.11-.14.23-.28.33-.4.18.54.31,1.07.53,1.57.6,1.42,1.71,2.29,3.18,2.63.76.18,1.56.25,2.35.25,2.86.03,5.73,0,8.59,0,.15,0,.3,0,.45,0l.02-.1s-.07-.07-.11-.09c-.98-.44-1.58-1.27-1.99-2.21Z"/>
      <path class="cls-1" d="M36.02,32.05c-.07-.82-.34-1.56-.77-2.27-.55-.9-1.32-1.52-2.26-1.93-.78-.34-1.61-.42-2.46-.42-3.51.01-7.03.02-10.54.02-.1,0-.21.02-.24.02.5.34,1.04.68,1.54,1.05.75.56,1.36,1.28,1.79,2.09.43.81.74,1.69,1.06,2.55.36.95.69,1.92,1.03,2.88.36,1.03.72,2.06,1.08,3.09.34.97.68,1.93,1.02,2.89.37,1.06.74,2.13,1.1,3.2.29.84.56,1.68.84,2.52.14.41.27.83.43,1.23.4.97.68,1.96.44,3.01-.14.61-.48,1.13-1.04,1.46-.67.39-1.41.46-2.17.46-1.05,0-1.97-.35-2.55-1.21-.45-.69-.73-1.5-1.03-2.28-.39-.99-.73-2-1.09-3-.47-1.33-.94-2.67-1.41-4-.33-.91-.68-1.82-1-2.73-.41-1.17-.8-2.35-1.2-3.52-.15-.44-.29-.88-.45-1.31-.3-.83-.63-1.65-.91-2.49-.28-.85-.67-1.64-1.19-2.36-.63-.88-1.39-1.64-2.32-2.24-1.17-.75-2.41-1.28-3.79-1.3-3.32-.04-6.64-.01-9.95-.01.94.44,1.72,1.1,2.37,1.89.78.94,1.29,2.04,1.72,3.17.38,1,.72,2.03,1.09,3.04.32.88.67,1.76,1,2.64.38,1.01.74,2.02,1.12,3.02.32.85.68,1.69,1,2.54.52,1.36,1.02,2.72,1.55,4.08.41,1.06.87,2.11,1.27,3.17.35.94.9,1.76,1.58,2.47.81.84,1.81,1.45,2.95,1.69.97.2,1.97.25,2.97.31.56.04,1.12-.06,1.68-.06.36,0,.72.07,1.08.07,1.97-.02,3.95-.03,5.92-.09,1.8-.05,3.57-.25,5.2-1.14.72-.4,1.37-.88,1.88-1.51.71-.89,1.14-1.94,1.34-3.03.24-1.31.42-2.64.44-3.97.06-3.93.03-7.86.02-11.79,0-.64-.1-1.28-.15-1.91Z"/>
    </g>
  </g>
</svg>