<?xml version="1.0" encoding="UTF-8"?>
<svg id="Capa_2" data-name="Capa 2" xmlns="http://www.w3.org/2000/svg" viewBox="0 0 179.71 59.48">
  <defs>
    <style>
      .cls-1 {
        fill: #fff;
      }
    </style>
  </defs>
  <g id="Espalda">
    <g>
      <path class="cls-1" d="M61.53,22.12l-4.48-8.27c-.13-.24-.3-.47-.49-.68l-5.67-6.26c-.42-.47-.96-.81-1.57-1L30.59.15c-1.66-.5-3.44.28-4.2,1.84l-2.41,5.02c-.24.03-.47.11-.68.23l-10.9,6.27c-.89.51-1.65,1.2-2.24,2.03L.72,29c-1.26,1.8-.82,4.27.97,5.53,1.15.81,2.64.95,3.92.36l1.8-.82,2.26,12.88c.16.91.95,1.58,1.87,1.58h8.38c.71,0,1.36-.39,1.69-1.02l3.86-7.38,4.07-.44,2.55,7.55c.26.77.99,1.29,1.8,1.29h7.34c.88,0,1.64-.6,1.84-1.45l4.23-17.48,2.47-.75-.42,11.91c-.02.76.4,1.47,1.08,1.82l4.81,2.43c1.87.94,4.14.19,5.08-1.67.06-.12.11-.24.16-.36l.26-.68c.53-1.36.31-2.9-.58-4.07l-.97-1.27,2.69-12.46c.18-.82.06-1.68-.34-2.41M39.73,44.72h-4.49l-2.6-7.7c-.29-.84-1.12-1.38-2.01-1.28l-6.58.76c-.63.07-1.18.45-1.47,1.02l-3.81,7.23h-5.63l-2.41-13.73c-.18-1.03-1.16-1.72-2.2-1.54-.16.03-.31.08-.46.14l-4.03,1.83c-.06.03-.12.05-.2-.05s-.05-.15,0-.21l9.44-13.44c.27-.38.62-.7,1.02-.94l9.01-5.16v4.69c0,1.37.55,2.69,1.53,3.66l9.43,9.35c1.07,1.07,2.56,1.6,4.07,1.47l4.89-.43-3.48,14.32ZM55.66,38.59l1.48,1.95c.09.12.11.27.06.4l-.23.68-3.76-1.9.47-13.31c.04-1.08-.81-1.99-1.89-2.03-.22,0-.43.02-.64.08l-6.44,1.97-6.67.59c-.4.05-.81-.08-1.1-.36l-9.44-9.37c-.26-.25-.4-.6-.4-.96v-7l2.62-5.47,18.41,5.67,5.6,6.17,4.41,8.13-2.84,13.17c-.13.56,0,1.14.34,1.6"/>
      <path class="cls-1" d="M139.13,43.3c-1.45-.45-2.45-1.8-2.45-3.32V13.99c0-1.04-.84-1.89-1.88-1.9,0,0,0,0,0,0h-1.54c-1.04,0-1.89.85-1.89,1.89v25.99c0,3.94,2.62,7.4,6.41,8.47,1.41.4,2.87-.41,3.28-1.82.01-.05.03-.1.04-.16.28-1.4-.58-2.78-1.95-3.16"/>
      <path class="cls-1" d="M152.44,43.3c-1.46-.45-2.45-1.79-2.45-3.32V13.99c0-1.04-.84-1.89-1.88-1.9,0,0,0,0-.01,0h-1.54c-1.04,0-1.89.85-1.89,1.89v25.99c0,3.94,2.62,7.4,6.41,8.47,1.41.4,2.88-.42,3.28-1.83.01-.05.03-.1.04-.15.27-1.4-.58-2.78-1.95-3.16"/>
      <path class="cls-1" d="M125.01,22.49h-1.54c-1.04,0-1.89.85-1.89,1.89v1.33c-1.66-1.82-4.13-2.92-7.66-2.92-5.86,0-10.62,5.76-10.62,12.88s4.75,12.88,10.62,12.88c3.52,0,6-1.09,7.66-2.92v1.02c0,1.04.85,1.89,1.89,1.89h1.54c1.04,0,1.89-.85,1.89-1.89h0v-22.26c0-1.04-.84-1.89-1.88-1.89,0,0,0,0,0,0M115.77,43.45c-3.95,0-7.15-3.44-7.15-7.69s3.2-7.69,7.15-7.69c2.35.02,4.54,1.23,5.81,3.21v8.97c-1.28,1.98-3.46,3.18-5.81,3.21"/>
      <path class="cls-1" d="M178.4,23.45l-.74-.34c-1.13-.52-2.46-.03-2.98,1.1,0,0,0,0,0,0l-7.2,15.63-8.03-15.72c-.56-1.11-1.92-1.55-3.03-.98l-.73.37c-1.11.57-1.54,1.92-.98,3.03l9.93,19.44-4.59,9.96c-.52,1.13-.03,2.47,1.1,2.99l.74.34c1.13.52,2.46.04,2.99-1.09l14.62-31.74c.52-1.13.03-2.46-1.1-2.98,0,0,0,0,0,0"/>
      <path class="cls-1" d="M86.84,23.05c1.07,0,2.01.71,2.29,1.75l4.07,14.67,3.45-15.61c.19-.76.87-1.3,1.66-1.29.14,0,.27.02.41.05l1.61.4c.43.11.8.39,1.03.77.24.39.31.85.2,1.29l-5.13,20.72c-.48,1.87-2.38,2.99-4.25,2.52-1.21-.31-2.17-1.25-2.5-2.46l-3.49-14.96-3.49,14.96c-.51,1.86-2.44,2.95-4.3,2.43-1.2-.33-2.14-1.28-2.45-2.49l-5.13-20.72c-.23-.91.32-1.83,1.23-2.06,0,0,.01,0,.02,0l1.61-.41c.91-.23,1.83.32,2.06,1.23,0,0,0,0,0,.01l3.45,15.61,4.07-14.67c.28-1.03,1.22-1.75,2.29-1.75h1.3Z"/>
    </g>
  </g>
</svg>