<?xml version="1.0" encoding="UTF-8"?>
<svg id="Capa_2" data-name="Capa 2" xmlns="http://www.w3.org/2000/svg" viewBox="0 0 212.12 58.46">
  <defs>
    <style>
      .cls-1 {
        fill: #fff;
      }
    </style>
  </defs>
  <g id="Espalda">
    <g>
      <path class="cls-1" d="M23.6,42.43c-.15.46-1.45-.03-1.59-.25-.21-.34.2-.59.26-.88.21-1.09-.32-2.31-1.37-2.71-.93-.36-1.83-.12-2.77-.2-.43-.04-.91-.29-1.23-.31-.22-.01-.17.08-.16.26.05,1.19,1.3,3.62,2.46,4.09.85.34,1.18.08,1.92-.03.5-.07.84.3,1.29.51.37.17.88.1,1.07.57l-.08,14.97c-1.48-.53-2.98-1.04-4.31-1.88C12.6,53.73.72,46.95.14,39.06c-.36-4.85.1-10.45.11-15.35.02-6.77-.15-13.53,0-20.28,0-.24-.12-.46-.11-.71C.17,1.28,1.5.18,2.85,0h44.58c1.02.09,1.91,1.43,2,2.41v36.65c-.57,8.27-13.85,15.56-20.6,18.42-.51.22-1.9.87-2.33.95-.15.03-.3.06-.44-.02v-23.8h12.45c1.08,0,3.41-1.63,3.99-2.57.11-.18.35-.96.39-1,.06-.06.27.03.29-.08.03-.14-.04-.34,0-.5.11-.48.33-.91.4-1.44.42-3-1.1-5.57-3.72-6.93-.27-.14-.71-.11-.9-.44-.12-.21-.17-.99-.27-1.36-.93-3.44-4.51-5.43-7.96-4.52-.36.09-1.02.48-1.32.39-.14-.04-1.06-1.41-1.3-1.68-4.16-4.72-11.74-3.61-14.57,1.93-.84,1.65-.95,3.26-.95,5.09-2.34.52-4.47,2.05-5.26,4.37-1.21,3.6,1.09,8.18,5.04,8.52,3.39.29,7.29-.33,10.66,0,.28.03.56.13.56.46v7.57Z"/>
      <g>
        <path class="cls-1" d="M170.23,18.28c1.11-.33,9.01-.2,10.51-.03,6.84.79,8.25,9.61,2.61,12.2-1.08.49-2.89-.1-1.81,1.97.91,1.26,4.94,5.71,5.01,6.87.06.92-.48,1.28-1.35,1.02-1.01-.3-4.94-6.84-6.28-8.08-.92-.85-4.93-.8-6.27-.62-2.29.3-1.01,3.37-1.05,4.85-.05,1.86-.66,6.23-2.23,2.51.62-6.02-.78-13.53,0-19.36.08-.61.18-1.13.86-1.33ZM173.02,20.5c-2.41.15-1.17,2.28-1.12,3.78.03.94-.27,4.64.28,5.02.4.28,6.97.21,7.9.06,5.52-.86,5.56-8.12,1.02-8.66-1.7-.2-6.36-.31-8.08-.2Z"/>
        <path class="cls-1" d="M71.41,31.31c-1.2,1.62-5.94,8.86-7.4,9.29-1.15.34-1.87-.13-1.65-1.32,1.83-3.76,5.13-6.59,7.46-10.04.03-.19-1.72-2.81-2.02-3.21-1.09-1.48-4.32-4.56-4.97-5.95-.56-1.19.03-2.85,1.49-2.44,1.5.42,5.8,7.62,7.28,8.98.27.06,2.42-2.32,2.79-2.78s.46-1.04.77-1.42c.51-.63,2.96-3.74,3.26-3.91,1.23-.71,2.17-.39,2.07,1.11-.14,2.14-6.52,7.89-6.57,9.35-.03,1.06,6.28,8.15,7.32,9.52.45.84.09,2.09-.95,2.18-2.34.22-6.36-7.26-8.12-9.03-.26-.26-.28-.45-.75-.33Z"/>
        <path class="cls-1" d="M105.84,28.08c-3.41-3.25-1.77-8.66,2.64-10.07,2.62-.84,8.1-.55,10.05,1.6.79.86,1.07,2.17-.32,2.54-.43.11-3.39-1.61-4.74-1.85-3.49-.62-8.77,1.01-6.14,5.2,1.91,3.04,11.57,1.99,12.68,6.97,1.85,8.28-7.11,9.75-13.04,7.41-1.22-.48-4.36-2.08-3.6-3.58.93-1.85,3.68.86,4.88,1.36,2.89,1.21,8.68,1.48,9.26-2.54.71-4.94-8.69-4.18-11.69-7.04Z"/>
        <path class="cls-1" d="M131.01,39.57c-.26,1.55-2.18.45-2.18,0v-20.89c0-.64,2.18-.64,2.18,0v8.73c0,.06.72.78.78.78h12.17c.47-.57.45-2.07.48-2.95.07-1.98-.16-3.9-.27-5.87.42-1.95,2.44-1.54,2.44-.7v21.2c0,.57-1.77.81-2.12-.38-.44-1.5.44-8.44-.36-9-3.54-.14-7.94-.93-11.43-.46-.51.07-1.7.71-1.7,1.11,0,2.34.35,6.32,0,8.42Z"/>
        <path class="cls-1" d="M201.22,20.71h-5.77c-1.81,0-2.09-2.81-.94-2.81h16.54c.09,0,1.13.99,1.07,1.36-.02.13-1.28,1.45-1.38,1.45h-6.24c-.71,0-.15,1.57-.14,2.01.12,5.5-.11,11.03-.02,16.53-.27,1.45-2.32,2.02-2.74.57-.05-.19-.38-2.01-.38-2.12v-16.99Z"/>
        <path class="cls-1" d="M157.44,17.65c3.43-.99,1.96,5.64,1.94,7.26-.03,2.96,1.04,13.65-.16,15.43-.96,1.42-2.84-.04-2.96-1.37.63-6.13-.78-13.73,0-19.67.09-.68.48-1.44,1.18-1.64Z"/>
        <path class="cls-1" d="M87.79,29.44h7.8c.87,0,.87,2.81,0,2.81h-7.8c-.82,0-1.19-2.4,0-2.81Z"/>
      </g>
    </g>
  </g>
</svg>